<svg width="500" height="500" viewBox="0 0 500 500" fill="none" xmlns="http://www.w3.org/2000/svg">
<g clip-path="url(#clip0_4_181)">
<path d="M458.507 373.202C427.308 366.631 365.411 373.032 330.106 447.745C330.106 447.745 269.736 375.655 185.855 362.989C189.147 322.878 136.023 312.215 125.859 243.207C125.859 243.207 84.589 209.403 63.954 156.168L74.942 159.699C74.942 159.699 58.897 141.923 46.56 111.285L58.176 115.122C58.176 115.122 46.424 99.1879 40.001 53.4819C182.377 151.447 257.383 117.261 343.979 166.277C402.754 199.58 416.754 238.248 421.675 276.848C421.675 276.848 465.185 316.28 458.508 373.2" fill="#FFFFFE"/>
<path d="M452.567 364.857C453.5 316.409 415.463 281.994 415.463 281.994C411.356 251.365 400.233 207.069 340.958 174.36C250.951 124.732 201.153 165.268 59.2612 78.314C62.2142 94.571 71.5642 117.067 83.4772 131.04L68.8072 126.227C79.4722 148.715 96.5522 169.114 105.495 175.736L89.0512 170.566C106.47 213.334 140.503 238.666 140.503 238.666C148.258 304.143 196.265 315.298 200.143 355.57C262.685 365.273 328.79 432.278 328.79 432.278C363.4 372.752 411.662 361.215 452.567 364.857Z" fill="black"/>
<path d="M372.47 280.586C358.869 302.488 335.875 296.384 327.678 269.075L344.257 270.085C329.722 261.384 316.52 248.582 306.313 235.967C303.309 296.299 360.056 323.38 378.825 281.01C376.704 280.993 374.583 280.849 372.47 280.586Z" fill="#FFFFFE"/>
<path d="M333.432 182.57C268.226 146.814 188.536 170.032 86.71 106.915C96.798 137.077 159.824 172.4 159.824 172.4L104.053 154.259C118.257 178.92 176.395 209.82 176.395 209.82L124.383 193.003C145.926 228.802 194.799 252.962 194.799 252.962L164.763 250.789C168.649 284.448 215.129 313.43 217.598 339.407C238.623 347.446 265.716 361.462 286.834 379.629C327.205 359.773 316.073 292.59 239.098 197.291C344.972 203.692 342.053 282.225 402.822 270.934C398.367 249.838 395.491 216.629 333.433 182.57" fill="#97233F"/>
<path d="M444.965 352.361C430.142 337.598 399.003 322.53 361.135 317.988C377.265 313.506 395.626 303.607 403.152 288.208C419.205 298.37 441.563 327.436 444.965 352.36V352.361ZM363.918 372.947C370.154 351.69 358.81 332.394 358.81 332.394C391.994 329.143 428.615 344.55 443.438 357.097C420.266 352.419 388.541 359.117 363.918 372.946V372.947Z" fill="#FFB612"/>
<path d="M372.47 280.586C358.869 302.488 335.875 296.384 327.678 269.075L344.257 270.085C329.722 261.384 316.52 248.582 306.313 235.967C303.309 296.299 360.056 323.38 378.825 281.01C376.704 280.993 374.583 280.849 372.47 280.586Z" fill="#FFFFFE"/>
</g>
<defs>
<clipPath id="clip0_4_181">
<rect width="500" height="500" fill="white"/>
</clipPath>
</defs>
</svg>
