<svg width="500" height="500" viewBox="0 0 500 500" fill="none" xmlns="http://www.w3.org/2000/svg">
<g clip-path="url(#clip0_4_210)">
<path d="M424.999 142.172C371.148 108.16 247.797 82.1451 155.789 60.7441L50 174.512L140.806 172.571C95.591 245.658 104.805 417.522 219.143 440.369C213.256 429.08 203.036 408.34 216.285 382.664C225.721 364.401 278.179 264.003 278.179 264.003H290.736C307.741 264.003 313.338 270.399 305.796 279.416C351.124 278.838 378.958 261.69 391.448 243.366C381.94 225.96 351.692 205.468 339.428 197.162H402.85C421.036 197.162 425.138 204.786 420.855 213.086C450.536 207.248 465.709 167.884 424.998 142.172" fill="#A5ACAF"/>
<path d="M417.755 145.641C344.407 104.48 162.789 77.0449 162.789 77.0449L84.989 160.425H165.652C106.095 239.159 119.292 398.093 206.874 431.134C200.662 416.356 197.515 399.203 208.711 377.378C221.346 352.766 241.456 311.394 270.265 256.162H293.775C313.287 256.162 319.524 264.416 316.878 270.786C332.923 270.786 362.258 269.212 383.545 243.366C365.813 218.579 307.179 189.677 307.179 189.677H407.767C422.548 189.677 429.936 194.937 427.893 203.846C453.591 191.292 446.91 161.999 417.755 145.641Z" fill="#FFFFFE"/>
<path d="M298.702 192.381C298.702 192.381 363.532 224.116 376.136 243.365C369.496 252.202 359.343 258.391 345.749 261.499C354.437 254.825 356.083 248.408 350.743 248.408H331.525C328.244 251.639 326.495 257.477 330.896 263.362C323.467 261.736 316.311 255.619 315.759 248.408H275.069C280.502 237.532 296.18 206.447 300.555 197.884L298.703 192.381H298.702ZM414.706 151.169C443.092 166.753 441.219 188.221 432.825 195.308C432.975 187.643 425.447 181.939 411.868 181.939H279.241L293.496 189.579C293.496 189.579 208.138 359.632 201.586 373.052C194.023 388.558 191.949 405.969 198.465 420.474C181.579 409.763 168.32 392.528 158.987 371.519L151.408 371.003L231.922 252.801C231.752 252.042 231.602 251.273 231.468 250.509L150.18 346.386C146.017 330.921 143.618 314.253 143.102 297.157L133.893 294.85L233.754 216.013C234.002 215.177 234.265 214.346 234.533 213.515L143.979 268.504C145.346 253.338 148.199 238.178 152.6 223.544L143.231 218.238L249.809 182.699C250.284 181.971 250.769 181.249 251.254 180.536L161.794 198.825C166.623 188.057 172.386 177.77 179.149 168.246L170.863 160.426H277.849C278.148 159.827 278.442 159.239 278.736 158.661L119.447 146.474L164.739 97.6889L157.655 88.6709C157.655 88.6709 353.022 117.314 414.705 151.171L414.706 151.169Z" fill="black"/>
<path d="M421.717 163.403L423.42 170.939C411.812 173.122 391.273 174.862 385.469 175.332C385.185 175.91 384.891 176.488 384.592 177.082H415.165C427.294 177.082 432.402 182.837 433.48 186.146C435.069 181.619 433.604 169.478 421.717 163.403ZM387.718 148.506C394.497 150.767 409.753 159.284 415.531 165.948H404.568C400.245 158.835 387.718 148.506 387.718 148.506Z" fill="#FFFFFE"/>
<path d="M158.404 242.694L223.559 207.098C223.91 206.215 224.276 205.327 224.658 204.445L161.954 226.987C160.561 232.159 159.38 237.409 158.404 242.695V242.694ZM187.538 172.095C184.664 176.034 181.997 180.132 179.516 184.365L243.247 172.973C243.804 172.24 244.372 171.507 244.939 170.79L187.538 172.096V172.095ZM227.97 289.357C227.547 288.598 227.134 287.829 226.732 287.065L173.825 366.883C176.601 372.143 179.67 377.062 183.008 381.579L227.97 289.357ZM157.3 314.686L216.114 249.043C216.068 248.104 216.037 247.169 216.016 246.235L155.396 297.792C155.804 303.506 156.448 309.153 157.3 314.687V314.686ZM340.445 239.539L294.271 232.643L289.586 241.718H339.356L340.445 239.54V239.539ZM372.339 156.939L160.937 127.671L173.871 113.657C245.078 124.667 330.24 142.073 373.479 154.673C373.113 155.411 372.726 156.17 372.339 156.939Z" fill="#A71930"/>
</g>
<defs>
<clipPath id="clip0_4_210">
<rect width="500" height="500" fill="white"/>
</clipPath>
</defs>
</svg>
