<svg width="500" height="500" viewBox="0 0 500 500" fill="none" xmlns="http://www.w3.org/2000/svg">
<g clip-path="url(#clip0_3_124)">
<path d="M491.341 276.819C489.381 264.903 481.522 247.402 455.159 231.656C453.327 230.568 451.467 229.528 449.581 228.537C454.513 226.88 459.611 225.17 459.611 225.17L430.394 213.79C427.893 212.815 425.271 211.938 422.616 211.085L426.584 207.06L404.181 203.925C394.5 202.568 386.865 202.256 381.014 202.341C380.965 201.475 380.889 200.611 380.786 199.75C380.786 199.742 377.045 171.722 377.045 171.722L367.515 184.719C365.676 181.644 363.556 178.745 361.184 176.06C361.184 176.056 337.021 148.763 337.021 148.763C337.021 148.763 337.985 156.792 338.757 163.201C330.611 157.521 321.906 152.69 312.776 148.783C273.898 132.127 224.734 128.667 177.883 139.275C138.696 148.153 82.116 171.299 35.123 231.136L8 265.674L48.825 249.428C49.15 249.298 80.665 237.024 106.08 233.446C115.558 232.11 122.815 232.004 116.924 244.972C112.281 255.207 101.734 270.145 101.624 270.295L81.181 299.996L115.281 288.169C131.683 282.471 146.405 279.664 153.85 279.4C156.509 279.449 156.997 281.203 156.159 283.112C155.919 283.774 155.781 284.119 153.939 286.946L132.557 317.431L167.629 304.881C193.081 295.759 226.543 289.752 238.513 294.321C239.489 294.691 242.652 296.368 239.517 300.961L225.742 322.852C225.742 322.852 246.079 319.769 248.97 319.323C250.568 339.313 260.606 350.214 261.843 351.473L276.618 366.61L281.806 346.112C285.53 331.361 292.548 323.323 298.809 318.945C298.809 318.953 300.012 327.368 300.012 327.368L313.71 322.433C325.225 318.274 334.34 313.279 340.902 307.58C349.583 306.894 370.79 305.631 391.16 307.645C426.269 311.113 449.818 306.451 456.202 304.936C464.74 302.917 471.937 306.561 472.014 306.601L482.451 312.271L488.082 301.711C488.749 300.444 491.932 293.852 491.932 284.08C491.932 281.659 491.737 279.214 491.338 276.814" fill="#FFFFFE"/>
<path d="M486.45 278.843C484.714 268.288 477.562 252.684 453.313 238.193C446.828 234.335 439.786 231.033 432.658 228.226L441.245 225.342L429.45 220.745C423.607 218.467 417.468 216.59 411.137 215.067C412.353 213.836 413.67 212.492 413.67 212.492L404.632 211.221C390.71 209.276 381.099 209.499 375.443 210.027C375.496 208.809 375.537 207.521 375.537 206.222C375.537 204.403 375.468 202.611 375.277 201.162L373.76 189.843C373.76 189.843 368.263 197.344 367.47 198.429C365.653 193.385 362.672 187.134 357.232 180.977L347.466 169.942L348.572 179.153C339.794 171.006 327.645 162.441 310.991 155.305C273.211 139.12 225.307 135.778 179.591 146.13C141.274 154.809 85.942 177.459 39.937 236.032L28.345 250.803L45.8 243.85C46.125 243.724 78.591 230.878 104.983 227.353C115.331 225.98 122.474 227.203 125.089 230.809C127.529 234.188 126.744 240.873 122.954 248.707C117.766 259.457 107.162 274.891 107.056 275.053L98.314 287.745L112.894 282.693C132.105 276.02 156.326 271.086 161.94 274.753C163.237 275.602 163.936 276.601 164.209 277.998C165.108 282.66 161.09 289.727 159.611 291.847L150.459 304.872L165.462 299.511C189.43 290.925 232.402 281.081 245.685 291.25C251.829 295.957 246.088 305.258 245.831 305.648L239.936 315.026L250.881 313.357L256.236 312.528C256.203 313.385 256.147 314.254 256.147 315.07C256.147 336.234 266.865 347.488 267.381 348.024L273.703 354.498L275.923 345.721C282.144 321.085 296.866 312.556 305.071 309.664C305.299 311.297 306.441 319.277 306.441 319.277L312.296 317.165C326.657 311.987 334.699 306.305 339.114 302.041C345.721 301.464 369.925 299.637 393.166 301.927C427.392 305.314 450.141 300.818 456.301 299.356C467.649 296.676 476.87 301.578 476.968 301.626L481.473 304.083L483.892 299.555C484.047 299.271 486.962 293.605 486.962 285.04C486.962 283.115 486.812 281.044 486.45 278.842" fill="#9E7C0C"/>
<path d="M450.301 243.308C440.177 236.156 426.54 230.953 413.31 227.233C418.819 225.454 424.337 225.572 424.337 225.572C415.86 222.335 407.008 220.312 398.775 219.037L401.857 216.275C386.777 213.708 376.25 213.903 370.005 214.553C370.79 211.466 371.428 206.751 370.623 200.456C370.623 200.456 368.793 205.882 364.358 209.253C363.773 202.211 361.52 192.024 353.868 185.112L355.287 197.544C348.546 187.403 335.718 174.435 311.465 163.103C245.537 132.322 129.367 143.99 65.598 226.262C65.598 226.262 90.396 213.883 124.752 213.062C142.752 212.64 147.126 222.708 140.568 239.676C133.973 256.73 122.414 271.692 122.414 271.692C122.414 271.692 200.161 244.172 175.616 282.402C175.616 282.402 234.307 264.844 251.912 285.44C260.097 294.997 250.566 308.363 250.566 308.363L267.216 304.765C261.817 325.888 271.27 339.38 271.27 339.38C278.141 311.766 302.101 304.411 310.583 303.018L312.417 310.499C326.631 305.365 333.316 299.903 337.137 295.403C367.237 290.676 387.676 294.717 410.88 295.98C444.679 297.824 462.15 291.943 467.733 291.98C471.831 292.017 476.69 295.587 476.69 295.587C476.69 295.587 490.738 271.901 450.303 243.308" fill="black"/>
<path d="M422.555 288.231C399.152 288.345 378.302 282.395 350.036 285.879L340.567 278.284C338.01 284.843 334.501 289.303 334.501 289.303C337.624 283.723 334.432 277.094 333.11 273.849C321.465 267.663 302.409 255.828 318.595 251.966C308.512 250.463 277.794 247.433 239.307 258.411C239.307 258.411 274.887 234.672 343.312 245.829C324.825 234.806 284.316 235.261 284.316 235.261C321.23 226.042 365.78 240.622 382.319 246.024L366.905 234.892L386.376 236.577L375.91 228.15C375.91 228.15 417.333 231.086 444.294 249.042C475.804 267.481 471.946 286.842 471.946 286.842C464.554 271.376 409.856 260.808 346.657 253.352C329.78 251.37 322.652 252.471 323.364 256.406C324.039 260.11 333.781 267.425 343.539 271.263C336.562 264.57 342.624 262.864 342.624 262.864C353.716 261.958 425.32 268.656 461.892 284.312C451.983 286.623 439.387 288.138 422.555 288.231ZM213.196 250.504C212.831 250.735 212.469 250.971 212.11 251.211C211.716 251.491 211.317 251.759 210.923 252.027L210.35 252.417C208.634 252.51 206.943 252.567 205.296 252.567L190.134 253.44C181.132 253.899 165.938 255.723 160.884 256.364L159.176 256.571C170.955 215.392 181.587 200.958 188.706 193.899C192.939 188.741 200.424 185.244 206.425 183.205C166.104 185.126 126.905 193.415 126.905 193.415C152.256 173.762 211.036 160.03 244.921 163.482C278.802 166.938 276.496 180.666 273.012 188.496C270.19 194.824 256.35 203.401 243.335 206.171C256.809 207.926 264.441 218.315 259.615 228.687C259.197 229.573 258.727 230.434 258.208 231.266C245.045 234.401 232.383 239.36 220.591 245.997C220.225 246.212 219.863 246.423 219.497 246.631C219.009 246.915 218.517 247.2 218.033 247.488L216.919 248.15C216.464 248.426 216.016 248.706 215.573 248.983C215.203 249.219 213.613 250.226 213.194 250.502L213.196 250.504Z" fill="#FFFFFE"/>
<path d="M293.159 165.743C366.373 187.569 355.285 229.523 355.285 229.523C355.285 229.523 349.373 229.897 342.4 216.876C335.817 204.586 326.092 203.01 326.092 203.01C326.092 203.01 333.276 202.348 343.364 206.738C343.364 206.738 329.19 185.497 288.727 187.134C288.727 187.134 309.138 189.644 317.782 201.044C317.782 201.044 290.293 196.719 265.568 209.5C265.568 209.5 287.621 205.857 304.535 217.241C304.535 217.241 279.172 215.344 265.251 229.779C277.64 227.492 291.073 226.749 305.145 228.414C312.835 229.579 320.449 231.202 327.946 233.276C313.614 231.696 298.412 231.741 284.315 235.262C284.315 235.262 324.823 234.807 343.311 245.83C274.887 234.673 239.306 258.412 239.306 258.412C277.793 247.434 308.511 250.464 318.594 251.967C302.408 255.829 321.464 267.664 333.109 273.85C334.43 277.095 337.622 283.723 334.504 289.296C326.852 299.783 318.302 301.915 318.302 301.915C323.364 289.13 317.18 280 317.18 280C317.18 280 312.899 293.175 294.334 300.924C273.976 309.437 270.817 321.852 270.817 321.852C270.817 321.852 270.077 310.504 280.835 298.568C284.291 294.718 286.832 291.517 288.438 288.715L265.677 294.945C280.944 250.615 192.825 268.444 192.825 268.444C196.065 263.855 202.315 257.937 210.922 252.028C211.316 251.76 211.715 251.492 212.109 251.212C212.467 250.972 212.837 250.733 213.195 250.505C213.614 250.229 214.033 249.953 214.459 249.689L215.573 248.986C216.016 248.71 216.463 248.43 216.919 248.153L218.033 247.491C218.517 247.203 219.009 246.918 219.497 246.634C219.864 246.426 220.228 246.215 220.591 246C232.383 239.363 245.045 234.405 258.208 231.269C258.72 230.44 259.2 229.579 259.615 228.69C264.441 218.317 256.81 207.928 243.335 206.174C256.35 203.404 270.19 194.826 273.012 188.499C276.496 180.669 278.802 166.941 244.921 163.485C211.036 160.033 152.256 173.764 126.905 193.418C126.905 193.418 166.104 185.129 206.425 183.208C200.424 185.247 192.939 188.744 188.706 193.902C181.587 200.961 170.954 215.395 159.176 256.574L160.884 256.367L145.804 258.727C145.804 258.727 168.861 221.894 153.643 206.229C140.559 192.757 96.941 206.469 96.941 206.469C140.271 165.018 218.339 143.444 293.159 165.745V165.743ZM216.375 239.592C214.29 240.114 212.149 240.377 210 240.376H201.34C201.34 240.376 204.816 229.548 210.407 217.725H213.802C221.873 217.725 226.349 222.258 221.324 233.069C220.039 235.827 218.319 237.951 216.376 239.592H216.375ZM231.406 202.207C228.79 202.971 226.077 203.356 223.352 203.348H217.278C221.039 194.697 224.044 189.417 226.129 186.274C234.041 186.343 237.257 190.287 233.069 199.266C232.601 200.293 232.045 201.276 231.406 202.206V202.207Z" fill="#241773"/>
<path d="M233.07 199.266C232.602 200.293 232.046 201.276 231.407 202.206C236.258 200.764 240.01 198.084 241.856 194.887C245.914 187.808 242.803 182.731 236.257 182.037L229.455 182.057C229.455 182.057 228.28 183.024 226.129 186.273C234.041 186.342 237.257 190.286 233.069 199.265M221.323 233.068C220.038 235.826 218.318 237.95 216.375 239.591C221.506 238.324 227.052 235.253 230.105 228.69C235.139 217.874 230.654 213.342 222.591 213.342H212.565C211.824 214.792 211.104 216.253 210.406 217.724H213.801C221.872 217.724 226.348 222.257 221.323 233.068Z" fill="black"/>
<path d="M269.923 177.663C266.756 172.468 259.022 169.394 245.292 168.695C245.292 168.695 231.391 166.811 213.802 169.162C206.841 170.092 173.005 173.532 144.194 187.581C169.39 181.452 199.168 179.206 218.022 178.524C225.95 178.244 234.66 178.492 234.66 178.492C240.299 178.492 245.528 180.157 247.533 183.443C249.611 186.842 250.184 190.92 246.277 195.899C244.126 198.645 241.601 201.536 234.271 204.517L242.72 202.718C255.349 200.021 266.81 192.934 269.445 187.439C271.368 183.426 271.478 180.21 269.925 177.663" fill="#9E7C0C"/>
<path d="M208.805 209.83H222.718C229.898 209.83 233.2 212.77 234.712 215.248C237.082 219.127 236.66 224.354 233.724 230.901C228.06 243.528 214.338 244.665 210.219 244.665L194.431 245.266C201.274 223.578 208.804 209.83 208.804 209.83H208.805ZM216.042 248.686C226.085 242.496 238.652 236.603 253.001 232.611C253.904 231.42 254.678 230.136 255.31 228.781C256.753 225.69 256.92 221.848 255.891 218.81C254.342 214.2 251.256 211.13 241.53 208.855C228.731 205.87 210.036 207.186 210.036 207.186C214.338 196.752 217.55 190.652 220.766 185.364C218.001 185.185 204.059 186.664 193.354 196.866C184.031 205.098 173.96 226.482 165.95 251.947C174.689 251.045 183.448 250.344 192.22 249.847L205.32 249.282C208.764 249.282 212.386 249.095 216.042 248.685V248.686Z" fill="#9E7C0C"/>
<path d="M332.724 213.879C334.822 218.842 331.931 224.353 326.263 226.193C320.599 228.037 314.301 225.494 312.203 220.531C310.105 215.564 313 210.044 318.664 208.213C324.324 206.373 330.626 208.908 332.724 213.879ZM332.208 216.905C331.07 213.928 327.593 212.433 324.434 213.571C321.283 214.696 319.636 218.018 320.779 220.991C321.922 223.972 325.398 225.463 328.557 224.338C331.716 223.205 333.355 219.879 332.208 216.906V216.905Z" fill="#C60C30"/>
<path d="M318.152 221.177C316.574 217.449 318.855 213.257 323.234 211.832C324.864 211.301 326.605 211.213 328.28 211.576C326.093 210.195 323.129 209.765 320.352 210.67C315.961 212.091 313.684 216.275 315.27 220.028C316.238 222.327 318.45 223.923 321.027 224.475C319.758 223.675 318.738 222.554 318.152 221.177Z" fill="#FFFFFE"/>
</g>
<defs>
<clipPath id="clip0_3_124">
<rect width="500" height="500" fill="white"/>
</clipPath>
</defs>
</svg>
