<svg width="500" height="500" viewBox="0 0 500 500" fill="none" xmlns="http://www.w3.org/2000/svg">
<g clip-path="url(#clip0_4_362)">
<path d="M64.574 316.344C97.248 295.478 107.526 271.973 107.526 271.973L14.999 285.255L54.32 215.401L133.324 208.748C133.324 208.748 164.06 181.312 211.648 161.64C211.648 161.64 216.611 152.984 243.789 137.337C243.789 137.337 268.716 122.654 297.103 113.259C297.103 113.259 316.343 106.64 322.02 106.307L320.351 100.187L356.628 97.0781L357.563 93.6021C357.563 93.6021 376.499 94.8801 387.36 99.6881L389.499 96.8391C389.499 96.8391 414.842 108.491 433.704 137.122C433.704 137.122 451.999 136.104 468.375 143.942C468.375 143.942 485.73 150.845 484.947 170.997C484.947 170.997 484.83 196.71 477.145 222.193C477.145 222.193 475.965 226.183 474.869 228.563C474.869 228.563 473.273 231.809 470.195 235.907C470.195 235.907 461.601 244.759 458.268 252.553C458.268 252.553 456.462 257.738 452.874 267.157C452.874 267.157 450.114 280.111 431.3 280.831C431.3 280.831 412.99 304.008 405.355 310.661L404.709 305.031C404.709 305.031 391.935 316.869 380.849 323.86L384.593 291.048C384.593 291.048 385.513 285.188 381.793 284.767L372.225 284.537C372.225 284.537 375.357 304.287 371.574 313.418C371.574 313.418 369.166 327.753 346.931 334.578C346.931 334.578 329.752 340.047 310.096 341.584L305.872 340.913L274.93 353.598L283.975 321.143C283.975 321.143 272.38 322.318 271.382 320.864L236.926 335.64L250.469 296.821L259.749 291.68L256.788 287.656L237.739 287.827L230.73 293.281C214.549 289.066 198.819 290.202 198.819 290.202L118.753 355.204L98.691 399.565L74.733 367.522L82.231 357.711L79.383 355.567L68.523 364.115L52.445 407.434L28.766 374.005L34.855 360.419L33.509 352.096C40.557 347.44 45.118 344.321 48.681 340.317C50.624 337.81 51.696 336.939 53.952 332.724C56.081 327.574 56.159 321.997 58.533 320.23C61.504 318.213 63.775 316.857 64.573 316.348" fill="#FFFFFE"/>
<path d="M58.8139 222.402L28.2 276.369L423.224 217.477C423.224 217.477 409.495 207.034 429.396 190.52L58.8139 222.402Z" fill="#C60C30"/>
<path d="M459.794 183.005L144.317 208.929C178.195 181.199 224.75 164.382 224.75 164.382L220.614 162.11L228.362 158.463L229.473 155.124C290.412 114.312 333.369 112.32 333.369 112.32L331.431 106.553C352.261 104.379 361.81 104.448 361.81 104.448L362.608 102.264C378.324 102.088 389.424 109.73 389.424 109.73L391.783 106.215C424.266 128.707 428.965 145.113 428.965 145.113C452.531 143.184 465.119 150.131 465.119 150.131C482.058 157.416 477.002 182.145 477.002 182.145C477.041 186.909 472.338 211.907 472.338 211.907C468.442 229.155 461.429 235.725 461.429 235.725C452.37 244.645 450.172 253.712 450.172 253.712C445.483 266.617 443.824 268.282 443.824 268.282C440.207 274.211 425.544 273.917 425.544 273.917C422.118 282.196 408.761 296.663 408.761 296.663L407.537 292.541L389.908 308.252L392.668 286.392C393.676 278.936 385.645 277.222 385.645 277.222L347.102 278.906C341.464 305.143 321.211 309.153 321.211 309.153C292.012 315.062 272.606 313.858 272.606 313.858L271.358 312.918L249.06 322.626L256.92 300.835L268.803 296.115C269.718 295.821 269.385 294.597 269.385 294.597L268.25 291.106C280.491 290 291.664 281.402 291.664 281.402C293.088 280.247 290.954 279.757 290.954 279.757L234.224 281.01L229.751 285.304C180.749 277.192 147.189 291.517 147.189 291.517C109.15 305.691 86.0199 341.9 86.0199 341.9L62.3849 360.059L50.4479 392.293L37.2529 373.341L42.6419 360.969L41.8199 355.202C53.3269 347.839 58.2939 339.178 58.2939 339.178C62.3019 333.842 61.9889 329.43 61.9889 329.43C62.2779 325.895 65.5079 324 65.5079 324C109.552 297.362 116.193 269.23 116.193 269.23L426.756 222.22C421.7 245.838 440.817 237.231 440.817 237.231C428.449 228.502 439.642 222.299 439.642 222.299C428.948 204.101 459.792 183.005 459.792 183.005H459.794ZM350.974 283.752L364.301 283.6C364.301 283.6 366.968 301.196 365.388 309.044C365.388 309.044 362.76 320.711 350.852 325.274C350.852 325.274 333.311 332.701 307.009 334.385L305.736 333.293L285.797 341.709L292.346 318.512C292.346 318.512 319.074 316.446 327.149 314.027C327.149 314.027 347.871 309.954 350.974 283.751V283.752ZM186.804 290.64L112.993 350.458L97.0469 385.801L82.8979 366.834L90.8709 355.843L90.2489 351.471C107.032 342.081 107.12 328.235 107.12 328.235C139.511 290.072 186.804 290.64 186.804 290.64Z" fill="#00338D"/>
</g>
<defs>
<clipPath id="clip0_4_362">
<rect width="500" height="500" fill="white"/>
</clipPath>
</defs>
</svg>
