<svg width="500" height="500" viewBox="0 0 500 500" fill="none" xmlns="http://www.w3.org/2000/svg">
<g clip-path="url(#clip0_4_225)">
<path d="M449.889 145.217L449.896 145.21L449.889 145.217ZM381.233 247.971C381.233 247.971 386.912 235.472 384.353 220.142C384.353 220.142 373.567 216.166 353.971 220.142C353.971 220.142 344.596 241.146 332.662 251.371C332.662 251.371 341.76 230.072 336.351 214.177C336.351 214.177 352.827 207.647 373.005 209.065C393.166 210.483 397.701 214.749 397.701 214.749C397.701 214.749 392.594 238.883 381.232 247.971H381.233ZM368.214 291.972C377.589 285.12 376.591 271.692 376.591 271.692C378.862 277.009 380.134 284.114 378.862 289.189C377.59 294.253 374.303 299.327 360.604 300.585C346.909 301.861 339.049 297.545 339.049 297.545C345.144 291.466 351.056 274.988 351.056 274.988C354.104 286.662 351.514 292.062 351.514 292.062C358.108 294.083 368.215 291.972 368.215 291.972H368.214ZM389.786 289.754C393.087 313.85 371.657 323.964 359.75 323.964C347.837 323.964 331.462 318.907 325.214 298.676C318.966 278.438 318.966 253.441 327 241.24C327 241.24 321.65 265.343 324.622 279.037C327.597 292.724 333.252 304.329 344.263 306.419C355.281 308.495 371.657 307.902 377.603 301.05C383.566 294.205 385.941 284.389 379.992 270.992C374.032 257.61 362.129 240.342 381.795 223.095C381.795 223.095 373.148 233.5 376.421 248.685C379.69 263.856 386.476 265.665 389.787 289.754H389.786ZM312.858 190.095C268.004 183.925 231.211 193.086 231.211 193.086C267.342 181.444 300.193 182.899 316.387 184.754C314.872 186.612 313.707 188.4 312.857 190.095H312.858ZM310.753 201.249C266.915 198.213 232.15 208.957 232.15 208.957C263.76 196.802 293.344 195.2 310.919 195.689C310.517 197.8 310.538 199.682 310.753 201.249ZM236.914 264.629C220.178 244.103 227.223 216.673 227.223 216.673C227.223 216.673 227.851 240.201 248.386 260.986C268.929 281.779 294.422 287.404 294.422 287.404C294.422 287.404 253.652 285.168 236.913 264.629H236.914ZM326.986 175.278C324.68 176.879 322.694 178.449 320.964 180.002C272.962 168.665 230.982 176.699 230.982 176.699C282.964 163.067 326.986 175.278 326.986 175.278ZM289.552 150.16L289.562 150.15L289.576 150.143C290.297 149.835 304.908 143.731 319.823 147.121C335.123 150.604 344.616 160.971 344.616 160.971C344.616 160.971 330.876 156.853 305.413 157.307C305.413 157.307 304.411 155.453 307.032 151.571C307.032 151.571 302.951 150.379 289.547 150.16H289.55H289.552ZM402.223 154.402C410.052 152.828 417.197 156.852 420.554 159.982C420.554 159.982 402.452 156.634 393.968 164.45C393.968 164.45 394.415 155.958 402.223 154.402ZM488.495 214.101C470.806 204.455 450.745 201.457 435.355 200.857C435.355 200.857 429.093 200.971 428.126 200.944C428.442 198.383 428.362 196.088 427.956 194.06C431.777 193.946 436.613 193.793 437.321 193.758L437.903 193.723C468.743 192.714 485.049 200.863 485.049 200.863L483.485 199.674C468.465 192.714 452.572 190.167 438.825 189.778H438.274C438.274 189.778 431.634 189.768 426.583 189.861C425.2 186.943 423.178 184.742 421.14 183.133C427.634 183.095 435.158 183.116 439.491 183.31L439.807 183.32C463.536 183.57 476.479 189.191 476.479 189.191L474.922 187.967C463.151 182.945 451.124 180.671 439.849 179.919C439.849 179.919 425.148 179.132 413.815 179.198C417.098 181.683 419.609 185.26 419.851 190.4C420.621 206.233 404.266 212.614 404.266 212.614C408.108 210.056 415 201.384 413.218 190.14C411.422 178.91 396.867 173.572 396.867 173.572C396.867 173.572 379.819 180.958 376.12 194.864C376.12 194.864 376.408 180.39 352.259 171.014C352.259 171.014 363.621 167.61 375.842 168.456C388.053 169.316 396.867 173.572 396.867 173.572C396.867 173.572 399.117 167.621 411.099 165.586C423.092 163.551 436.055 166.484 436.055 166.484C433.663 162.117 430.906 155.746 418.851 150.824C406.806 145.902 395.999 150.356 395.999 150.356C395.999 150.356 395.215 144.54 386.458 138.876C372.226 129.674 334.587 124.19 327.327 123.795C320.081 123.414 332.77 128.083 337.853 130.984C343.633 134.273 350.099 139.864 350.654 145.171C350.796 146.599 350.46 147.84 349.822 148.876C349.309 147.393 348.238 145.497 346.355 143.077C336.044 129.84 309.895 124.114 290.268 125.421C270.644 126.731 255.049 134.152 255.049 134.152C255.274 135.965 247.813 142.29 227.232 144.561C207.622 146.71 193.781 143.126 188.803 142.388L188.425 142.315C186.407 142.065 184.892 142.156 184.258 143.608L184.192 143.809L184.15 144.079C184.063 145.091 184.684 146.488 184.684 146.488L184.396 145.937C185.793 148.616 194.135 163.992 205.129 171.884C205.129 171.884 211.699 170.491 219.493 169.652C219.493 169.652 99.032 228.263 50.229 319.836C71.493 317.34 99.472 315.732 129.844 318.408L129.639 318.387H129.622C134.008 311.011 156.017 269.824 208.357 244.519C208.357 244.519 169.657 271.416 155.903 321.743C173.401 324.71 191.274 329.313 208.776 336.124C265.03 358.04 312.449 380.954 365.905 380.482L374.992 380.083L374.975 380.041C360.774 350.451 346.794 336.927 346.794 336.927C357.365 338.823 365.905 335.811 366.061 335.759C366.855 335.471 367.541 335.187 368.117 334.924C385.602 325.5 388.517 309.549 389.953 298.122C391.596 284.909 389.253 276.459 389.253 276.459C389.253 276.459 419.521 236.738 427.204 205.495C427.204 205.495 431.08 204.965 434.062 205.027C470.13 205.433 489.841 215.453 489.841 215.453L488.496 214.098L488.495 214.101ZM449.462 146.499C449.573 146.246 449.66 146.01 449.729 145.778L449.888 145.199L449.885 145.171C449.188 143.185 447.808 143.039 444.889 143.268C440.642 144.076 436.717 144.592 433.409 144.918H433.416L432.875 144.977L432.49 145.012L431.058 145.144L430.853 145.151C426.595 145.501 423.898 145.518 423.898 145.518C434.781 153.746 436.054 166.488 436.054 166.488L436.612 166.013C444.964 159.951 449.461 146.499 449.461 146.499H449.462Z" fill="black"/>
<path d="M336.352 214.178C341.761 230.073 332.663 251.372 332.663 251.372C344.597 241.147 353.972 220.143 353.972 220.143C373.568 216.167 384.354 220.143 384.354 220.143C386.913 235.473 381.234 247.972 381.234 247.972C392.596 238.884 397.703 214.75 397.703 214.75C397.703 214.75 393.168 210.483 373.007 209.066C352.828 207.648 336.353 214.178 336.353 214.178H336.352ZM402.224 154.403C394.416 155.959 393.969 164.451 393.969 164.451C402.453 156.635 420.555 159.983 420.555 159.983C417.199 156.853 410.053 152.829 402.224 154.403ZM368.215 291.974C368.215 291.974 358.108 294.085 351.514 292.064C351.514 292.064 354.104 286.664 351.056 274.99C351.056 274.99 345.145 291.468 339.049 297.547C339.049 297.547 346.909 301.862 360.604 300.587C374.303 299.329 377.589 294.255 378.862 289.191C380.134 284.117 378.862 277.011 376.591 271.694C376.591 271.694 377.59 285.121 368.214 291.974H368.215ZM319.825 147.121C304.91 143.731 290.299 149.835 289.578 150.143C290.285 149.841 304.237 144.018 318.785 146.902C310.519 145.335 307.035 151.571 307.035 151.571C304.414 155.453 305.416 157.307 305.416 157.307C330.878 156.853 344.619 160.971 344.619 160.971C344.619 160.971 335.126 150.604 319.826 147.121H319.825Z" fill="#BFC0BF"/>
<path d="M427.204 205.499C419.521 236.742 389.253 276.463 389.253 276.463L389.267 276.449C412.143 256.939 427.391 222.431 434.062 205.031C431.08 204.969 427.204 205.499 427.204 205.499ZM428.126 200.945C429.093 200.973 435.355 200.858 435.355 200.858C435.934 198.91 436.641 196.428 437.321 193.76C436.614 193.795 431.777 193.947 427.956 194.062C428.362 196.09 428.441 198.384 428.126 200.946V200.945ZM376.421 248.686C373.148 233.501 381.795 223.096 381.795 223.096C362.13 240.343 374.032 257.611 379.992 270.993C385.942 284.389 383.567 294.205 377.603 301.051C371.657 307.903 355.282 308.496 344.263 306.42C333.251 304.33 327.597 292.726 324.622 279.038C321.651 265.344 327 241.241 327 241.241C318.967 253.441 318.967 278.439 325.214 298.677C331.462 318.908 347.837 323.965 359.75 323.965C371.656 323.965 393.086 313.851 389.786 289.755C386.475 265.666 379.69 263.857 376.42 248.686H376.421ZM450.083 143.602L450.041 143.21L450.01 143.009L449.903 142.669L449.837 142.492L449.695 142.197L449.619 142.055L449.432 141.792L449.328 141.678L449.123 141.463L449.016 141.366L448.777 141.186L448.663 141.106L448.417 140.971L448.303 140.905L448.053 140.794L447.946 140.742L447.71 140.659L447.606 140.628L447.377 140.566L447.301 140.542L447.09 140.504L447.028 140.49L446.865 140.469L446.827 140.459L446.643 140.438C431.61 140.601 419.267 135.502 419.267 135.502L418.255 135.138C384.836 122.913 350.151 119.413 319.269 119.974L319.259 119.943C305.467 120.071 295.398 121.198 295.398 121.198C251.057 124.945 219.271 135.568 219.271 135.568C219.271 135.568 207.202 138.965 191.135 138.164C191.135 138.164 185.168 138.06 183.989 141.859C182.98 144.278 182.841 147.155 185.112 153.453C187.733 160.718 198.218 174.374 198.297 174.475C166.583 187.355 83.993 233.665 10.002 326.784C10.002 326.784 25.639 322.722 50.231 319.842C99.034 228.269 219.495 169.658 219.495 169.658C211.701 170.497 205.131 171.89 205.131 171.89C194.137 163.998 185.795 148.622 184.398 145.943L184.686 146.494C184.686 146.494 184.065 145.097 184.152 144.085L184.194 143.815L184.26 143.614C184.894 142.162 186.41 142.072 188.427 142.321L188.805 142.394C193.784 143.132 207.624 146.716 227.234 144.567C247.815 142.297 255.276 135.971 255.051 134.158C255.051 134.158 270.646 126.737 290.27 125.427C309.897 124.12 336.046 129.846 346.357 143.083C348.24 145.502 349.311 147.398 349.824 148.882C350.462 147.846 350.798 146.605 350.656 145.177C350.101 139.87 343.635 134.28 337.855 130.99C332.772 128.089 320.083 123.42 327.329 123.801C334.589 124.196 372.228 129.679 386.46 138.882C395.218 144.546 396.001 150.362 396.001 150.362C396.001 150.362 406.808 145.908 418.853 150.83C430.908 155.752 433.664 162.122 436.057 166.49C436.057 166.49 434.785 153.749 423.901 145.52C423.901 145.52 426.598 145.503 430.856 145.153L431.061 145.146L432.493 145.014L432.878 144.979L433.419 144.92H433.412C436.72 144.594 440.644 144.078 444.892 143.27C447.811 143.041 449.191 143.187 449.888 145.173L449.891 145.201L449.732 145.78C449.663 146.012 449.576 146.248 449.465 146.501C449.465 146.501 444.968 159.953 436.616 166.015L436.058 166.49C436.058 166.49 423.094 163.558 411.102 165.592C399.12 167.627 396.87 173.578 396.87 173.578C396.87 173.578 411.425 178.916 413.221 190.146C415.003 201.39 408.11 210.062 404.269 212.62C404.269 212.62 420.623 206.239 419.854 190.406C419.611 185.266 417.101 181.689 413.818 179.204C425.152 179.138 439.852 179.925 439.852 179.925C439.921 175.54 439.193 171.929 437.522 168.802C446.221 161.253 449.435 149.753 449.893 145.219L449.9 145.212V145.202C449.942 145.049 450.021 144.637 450.035 144.547L450.059 144.287C450.08 144.134 450.087 143.982 450.087 143.836V143.604L450.083 143.602ZM352.259 171.018C376.407 180.394 376.12 194.868 376.12 194.868C379.819 180.962 396.867 173.576 396.867 173.576C396.867 173.576 388.054 169.32 375.842 168.46C363.62 167.614 352.259 171.018 352.259 171.018ZM421.14 183.135C423.179 184.743 425.2 186.944 426.583 189.863C431.635 189.769 438.274 189.78 438.274 189.78C438.752 187.645 439.175 185.496 439.467 183.486L439.491 183.313C435.157 183.119 427.633 183.098 421.14 183.136V183.135ZM366.062 335.762C365.906 335.814 357.366 338.826 346.795 336.93C346.795 336.93 360.774 350.455 374.976 380.044L374.993 380.086L375.548 380.051C374.175 366.565 368.416 343.98 367.085 339.803L366.062 335.762ZM248.388 260.985C227.852 240.199 227.225 216.672 227.225 216.672C227.225 216.672 220.18 244.102 236.916 264.628C253.655 285.168 294.425 287.403 294.425 287.403C294.425 287.403 268.931 281.778 248.389 260.985H248.388ZM129.622 318.39H129.639L129.844 318.411C130.61 318.477 133.061 318.706 133.197 318.726C133.53 318.754 137.739 319.194 137.777 319.197C143.751 319.866 149.801 320.705 155.903 321.745C169.657 271.418 208.357 244.521 208.357 244.521C156.018 269.827 134.008 311.014 129.622 318.389V318.39ZM230.983 176.698C230.983 176.698 272.963 168.664 320.965 180.001C322.695 178.448 324.682 176.878 326.987 175.277C326.987 175.277 282.965 163.066 230.983 176.698ZM231.212 193.085C231.212 193.085 268.005 183.924 312.859 190.094C313.708 188.399 314.873 186.611 316.389 184.753C300.194 182.899 267.343 181.443 231.213 193.085H231.212ZM318.784 146.9C304.236 144.016 290.284 149.839 289.577 150.141L289.563 150.148L289.553 150.158H289.55C302.954 150.376 307.035 151.569 307.035 151.569C307.035 151.569 310.519 145.334 318.785 146.9H318.784ZM232.151 208.956C232.151 208.956 266.916 198.211 310.754 201.248C310.539 199.681 310.518 197.799 310.92 195.688C293.345 195.199 263.76 196.801 232.151 208.956Z" fill="#0085CA"/>
</g>
<defs>
<clipPath id="clip0_4_225">
<rect width="500" height="500" fill="white"/>
</clipPath>
</defs>
</svg>
