<svg width="500" height="500" viewBox="0 0 500 500" fill="none" xmlns="http://www.w3.org/2000/svg">
<g clip-path="url(#clip0_4_289)">
<path d="M164.744 123.547C114.561 144.314 91.739 175.817 81.457 198.576C74.845 213.366 68.355 224.462 61.032 233.519C53.523 241.337 39.796 249.96 31.772 253L30.273 253.568L30.001 259.035L32.074 259.446C42.466 261.513 55.411 269.326 59.609 274.676C65.005 280.102 68.762 283.855 78.228 300.643C78.361 300.846 83.074 308.31 83.074 308.31C86.142 313.476 89.315 318.821 97.814 328.231C104.35 337.416 135.654 366.307 169.719 378.735C193.653 390.601 225.084 396.467 265.564 396.577C325.016 396.919 370.018 383.912 411.47 354.43C428.659 341.111 434.217 335.748 448.708 318.531C458.417 307.053 468.971 286.813 469.423 264.454L469.481 261.952L385.372 261.859L384.909 263.724C378.072 291.179 350.421 308.303 334.546 316.069C293.122 333.685 240.953 333.9 201.764 316.555C165.128 298.192 145.652 273.354 147.025 246.663C148.42 219.457 171.578 193.449 206.014 180.419C272.622 156.004 336.648 176.996 360.83 199.709L361.536 200.369L459.54 200.276L458.214 196.929C438.055 145.823 365.154 117.013 333.005 111.071C261.036 94.5901 198.88 106.705 164.746 123.545" fill="#0B162A"/>
<path d="M76.021 226.118C81.139 218.028 83.171 213.465 85.967 207.141L88.966 200.504C97.992 181.295 113.178 163.69 132.868 149.601C152.112 136.704 173.429 126.373 191.295 121.283C268.938 98.721 348.323 118.086 382.747 136.606C396.352 142.849 433.168 164.71 448.058 193.103H365.124C307.374 148.164 229.471 159.59 191.052 178.347C175.53 186.97 166.51 193.925 155.215 205.97C137.679 227.2 128.248 263.365 159.077 295.778C173.012 309.335 186.948 318.519 204.316 325.642C244.483 342.291 300.85 340.438 341.376 321.125C367.267 307.614 384.455 289.691 391.409 269.22H461.369C458.891 286.993 453.715 305.374 427.188 331.063L424.235 333.71C411.388 345.309 393.782 361.206 359.393 373.761C300.734 396.526 213.006 393.896 163.784 367.924C163.755 367.912 160.692 366.366 160.692 366.366C149.634 360.83 134.483 353.255 115.395 335.5C102.073 323.269 92.793 311.183 81.121 290.903C68.396 267.611 52.463 259.116 43.895 255.508C51.363 251.744 65.959 242.785 76.021 226.118Z" fill="#FFFFFE"/>
<path d="M79.054 239.003C87.368 229.801 93.933 206.156 107.075 188.198C125.734 161.889 150.432 148.112 168.808 139.322C210.834 118.735 271.259 112.868 330.369 127.057C351.819 132.142 373.275 139.763 388.594 149.746C403.925 158.855 421.872 171.995 431.946 184.782H368.806C350.071 169.806 329.49 162.533 311.102 158.589C290.526 153.337 258.123 150.534 219.594 159.736C196.824 165.423 181.065 173.304 165.74 184.255C135.536 205.717 102.258 262.121 161.363 311.177C180.63 327.461 196.824 332.725 214.777 338.945C248.055 348.576 289.652 346.74 313.731 340.167C350.072 330.531 363.642 317.831 375.464 307.76C386.412 297.249 395.606 284.544 398.147 277.977L449.986 277.89C446.391 297.249 432.38 313.013 418.81 326.153C403.265 340.81 391.663 348.489 368.719 359.967C315.045 385.714 236.233 384.84 187.636 367.235C162.678 358.12 155.672 354.008 136.845 340.955C121.52 328.608 111.447 320.46 97.002 298.124C90.437 287.173 87.368 281.046 79.929 270.976C74.672 265.278 71.17 260.019 61.976 255.641C70.405 249.734 74.997 245.35 79.055 239.003" fill="#C83803"/>
</g>
<defs>
<clipPath id="clip0_4_289">
<rect width="500" height="500" fill="white"/>
</clipPath>
</defs>
</svg>
