<svg width="500" height="500" viewBox="0 0 500 500" fill="none" xmlns="http://www.w3.org/2000/svg">
<g clip-path="url(#clip0_4_444)">
<path d="M412.935 244.767C410.769 243.671 411.039 241.715 412.6 240.555C431.035 226.916 443.477 209.414 443.477 182.4C443.477 150.413 420.567 105.519 330.986 105.519H100.076L47.778 196.487H86.18C90.47 196.487 93.933 199.945 93.933 204.214V295.025C93.933 299.294 90.47 302.759 86.18 302.759H44.999L97.852 393.4L341.931 393.372C420.702 393.372 454.757 352.342 454.757 308.302C454.757 279.132 434.013 255.497 412.935 244.768" fill="#FFFFFE"/>
<path d="M276.167 229.364H238.235V192.909C238.271 189.088 241.37 186.008 245.204 186.008H276.166C294.337 186.008 301.086 195.257 301.086 207.331C301.086 220.137 294.338 229.365 276.166 229.365L276.167 229.364ZM276.167 313.231H245.205C241.357 313.231 238.236 310.122 238.236 306.28V269.881H276.168C294.339 269.881 301.088 278.774 301.088 291.211C301.088 303.996 294.34 313.231 276.168 313.231H276.167ZM384.432 246.823C381.653 246.168 382.109 242.768 384.14 242.006C409.181 232.544 423.796 215.696 423.796 186.007C424.145 146.201 388.914 118.845 331.614 118.845H114.457L76.354 186.05H102.578C107.766 186.05 111.956 190.233 111.956 195.406V303.847C111.956 309.019 107.766 313.203 102.578 313.203H76.647L115.035 380.074L341.933 380.046C406.715 380.046 433.409 337.052 433.409 305.42C433.409 277.623 412.886 253.625 384.432 246.824V246.823Z" fill="#FB4F14"/>
<path d="M188.332 361.092C148.07 285.527 137.488 198.65 152.488 118.845H114.457L76.354 186.05H102.578C107.766 186.05 111.956 190.233 111.956 195.406V278.612C131.495 310.272 159.793 340.595 188.332 361.092ZM378.218 126.323C332.134 194.56 307.165 281.529 318.374 360.744C332.106 294.108 367.928 232.566 423.724 187.986C423.738 187.324 423.795 186.684 423.795 186.008C424.03 158.574 407.37 137.045 378.217 126.323H378.218ZM300.965 118.846C293.739 137.743 286.15 160.545 279.765 186.143C278.625 186.058 277.421 186.008 276.166 186.008H245.204C241.37 186.008 238.27 189.089 238.235 192.909V229.364H270.801C268.649 242.434 266.91 255.973 265.756 269.882H238.235V306.281C238.235 310.123 241.356 313.232 245.204 313.232H264.216C264.501 335.053 266.446 357.442 270.537 380.046H242.233C219.9 326.202 189.166 235.106 219.736 118.846H300.965Z" fill="black"/>
</g>
<defs>
<clipPath id="clip0_4_444">
<rect width="500" height="500" fill="white"/>
</clipPath>
</defs>
</svg>
