<svg width="500" height="500" viewBox="0 0 500 500" fill="none" xmlns="http://www.w3.org/2000/svg">
<g clip-path="url(#clip0_4_261)">
<path d="M489.054 196.69H307.394L249.527 23.6382L191.655 196.69H10L158.834 303.244L101.699 476.395L249.527 370.798L397.366 476.192L340.214 303.249L489.054 196.69Z" fill="#FFFFFE"/>
<path d="M249.527 44.2319L196.301 203.15H30.0969L166.45 300.759L114.01 459.672L249.555 362.87L385.055 459.672L332.593 300.759L468.952 203.15H302.747L249.527 44.2319Z" fill="#002244"/>
<path d="M249.527 88.0308L206.727 216.751H72.1001L182.549 295.817L140.073 424.531L249.857 346.13L358.975 424.531L316.499 295.822L426.954 216.751H292.322L249.527 88.0308Z" fill="#FFFFFE"/>
<path d="M249.527 125.887L215.887 227.575H109.545L196.791 290.039L163.228 391.727L249.967 329.786L335.821 391.727L302.253 290.044L389.503 227.575H283.162L249.527 125.887Z" fill="#002244"/>
</g>
<defs>
<clipPath id="clip0_4_261">
<rect width="500" height="500" fill="white"/>
</clipPath>
</defs>
</svg>
