<svg width="500" height="500" viewBox="0 0 500 500" fill="none" xmlns="http://www.w3.org/2000/svg">
<g clip-path="url(#clip0_4_334)">
<path d="M253.155 387.265C253.169 387.449 252.952 388.676 252.467 389.211C251.978 389.751 251.262 389.949 250.57 390.101C249.439 390.35 248.322 390.11 247.422 389.428C246.683 388.87 246.222 388.086 246.167 387.325L246.162 387.283L246.157 387.288L237.752 359.949C233.044 345.929 225.927 330.89 212.121 317.581C195.444 301.509 170.861 290.39 136.964 283.611C107.419 277.699 87.973 272.612 73.909 267.129C60.408 261.867 52.446 256.388 44.645 249.789C24.761 232.961 10.9 211.507 10 184.482C10 184.482 29.783 212.415 51.527 199.074C61.806 192.77 69.196 193.669 69.196 193.669C62.508 186.295 57.574 176.665 56.254 166.192C55.202 157.817 55.889 148.52 58.294 138.563C62.388 121.615 74.31 109.195 74.426 109.002C74.426 109.002 69.736 149.715 89.219 164.159C101.234 170.915 113.562 168.19 113.562 168.19C113.562 168.19 97.384 160.705 95.118 136.678C94.126 126.117 95.686 117.811 96.101 115.69C96.101 115.69 117.458 145.814 138.856 133.441C143.642 130.674 168.895 117.632 179.783 114.74C195.767 110.502 211.585 110.202 226.798 113.855C239.427 116.885 251.755 122.659 263.447 131.011C284.287 145.902 297.783 165.235 302.616 172.858C302.616 172.858 344.559 171.013 367.513 200.326L367.545 200.372L420.635 223.786L414.616 227.632L414.353 227.803L414.625 227.974C431.805 238.885 461.862 258.223 470.046 265.196L470.064 265.214L470.092 265.228L485.301 272.455L482.527 279.811V279.816C482.342 280.309 478.216 292.102 486.003 297.936L489.917 300.869L490 300.934L489.963 301.026L478.008 332.667L474.98 328.604C458.303 305.637 442.541 301.395 434.62 301.233C425.656 301.044 425.024 305.817 426.136 307.874C429.741 314.529 449.833 317.978 457.278 318.735C457.273 318.735 462.203 319.376 462.346 319.394L442.992 336.72L407.903 334.516L407.76 334.507L407.774 334.364L408.365 327.479V327.437C408.185 326.132 405.813 314.376 377.121 302.575L377.038 302.547L376.955 302.584C372.076 304.835 362.065 308.718 349.796 309.377C335.003 310.175 321.276 306.186 308.993 297.529L308.91 297.478L308.808 297.501C303.883 299.18 294.167 302.971 284.456 309.635C266.432 322.018 256.596 338.21 255.225 357.768C255.225 357.768 253.646 373.886 253.157 387.269" fill="#002244"/>
<path d="M138.742 169.917C177.816 157.927 204.262 159.795 213.29 175.146C180.115 178.937 146.939 188.344 114.687 203.119C98.5289 202.021 83.6849 195.432 74.9719 185.476C63.9869 172.924 60.3599 154.215 67.9339 130.618C68.4739 150.973 74.3999 162.921 84.2309 169.649C95.7649 177.544 113.594 177.627 138.743 169.916L138.742 169.917ZM260.191 137.973C273.58 147.984 286.148 161.773 296.56 177.876C276.248 174.127 255.414 172.647 234.635 173.481C228.492 161.201 218.093 152.199 206.786 149.391C194.237 146.278 178.152 148.681 158.975 156.534C141.755 163.585 128.02 164.364 118.147 158.854C112.627 155.774 108.325 150.738 105.349 143.894C102.963 138.411 101.98 133.048 101.481 130.087L101.721 130.331C106.955 135.754 120.861 150.16 142.364 139.024C150.542 134.786 172.382 124.074 182.042 121.477C196.954 117.47 211.742 117.377 225.962 121.057C237.736 124.105 249.251 129.796 260.19 137.972L260.191 137.973ZM22.9829 204.295C22.9829 204.295 34.7889 215.533 54.6539 205.365C76.9879 193.933 80.7959 206.555 99.4509 212.444C32.0619 251.134 22.9829 204.296 22.9829 204.296V204.295Z" fill="#FB4F14"/>
<path d="M472.471 285.278C472.522 280.09 473.911 275.866 474.202 275.054L465.151 270.83L465.114 270.821L465.096 270.793C459.507 264.752 398.985 226.721 398.376 226.334L398.145 226.191L398.371 226.048L402.843 223.069L361.826 205.711L361.78 205.688L361.748 205.646C345.1 180.767 312.29 179.776 305.99 179.822C318.488 183.682 322.305 187.482 323.27 190.013C323.912 191.705 323.27 192.761 323.242 192.803L323.173 192.914L323.053 192.882C181.531 154.339 65.759 243.018 60.908 246.808C66.465 252.411 78.954 259.96 123.848 269.921C133.868 262.1 181.623 228.173 253.702 230.17L242.007 212.517C242.007 212.517 286.652 224.11 312.138 238.258C310.172 257.11 321.858 275.279 340.707 280.84C354.221 284.824 368.155 281.384 378.133 272.899L410.159 293.319L379.434 281.408C366.368 290.852 349.12 294.14 332.611 288.777C312.183 282.15 298.637 264.138 296.713 244.05C227.551 226.697 176.556 270.395 166.365 280.015C174.603 282.62 182.205 285.581 189.1 288.878C197.5 292.899 205.065 297.515 211.697 302.671C216.82 296.427 237.243 274.979 276.409 274.656C276.409 274.656 237.954 284.598 225.695 315.896C236.587 328.499 242.195 341.817 246.506 354.535C247.484 342.448 251.352 331.353 258.049 321.554C263.527 313.549 270.88 306.382 279.907 300.258C295.276 289.831 310.378 285.995 310.53 285.958L310.613 285.935L310.678 285.99C341.841 311.086 376.143 291.325 376.484 291.118L376.553 291.081L376.636 291.109C386.227 294.77 394.331 298.875 400.705 303.316C405.814 306.862 409.839 310.639 412.668 314.526C417.057 320.562 417.182 324.902 417.154 325.806L440.392 327.328L447.209 321.513C426.089 318.778 419.687 312.221 418.381 306.604C416.11 293.051 429.956 291.382 436.266 292.202C450.975 294.12 468.86 307.286 475.594 316.444L480.579 303.071C473.794 297.92 472.419 290.551 472.47 285.275" fill="#FFFFFE"/>
<path d="M390.534 230.858C390.132 233.565 387.7 235.543 384.922 235.327C382.024 235.11 379.85 232.579 380.071 229.678C380.182 228.318 380.8 227.114 381.723 226.247C366.188 218.629 358.06 217.471 358.06 217.471C376.877 229.95 384.908 240.358 384.908 240.358L389.994 236.89L437.574 263.424C418.646 247.999 402.894 237.71 390.534 230.858Z" fill="#002244"/>
<path d="M380.071 229.677C379.849 232.578 382.023 235.109 384.922 235.326C387.7 235.543 390.133 233.564 390.534 230.857C389.786 230.442 389.048 230.036 388.319 229.649L383.127 233.458L384.572 227.675C383.598 227.172 382.647 226.697 381.724 226.245C380.801 227.112 380.182 228.316 380.072 229.676" fill="#FB4F14"/>
<path d="M383.126 233.459L388.318 229.65C387.03 228.949 385.78 228.294 384.57 227.676L383.125 233.459M465.777 276.161C454.575 280.639 469.012 293.472 469.012 293.472C437.618 268.713 465.777 276.161 465.777 276.161ZM329.212 195.304C349.51 195.714 329.364 187.109 329.364 187.109C329.364 187.109 343.976 189.35 352.478 202.894C344.456 199.804 335.683 196.894 329.212 195.304Z" fill="#002244"/>
</g>
<defs>
<clipPath id="clip0_4_334">
<rect width="500" height="500" fill="white"/>
</clipPath>
</defs>
</svg>
