<svg width="500" height="500" viewBox="0 0 500 500" fill="none" xmlns="http://www.w3.org/2000/svg">
<g clip-path="url(#clip0_4_283)">
<path d="M434.973 183.278C434.973 183.278 440.967 178.133 447.236 178.246C453.52 178.344 457.857 180.451 460.218 182.965C460.218 182.965 465.214 182.282 470.64 183.771C476.059 185.269 483.714 189.743 486.696 194.952C489.674 200.17 490.02 206.167 486.925 211.841C486.925 211.841 487.951 215.699 485.419 220.485C482.864 225.282 478.698 227.773 478.698 227.773C478.698 227.773 475.847 234.863 468.41 238.159C460.958 241.46 451.174 237.732 451.174 237.732C451.174 237.732 445.633 238.812 441.454 238.812C437.243 238.804 431.367 236.996 429.562 236.146C429.562 236.146 424.571 243.472 423.18 245.219C423.18 245.219 429.996 251.151 437.453 253.487C444.895 255.822 450.747 256.892 454.159 259.331C457.541 261.794 458.845 264.184 458.845 264.184C458.845 264.184 464.047 263.374 469.041 264.552C474.045 265.726 479.883 269.658 483.718 274.883C487.549 280.1 489.888 286.795 488.292 293.169C486.697 299.564 483.051 301.888 483.051 301.888C483.051 301.888 481.274 307.761 477.653 311.368C474.046 315.009 468.892 315.242 468.892 315.242C468.892 315.242 466.064 319.04 458.724 320.205C451.389 321.379 446.136 317.319 446.136 317.319C446.136 317.319 440.338 317.976 432.448 315.525C424.581 313.087 419.193 305.017 419.193 305.017C419.193 305.017 414.068 302.552 404.593 302.117C395.122 301.686 373.973 297.43 364.557 291.952C364.557 291.952 359.019 294.627 342.238 295.496C342.238 295.496 339.751 287.915 334.886 284.114C334.886 284.114 320.461 292.121 315.902 294.236C311.322 296.373 302.854 300.06 295.486 300.507C295.486 300.507 293.554 312.541 290.037 319.039C286.534 325.54 279.789 330.369 274.077 332.263C274.077 332.263 282.39 335.214 286.764 341.704C291.113 348.206 292.606 355.33 289.632 361.074C286.647 366.823 283.285 368.384 283.285 368.384C283.285 368.384 281.578 374.187 274.862 377.201C268.138 380.217 259.688 378.62 259.688 378.62C259.688 378.62 255.009 381.087 248.602 381.037C242.185 380.98 234.145 375.521 234.145 375.521C234.145 375.521 213.111 377.446 206.851 376.92C200.595 376.415 193.185 373.818 189.653 364.574C189.653 364.574 185.81 367.784 180.076 370.554C174.333 373.321 163.454 378.656 155.638 384.225L155.898 388.381C155.898 388.381 167.323 392.686 168.055 404.388C168.806 416.098 162.413 420.441 160.599 421.682C160.599 421.682 158.168 426.963 152.953 429.618C147.745 432.269 141.987 431.047 141.987 431.047C141.987 431.047 129.141 436.751 119.35 427.38C109.554 418.022 112.326 407.912 112.44 405.453C112.536 403.015 113.249 381.56 113.148 380.564C113.148 380.564 108.286 374.062 109.348 366.716C110.412 359.377 116.048 354.791 118.701 352.563C121.37 350.323 124.561 346.612 126.143 340.968C127.735 335.333 127.846 323.82 128.38 319.569C128.919 315.311 129.141 308.178 129.141 308.178C129.141 308.178 109.889 302.867 99.883 291.69C89.882 280.51 87.11 272.42 84.546 261.366C82.0109 250.299 80.209 239.115 70.046 232.841C70.046 232.841 63.391 234.747 55.745 231.662C48.09 228.58 43.402 222.406 38.516 216.34C33.62 210.273 16.194 207.506 10.002 207.191C10.002 207.191 23.084 192.709 40.747 186.537C58.399 180.374 66.8 182.81 72.653 186.114C78.508 189.415 83.106 194.971 85.272 202.519C85.272 202.519 96.784 207.5 104.667 216.768C112.536 226.018 116.257 234.216 118.82 244.324C121.37 254.446 124.58 266.704 144.871 271.158C144.871 271.158 156.894 259.128 161.451 256.133C166.038 253.165 171.77 251.477 173.424 250.991C175.067 250.505 182.798 247.988 182.798 247.988C182.798 247.988 194.945 238.076 196.924 236.097C196.924 236.097 201.453 228.046 204.323 223.364C207.196 218.682 211.691 214.039 211.691 214.039C211.691 214.039 205.794 203.075 206.12 191.076C206.12 191.076 209.023 192.395 211.622 192.772C211.622 192.772 211.444 183.886 217.197 175.689C222.937 167.479 228.733 162.342 228.733 162.342C228.733 162.342 228.295 151.546 234.834 141.316C234.834 141.316 229.852 133.328 229.424 128.221C229.424 128.221 237.718 127.476 243.994 125.666C250.276 123.858 253.352 122.588 256.547 118.739C259.734 114.913 267.387 105.548 277.071 100.966C286.762 96.3932 297.496 94.7302 305.205 95.3392C305.205 95.3392 300.477 91.2802 295.246 89.5842C295.246 89.5842 304.166 83.0132 321.723 81.1372C321.723 81.1372 321.854 72.2382 323.752 67.5542C323.752 67.5542 347.064 83.5162 358.753 88.1002C370.456 92.6842 378.956 94.1662 385.023 97.1542C391.065 100.118 395.362 105.612 396.349 108.995C396.349 108.995 402.882 111.507 407.882 115.024C412.875 118.533 415.773 127.005 415.773 127.005C415.773 127.005 425.221 130.776 435.011 136.731C444.787 142.689 456.796 155.252 456.796 155.252C456.796 155.252 449.229 158.586 442.804 167.879C442.804 167.879 439.849 178.193 434.976 183.274" fill="#B0B7BC"/>
<path d="M421.299 187.581C421.299 187.581 425.704 187.494 429.562 188.57C433.436 189.653 435.881 190.923 435.881 190.923C435.881 190.923 438.728 189.115 440.178 187.86C441.613 186.584 445.937 184.348 449.792 184.973C453.666 185.603 456.399 188.364 457.114 189.541C457.114 189.541 460.415 189.741 463.472 189.57C466.533 189.38 472.2 190.459 476.69 194.063C481.209 197.662 485.325 202.981 479.842 210.081C479.842 210.081 481.017 214.585 479.396 217.821C477.778 221.073 473.592 222.842 473.592 222.842C473.592 222.842 471.016 230.523 464.998 232.498C458.97 234.488 451.408 230.776 451.408 230.776C451.408 230.776 444.315 232.498 439.179 232.144C434.056 231.777 428.449 227.445 428.449 227.445C428.449 227.445 427.217 228.18 426.059 229.88C424.878 231.598 416.051 243.978 413.994 246.159C413.994 246.159 422.631 254.555 431.174 258.055C439.724 261.56 444.038 262.119 446.301 262.734C448.536 263.374 453.484 266.161 455.294 271.571C455.294 271.571 460.787 270.203 464.374 270.484C467.976 270.75 471.483 271.465 477.779 277.945C484.074 284.427 482.641 290.289 481.649 292.979C480.662 295.663 476.918 297.994 476.918 297.994C476.918 297.994 476.606 303.421 473.364 306.305C470.121 309.174 465.73 308.681 465.73 308.681C465.73 308.681 464.01 311.961 459.52 313.328C455.01 314.68 450.157 312.324 447.893 310.529C447.893 310.529 438.635 311.344 432.618 308.368C426.603 305.4 423.771 299.574 423.771 299.574C423.771 299.574 413.561 295.397 402.94 295.31C392.329 295.224 371.775 289.481 365.041 284.565C365.041 284.565 354.821 289.224 346.585 289.347C346.585 289.347 344.042 281.632 335.134 276.277C335.134 276.277 316.046 286.861 309.209 290.011C302.378 293.161 290.347 294.303 288.587 294.493C288.587 294.493 289.334 297.383 288.447 302.069C287.516 306.745 284.656 315.937 282.23 318.996C279.787 322.055 273.042 325.828 269.093 327.272C265.139 328.714 260.195 329.979 256.037 332.037C251.913 334.113 246.873 338.325 244.668 340.313C244.668 340.313 251.037 341.926 252.957 341.842C254.872 341.768 258.296 339.862 260.823 338.886C263.348 337.886 270.443 336.535 276.113 340.771C281.781 345 284.745 350.483 284.551 354.639C284.391 358.773 281.706 361.781 277.746 363.829C277.746 363.829 276.564 369.673 271.624 371.467C266.654 373.262 258.425 371.634 258.425 371.634C258.425 371.634 254.519 374.171 249.841 374.431C245.166 374.708 238.874 370.657 237.884 370.12C236.882 369.571 235.903 369.042 234.187 369.042C232.467 369.042 213.958 370.574 208.198 370.574C202.447 370.574 198.49 367.772 196.058 363.279C193.628 358.773 197.035 351.573 199.209 348.708C201.354 345.81 204.789 341.85 205.219 341.036C205.673 340.226 205.776 338.886 204.602 338.072C203.431 337.262 199.676 335.409 199.676 335.409C199.676 335.409 193.986 346.81 191.832 350.671C189.667 354.54 186.877 358.86 181.488 362.192C176.083 365.526 164.653 370.573 158.641 374.257C152.604 377.941 149.032 381.343 149.032 381.343C149.032 381.343 149.094 392.191 149.421 393.527C149.421 393.527 154.852 394.598 157.024 396.484C159.186 398.384 161.332 401.442 161.241 405.671C161.166 409.9 160.6 414.876 155.333 416.843C155.333 416.843 153.862 422.32 149.733 423.937C145.591 425.561 141.357 424.123 141.357 424.123C141.357 424.123 135.702 426.992 129.762 425.74C123.829 424.483 118.879 418.37 118.788 412.145C118.702 405.927 119.769 383.437 119.769 381.981C119.769 380.544 119.769 379.018 118.702 377.045C117.617 375.063 115.091 370.118 115.737 366.96C116.364 363.81 119.595 360.115 122.565 357.591C125.531 355.076 129.142 352.563 130.934 347.513C132.725 342.489 134.255 335.553 134.444 330.233C134.625 324.934 135.269 307.652 136.434 302.972C136.434 302.972 114.106 298.015 104.036 286.496C93.9678 274.971 92.2528 265.786 89.3758 253.46C86.4958 241.123 82.8208 231.692 71.0938 225.555C71.0938 225.555 64.8098 228.617 56.7318 225.109C48.6288 221.596 44.2158 212.415 39.9088 209.162C35.5898 205.931 23.8368 204.071 21.4868 204.138C21.4868 204.138 35.4898 194.415 45.1238 191.534C54.7448 188.657 65.1918 187.758 71.7488 192.985C78.3088 198.185 79.2978 207.201 79.2978 207.201C79.2978 207.201 92.7988 212.781 100.629 222.406C108.457 232.044 110.773 241.032 112.309 247.067C113.845 253.098 118.591 265.155 126.204 270.475C133.82 275.799 142.748 278.036 147.401 278.351C147.401 278.351 160.534 264.622 165.035 261.647C169.518 258.678 174.562 257.5 176.708 256.876C178.876 256.255 186.356 253.773 186.356 253.773C186.356 253.773 199.593 242.368 202.136 240.4C202.136 240.4 209.813 227.09 211.97 223.931C214.14 220.787 219.932 213.384 219.932 213.384C219.932 213.384 214.625 207.323 214.692 199.477C214.692 199.477 217.819 200.099 219.798 199.905C219.798 199.905 217.198 195.498 218.461 189.283C219.723 183.073 226.451 172.987 235.454 165.239C235.454 165.239 235.098 158.679 236.979 152.484C238.876 146.261 242.712 141.295 242.712 141.295C242.712 141.295 238.607 136.213 237.959 132.228C237.959 132.228 245.714 131.5 251.113 129.711C256.505 127.895 260.825 124.071 260.825 124.071C260.825 124.071 271.156 109.803 283.745 105.301C296.359 100.799 309.201 102.19 309.201 102.19C309.201 102.19 315.571 98.0428 318.196 97.1298C318.196 97.1298 313.197 91.4988 309.05 89.7658C309.05 89.7658 318.762 86.8308 327.708 87.5178C327.708 87.5178 327.872 81.2908 328.889 77.6748C328.889 77.6748 344.481 88.9308 351.592 92.0698C358.693 95.2198 372.267 99.7238 376.868 101.17C381.451 102.606 389.231 105.597 390.874 113.908C390.874 113.908 398.437 117.093 401.418 118.718C404.388 120.344 407.45 124.215 408.073 125.836C408.686 127.445 409.314 129.446 410.088 130.693C410.866 131.952 412.197 132.843 413.461 133.285C414.725 133.747 427.221 139.325 432.991 143.645C438.733 147.982 446.577 155.442 446.577 155.442C446.577 155.442 438.773 161.67 436.853 164.543C436.853 164.543 434.518 172.376 430.743 177.945C426.951 183.525 421.303 185.703 421.303 185.703V187.581" fill="#FFFFFE"/>
<path d="M404.557 246.42C404.557 246.42 384.091 267.054 365.62 277.016C365.62 277.016 357.013 281.084 350.328 282.044C350.328 282.044 345.071 272.002 334.558 268.891C334.558 268.891 312.291 260.362 280.097 267.07C280.097 267.07 310.726 264.829 326.069 273.682C319.077 277.554 309.521 282.684 304.453 284.664C295.849 288.016 284.636 287.783 280.316 288.499C280.316 288.499 282.473 296.145 282.227 298.536C281.995 300.919 279.608 312.889 275.553 316.233C271.483 319.569 260.97 322.916 255.479 324.845C249.986 326.743 237.794 334.397 233.97 344.914C233.97 344.914 248.31 348.035 252.129 348.494C255.955 348.969 259.536 346.823 262.173 345.637C264.795 344.43 268.135 343.713 271.725 345.87C275.304 348.036 276.984 351.135 277.697 353.525C278.416 355.912 275.797 358.055 271.483 358.786C271.483 358.786 271.966 363.808 269.342 364.994C266.705 366.188 260.258 365.48 256.662 364.272C256.662 364.272 254.293 367.636 249.267 367.636C244.255 367.636 240.9 362.367 235.651 362.13C230.396 361.892 213.909 364.042 207.932 363.57C201.955 363.086 201.485 359.506 202.679 356.147C203.878 352.812 211.277 345.398 212.474 342.042C213.508 339.129 214.424 334.035 202.492 329.286C203.006 328.652 211.604 318.033 225.113 309.883C238.34 301.917 251.473 294.478 266.856 289.578C260.652 290.179 251.146 292.491 238.736 297.73C220.085 305.631 209.351 315.832 209.351 315.832C209.351 315.832 210.731 310.444 226.853 296.109L226.686 296.224C204.648 306.268 195.439 328.948 195.274 329.299C192.495 334.966 184.806 350.412 181.885 353.526C178.31 357.348 168.28 360.936 160.878 365.232C153.457 369.539 143.901 375.045 142.706 378.622C141.509 382.215 142.966 398.457 143.424 399.429C143.424 399.429 151.795 400.141 153.457 402.291C155.127 404.44 154.909 408.741 153.927 409.942C152.985 411.15 149.396 411.15 149.396 411.15C149.396 411.15 149.635 415.909 147.244 417.347C144.858 418.797 139.604 416.644 139.604 416.644C139.604 416.644 138.164 418.797 134.589 419.26C131.01 419.746 128.376 418.323 126.702 415.683C125.029 413.051 125.755 409.466 125.755 406.588C125.755 403.723 126.937 383.638 126.46 378.857C125.997 374.088 121.923 370.739 122.641 367.621C123.359 364.523 132.192 359.488 135.055 354.232C137.932 348.968 140.56 342.039 141.265 329.86C141.983 317.663 141.983 306.416 143.9 300.207C144.145 299.425 144.38 298.685 144.593 297.962C136.83 296.5 120.212 291.925 112.442 285.122C103.695 277.492 99.792 269.855 97.925 259.995C96.065 250.115 92.078 238.98 88.075 231.875C83.897 224.519 71.136 217.916 71.136 217.916C71.136 217.916 65.441 222.507 57.954 218.348C49.583 213.717 48.721 210.863 45.79 206.991C43.183 203.575 38.074 202.554 36.687 202.323C54.227 195.481 62.91 204.911 62.91 204.911C62.91 204.911 62.468 200.169 55.714 198.426C53.682 197.885 51.162 197.275 48.393 197.02C49.716 196.512 50.927 196.104 51.819 195.875C54.773 195.136 61.732 194.409 67.031 197.988C71.96 201.32 73.725 211.399 73.725 211.399C76.142 212.887 90.468 220.02 95.127 225.978C99.792 231.944 103.139 238.025 105.182 246.029C107.232 254.041 110.016 265.774 121.922 275.643C131.063 283.198 144.556 284.966 150.356 285.376C150.591 285.06 150.816 284.749 151.068 284.428C155.125 279.164 167.318 267.698 170.888 266.032C174.472 264.355 188.818 260.751 190.493 259.092C192.172 257.432 206.268 246.173 207.454 244.504C208.655 242.844 215.103 231.356 218.921 225.609C222.74 219.876 232.309 209.371 232.309 209.371C232.309 209.371 224.196 209.117 222.055 205.531C222.055 205.531 230.907 201.635 231.698 196.616C232.153 193.65 230.111 191.517 224.112 193.984C224.112 193.984 224.886 188.322 229.906 181.153C234.941 173.982 244.433 166.02 248.309 163.223C253.102 159.762 254.762 155.34 253.562 152.948C252.364 150.545 247.105 150.307 243.515 154.384C243.515 154.384 246.876 144.338 253.082 140.046C253.082 140.046 248.532 139.081 246.876 135.484C246.876 135.484 253.799 135.729 258.582 133.09C263.365 130.474 275.796 122.592 280.559 122.349C280.559 122.349 276.735 120.424 270.77 122.592C270.77 122.592 279.921 111.589 293.943 109.435C307.98 107.282 320.456 111.105 326.189 108.477C326.189 108.477 323.563 105.14 317.347 105.14C317.347 105.14 325.002 100.585 329.781 100.585C329.781 100.585 325.722 95.803 319.974 93.648C319.974 93.648 332.398 94.132 336.947 96.285C336.947 96.285 333.826 92.702 334.322 88.627C334.322 88.627 343.88 97.232 357.964 102.021C372.06 106.802 380.67 108.476 383.059 112.294C385.449 116.122 384.018 118.274 384.018 118.274C384.018 118.274 394.284 122.592 397.873 124.48C401.455 126.404 402.885 130.707 403.359 132.153C403.84 133.569 406.239 137.645 408.138 138.365C410.054 139.081 420.571 143.624 426.29 147.209C432.033 150.798 437.523 155.817 437.523 155.817C437.523 155.817 432.034 158.916 430.852 161.553C429.647 164.177 427.25 176.844 416.978 180.192C416.978 180.192 420.079 174.933 417.721 169.678C417.721 169.678 405.517 168.957 396.907 174.227C396.907 174.227 395.359 184.509 400.854 187.388C406.347 190.25 412.671 181.623 413.4 179.712C413.4 179.712 413.218 184.557 413.4 187.824L414.866 188.061C415.213 191.509 414.593 196.455 414.593 196.455C414.593 196.455 418.649 193.344 425.352 194.54C432.034 195.727 433.705 197.885 435.865 197.885C438.018 197.885 442.303 195.021 443.727 193.583C445.177 192.152 447.576 191.185 449.716 191.909C451.864 192.626 453.06 195.978 453.06 195.978C453.06 195.978 461.197 196.695 463.819 196.208C466.438 195.726 471.692 198.607 473.128 199.795C474.559 200.994 476.241 202.912 475.744 204.353C475.281 205.772 471.924 207.93 471.924 207.93C471.924 207.93 473.844 211.756 473.598 214.139C473.363 216.535 468.345 217.484 468.345 217.484C468.345 217.484 466.675 223.943 463.57 225.606C460.478 227.286 451.619 223.704 451.619 223.704C451.619 223.704 446.359 225.606 440.399 225.383C434.427 225.143 431.07 220.595 431.07 220.595C431.07 220.595 426.537 219.873 422.939 222.987C419.38 226.103 411.971 239.726 404.557 246.417V246.42ZM354.506 206.213C362.985 215.351 356.898 223.68 356.898 223.68C365.723 221.838 390.698 212.715 404.317 201.712C404.317 201.712 394.467 196.455 387.354 196.054C381.015 195.693 377.115 202.639 376.678 209.489C371.571 212.616 364.27 214.068 364.27 214.068L364.29 213.937C364.467 212.831 365.359 204.625 355.382 199.504C344.957 194.149 324.641 190.713 302.699 202.59C324.641 194.34 347.682 198.882 354.506 206.214V206.213ZM267.276 203.511C281.447 200.155 290.365 192.081 297.906 188.397C306.556 184.163 318.071 180.276 333.209 182.517C333.209 182.517 311.662 173.463 291.276 184.296C270.892 195.117 261.147 200.933 240.579 201.658C240.579 201.658 252.323 207.046 267.276 203.51V203.511ZM318.727 160.052C297.472 156.176 283.367 169.833 283.367 169.833C283.367 169.833 299.364 163.429 316.413 165.22C333.439 167.011 349.422 179.891 349.422 179.891C349.422 179.891 339.975 163.935 318.727 160.052ZM390.593 137.447C388.488 137.447 380.947 139.176 380.947 139.176C380.947 139.176 388.285 140.726 390.228 142.08C392.156 143.43 398.32 148.069 398.32 148.069C398.32 148.069 396.789 146.136 397.152 145.171C397.547 144.212 400.244 140.521 400.244 140.521C397.152 140.33 392.72 137.446 390.592 137.446L390.593 137.447ZM475.744 288.016C476.469 291.122 473.128 293.039 470.261 293.039C470.261 293.039 470.984 299.73 468.579 301.405C466.193 303.072 461.659 300.677 461.659 300.677C461.659 300.677 461.418 305.467 457.836 306.657C454.257 307.851 449.953 303.551 449.953 303.551C449.953 303.551 441.58 304.997 435.865 302.357C430.13 299.729 428.926 294.475 428.926 294.475C428.926 294.475 419.6 290.177 410.529 289.223C402.751 288.39 385.959 287.54 371.749 280.758C377.638 277.268 386.323 271.814 393.132 266.199C399.675 260.796 405.583 255.01 409.412 251.042C413.709 254.947 420.08 260.243 425.352 262.682C434.183 266.741 440.644 268.425 443.5 268.89C446.359 269.361 448.524 272.483 449.226 274.15C449.953 275.823 452.825 278.447 456.17 278.218C459.518 277.973 463.82 276.064 467.635 278.218C471.446 280.368 475.041 284.901 475.744 288.016Z" fill="#0076B6"/>
</g>
<defs>
<clipPath id="clip0_4_283">
<rect width="500" height="500" fill="white"/>
</clipPath>
</defs>
</svg>
