<svg width="500" height="500" viewBox="0 0 500 500" fill="none" xmlns="http://www.w3.org/2000/svg">
<g clip-path="url(#clip0_4_277)">
<path d="M248.689 102.258C127.44 102.269 25 170.2 25 250.609C25 334.312 121.171 397.429 248.689 397.429C323.113 397.429 393.674 371.28 437.445 327.487C461.539 303.385 474.789 276.074 474.763 250.609C474.731 210.962 451.401 173.726 409.072 145.746C366.632 117.698 309.68 102.258 248.689 102.258Z" fill="#FFB612"/>
<path d="M92.2602 348.926C53.3582 322.988 31.9282 288.061 31.9282 250.609C31.9282 175.278 133.221 109.193 248.69 109.183C369.465 109.178 467.768 172.621 467.842 250.609C467.863 274.237 455.329 299.796 432.546 322.593C390.049 365.113 321.32 390.504 248.691 390.504C188.011 390.504 132.453 375.733 92.2622 348.926" fill="#203731"/>
<path d="M345.728 211.757C328.314 185.829 290.186 167.848 245.288 167.848C183.666 167.848 133.699 201.732 133.699 243.526C133.699 285.314 168.969 322.009 245.288 321.967C291.118 321.946 327.967 302.159 345.18 276.169L215.003 276.395L214.603 242.59L440.572 242.511C440.877 245.221 441.193 247.863 441.193 250.61C441.193 315.679 355.003 368.424 248.689 368.424C142.38 368.424 56.1948 315.679 56.1948 250.61C56.1948 185.541 147.496 130.802 248.689 130.407C332.915 130.086 404.513 164.875 430.623 211.705L345.728 211.758" fill="#FFFFFE"/>
</g>
<defs>
<clipPath id="clip0_4_277">
<rect width="500" height="500" fill="white"/>
</clipPath>
</defs>
</svg>
