<svg width="500" height="500" viewBox="0 0 500 500" fill="none" xmlns="http://www.w3.org/2000/svg">
<g clip-path="url(#clip0_4_151)">
<path d="M347.117 127.145C434.739 193.872 368.058 203.861 299.63 213.606C299.63 213.606 270.755 205.635 220.719 180.763C107.24 124.363 142.967 97.7869 232.154 81.7069C89.412 19.4789 -29.559 127.823 101.686 233.177L65.672 258.939C95.255 277.087 156.55 315.157 147.645 373.455L117.223 395.213L210.13 437.343L283.442 404.099C283.974 371.813 341.637 355.044 366.448 289.37C503.028 258.012 468.241 137.787 347.116 127.146" fill="#FFFFFE"/>
<path d="M241.477 326.465L215.138 296.486L184.898 300.998L198.875 277.956L172.542 247.958L207.523 263.712L221.469 240.664L229.096 273.432L264.07 289.161L233.817 293.685L241.476 326.465H241.477ZM284.686 219.758C113.239 153.495 101.886 99.1332 208.901 80.3462C75.065 43.9562 -3.00002 141.019 129.421 233.582L93.889 258.999C131.619 284.222 171.603 321.583 158.039 380.376L140.135 393.166L208.9 424.361C272.894 354.219 306.365 286.07 284.685 219.758H284.686Z" fill="#03202F"/>
<path d="M371.719 137.585C430.559 183.682 389.704 213.135 317.97 221.137C336.118 297.689 280.472 367.806 221.557 422.099L275.575 397.609C279.57 366.496 334.377 350.315 360.347 281.277C482.329 254.043 462.421 166.442 371.719 137.585Z" fill="#A71930"/>
</g>
<defs>
<clipPath id="clip0_4_151">
<rect width="500" height="500" fill="white"/>
</clipPath>
</defs>
</svg>
