<svg width="500" height="500" viewBox="0 0 500 500" fill="none" xmlns="http://www.w3.org/2000/svg">
<g clip-path="url(#clip0_4_164)">
<path d="M249.659 439.348C213.224 439.511 185.285 429.107 171.913 422.049C145.714 408.297 124.128 390.09 105.543 364.82C78.8339 328.594 73.6639 299.425 71.5359 283.54C70.2849 275.269 68.7979 255.39 71.5889 237.556C74.7469 211.824 80.5949 199.007 84.7779 186.464C88.0309 177.547 98.5239 156.086 104.751 146.244C110.042 138.53 119.705 124.316 123.646 119.298C124.723 117.722 123.325 118.468 122.732 118.484C121.287 118.836 120.541 118.925 119.427 118.836C118.592 118.836 116.921 118.557 115.991 118.279C110.789 117.17 103.354 111.406 104.284 101.369C104.1 99.141 106.512 80.009 108.372 74.06C110.789 65.705 115.802 61.801 124.724 61.055C129.18 61.055 147.944 60.682 156.467 62.011C173.534 63.708 186.029 68.674 193.459 83.724C199.407 96.913 197.368 117.538 189.192 133.329C186.402 138.715 180.832 148.752 175.998 155.252C171.542 161.752 169.682 165.105 165.778 172.346C161.879 179.96 148.874 208.388 144.418 226.964C135.937 261.635 140.698 281.587 157.045 308.717C169.125 326.735 183.244 339.746 194.205 345.689C212.228 357.018 236.84 360.182 249.662 360.182C262.483 360.182 287.095 357.019 305.124 345.689C316.08 339.746 330.199 326.735 342.274 308.717C358.626 281.587 363.387 261.635 354.911 226.964C350.455 208.389 337.445 179.96 333.546 172.346C329.647 165.105 327.787 161.752 323.326 155.252C318.502 148.752 312.922 138.715 310.132 133.329C301.961 117.539 299.922 96.914 305.865 83.724C313.29 68.674 325.796 63.709 342.857 62.011C351.375 60.682 370.144 61.055 374.6 61.055C383.522 61.801 388.54 65.705 390.952 74.06C392.807 80.008 395.229 99.141 395.04 101.369C395.97 111.406 388.54 117.17 383.333 118.279C382.413 118.558 380.732 118.836 379.897 118.836C378.783 118.925 378.042 118.836 376.592 118.484C375.998 118.468 374.601 117.722 375.678 119.298C379.619 124.316 389.277 138.53 394.579 146.244C400.8 156.086 411.299 177.546 414.546 186.464C418.729 199.007 424.577 211.823 427.735 237.556C430.525 255.391 429.038 275.269 427.793 283.54C425.66 299.425 420.5 328.594 393.78 364.82C375.195 390.09 353.609 408.298 327.415 422.049C314.042 429.106 286.104 439.179 249.663 439.348" fill="#FFFFFE"/>
<path d="M249.459 403.537C251.871 403.537 253.831 401.582 253.831 399.17C253.831 396.753 251.871 394.793 249.459 394.793C247.042 394.793 245.087 396.753 245.087 399.17C245.087 401.582 247.042 403.537 249.459 403.537ZM133.081 348.173C135.498 348.173 137.453 346.218 137.453 343.801C137.453 341.384 135.498 339.424 133.081 339.424C130.669 339.424 128.709 341.384 128.709 343.801C128.709 346.218 130.669 348.173 133.081 348.173ZM107.076 247.109C109.488 247.109 111.448 245.149 111.448 242.737C111.448 240.315 109.488 238.36 107.076 238.36C104.659 238.36 102.704 240.315 102.704 242.737C102.704 245.149 104.659 247.109 107.076 247.109ZM158.35 128.2C160.767 128.2 162.722 126.245 162.722 123.828C162.722 121.411 160.767 119.456 158.35 119.456C155.933 119.456 153.973 121.411 153.973 123.828C153.973 126.245 155.933 128.2 158.35 128.2ZM370.645 343.802C370.645 341.385 368.685 339.425 366.273 339.425C363.861 339.425 361.896 341.385 361.896 343.802C361.896 346.219 363.861 348.174 366.273 348.174C368.685 348.174 370.645 346.219 370.645 343.802ZM396.655 242.738C396.655 240.316 394.695 238.361 392.278 238.361C389.866 238.361 387.906 240.316 387.906 242.738C387.906 245.15 389.866 247.11 392.278 247.11C394.695 247.11 396.655 245.15 396.655 242.738ZM345.381 123.829C345.381 121.412 343.421 119.457 341.004 119.457C338.587 119.457 336.632 121.412 336.632 123.829C336.632 126.246 338.587 128.201 341.004 128.201C343.421 128.201 345.381 126.246 345.381 123.829ZM168.192 409.781C144.415 395.667 122.861 377.832 102.053 343.503C92.763 326.551 71.214 290.509 81.839 227.715C94.098 170.302 118.779 141.317 132.898 121.438C139.582 111.78 132.709 106.205 127.318 108.249C122.804 109.962 119.704 110.072 119.704 110.072C111.717 108.99 112.831 103.793 114.318 90.2249L116.178 79.0799C117.844 69.2329 122.305 69.4169 134.007 69.6429C152.587 70.0109 155.929 70.1629 165.965 72.0179C179.343 74.9919 196.804 88.3709 183.058 125.154C174.509 144.849 165.592 151.533 155.929 171.974C145.525 194.643 120.261 245.546 137.354 289.023C160.763 347.361 206.094 368.17 249.197 368.916C292.3 368.354 342.087 342.9 362.002 289.023C379.095 245.545 353.831 194.643 343.422 171.974C333.764 151.533 324.847 144.849 316.298 125.154C302.552 88.3709 320.018 74.9919 333.391 72.0179C343.422 70.1629 346.769 70.0109 365.349 69.6429C377.051 69.4169 381.517 69.2329 383.188 79.0799L385.043 90.2249C386.525 103.793 387.644 108.99 379.657 110.072C379.657 110.072 376.557 109.962 372.038 108.249C366.647 106.205 359.769 111.78 366.458 121.438C380.582 141.317 405.252 170.302 417.517 227.715C428.142 290.509 406.593 326.551 397.303 343.503C376.5 377.832 354.946 395.667 331.164 409.781C298.612 432.455 237.68 431.147 249.382 430.411C261.646 431.341 204.608 432.823 168.194 409.781H168.192Z" fill="#002C5F"/>
</g>
<defs>
<clipPath id="clip0_4_164">
<rect width="500" height="500" fill="white"/>
</clipPath>
</defs>
</svg>
