<svg width="500" height="500" viewBox="0 0 500 500" fill="none" xmlns="http://www.w3.org/2000/svg">
<g clip-path="url(#clip0_4_326)">
<path d="M43.108 340.48C40.399 339.246 36.839 338.331 33.694 333.385C30.161 327.808 31.408 323.736 32.542 316.029C33.743 307.862 33.608 304.556 31.314 295.474C29.433 288.014 28.371 285.451 27.205 276.798C26.485 271.46 25.958 266.969 25.909 263.951C25.837 259.464 26.179 255.262 26.669 249.018C26.939 245.549 27.785 240.626 30.777 231.612C31.763 228.657 34.427 221.67 36.056 218.35C38.788 212.809 41.717 210.066 40.353 200.291C39.831 196.534 38.4 194.516 37.811 189.475C37.145 183.759 37.527 181.074 38.598 177.538C39.669 174.02 40.947 171.822 43.13 169.119C44.399 167.551 46.797 164.506 52.314 163.529C52.314 163.529 55.936 162.493 58.902 163.308C66.354 163.957 65.256 170.542 76.38 163.641C81.708 160.663 90.848 158.285 100.068 164.754C104.006 167.069 107.299 174.934 103.065 161.966C101.085 154.259 99.073 150.416 96.378 138.285C93.224 126.812 95.779 115.104 105.126 108.771C111.872 102.843 125.56 105.483 141.437 108.46C155.369 111.077 158.663 106.685 168.149 107.091C173.482 107.321 178.008 107.339 182.401 108.37C188.458 109.798 191.873 111.568 195.221 113.393C204.725 118.578 204.176 113.456 217.451 115.204C221.699 115.763 223.368 115.136 227.67 116.38C232.647 117.812 235.73 119.457 240.126 122.02C252.434 129.191 252.447 130.804 272.949 129.908C276.743 129.741 283.506 132.669 287.165 135.061C291.233 137.723 301.119 143.476 309.854 144.034C320.978 144.746 330.509 143.327 344.225 153.084C354.242 161.999 366.689 161.58 377.804 167.616C381.377 169.553 389.913 176.085 394.107 182.824C395.002 184.27 398.661 186.644 407.796 188.157C416.008 189.513 424.617 199.27 429.202 206.081C435.106 211.527 431.645 207.829 439.736 213.473C443.647 216.203 445.609 217.568 449.433 220.428C454.414 224.153 451.238 221.437 457.187 226.135C458.276 226.991 459.725 228.626 463.698 232.203C468.86 236.176 471.119 239.712 472.856 243.176C475.786 249.005 473.441 253.113 470.736 257.947C468.738 261.501 465.539 267.222 460.44 272.038C454.779 277.385 455.229 277.538 450.063 280.633C438.323 287.647 429.552 285.273 424.584 293.647C417.245 306.017 411.341 310.012 405.801 312.607C394.637 317.841 387.144 317.657 380.061 323.22C374.288 327.752 365.162 333.585 358.992 336.338C347.117 341.631 345.654 338.518 337.527 343.595C334.769 345.32 336.519 344.325 329.58 350.046C325.584 353.339 319.212 356.132 316.044 356.573C311.9 357.154 307.323 357.609 303.457 358.645C293.706 361.258 292.644 364.686 281.898 366.749C269.356 369.159 264.172 367.965 252.202 373.677C249.079 375.168 245.668 376.659 241.096 379.141C237.334 381.191 225.769 383.988 216.836 384.434C212.944 384.632 209.29 382.065 199.871 386.556C187.712 392.353 187.541 391.763 177.902 393.718C174.397 394.43 170.455 394.038 166.787 394.024C159.78 394.006 152.481 391.582 144.993 391.812C137.316 392.055 139.098 391.582 132.708 392.308L128.181 393.047L121.507 394.534L119.082 395.178C112.962 396.52 109.304 395.971 105.721 395.268C99.705 394.074 93.036 390.48 90.615 387.182C86.637 382.43 86.092 377.857 86.556 371.623C88.801 360.758 93.405 345.289 95.542 339.771C95.542 339.771 99.07 331.748 90.534 336.244C81.885 339.433 75.126 333.852 69.879 335.64C64.704 338.244 61.504 340.622 55.033 341.568C48.314 342.546 43.103 340.482 43.103 340.482" fill="#FFFFFE"/>
<path d="M139.467 382.977C147.225 382.103 149.079 382.635 156.032 383.545C162.494 384.392 168.677 385.64 175.081 384.91C178.29 384.545 181.458 383.932 184.599 382.928C193.577 380.054 197.744 376.153 208.562 374.68C217.522 373.464 217.526 374.959 225.379 374.585C233.61 374.193 238.186 370.684 241.651 368.801C245.854 366.513 246.952 366.328 249.765 364.823C259.935 359.377 271.878 360.053 283.304 357.26C291.337 355.296 294.482 351.508 303.455 349.102C307.019 348.147 310.93 348.215 314.746 347.679C317.667 347.274 322.828 344.674 325.717 342.008C330.672 337.418 330.123 337.233 333.975 335.062C340.397 331.427 347.669 331.539 354.126 328.539C360.134 325.751 366.312 323.377 371.069 318.575C377.999 311.57 388.939 309.611 397.934 306.345C403.231 304.413 410.188 301.007 416.024 290.908C421.753 281.016 426.82 279.597 437.003 276.529C443.776 274.484 446.701 273.038 451.916 268.114C456.614 263.681 458.302 260.83 460.412 257.726C462.829 254.163 467.576 248.311 462.532 243.834C460.318 241.865 458.077 238.212 453.32 234.55C449.666 231.257 446.646 229.419 445.643 228.626C440.162 224.302 444.779 227.716 439.514 224.383C435.797 222.032 434.748 220.14 430.919 217.977C424.061 214.103 423.345 212.959 417.864 206.369C413.107 197.589 405.646 196.369 398.167 194.697C390.94 193.084 385.814 187.314 384.595 185.327C380.752 179.106 374.542 176.02 371.248 174.232C361.015 168.678 349.216 169.565 339.995 161.358C326.099 151.479 322.44 153.308 307.833 152.858C299.778 152.615 289.207 147.461 285.765 144.596C282.871 142.186 279.532 140.6 276.549 139.681C266.253 136.505 259.201 141.96 244.806 134.947C240.598 132.893 236.8 130.077 232.665 127.695C230.091 126.213 228.129 125.497 224.097 124.627C216.478 122.978 209.845 124.032 200.616 124.816C196.287 125.19 193.717 122.888 189.739 120.739C186.085 118.761 182.183 117.306 177.35 116.41C171.095 115.248 163.994 116.068 156.722 117.527C142.326 120.419 129.114 113.126 115.232 114.423C112.878 114.644 108.216 117.599 106.655 120.91C104.558 125.347 104.558 127.91 104.868 132.298C105.291 138.253 105.993 138.677 107.159 142.551C109.679 150.961 110.957 155.538 112.969 161.209C115.305 167.799 115.228 175.822 109.679 178.381C107.006 179.615 102.56 179.647 100.049 177.728C96.1429 174.75 94.0049 170.557 89.5999 169.692C83.7229 168.53 76.6709 174.566 70.4249 176.21C64.1609 177.863 63.3639 174.453 59.0129 172.435C56.1189 171.093 53.3379 173.048 51.7139 173.949C48.7839 175.584 48.0779 178.958 47.3939 182.553C46.8489 185.431 46.6149 188.112 47.3259 191.247C48.3569 195.806 49.8729 198.54 49.9899 201.716C50.2689 209.698 48.9909 215.554 45.6969 219.766C43.6039 222.446 40.8639 229.843 39.9999 232.577C37.1109 241.721 37.4569 240.127 36.0619 248.623C35.3459 252.956 35.4629 257.821 35.0809 261.88C35.0089 262.628 35.5629 271.853 36.0079 274.606C37.1109 281.426 38.3889 285.818 39.8239 291.566C41.8899 299.873 42.7759 305.035 42.5689 311.459C42.3619 318.036 38.2169 324.221 42.1549 328.865C44.6029 331.748 50.9799 334.352 56.1679 332.063C61.4239 329.734 65.2579 326.991 69.3889 326.423C76.9989 325.373 81.8899 328.635 85.1929 328.247C88.1049 327.905 93.2259 324.977 95.6379 324.774C97.5599 324.612 101.727 324.427 103.189 325.522C105.507 327.261 106.938 329.184 106.551 335.193C106.542 335.283 105.142 341.594 105.129 341.648C102.73 349.549 100.143 356.883 98.9049 362.311C97.6129 367.973 91.4029 380.235 104.004 385.258C109.31 387.371 114.921 386.961 121.874 385.172C125.398 384.262 126.86 384.113 130.15 383.564C130.15 383.316 135.087 383.406 135.087 383.163L139.47 382.978" fill="black"/>
<path d="M377.989 192.75C381.4 194.98 385.32 200.732 388.614 205.489C392.633 209.151 392.997 211.273 402.965 213.052C401.039 212.705 411.934 216.467 413.576 217.385C417.86 219.763 418.953 221.227 422.751 225.561C426.679 230.043 428.241 231.241 436.166 236.543C439.244 238.606 439.793 239.345 445.656 243.516C448.072 245.237 451.132 248.021 452.221 250.309C454.993 256.12 451.123 258.188 445.098 261.381C435.193 266.638 426.995 265.138 418.075 274.255C410.632 281.854 402.5 291.125 396.997 292.792C394.598 293.522 388.245 295.513 383.906 298.211C379.608 300.887 378.394 300.801 374.541 304.238C369.965 308.319 367.409 311.247 358.994 314.157C353.805 315.945 347.681 316.779 342.245 318.409C338.222 319.621 335.005 321.296 331.427 323.328C325.964 326.427 319.389 333.68 310.353 335.36C292.461 338.693 297.213 338.329 284.456 344.108C281.288 345.545 274.749 347.108 270.159 347.108C262.487 347.108 256.502 348.378 249.747 351.973C244.829 354.595 239.82 359.41 230.168 360.694C218.243 362.28 217.581 360.784 202.776 363.951C198.285 364.919 192.615 368.194 188.331 369.744C183.521 371.487 172.189 371.704 164.184 370.969C156.363 370.253 150.621 370.239 139.322 372.289C130.574 373.875 125.858 374.055 117.362 373.839C115.45 373.785 114.01 372.443 112.772 370.424C111.296 368.028 111.121 365.924 111.444 363.28C112.124 357.726 112.007 357.455 113.316 352.311C113.717 350.748 115.679 340.554 116.025 338.995C118.217 329.188 118.892 319.301 111.174 314.837C108.762 313.445 102.768 312.549 98.43 313.319C85.362 315.639 88.102 317.837 79.751 314.882C78.347 314.386 74.796 313.742 72.731 313.828C68.551 313.995 62.593 316.927 57.323 317.756C53.624 318.342 52.656 314.215 52.755 311.265C52.908 306.693 53.385 302.301 53.182 297.188C52.642 283.805 50.307 283.084 48.696 275.016C47.234 267.696 47.656 255.272 47.306 255.624C47.67 245.376 52.31 234.335 54.952 230.52C57.715 226.52 58.309 224.889 60.41 219.997C62.633 214.821 62.336 210.249 61.207 204.438C61.18 204.298 59.834 200.001 60.321 200.001C59.934 197.262 60.595 194.262 61.469 192.402C62.882 189.388 63.98 187.929 66.23 186.956C67.621 186.348 69.092 185.618 70.573 185.515C75.428 185.173 76.41 188.29 85.486 184.479C90.184 182.501 94.855 185.15 97.164 185.997C103.459 188.29 102.366 188.29 106.376 188.42C110.187 188.542 113.855 187.578 117.392 185.429C119.426 184.186 120.965 183.506 122.171 181.749C123.206 180.235 124.578 176.06 124.947 173.902C125.397 171.276 126.131 169.627 125.397 163.406C123.386 155.721 122.657 154.072 121.28 149.207C120.164 145.243 118.814 141.45 118.247 137.81C118.238 137.742 118.085 133.395 118.085 133.395C117.595 129.76 120.065 127.152 123.206 127.125C134.456 127.035 145.008 130.242 156.898 130.166C166.708 130.103 170.879 128.094 182.426 132.301C186.449 133.765 188.825 137.058 195.121 138.833C207.096 142.211 216.609 134.13 226.851 138.955C235.365 142.969 233.574 140.545 241.579 145.653C245.31 148.036 252.253 152.063 262.211 153.527C269.105 154.545 280.04 151.698 291.308 159.874C297.644 164.473 303.435 166.334 311.54 167.172C321.084 168.159 322.011 166.812 329.535 172.267C335.07 176.285 333.545 175.389 339.129 179.551C341.658 181.434 343.642 183.353 347.301 184.997C349.394 185.938 357.417 187.06 357.17 187.047C364.302 187.412 366.309 186.826 371.975 188.844C371.853 188.713 379.288 193.596 377.991 192.75" fill="#FFFFFE"/>
<path d="M131.537 260.604V275.758H188.458L194.124 270.447V252.262H185.718L185.749 247.649L217.119 229.644L219.751 232.351C212.731 237.293 207.286 241.905 203.078 249.225C196.922 259.491 194.672 273.739 198.326 285.086C200.706 292.771 203.627 297.348 208.748 302.69C213.68 307.776 217.883 310.704 225.929 314.546C232.508 317.839 248.047 322.56 260.111 323.839C271.806 324.753 286.432 324.573 296.12 323.289C306.718 322.194 317.689 318.352 324.272 315.64C329.569 313.081 335.419 310.703 339.914 307.189C351.25 299.031 363.202 286.729 363.386 271.359H342.254C335.598 294.963 271.622 305.761 246.035 287.499C227.387 272.823 232.688 259.831 240.549 253.795L242.929 256.358L238.942 260.565L239.234 275.755H293.121L300.065 269.169V252.696H295.934L277.291 232.569C313.116 224.889 330.85 240.619 341.304 257.818H355.34L362.432 250.867V210.978L347.483 210.942L338.528 216.501C306.718 202.415 283.142 204.028 258.464 212.222L254.441 208.127L277.22 194.509L290.963 194.437L297.69 188.031L297.726 174.454H242.741L236.895 180.387V189.64L185.352 219.141V196.415L193.681 187.996V174.311H139.649L132.269 182.946V193.775H141.116V252.259H138.407C138.407 252.259 131.171 260.457 131.535 260.602" fill="black"/>
<path d="M141.118 177.678H190.465V186.534L182.059 186.611V224.959L249.325 186.534H243.403V177.678L294.294 177.606V186.462L282.959 186.611L248.507 206.954L294.875 257.091L296.486 257.127V267.339H245.307V257.019L252.435 257.091L220.665 223.207L182.424 245.163V257.091H190.466V267.267H141.119V257.091H149.525V186.535H141.119V177.679L141.118 177.678ZM359.512 274.658C357.536 285.086 352.784 289.294 346.899 296.064C339.037 303.384 337.431 304.303 329.57 308.506C316.047 315.276 301.971 318.2 285.884 318.574C263.398 319.488 243.481 314.727 231.232 309.605C223.735 306.862 212.584 299.907 205.641 288.014C199.975 276.487 202.752 264.225 204.764 258.189C207.288 250.869 211.307 243.364 223.043 235.355L237.812 251.31C230.319 257.819 224.834 269.716 236.57 283.257C250.61 300.821 282.596 305.762 315.865 295.879C333.046 290.762 340.538 283.622 345.988 274.658H359.515H359.512ZM261.025 215.008C271.073 211.895 299.41 202.197 339.257 219.765L347.668 214.274H359.435L359.291 249.699L346.205 249.848C332.858 229.757 302.519 222.69 274.187 229.464L261.025 215.009V215.008Z" fill="#E31837"/>
</g>
<defs>
<clipPath id="clip0_4_326">
<rect width="500" height="500" fill="white"/>
</clipPath>
</defs>
</svg>
