<svg width="500" height="500" viewBox="0 0 500 500" fill="none" xmlns="http://www.w3.org/2000/svg">
<g clip-path="url(#clip0_4_295)">
<path fill-rule="evenodd" clip-rule="evenodd" d="M488.716 355.524C462.118 319.702 415.694 275.946 360.386 251.382L371.682 277.408C324.652 253.722 272.374 236.719 213.112 236.988L225.742 250.662C116.273 254.95 52.0517 309.233 10 355.524C10.9837 292.845 55.8942 236.241 115.061 201.685L102.883 190.38C146.917 159.904 208.676 151.352 260.802 157.373L253.39 144C426.065 156.832 499.205 285.7 488.716 355.524Z" fill="white"/>
<path fill-rule="evenodd" clip-rule="evenodd" d="M212.304 245.369L199.038 231.004C249.316 229.332 300.144 236.902 359.273 264.693L348.38 239.594C392.895 256.84 442.217 289.032 483.574 338.966C479.932 263.358 403.575 165.386 264.693 151.376L272.415 165.307C216.283 155.771 153.212 165.695 113.074 191.288L125.626 202.938C65.2087 235.34 25.5208 286.882 17.0018 338.966C66.8682 286.882 131.699 250.908 212.304 245.369Z" fill="#0080C6"/>
<path fill-rule="evenodd" clip-rule="evenodd" d="M461.901 298.376C438.367 235.029 367.584 180.414 288.124 167.339L297.458 183.972C249.6 169.168 180.053 170.065 134.337 193.919L147.451 206.091C105.55 224.047 61.3376 262.5 43.8381 297.833C72.5371 271.946 134.977 241.981 186.2 235.614L173.472 221.832C222.701 212.074 288.313 221.733 335.088 240.726L326.015 219.816C360.465 226.878 424.487 257.659 461.901 298.376Z" fill="#FFC20E"/>
</g>
<defs>
<clipPath id="clip0_4_295">
<rect width="500" height="500" fill="white"/>
</clipPath>
</defs>
</svg>
