<svg width="500" height="500" viewBox="0 0 500 500" fill="none" xmlns="http://www.w3.org/2000/svg">
<g clip-path="url(#clip0_4_169)">
<path d="M423.853 141.076C360.883 78.0853 262.782 66.8622 187.213 114.003C166.38 127.824 148.337 145.447 134.029 165.949C133.979 166.01 133.927 166.068 133.875 166.128H94.4143L20 334.497H116.542C130.503 360.522 151.657 381.98 177.48 396.312C226.737 423.42 286.93 421.154 334.011 390.421C339.459 386.854 341.936 380.146 340.114 373.894C338.291 367.642 332.597 363.316 326.086 363.235C324.613 363.237 323.149 363.455 321.739 363.881C312.116 366.771 302.122 368.234 292.075 368.224C263.165 368.293 235.6 356.023 216.303 334.497H306.456L321.939 312.924L382.033 312.93C382.033 312.93 380.203 317.58 379.199 319.856L372.747 334.503H471.1L473.194 326.807C491.259 260.528 472.43 189.65 423.853 141.076ZM463.122 324.065H388.748C391.83 317.076 394.376 309.863 396.363 302.487H316.501L301.1 324.065H229.509L336.544 174.122L336.531 174.117C322.424 168.352 307.318 165.428 292.078 165.513C290.133 165.513 288.201 165.562 286.282 165.661C228.216 168.587 181.909 215.203 181.909 272.083C181.908 275.778 182.105 279.471 182.497 283.145H245.726L226.898 309.637C220.957 317.626 213.081 324.058 201.076 324.058H195.922C214.799 356.61 250.829 378.651 292.082 378.651C303.149 378.662 314.158 377.05 324.756 373.866C325.188 373.733 325.636 373.664 326.088 373.661C327.985 373.739 329.614 375.034 330.119 376.863C330.624 378.693 329.889 380.64 328.301 381.68C294.087 404.016 251.897 410.497 212.556 399.459C173.215 388.421 140.554 360.939 122.953 324.065H36.0216L101.211 176.57H138.878C164.976 142.659 205.008 122.367 247.787 121.362C248.811 121.34 249.846 121.329 250.87 121.329C311.155 121.329 361.719 157.402 382.191 210.467L345.125 262.398H401.562C401.332 212.048 376.102 165.102 334.239 137.127C292.375 109.152 239.348 103.803 192.741 122.855C255.937 83.4636 336.809 86.7961 396.549 131.253C456.29 175.71 482.706 252.219 463.122 324.065ZM253.341 272.709H192.356C192.356 272.504 192.341 272.294 192.341 272.085C192.341 220.921 233.833 178.751 286.811 176.083C288.575 175.993 290.346 175.948 292.074 175.948C301.448 175.938 310.784 177.148 319.846 179.546L253.341 272.709ZM385.575 223.845C388.23 233.015 389.943 242.431 390.686 251.949H365.522L385.575 223.845Z" fill="#003594"/>
<path d="M192.741 122.855C249.892 99.4927 315.502 113.149 358.584 157.375C401.666 201.601 413.599 267.546 388.748 324.065H463.122C482.725 252.215 456.314 175.693 396.566 131.23C336.819 86.7681 255.935 83.4445 192.741 122.855Z" fill="url(#paint0_linear_4_169)"/>
<path d="M382.175 210.487L367.859 230.549C354.133 216.437 335.279 208.486 315.593 208.506C314.364 208.506 313.145 208.537 311.936 208.599L336.543 174.122C354.894 181.671 370.721 194.283 382.175 210.487ZM396.363 302.488C399.824 289.622 401.572 276.355 401.562 263.031C401.562 262.818 401.562 262.604 401.562 262.389H386.086C389.652 275.542 389.475 289.43 385.573 302.487L396.363 302.488Z" fill="#D7D2CB"/>
<path d="M328.296 381.689C284.449 410.306 228.395 412.416 182.52 387.175C171.199 372.905 162.841 356.518 157.938 338.975C173.78 338.238 196.723 339.607 213.681 346.896C234.64 367.351 262.793 378.758 292.079 378.66C303.146 378.671 314.154 377.059 324.753 373.875C325.185 373.742 325.633 373.673 326.085 373.67C327.981 373.749 329.609 375.044 330.114 376.873C330.618 378.703 329.884 380.649 328.296 381.689ZM182.491 283.154C182.098 279.48 181.901 275.787 181.901 272.092C181.901 215.207 228.213 168.591 286.28 165.67C218.96 168.409 163.828 218.585 154.419 283.16L182.491 283.154Z" fill="#FFD100"/>
<path d="M195.914 324.065H154.681C155.482 329.093 156.568 334.072 157.933 338.977C173.776 338.24 196.718 339.609 213.677 346.898C206.756 340.121 200.781 332.441 195.914 324.065Z" fill="#FFA300"/>
<path d="M122.953 324.065C128.094 334.812 134.569 344.869 142.224 353.997C146.223 347.838 151.601 342.696 157.934 338.977C156.568 334.072 155.482 329.093 154.681 324.065H122.953Z" fill="#FF8200"/>
<path d="M336.531 174.116C322.424 168.352 307.317 165.428 292.078 165.513C290.133 165.513 288.2 165.562 286.282 165.661C218.962 168.4 163.831 218.576 154.422 283.151H116.091L163.306 176.57H138.878C164.976 142.659 205.007 122.366 247.786 121.361C248.811 121.34 249.846 121.329 250.869 121.329C311.155 121.329 361.72 157.401 382.192 210.467L382.176 210.49C370.72 194.281 354.889 181.665 336.531 174.116ZM157.933 338.974C151.601 342.692 146.223 347.835 142.224 353.994C153.496 367.442 167.157 378.692 182.518 387.174C171.197 372.904 162.839 356.517 157.935 338.974H157.933Z" fill="url(#paint1_linear_4_169)"/>
<path d="M388.635 281.543C388.635 288.637 387.605 295.692 385.575 302.489H316.501L301.1 324.065H229.51L311.936 208.597C313.148 208.537 314.367 208.507 315.593 208.504C335.279 208.484 354.133 216.436 367.859 230.547L345.125 262.393H386.084C387.777 268.636 388.635 275.075 388.635 281.543ZM101.211 176.57L36.0217 324.065H201.069C213.074 324.065 220.954 317.637 226.89 309.643L245.719 283.152H116.091L163.306 176.57H101.211Z" fill="white"/>
</g>
<defs>
<linearGradient id="paint0_linear_4_169" x1="331.119" y1="95.4352" x2="331.119" y2="324.065" gradientUnits="userSpaceOnUse">
<stop offset="0.217" stop-color="#FFD100"/>
<stop offset="0.296" stop-color="#FFD724"/>
<stop offset="0.474" stop-color="#FFE87F"/>
<stop offset="0.707" stop-color="white"/>
</linearGradient>
<linearGradient id="paint1_linear_4_169" x1="116.091" y1="254.251" x2="382.192" y2="254.251" gradientUnits="userSpaceOnUse">
<stop stop-color="#FFA300"/>
<stop offset="0.134" stop-color="#FFA800"/>
<stop offset="0.289" stop-color="#FFB600"/>
<stop offset="0.453" stop-color="#FFCD00"/>
<stop offset="0.478" stop-color="#FFD100"/>
</linearGradient>
<clipPath id="clip0_4_169">
<rect width="500" height="500" fill="white"/>
</clipPath>
</defs>
</svg>
