<svg width="500" height="500" viewBox="0 0 500 500" fill="none" xmlns="http://www.w3.org/2000/svg">
<g clip-path="url(#clip0_4_302)">
<path d="M255.323 308.204C255.5 308.301 255.303 308.481 255.388 308.541C255.477 308.609 255.622 308.598 255.734 308.512C255.568 308.481 255.722 308.363 255.674 308.295C255.58 308.139 255.434 308.25 255.323 308.204Z" fill="#231F20"/>
<path d="M250.179 53C200.006 98.474 134.493 97.114 67.213 88.653C52.701 253.474 109.154 416.154 249.11 445.615C390.404 417.29 446.203 254.92 432.579 90.025C369.95 96.339 305.044 98.902 250.179 53ZM250.179 53C200.006 98.474 134.493 97.114 67.213 88.653C52.701 253.474 109.154 416.154 249.11 445.615C390.404 417.29 446.203 254.92 432.579 90.025C369.95 96.339 305.044 98.902 250.179 53Z" fill="white"/>
<path d="M250.179 53C200.006 98.474 134.493 97.114 67.213 88.653C52.701 253.474 109.154 416.154 249.11 445.615C390.404 417.29 446.203 254.92 432.579 90.025C369.95 96.339 305.044 98.902 250.179 53V53Z" stroke="#0A0A09" stroke-width="0.667"/>
<path d="M249.951 69.0669C208.127 103.081 142.161 111.522 79.169 102.316C69.776 252.618 118.798 399.483 248.677 433.372C378.735 400.188 429.128 253.97 420.551 103.623C356.284 110.855 291.588 103.307 249.952 69.0669" fill="#0A0A09"/>
<path d="M299.95 328.14C298.427 332.765 296.049 337.347 294.658 339.409C294.658 339.409 296.608 342.934 297.284 346.388C307.384 354.164 318.525 361.461 346.881 354.549C341.828 353.001 310.164 337.225 302.014 329.537L299.949 328.141M195.505 332.486C195.505 332.486 200.239 339.997 201.904 340.946C201.904 340.946 203.943 342.76 203.182 349.135C191.784 357.663 163.933 361.118 149.805 355.571C149.805 355.571 183.882 342.135 193.306 333.648L195.504 332.485M283.791 329.793C283.132 330.503 282.562 331.245 281.844 331.913C281.587 332.153 281.374 332.582 281.045 332.828C280.253 333.427 279.548 333.983 278.692 334.531C277.819 335.087 277.198 336.601 277.943 337.269C278.581 337.842 279.813 338.46 280.609 337.254C281.04 336.607 281.964 336.474 282.482 336.014C283.948 334.703 285.009 332.958 285.391 330.941C285.528 330.231 284.929 329.895 284.453 329.399C284.573 329.964 283.817 329.795 283.769 330.22L283.791 329.794M211.515 331.845C212.327 334.103 214.227 335.07 214.797 335.979C215.695 337.423 216.115 338.946 216.987 340.325C215.502 341.17 214.364 343.565 212.907 342.84C212.171 342.479 211.949 340.907 211.507 339.801C210.392 337.004 211.952 334.69 211.516 331.845" fill="white"/>
<path d="M238.676 171.912C221.597 171.912 203.948 176.183 198.639 192.515C198.639 192.515 189.645 225.4 190.226 230.556C185.447 232.011 175.798 236.64 178.694 262.876C178.694 262.876 189.045 310.023 193.691 319.245L196.676 319.407C196.676 319.407 199.391 316.558 198.895 325.932C198.895 325.932 197.326 331.407 202.288 334.667C202.288 334.667 204.213 326.764 205.496 338.681C205.744 350.236 209.38 362.403 226.279 374.404C226.279 374.404 234.248 369.268 235.121 368.886C235.121 368.886 223.384 364.42 217.327 357.688C217.327 357.688 219.03 365.901 212.254 356.568C212.254 356.568 208.998 353.404 207.133 331.927C207.292 328.945 206.885 328.493 204.486 325.374C195.161 306.379 187.761 262.556 205.268 246.333C223.712 245.159 267.74 244.177 284.259 247.188C291.017 248.82 294.337 250.993 295.863 262.619C299.153 277.325 296.967 306.721 289.319 330.258C289.319 330.258 288.195 335.331 285.504 337.755C283.302 338.919 275.315 344.488 271.457 352.839C270.02 355.754 266.877 358.577 261.628 360.872C256.333 364.012 236.828 368.973 244.506 377.5C244.506 377.5 242.291 378.501 238.384 379.579C238.384 379.579 239.419 384.337 241.597 383.596C241.597 383.596 245.523 382.096 246.935 379.601C258.407 381.059 273.082 378.409 282.056 370.331C285.603 367.953 292.185 364.839 292.954 358.667C292.954 358.667 296.749 351.598 290.53 339.73C292.886 335.574 296.724 327.652 296.185 321.636C296.411 321.304 316.263 298.555 318.667 267.27C318.667 267.27 315.887 248.843 316.674 266.415C316.674 266.415 316.429 269.488 314.681 278.376C314.681 278.376 310.968 292.007 312.974 278.944C312.974 278.944 313.715 258.176 311.268 239.655C311.268 239.655 310.647 232.76 314.399 242.788C314.904 244.636 313.83 240.511 313.83 240.511C313.83 240.511 315.635 253.174 316.105 244.215C313.83 233.686 313.256 231.117 310.125 229.98C308.179 214.496 302.439 199.522 302.439 199.522L301.019 201.228C306.272 215.848 309.697 264.432 308.419 278.377C308.419 278.377 305.052 305.853 302.157 303.999C302.157 303.999 306.82 257.631 304.727 240.42C303.74 218.561 300.595 213.265 299.338 204.647C299.338 204.647 292.414 186.608 299.595 196.391L300.45 195.821C294.321 180.12 285.077 172.478 257.18 171.909L260.992 240.135L235.901 240.221L238.676 171.909" fill="#C8C7C7"/>
<path d="M206.921 260.976C206.793 260.969 212.516 260.026 212.43 260.026C218.606 260.054 233.149 259.958 236.294 261.198C237.906 261.831 240.734 260.351 242.137 259.795C247.381 257.718 248.035 257.268 253.561 253.98C254.465 253.439 260.969 249.523 259.789 249.393C244.695 247.742 213.91 247.93 207.832 249.746C207.832 249.746 205.269 250.172 204.547 250.976C201.672 254.184 202.28 254.441 200.281 258.877C201.581 255.989 199.597 262.525 199.422 263.107C198.904 264.792 201.787 264.708 202.368 263.902C203.429 262.436 203.634 260.754 206.919 260.976M291.148 307.695C290.458 310.943 290.048 314.308 288.927 317.415C287.888 320.281 287.387 322.247 283.808 325.268C283.067 319.03 281.305 315.942 281.643 313.606C279.239 314.547 279.564 318.123 279.308 321.396C278.901 326.609 280.312 330.438 279.984 328.912C280.142 329.637 278.171 331.074 277.461 332.204C275.228 335.739 272.759 339.03 269.727 341.89C269.274 342.316 269.162 343.18 268.687 343.387C267.016 344.104 266.579 345.192 265.599 346.328C264.8 347.261 262.679 347.996 261.579 348.595C260.886 348.98 258.787 349.545 258.217 349.666C256.948 349.923 255.793 349.878 253.876 349.777C252.023 349.683 249.496 347.402 247.503 346.918C241.698 345.498 240.343 350.751 231.317 348.811C227.596 348.01 226.846 345.521 224.519 342.889C224.066 342.376 221.847 339.683 221.499 339.304C222.44 340.314 215.31 333.607 213.945 328.441C212.422 322.658 213.206 322.196 213.89 317.318C214.147 315.487 213.799 310.893 212.106 310.594C210.523 312.219 211.666 313.332 211.195 315.675C210.742 317.961 212.85 318.055 211.23 323.162C210.768 324.625 209.972 324.264 209.514 323.285C207.825 319.653 208.698 311.782 204.877 308.713C203.996 308.01 203.944 305.881 204.685 305.323C205.852 304.442 207.012 305.836 208.526 305.485C208.791 305.427 208.628 303.586 208.423 303.347C207.169 301.875 204.394 302.479 204.42 302.277C204.788 299.31 204.731 296.639 203.722 295.187C202.327 293.192 200.288 292.852 199.458 290.901C197.699 286.776 198.303 284.423 198.144 283.345C197.93 281.89 197.579 279.53 197.999 277.998C197.576 278.092 197.739 274.576 197.759 274.347C198.02 271.772 198.477 271.917 198.871 269.488C198.948 267.997 202.632 267.121 202.666 270.549C201.762 275.06 203.106 278.616 203.225 283.176C203.239 283.724 204.137 284.249 204.744 284.423C214.679 287.272 222.119 286.177 231.999 285.98C234.643 285.931 236.234 282.628 236.798 280.036C237.734 275.767 237.739 274.311 237.773 269.611C238.269 268.359 239.424 268.699 240.331 269.745C242.025 271.695 240.711 272.421 241.13 274.919C241.455 276.863 238.954 279.718 238.954 279.718C239.237 279.735 238.107 286.305 238.393 286.319C238.903 286.348 238.013 292.216 237.876 292.064C237.494 295.253 239.693 294.081 239.36 296.416C239.305 297.487 238.758 298.966 238.787 299.164C239.103 301.32 234.292 300.856 235.062 300.895C233.996 300.84 233.166 300.37 233.209 299.513C233.274 298.298 232.941 297.388 232.952 296.298C230.605 296.17 231.575 298.058 231.447 300.488C231.392 301.558 232.093 302.456 233.894 302.757C235.802 303.072 236.003 303.294 236.893 302.706C237.355 302.388 238.869 302.054 239.104 301.32C239.991 304.791 241.034 305.27 243.601 305.193C244.7 305.159 247.215 305.595 248.204 303.08C248.452 302.449 250.158 302.543 250.402 301.918C254.846 302.789 252.125 304.604 257.514 302.871C259.139 302.354 260.466 300.013 259.063 298.162C258.897 297.939 258.024 297.957 258.007 298.074C257.417 302.711 255.598 301.342 253.858 301.241C248.138 300.905 251.223 298.536 246.373 301.273C245.8 301.598 244.098 303.933 241.839 302.103C238.776 299.374 242.087 297.415 242.458 294.438C242.792 291.736 242.663 283.233 242.535 280.759C242.236 274.933 243.724 278.475 244.713 275.96C243.878 276.167 244.323 268.825 244.251 268.451C243.746 265.859 240.692 266.863 239.897 265.876C239.897 265.876 239.541 263.831 240.008 263.737C243.464 263.068 247.839 261.16 250.987 259.614C258.259 256.038 262.353 253.814 265.872 251.63C266.916 250.982 267.344 249.602 267.905 249.596C274.535 249.519 280.929 248.179 286.823 251.451C290.943 253.737 291.938 255.994 293.016 259.894C292.542 259.971 293.41 264.06 293.423 264.413C293.5 266.978 293.366 271.665 293.397 272.958C293.597 281.427 294.082 284.329 292.927 290.038C292.918 290.089 292.037 292.129 291.75 292.112C291.054 293.147 289.851 294.678 288.427 295.878C287.977 296.252 288.17 297.503 288.487 297.287C289.372 296.688 291.1 296.355 292.414 295.783C292.371 299.408 291.998 303.671 291.148 307.689" fill="white"/>
<path d="M279.598 267.111C279.752 267.116 277.34 265.281 275.264 264.1C274.311 263.563 270.345 266.256 269.375 266.358C265.289 266.786 262.942 266.993 258.63 267.104C257.573 267.128 256.047 267.145 255.413 266.161C255.02 265.554 255.083 264.384 255.537 263.802C256.842 262.132 259.395 264.977 260.966 260.748C260.958 260.763 265.837 260.546 267.331 260.478C272.433 260.244 279.953 260.284 279.282 260.892C279.898 260.336 280.882 263.099 281.908 263.809C283.828 265.135 283.28 263.378 284.141 266.064L284.085 267.128C284.067 267.412 283.722 268.676 283.568 268.815C283.414 268.95 281.532 268.274 281.244 268.267C281.389 268.267 279.453 267.104 279.598 267.11M255.047 270.524C258.024 268.787 252.814 268.267 253.733 273.39C253.652 272.911 254.704 273.236 254.794 273.005C254.931 272.654 254.999 271.373 255.047 270.524ZM252.081 282.124C252.757 285.58 252.141 285.118 251.756 288.306C251.414 291.194 253.878 291.86 253.878 288.631C253.878 276.446 253.057 279.825 252.081 282.124ZM286.018 299.576C285.732 300.245 285.287 300.286 284.731 300.65C284.312 300.927 283.841 301.537 284.055 301.993C284.166 302.227 284.671 302.458 285.008 302.452C285.372 302.441 285.715 302.005 285.838 301.68C286.083 301.049 285.983 300.285 286.018 299.575M255.354 295.127C255.768 295.155 256.127 294.833 256.149 294.419C256.17 294 255.85 293.647 255.434 293.622C255.015 293.598 254.661 293.921 254.639 294.34C254.618 294.753 254.939 295.11 255.354 295.127ZM282.297 274.85C281.199 275.401 280.235 275.281 279.183 275.871C280.826 274.956 270.303 274.374 274.278 274.742C271.45 274.479 269.14 273.871 266.197 273.888L265.649 274.177C264.186 274.519 263.421 273.39 262.326 272.68C261.559 272.194 260.88 272.708 260.174 272.608C260.324 272.329 259.922 272.149 260.029 271.979C260.209 271.688 260.71 271.536 260.898 271.508C262.164 271.346 263.639 271.457 264.85 271.038C269.11 269.558 272.433 271.586 276.801 271.449C278.173 271.408 280.064 271.134 281.352 272.039C281.612 272.229 281.609 272.672 281.801 272.818C282.374 273.245 283.401 272.985 283.734 273.341C284.418 274.066 283.058 274.468 282.296 274.85M278.114 281.03C277.84 280.972 277.734 280.611 277.498 280.611C275.014 280.611 272.793 279.971 270.5 278.99C269.718 278.653 268.96 279.267 268.144 279.37C267.066 279.515 265.932 279.072 264.999 279.406C264.32 279.644 263.73 280.667 264.306 280.989C265.184 281.475 266.613 281.398 267.762 280.625C269.101 279.727 270.79 280.023 272.361 280.391C272.78 280.483 273.199 280.776 273.636 280.757C275.162 280.699 276.613 281.135 278.114 281.031M262.301 276.994C262.352 276.65 261.711 276.744 261.902 276.335C260.863 276.034 259.905 276.966 258.913 276.558C258.352 276.335 258.009 275.743 257.458 275.458C257.416 276.267 257.116 277.386 257.818 277.694C259.229 278.312 260.769 276.522 262.27 277.42C262.278 277.28 262.275 277.14 262.301 276.994Z" fill="#0A0A09"/>
<path d="M177.831 214.293L168.583 223.432C168.583 223.432 176.684 236.045 177.728 236.527C179.388 233.404 182.185 229.069 185.829 228.83L186.5 224.159L177.831 214.293ZM143.612 177.867L148.526 177.912C154.994 185.088 170.996 206.03 170.996 206.03L168.549 211.887C174.806 206.657 178.408 203.213 180.722 199.914C185.256 195.021 189.328 198.87 185.738 202.101C183.36 206.681 171.97 215.914 164.579 222.373C143.483 241.356 103.6 211.041 136.993 181.796L143.611 177.869" fill="white"/>
<path d="M137.25 189.074C140.908 184.566 144.197 187.091 141.279 189.716C139.077 191.701 143.218 196.166 145.912 195.09C148.054 194.238 150.612 197.655 149.988 198.94C148.328 202.335 151.507 205.881 153.962 204.706C155.314 204.059 158.149 206.304 157.191 208.299C155.737 211.317 158.728 214.73 162.073 213.047C165.652 211.231 163.625 216.116 163.625 216.116C145.503 231.412 119.029 202.232 137.251 189.074" fill="#0A0A09"/>
<path d="M139.15 182.437C142.358 182.607 145.092 180.143 145.258 176.934C145.429 173.731 142.965 170.996 139.763 170.83C136.555 170.659 133.821 173.123 133.649 176.327C133.483 179.531 135.947 182.264 139.15 182.437Z" fill="white"/>
<path d="M141.088 173.031C144.621 174.928 141.57 180.109 139.249 179.562C136.746 178.974 138.662 178.46 138.662 178.46C140.997 178.8 143.119 175.06 140.19 173.837C139.078 173.374 141.088 173.031 141.088 173.031Z" fill="#0A0A09"/>
<path d="M350.94 178.057L346.03 178.252C339.794 185.635 324.455 207.058 324.455 207.058L327.082 212.839C320.662 207.809 316.953 204.477 314.537 201.252C309.857 196.499 305.905 200.477 309.592 203.593C312.116 208.101 323.784 216.971 331.381 223.192C353.053 241.506 392.046 208.091 357.755 179.905L350.94 178.057Z" fill="white"/>
<path d="M358.349 186.679C355.309 183.522 352.862 185.321 353.718 187.954C354.685 190.907 351.015 196.51 349.179 195.345C346.755 193.807 344.316 197.868 345.226 199.314C346.745 201.735 343.823 206.51 341.436 205.208C340.118 204.489 337.415 207.124 338.319 208.895C339.828 211.857 336.594 214.56 333.588 213.794C329.704 212.796 332.137 216.913 332.137 216.913C350.726 231.634 376.972 199.254 358.349 186.678" fill="#0A0A09"/>
<path d="M355.62 180.616C352.42 180.879 349.534 180.376 349.264 177.18C348.999 173.982 351.451 169.299 354.65 169.029C357.844 168.76 360.655 171.138 360.924 174.338C361.194 177.534 358.82 180.342 355.62 180.615" fill="white"/>
<path d="M353.387 171.269C348.836 173.901 352.104 178.636 355.432 177.738C357.913 177.073 355.98 176.626 355.98 176.626C352.721 177.201 350.351 173.853 354.312 172.053C355.412 171.551 353.388 171.269 353.388 171.269" fill="#0A0A09"/>
<path d="M318.723 215.859C319.968 216.569 327.517 223.378 329.382 224.544C328.284 229.187 320.901 243.551 319.275 246.032C319.082 237.474 317.881 227.79 313.179 227.759L312.295 224.288L318.723 215.86" fill="white"/>
<path d="M288.354 352.035C288.73 349.441 286.468 347.02 284.872 349.065C283.999 350.179 283.928 352.23 282.879 353.287C280.047 356.148 278.268 356.689 276.617 358.449C274.826 360.348 274.273 361.589 275.967 364.129C276.109 364.343 276.383 366.935 278.248 368.329C280.524 370.04 283.778 368.245 287.217 363.94C287.984 362.984 287.842 361.622 288.018 360.535C288.467 357.755 287.944 354.872 288.355 352.033M273.708 368.194C273.485 375.283 263.139 378.12 258.985 375.757C258.292 375.365 256.093 373.396 256.544 372.036C256.989 370.712 258.523 369.855 259.644 369.427C260.91 368.941 262.01 369.367 263.228 368.289C264.922 366.789 266.09 366.518 268.067 364.636C269.196 363.559 271.381 363.729 272.425 364.551C273.478 365.383 274.119 366.059 273.619 368.05L273.708 368.195" fill="#0A0A09"/>
<path d="M285.291 357.588C280.882 360.522 275.539 363.063 280.591 365.769C281.749 366.388 284.983 364.096 285.787 361.427C285.741 361.583 285.505 357.442 285.291 357.588ZM270.2 371.393C269.422 372.031 266.599 373.465 266.989 373.249C265.124 374.293 262.955 374.874 260.807 374.524C258.887 374.164 259.678 372.515 260.097 372.459C265.504 371.745 266.544 368.683 269.992 367.335C270.993 367.578 271.193 369.102 271.056 369.542C270.959 369.871 270.727 370.751 270.201 371.393" fill="white"/>
<path d="M229.596 307.242C228.24 308.962 229.613 309.232 226.332 312.409C225.391 313.324 223.685 313.985 222.842 315.164C222.702 315.361 222.719 316.141 222.688 316.712C224.775 317.398 228.579 315.745 232.586 315.694C235.004 315.66 237.368 316.455 239.811 316.952C244.114 317.833 248.087 316.892 253.263 316.61C259.47 316.27 260.66 317.75 262.622 317.527C266.459 317.091 268.798 315.192 267.144 315.669C267.55 315.549 263.948 316.019 264.227 315.472C263.161 315.286 262.502 315.868 261.601 315.968C259.5 316.213 257.409 316.09 255.162 315.326C251.925 314.241 248.341 315.85 244.948 315.853C239.43 315.867 233.314 313.846 226.435 314.557C225.768 314.627 232.061 309.537 231.585 310.125C233.416 307.867 233.797 304.761 234.165 305.773C234.054 305.465 232.346 303.752 229.597 307.243M237.004 324.941C241.73 324.548 250.584 326.945 254.724 325.448C254.699 325.874 258.203 324.353 258.112 326.054C257.988 328.398 252.274 327.936 250.763 327.594C246.645 326.661 245.177 327.962 236.644 327.705C236.28 327.697 232.336 328.335 231.215 325.286C230.916 324.477 233.402 324.326 237.003 324.942M265.008 310.181C264.568 311.28 265.692 311.983 266.288 311.4C266.753 310.946 266.668 309.706 265.68 309.355C265.786 309.911 265.144 309.844 265.008 310.181ZM263.156 307.917C262.723 307.643 262.27 307.235 261.89 307.14C260.422 306.787 259.241 305.977 257.732 305.737C257.359 305.675 257.193 305.027 257.809 304.726C258.75 304.264 259.768 304.743 260.73 305.062C261.993 305.481 262.185 307.002 263.216 307.632C263.519 307.817 264.337 307.928 264.109 308.354C263.883 308.79 263.036 308.604 262.942 307.911L263.156 307.918" fill="#0A0A09"/>
<path d="M267.57 314.196C267.904 314.196 268.172 313.839 268.172 313.392C268.172 312.949 267.904 312.588 267.57 312.588C267.237 312.588 266.966 312.949 266.966 313.392C266.966 313.839 267.237 314.196 267.57 314.196ZM361.391 139.323C364.722 141.594 367.431 142.899 370.04 142.899C371.828 142.899 372.795 142.22 372.795 141.111C372.795 139.515 371.053 139.323 368.204 138.694C362.306 137.438 359.313 134.199 359.313 129.172C359.313 121.926 364.968 116.61 373.762 116.61C377.723 116.61 381.444 117.624 385.409 119.751L381.636 128.787C379.22 126.999 376.708 126.08 374.536 126.08C372.796 126.08 371.83 126.708 371.83 127.724C371.83 129.416 374.148 129.656 378.258 130.575C382.848 131.589 385.94 135.022 385.94 139.853C385.94 147.246 380.046 152.851 371.008 152.851C366.465 152.851 361.875 151.547 357.426 148.984L361.392 139.322M127.669 133.038H129.602C131.972 133.038 133.277 131.832 133.277 129.707C133.277 127.579 132.019 126.273 129.602 126.273H127.669V133.038ZM115.492 117.382H131.099C140.33 117.382 145.066 121.634 145.066 129.027C145.066 133.958 142.409 137.389 138.397 137.871L147.628 151.933H133.709L127.669 140.528V151.933H115.492V117.382ZM178.336 139.087L177.275 135.173C176.791 133.335 176.063 130.918 175.872 127.586H175.632C175.435 130.917 174.711 133.335 174.229 135.173L173.163 139.087H178.336ZM169.011 117.098H182.83L194.909 151.651H181.572L180.459 147.3H171.088L170.022 151.651H156.685L169.009 117.098M206.019 117.383H218.632V151.934H206.019V117.383ZM251.91 134.681C251.91 130.138 249.395 128.013 244.37 128.013H243.84V141.401C249.349 141.302 251.91 139.369 251.91 134.681ZM233.189 117.383H243.241C249.229 117.383 253.724 117.963 256.915 119.556C262.857 122.555 266.194 128.111 266.194 134.681C266.194 140.385 263.631 145.362 259.042 148.502C254.545 151.597 249.229 151.934 242.321 151.934H233.189V117.383ZM277.956 117.383H301.054V126.759H290.133V130.092H300.039V138.934H290.133V142.56H301.345V151.934H277.956V117.383ZM327.5 133.038H329.433C331.803 133.038 333.108 131.832 333.108 129.707C333.108 127.579 331.85 126.273 329.433 126.273H327.5V133.038ZM315.323 117.382H330.93C340.161 117.382 344.896 121.634 344.896 129.027C344.896 133.958 342.239 137.389 338.227 137.871L347.458 151.933H333.544L327.5 140.528V151.933H315.323V117.382Z" fill="white"/>
</g>
<defs>
<clipPath id="clip0_4_302">
<rect width="500" height="500" fill="white"/>
</clipPath>
</defs>
</svg>
