<svg width="500" height="500" viewBox="0 0 500 500" fill="none" xmlns="http://www.w3.org/2000/svg">
<g clip-path="url(#clip0_4_354)">
<path d="M444.095 242.87C429.425 244.859 403.789 255.466 408.66 261.162C413.53 266.851 427.732 274.673 429.749 275.661C422.98 275.661 400.731 277.959 398.248 284.26C395.756 290.561 430.441 311.684 443.141 316.649C427.343 312.204 389.667 304.79 387.163 309.867C384.659 314.944 391.17 330.634 397.122 335.303C392.765 333.999 370.009 327.533 366.358 335.942C362.345 345.193 384.587 379.13 387.111 385.47C376.857 375.304 348.77 352.515 344.789 355.122C340.808 357.729 341.79 370.431 342.824 376.89C338.969 372.195 332.346 364.669 326.625 366.921C320.905 369.173 321.61 390.981 321.241 400.271C316.522 389.341 308.819 367.335 301.688 368.139C294.557 368.942 286.557 383.915 285.035 389.637C283.947 383.909 279.281 371.312 272.223 371.312C265.165 371.312 248.755 404.649 243.793 415.481C243.773 407.099 245.783 366.203 241.334 364.175C236.886 362.147 221.874 371.471 218.65 375.711C219.843 370.338 220.858 352.178 216.857 349.985C212.85 347.786 201.436 347.094 180.796 366.163C184.222 358.848 189.864 350.887 191.235 343.17C199.782 342.729 208.244 341.761 216.778 340.095C235.402 353.56 258.297 361.508 283.043 361.508C345.545 361.508 396.211 310.887 396.211 248.439C396.211 243.547 395.895 238.727 395.295 234.006C399.487 230.062 403.506 226.243 407.25 222.681C406.393 224.729 405.919 227.198 405.998 230.24C406.242 239.774 430.962 241.809 444.096 242.869L444.095 242.87ZM162.638 283.509C159.073 281.58 142.492 280.816 142.492 280.816C142.492 280.816 161.162 268.279 160.727 259.212C160.291 250.152 130.517 245.51 118.746 242.902C129.132 240.716 162.769 233.124 164.213 226.362C165.663 219.606 153.701 214.806 148.673 212.449C154.307 212.521 168.588 214.912 170.512 207.945C172.713 199.958 137.548 179.158 129.534 176.274C131.327 176.695 164.819 184.505 177.064 181.858C186.178 179.883 175.555 167.629 173.801 166.18C176.49 167.49 191.845 170.651 196.241 163.368C200.637 156.086 185.723 127.081 177.373 114.788C184.787 122.176 218.648 146.242 223.696 142.146C228.751 138.05 224.889 124.822 222.181 120.457C227.638 125.56 233.008 132.381 239.942 132.237C243.414 132.165 247.784 120.694 248.502 94.7711C253.201 109.296 264.417 129.037 272.655 127.838C280.899 126.646 283.714 114.419 284.854 109.211C285.804 114.801 290.133 129.169 295.63 129.695C302.378 130.749 315.289 100.743 319.988 87.1861C320.7 93.8821 315.783 128.273 323.058 131.131C330.327 133.995 342.348 119.516 349.169 111.404C345.031 119.253 336.944 138.236 341.762 142.779C346.579 147.322 363.233 142.562 369.724 137.215C367.906 141.192 367.517 144.372 368.011 147.362C360.609 148.811 352.972 150.937 345.083 153.874C327.263 142.187 305.949 135.378 283.042 135.378C220.547 135.378 169.881 185.999 169.881 248.44C169.881 263.472 172.82 277.813 178.152 290.93C171.713 295.697 165.545 299.477 159.225 302.394C163.845 296.896 167.858 286.328 162.639 283.51L162.638 283.509ZM479.804 157.289C479.728 155.573 479.401 154.554 479.401 154.554L479.396 154.545C477.307 147.253 469.853 142.748 459.704 142.748C458.625 142.748 457.527 142.803 456.442 142.911C448.665 143.682 434.836 148.362 430.731 149.795C417.84 146.54 405.757 144.956 393.83 144.956C387.665 144.955 381.535 145.392 375.419 146.245L375.428 146.241L372.905 146.581C372.905 146.581 371.922 143.391 374.491 135.943C375.822 132.081 377.647 128.528 377.647 128.528C377.647 128.528 349.576 143.106 346.07 138.453C342.565 133.8 358.262 96.8061 358.262 96.8061C358.262 96.8061 331.2 126.848 325.885 125.515C323.801 124.993 323.602 114.112 323.499 102.403C323.359 86.5481 323.911 68.4111 323.911 68.4111C323.911 68.4111 301.627 123.762 296.19 123.474C291.475 123.224 284.616 93.6791 284.616 93.6791C284.616 93.6791 280.313 119.139 272.579 122.253C264.845 125.367 244.951 77.7531 244.951 77.7531C244.951 77.7531 244.032 125.409 238.498 126.479C232.965 127.548 215.348 109.737 215.348 109.737C215.348 109.737 223.606 133.475 220.81 136.602C219.14 138.468 202.196 128.001 184.567 115.367C174.383 108.068 165.867 101.951 165.867 101.951C165.867 101.951 175.803 118.439 183.703 135.673C189.141 147.538 192.441 158.924 191.018 161.141C187.53 166.577 161.364 158.829 161.364 158.829C161.364 158.829 176.237 173.144 175.277 176.831C174.812 178.62 160.021 177.328 144.991 175.275C129.048 173.097 112.825 170.093 112.825 170.093C112.825 170.093 165.921 200.936 164.255 206.487C162.936 210.879 129.891 207.282 129.891 207.282C129.891 207.282 158.622 220.397 158.505 224.731C158.39 229.065 102.268 243.252 102.268 243.252C102.268 243.252 153.095 253.875 154.067 259.538C155.039 265.202 134.021 283.374 134.021 283.374C134.021 283.374 158.49 285.583 159.705 288.784C160.92 291.985 153.758 304.63 147.543 306.635C139.861 309.113 132.868 310.689 124.351 310.689C123.126 310.689 121.928 310.654 120.757 310.591C121.178 310.046 121.595 309.485 121.957 308.95C124.052 305.885 125.612 302.609 126.462 299.484L126.471 299.452L126.479 299.419C126.915 297.702 127.139 295.993 127.147 294.338L127.148 294.267L127.145 294.195C127.086 292.314 126.474 290.71 125.364 289.619C123.283 287.806 121.342 288.022 119.95 288.641L115.122 291.006C114.763 291.164 114.358 291.317 113.867 291.464C112.942 291.741 110.994 292.071 106.956 292.071C103.128 292.071 98.5709 291.787 94.1649 291.511C94.1649 291.511 91.4589 291.36 90.9359 291.36C85.6799 291.36 82.1709 293.032 80.0569 294.561L78.9069 293.956C68.1569 288.251 55.6449 285.943 47.8319 284.503C47.2249 284.39 46.6449 284.288 46.0989 284.181C37.4699 282.49 32.7459 277.373 32.3619 276.958C31.6309 276.167 30.6789 275.144 29.4369 274.428C29.4369 274.428 27.1909 273.028 23.8629 274.052C21.6919 274.814 20.7739 276.506 20.7739 276.506C18.9129 279.595 20.6889 284.13 23.0309 289.246C25.6949 295.057 34.0449 309.57 54.0319 318.835C60.5749 321.871 69.1839 324.033 79.6179 325.257C87.4719 326.179 94.1039 326.295 96.7469 326.3C99.2909 327.538 107.123 331.155 118.768 334.791C131.552 338.783 151.529 343.529 174.417 343.636C174.417 343.636 182.539 343.739 186.925 343.46C187.367 345.287 184.194 351.818 180.382 359.475C175.865 368.547 170.068 379.279 170.068 379.279C170.068 379.279 180.541 370.032 190.3 363.177C200.123 356.277 211.127 350.733 213.728 353.928C218.644 359.964 213.398 384.875 213.398 384.875C213.398 384.875 233.243 367.33 237.845 369.706C239.951 370.794 240.163 383.904 240.171 397.714C240.182 414.079 239.759 431.459 239.759 431.459C239.759 431.459 267.095 376.197 272.781 377.776C278.467 379.354 284.692 404.551 284.692 404.551C284.692 404.551 295.077 373.854 301.423 374.599C303.96 374.288 309.411 384.244 314.256 394.422C319.566 405.576 324.114 416.48 324.114 416.48C324.114 416.48 324.225 405.081 325.02 393.434C325.739 382.911 327.077 372.639 329.393 372.069C334.27 370.869 348.416 389.812 348.416 389.812C348.416 389.812 343.414 363.409 347.333 361.172C351.252 358.935 398.337 399.606 398.337 399.606C398.337 399.606 367.438 342.404 371.196 338.036C374.954 333.668 407.956 342.579 407.956 342.579C407.956 342.579 403.039 336.777 398.831 330.223C394.433 323.37 390.77 315.711 392.491 313.87C394.054 312.197 411.261 313.938 429.037 317.383C449.533 321.355 462.866 324.187 462.866 324.187C462.866 324.187 450.794 317.659 432.991 306.957C417.576 297.691 404.017 287.261 404.595 285.569C405.842 281.923 442.656 278.424 442.656 278.424C442.656 278.424 436.478 274.793 429.839 270.737C422.632 266.334 414.936 260.852 414.936 258.844C414.936 257.09 424.167 252.742 436.342 249C450.938 244.516 464.44 241.51 464.44 241.51C464.44 241.51 414.253 237.484 411.118 230.335C408.978 225.452 412.909 219.085 415.79 214.972C418.672 210.859 422.796 207.127 422.796 207.127C436.508 194.477 453.959 182.83 459.535 179.405L460.689 178.685C460.689 178.685 473.563 169.189 474.886 168.079C476.039 167.112 478.984 164.026 479.645 160.099C479.645 160.099 479.876 159.016 479.801 157.285L479.804 157.289Z" fill="#FFFFFE"/>
<path d="M387.162 309.867C384.658 314.944 391.169 330.634 397.121 335.303C392.764 333.999 370.008 327.533 366.357 335.942C362.344 345.193 384.586 379.13 387.11 385.47C376.856 375.304 348.769 352.515 344.788 355.122C340.807 357.729 341.789 370.431 342.823 376.89C338.968 372.195 332.345 364.669 326.624 366.921C320.904 369.173 321.609 390.981 321.24 400.271C316.521 389.341 308.818 367.335 301.687 368.139C294.556 368.942 286.556 383.915 285.034 389.637C283.946 383.909 279.28 371.312 272.222 371.312C265.164 371.312 248.754 404.649 243.792 415.481C243.772 407.099 245.782 366.203 241.333 364.175C236.885 362.147 221.873 371.471 218.649 375.711C219.842 370.338 220.857 352.178 216.856 349.985C212.849 347.786 201.435 347.094 180.795 366.163C184.221 358.848 189.863 350.887 191.234 343.17C199.781 342.729 208.243 341.761 216.777 340.095C235.401 353.56 258.296 361.508 283.042 361.508C345.544 361.508 396.21 310.887 396.21 248.439C396.21 243.547 395.894 238.727 395.294 234.006C399.486 230.062 403.505 226.243 407.249 222.681C406.392 224.729 405.918 227.198 405.997 230.24C406.241 239.774 430.961 241.809 444.095 242.869C429.425 244.858 403.789 255.465 408.66 261.161C413.53 266.85 427.732 274.672 429.749 275.66C422.98 275.66 400.731 277.958 398.248 284.259C395.756 290.56 430.441 311.683 443.141 316.648C427.343 312.203 389.667 304.789 387.163 309.866L387.162 309.867ZM368.011 147.362C360.609 148.811 352.972 150.937 345.083 153.874C327.263 142.187 305.949 135.378 283.042 135.378C220.547 135.378 169.881 185.999 169.881 248.44C169.881 263.472 172.82 277.813 178.152 290.93C171.713 295.697 165.545 299.477 159.225 302.394C163.845 296.896 167.858 286.328 162.639 283.51C159.074 281.581 142.493 280.817 142.493 280.817C142.493 280.817 161.163 268.28 160.728 259.213C160.292 250.153 130.518 245.511 118.747 242.903C129.133 240.717 162.77 233.125 164.214 226.363C165.664 219.607 153.702 214.807 148.674 212.45C154.308 212.522 168.589 214.913 170.513 207.946C172.714 199.959 137.549 179.159 129.535 176.275C131.328 176.696 164.82 184.506 177.065 181.859C186.179 179.884 175.556 167.63 173.802 166.181C176.491 167.491 191.846 170.652 196.242 163.369C200.638 156.087 185.724 127.082 177.374 114.789C184.788 122.177 218.649 146.243 223.697 142.147C228.752 138.051 224.89 124.823 222.182 120.458C227.639 125.561 233.009 132.382 239.943 132.238C243.415 132.166 247.785 120.695 248.503 94.772C253.202 109.297 264.418 129.038 272.656 127.839C280.9 126.647 283.715 114.42 284.855 109.212C285.805 114.802 290.134 129.17 295.631 129.696C302.379 130.75 315.29 100.744 319.989 87.187C320.701 93.883 315.784 128.274 323.059 131.132C330.328 133.996 342.349 119.517 349.17 111.405C345.032 119.254 336.945 138.237 341.763 142.78C346.58 147.323 363.234 142.563 369.725 137.216C367.907 141.193 367.518 144.373 368.012 147.363L368.011 147.362Z" fill="#FC4C02"/>
<path d="M105.216 296.006C101.181 295.931 96.6239 295.622 92.2939 295.355C85.9869 294.967 82.6599 297.337 81.3079 298.654C85.2489 300.893 97.9559 308.274 108.809 310.361V310.354C108.447 309.86 125.99 297.982 121.238 292.201H121.231C119.583 292.418 118.853 294.097 115.003 295.25C112.762 295.922 109.25 296.081 105.215 296.006C109.25 296.081 112.762 295.921 115.003 295.25C118.852 294.098 119.583 292.419 121.231 292.201H121.238C121.502 292.161 123.116 291.799 123.195 294.321C123.189 295.671 123.004 297.047 122.648 298.449C121.996 300.846 120.73 303.743 118.688 306.732C117.448 308.556 115.406 310.86 115.38 310.887C115.043 310.907 113.469 310.973 112.144 310.841C110.813 310.709 109.396 310.472 108.809 310.36C97.9559 308.273 85.2489 300.892 81.3079 298.653C82.6599 297.336 85.9869 294.966 92.2939 295.354C96.6239 295.621 101.181 295.93 105.216 296.005V296.006ZM456.834 146.842C465.342 145.993 474.061 148.883 475.748 156.152H475.742C471.715 149.844 433.471 162.532 422.598 166.904C419.646 168.096 401.451 176.293 382.865 186.894L382.858 186.901H382.845L382.601 187.02C371.603 190.852 350.118 202.652 341.946 210.29C322.643 228.312 318.28 251.476 290.825 285.313C278.607 300.372 268.049 310.933 259.72 317.873C254.401 322.357 249.723 325.518 246.282 327.341C246.15 326.92 246.117 326.59 246.117 326.59C246.098 326.471 246.091 326.34 246.091 326.195C246.091 323.186 249.907 315.989 252.623 310.274C254.462 306.409 255.726 303.255 255.726 303.248C259.95 292.772 262.198 282.764 262.824 279.774C263.78 275.995 266.231 265.315 266.231 265.315C266.231 265.315 222.089 304.934 176.333 318.201C160.747 322.718 143.955 326.392 131.447 326.655C131.447 326.655 120.725 326.194 120.013 325.97C109.146 324.159 96.2089 319.148 84.8279 307.007C83.3719 305.855 81.9149 304.65 80.4589 303.386C80.9079 303.847 86.1929 311.702 92.6049 317.332C90.5689 317.483 87.1019 317.971 76.2019 316.423C38.0639 311.004 26.0569 281.176 25.7469 277.601C25.2339 277.746 24.7849 277.904 24.4629 278.2C24.7849 277.897 25.2339 277.739 25.7469 277.594C27.7499 277.028 29.1019 279.543 30.8619 281.038C32.6209 282.533 37.1289 286.516 45.3739 288.064C53.6179 289.611 68.9869 292.067 80.5719 299.495L80.5789 299.482C90.1279 305.217 113.971 324.661 156.294 308.108C175.801 300.483 193.232 285.22 219.131 259.62C223.342 255.465 227.514 251.1 231.765 246.596C231.158 243.561 229.497 238.069 225.84 235.797C220.166 232.255 211.566 232.116 205.891 232.531C200.21 232.952 197.218 233.729 195.281 232.175C194.437 231.503 194.391 230.404 194.853 229.153C198.425 224.807 204.725 219.276 220.95 217.143C241.452 214.45 248.076 219.099 262.996 214.127C265.948 211.144 269.395 208.036 272.084 205.613C278.299 199.99 284.961 194.386 292.211 188.882C299.468 183.377 307.309 177.978 315.89 172.757C361.863 144.806 399.335 145.728 430.916 153.919C430.916 153.919 448.208 147.697 456.835 146.841L456.834 146.842ZM374.779 246.636C371.531 256.644 366.541 270.327 360.433 281.902C353.17 295.657 343.601 305.158 338.559 308.806C337.722 308.299 337.406 307.232 337.379 306.133C337.34 304.171 341.65 294.057 343.343 272.769C348.787 268.68 353.677 264.789 358 261.2C363.496 256.63 369.157 251.685 374.779 246.635V246.636Z" fill="#008E97"/>
<path d="M417.438 160.227C420.909 159.39 422.385 158.328 422.582 158.791C422.78 159.253 420.871 160.337 414.897 162.783C410.526 164.573 406.508 165.665 400.029 167.274C397.039 168.174 392.818 169.53 392.818 169.53L392.761 169.447L392.762 169.446C392.682 169.337 392.619 169.227 392.566 169.117L392.547 169.081C392.171 168.255 392.504 167.412 392.895 166.813C381.112 165.948 375.346 172.594 375.346 172.594C374.92 172.916 374.41 173.525 373.869 174.286C375.577 171.675 379.396 166.714 385.07 164.239C392.984 160.785 398.135 161.327 401.779 161.327C405.425 161.326 413.968 161.064 417.439 160.226L417.438 160.227ZM266.23 265.317C266.23 265.317 263.779 275.997 262.823 279.776C246.413 290.812 220.757 306.358 194.667 315.879C162.75 327.843 133.681 326.704 131.446 326.658C143.954 326.395 160.747 322.72 176.332 318.204C222.088 304.936 266.23 265.318 266.23 265.318V265.317ZM123.195 294.322C123.189 295.672 123.004 297.048 122.648 298.45C121.996 300.847 120.73 303.744 118.688 306.733C117.448 308.557 115.406 310.861 115.38 310.888C115.043 310.908 113.469 310.974 112.144 310.842C110.813 310.71 109.396 310.473 108.809 310.361V310.354C108.447 309.86 125.99 297.982 121.238 292.201C121.502 292.161 123.116 291.799 123.195 294.321V294.322ZM473.494 163.752L473.488 163.759C473.488 163.759 472.782 164.799 470.423 166.86C468.07 168.921 464.064 171.989 457.467 176.045C451.154 179.923 433.558 191.815 420.048 204.292C419.546 204.753 383.425 238.814 382.522 239.651C382.423 239.967 377.738 257.403 366.547 280.08C358.705 295.968 347 305.898 342.848 308.169C342.585 308.307 340.173 309.835 338.558 308.808C343.6 305.16 353.169 295.659 360.432 281.904C366.541 270.329 371.53 256.646 374.778 246.638C369.157 251.688 363.495 256.633 357.999 261.203C353.676 264.792 348.786 268.683 343.342 272.772C343.342 272.792 331.638 281.371 325.021 285.77L325.015 285.777C321.311 288.233 304.341 298.801 294.047 304.411C285.309 309.178 267.007 317.843 266.954 317.87H266.947C257.417 325.91 249.951 329.663 247.954 329.162C246.729 328.859 246.306 327.417 246.28 327.345C249.721 325.521 254.399 322.361 259.718 317.877C268.047 310.937 278.606 300.375 290.824 285.317C318.278 251.479 322.641 228.315 341.944 210.294C350.116 202.656 371.6 190.857 382.599 187.024L382.843 186.905C370.255 194.082 357.497 202.359 349.173 210.293C333.046 225.352 327.53 242.939 311.556 266.966L311.153 267.592C364.976 226.808 406.567 179.577 449.569 164.486C450.94 164.005 452.237 163.558 453.483 163.136L453.635 163.083C468.271 158.138 474.189 157.368 474.618 160.12C474.809 161.318 473.847 163.103 473.491 163.755L473.494 163.752ZM220.95 217.143C204.716 219.277 198.42 224.814 194.844 229.163C194.915 228.968 195.373 227.896 196.024 226.991C196.971 225.674 197.661 224.954 198.562 224.122C201.547 221.366 212.197 214.236 234.967 211.243C249.46 209.341 254.53 209.702 261.517 208.323C264.593 207.778 267.856 206.973 272.079 205.617C269.391 208.042 265.945 211.146 262.996 214.127C248.075 219.1 241.448 214.452 220.949 217.143H220.95ZM252.621 310.276C249.906 315.991 246.091 323.188 246.091 326.197C246.091 326.342 246.098 326.474 246.117 326.592C211.4 340.143 183.088 339.504 182.982 339.511C135.242 341.769 97.678 322.352 97.678 322.352L97.671 322.345L96.907 322.352C92.426 322.352 70.256 322.01 55.698 315.254C39.776 307.873 30.615 296.304 26.629 287.606C23.663 281.127 23.518 279.059 24.461 278.203L24.724 278.005L24.731 277.998C25.014 277.827 25.364 277.708 25.746 277.603C26.056 281.178 38.063 311.006 76.201 316.425C87.101 317.972 90.568 317.485 92.604 317.334C86.192 311.704 80.907 303.849 80.458 303.388C81.914 304.652 83.371 305.857 84.827 307.009C96.208 319.151 109.146 324.162 120.012 325.972L120.059 325.985H120.065L120.111 325.998L120.724 326.196C125.396 327.724 152.667 336.376 195.247 326.4C216.87 321.337 240.773 311.177 255.726 303.249C255.726 303.256 254.461 306.41 252.622 310.275L252.621 310.276Z" fill="#005778"/>
<path d="M375.345 172.595C375.345 172.595 381.111 165.949 392.894 166.814C392.503 167.413 392.17 168.255 392.546 169.082L392.565 169.118C392.617 169.229 392.682 169.339 392.761 169.448C385.44 171.938 373.059 176.846 369.131 182.66C369.131 182.66 371.744 177.277 373.868 174.287C374.409 173.526 374.918 172.917 375.345 172.595ZM262.824 279.776C262.198 282.765 259.951 292.774 255.726 303.25C240.773 311.178 216.87 321.338 195.247 326.401C152.667 336.376 125.397 327.724 120.724 326.197L120.059 325.986C121.1 326.21 131.446 326.658 131.446 326.658C133.681 326.704 162.75 327.843 194.667 315.879C220.757 306.358 246.413 290.812 262.823 279.776H262.824Z" fill="#FFFFFE"/>
</g>
<defs>
<clipPath id="clip0_4_354">
<rect width="500" height="500" fill="white"/>
</clipPath>
</defs>
</svg>
