<svg width="500" height="500" viewBox="0 0 500 500" fill="none" xmlns="http://www.w3.org/2000/svg">
<g clip-path="url(#clip0_4_268)">
<path d="M252.336 338.886C249.555 349.804 250.028 352.902 250.218 356.01C242.619 350.708 222.987 340.729 222.073 315.459C221.648 303.766 222.588 293.278 224.777 285.795C224.417 286.232 223.995 286.73 223.582 287.218C198.432 317.482 169.737 315.441 143.482 318.14C139.594 318.539 125.007 321.483 121.165 322.316C130.52 312.311 146.708 297.607 157.275 290.392C177.703 276.449 213.208 261.906 213.208 261.906C197.152 270.742 184.17 285.069 184.17 285.069C194.16 278.307 229.045 258.161 229.045 258.161C219.735 267.027 193.206 290.404 177.473 300.809C197.492 291.372 214.428 279.136 223.555 270.506C234.972 259.721 252.117 249.315 259.873 245.31C263.676 249.057 269.179 252.489 274.101 254.515C260.934 263.785 252.151 269.067 248.398 281.6C248.398 281.6 258.032 269.237 271.918 261.665C274.527 260.242 277.354 258.487 280.255 256.493C283.377 257.23 290.152 257.851 293.469 257.851L294.29 257.505C293.753 257.914 292.42 258.677 291.865 259.079C265.332 278.542 241.051 283.654 238.806 323.244C238.806 323.244 242.161 297.446 262.573 284.366C274.137 276.959 294.874 267.106 308.764 252.94C319.405 248.073 326.099 239.748 329.563 228.172L329.641 227.812C333.078 227.473 336.499 227.033 340.092 226.715C339.68 230.897 338.769 236.575 336.733 242.385C334.244 250.155 330.061 258.805 322.685 267.82C309.414 284.031 293.394 294.186 276.716 315.888C260.038 337.595 256.491 359.713 256.491 359.713C252.774 332.717 265.643 315.551 265.643 315.551C263.685 317.101 255.395 326.857 252.335 338.887L252.336 338.886ZM193.736 316.195C206.708 312.948 218.428 298.925 218.428 298.925C217.056 303.665 218.079 318.144 218.079 318.144C218.079 318.144 213.016 320.142 206.844 320.142C200.672 320.142 193.226 316.246 193.226 316.246L193.736 316.196V316.195ZM278.091 380.688C275.166 388.538 273.146 395.813 272.393 398.646C263.692 393.43 250.339 386.471 245.444 378.843C238.878 368.609 238.944 355.208 238.944 355.208C242.194 358.08 250.53 362.744 258.164 366.977C264.396 370.437 274.568 378.016 278.09 380.688H278.091ZM261.799 363.856C262.083 358.715 263.932 349.039 269.214 337.024C275.139 323.558 290.255 307.034 290.255 307.034C295.286 312.247 301.881 322.894 299.256 336.774C296.631 350.646 290.003 355.391 283.25 368.705C282.088 371 280.99 373.437 279.969 375.893C275.755 372.552 268.117 367.785 261.798 363.856H261.799ZM232.612 207.283L232.948 207.369L232.469 207.449C225.619 208.658 218.509 210.328 212.493 211.889C212.761 209.503 213.082 207.108 213.465 204.76C213.585 204.108 213.718 203.45 213.861 202.79C216.492 203.431 219.166 204.044 221.843 204.666C224.257 205.226 226.677 205.791 229.063 206.391L232.612 207.284V207.283ZM367.025 224.388C370.544 222.048 382.847 222.984 386.948 223.452C391.055 223.921 404.765 226.029 411.564 224.507C418.354 222.985 421.406 221.579 421.406 221.579C421.406 221.579 419.765 233.995 406.639 234.933C393.513 235.871 391.757 232.706 381.913 231.418C381.913 231.418 384.841 229.659 390.117 228.609C390.117 228.609 380.971 227.319 374.058 229.075C367.146 230.834 364.333 233.762 364.333 233.762C364.333 233.762 363.513 226.729 367.026 224.388H367.025ZM236.695 148.202C236.695 148.202 237.752 146.853 237.94 146.565C243.586 138.03 249.725 129.556 252.79 125.436C254.923 122.562 256.55 119.707 257.803 117.057C261.33 109.587 261.827 103.745 261.827 103.745C294.41 105.24 333.446 119.535 365.03 149.447C379.003 162.681 388.248 178.309 394.225 191.631C388.405 190.685 376.309 189.258 362.673 189.168C347.383 189.063 329.048 191.135 325.564 191.547L325.562 191.531C325.507 190.989 325.434 190.455 325.354 189.923L325.286 189.457C325.221 189.038 325.14 188.623 325.06 188.209L325.083 188.204C323.124 173.238 312.049 158.931 297.993 152.99C292.943 150.639 282.31 147.107 271.213 146.109C265.603 145.468 259.576 145.531 252.263 146.305C249.128 146.636 246.081 147.029 243.091 147.41C240.919 147.689 238.791 147.959 236.694 148.202H236.695ZM277.976 425.933C277.976 425.933 270.577 422.09 265.407 414.632C261.354 408.783 260.993 401.599 261.027 398.757C266.241 401.761 272.216 404.731 275.707 406.897C279.543 409.274 282.656 411.626 284.968 413.593C281.29 420.112 277.976 425.933 277.976 425.933ZM256.631 240.824C232.08 247.517 179.777 269.657 149.197 291.067C136 300.309 121.598 314.902 112.825 323.907C104.234 326.559 93.3829 331.108 88.3459 333.31C100.102 320.387 123.919 297.234 143.336 284.187C201.957 244.801 250.421 238.436 254.034 237.707L255.104 238.634C255.589 239.385 256.106 240.109 256.632 240.825L256.631 240.824ZM398.94 304.215C383.821 314.176 374.215 337.923 374.215 337.923C378.096 311.57 395.037 293.162 395.037 293.162C382.38 300.544 373.163 314.665 368.269 346.13C362.678 382.121 352.359 395.93 352.359 395.93L353.435 392.282C357.769 372.836 357.066 363.696 360.582 340.26C364.098 316.828 374.411 302.532 374.411 302.532C361.52 311.555 354.581 330.847 352.146 358.89C349.458 389.815 342.052 400.761 342.052 400.761C346.56 385.308 344.646 368.148 345.344 356.665C346.049 345.18 346.557 329.565 352.998 314.802C359.446 300.039 374.411 285.781 390.117 278.635C405.816 271.486 418.348 275.006 418.348 275.006C426.624 282.766 427.135 290.937 427.135 290.937C427.135 290.937 414.059 294.259 398.94 304.213V304.215ZM266.962 433.164C265.41 427.94 267.746 425.952 269.071 424.234C269.071 424.234 272.54 427.293 276.128 429.119C276.128 429.119 274.165 434.442 272.649 439.249C270.298 438.019 267.914 436.368 266.963 433.165L266.962 433.164ZM264.902 463.383C264.902 463.383 266.102 465.556 267.391 467.305C268.988 469.465 268.647 471.516 267.5 472.813C266.352 474.116 264.51 474.303 263.188 472.745C261.862 471.19 262.813 465.971 264.902 463.383ZM295.966 359.392C297.039 361.416 299.919 366.523 300.734 372.938C301.924 382.279 298.255 392.537 293.471 401.224C292.169 403.584 288.903 406.592 287.237 409.552C285.951 408.121 283.685 405.977 279.861 403.301C279.066 402.749 278.122 402.142 277.082 401.495C280.559 387.589 288.713 369.843 292.016 365.377C293.061 363.967 294.844 361.19 295.966 359.392ZM270.373 455.268C273.15 457.144 276.089 461.341 276.3 463.381C276.62 466.46 271.826 468.889 271.826 468.889C271.826 468.889 272.495 465.512 269 462.928C263.895 459.144 262.101 457.665 265.804 451.297C265.804 451.297 267.595 453.39 270.374 455.268H270.373ZM282.825 424.817C287.065 417.186 293.114 409.037 293.114 409.037C293.114 409.037 296.818 420.536 293.723 430.142C290.631 439.749 283.016 448.229 283.016 448.229C283.016 448.229 279.461 443.244 276.682 441.371C276.437 441.204 276.166 441.04 275.885 440.879C277.214 437.14 279.869 430.142 282.826 424.818L282.825 424.817ZM272.931 443.647C276.733 445.461 279.447 447.995 280.861 450.981C282.272 453.964 281.009 456.705 278.457 458.498C278.457 458.498 277.102 454.851 273.509 453.026C269.918 451.2 266.535 449.631 265.696 445.996C264.86 442.364 267.133 439.299 267.133 439.299C267.133 439.299 269.133 441.832 272.931 443.648V443.647Z" fill="#FFC62F"/>
<path d="M254.927 207.756C243.507 204.304 227.094 201.218 212.515 197.078C183.081 188.834 162.869 171.09 152.446 144.337C145.589 126.749 145.437 110.808 145.514 106.976C145.52 106.427 145.488 105.399 145.491 105.046C145.652 92.717 147.309 81.299 148.707 73.086L148.871 72.085L148.894 73.841C148.849 82.376 149.436 89.888 149.642 92.223L149.658 92.453C149.69 92.794 149.924 90.7 150.08 89.65C150.651 85.846 151.304 82.076 151.681 78.246C152.061 74.434 152.923 69.88 153.087 66.054C153.154 64.584 153.218 63.105 153.176 61.633C153.6 61.885 153.772 63.313 153.859 63.718C154.198 65.308 154.924 77.816 155.14 82.098C155.228 83.808 155.259 85.519 155.28 87.228C155.29 88.082 155.316 88.921 155.452 89.766C155.481 89.99 155.554 90.233 155.606 90.474C155.647 90.672 156.278 84.901 156.749 81.86C157.147 79.302 157.786 76.707 157.767 74.098C157.767 73.871 157.697 73.588 157.736 73.364C157.803 72.979 158.359 74.641 158.643 77.694C158.838 81.144 158.986 84.723 159.385 88.096L159.692 90.764C162.481 115.256 177.159 137.571 196.994 147.565C213.001 156.539 227.941 154.624 243.76 152.597C246.711 152.217 249.721 151.831 252.813 151.505C259.738 150.773 265.402 150.71 270.686 151.309C282.341 152.361 293.117 156.33 296.661 158.169C308.488 163.481 317.762 175.524 319.697 188.188L319.705 188.527C320.207 190.828 320.466 193.212 320.466 195.664L320.463 195.753C320.383 195.287 320.341 194.833 320.237 194.356C320.179 198.459 319.346 202.371 317.901 205.972C319.08 202.324 319.469 198.053 318.396 193.072C318.334 197.738 317.256 202.14 315.407 206.124C316.514 202.554 316.967 198.724 316.605 194.777C315.881 186.786 311.998 179.837 306.295 174.982C310.863 179.865 313.074 187.608 313.735 194.849C315.263 211.817 301.692 222.939 287.135 225.449L286.831 225.524C288.081 225.746 292.933 226.413 297.77 224.873C299.916 224.722 302.767 224.24 305.659 222.841C306.73 222.323 308.083 221.549 309.535 220.535C303.493 226.118 295.435 229.555 286.56 229.555C274.84 229.555 264.532 223.598 258.456 214.552C266.907 215.61 275.187 217.29 275.187 217.29C267.566 211.414 254.936 207.714 254.936 207.714L254.923 207.755L254.927 207.756ZM249.781 119.785C245.815 125.879 239.958 134.165 235.384 140.609C229.865 136.464 220.652 128.249 216.412 117.044C209.86 99.723 212.063 83.2 210.922 73.954C210.591 71.296 210.172 68.045 209.649 64.585C211.097 69.364 213.001 76.206 213.509 80.588C213.509 80.588 213.085 68.142 211.366 60.416C211.366 60.416 215.655 72.435 216.517 79.299C216.517 79.299 217.079 72.65 216.45 65.547C217.263 68.273 217.984 71.141 218.523 74.161C221.901 92.911 227.454 105.999 249.78 119.784L249.781 119.785Z" fill="#FFFFFE"/>
<path d="M386.079 242.923C387.258 244.332 389.361 247.374 389.478 248.431C389.493 248.562 389.48 248.848 389.455 249.236V249.238L389.431 249.516L389.426 249.561C389.278 251.181 388.499 258.72 386.761 260.822C386.505 261.241 386.216 261.645 385.852 262.01C383.857 263.876 380.367 265.65 373.776 270.22C366.51 275.262 360.768 285.57 360.768 285.57C360.768 285.57 362.833 275.83 367.325 270.263C372.891 263.368 380.144 258.811 384.62 256.43L386.631 247.446C385.09 246.417 383.152 245.364 381.277 245.028C377.386 244.343 370.829 244.432 366.815 243.123L366.864 243.042C371.669 242.456 374.482 241.051 381.628 239.876C388.775 238.706 394.285 240.816 394.285 240.816C389.478 241.051 386.079 242.924 386.079 242.924V242.923ZM409.326 239.054C409.326 239.054 412.313 245.881 412.17 250.86C412.03 255.837 413.589 259.25 415.439 260.672C417.291 262.092 419.14 262.378 420.278 263.236C421.422 264.086 421.422 266.647 420.851 268.778C420.278 270.91 418.715 271.196 417.009 270.769C415.418 270.375 407.095 269.247 398.059 270.907C397.58 269.235 396.752 265.412 398.552 263.518C400.898 261.066 405.467 261.296 407.222 261.648C407.222 261.648 403.479 259.89 400.195 259.89C396.913 259.89 394.215 262.118 393.278 264.577C392.583 266.406 393.182 270.169 393.534 271.988C383.711 274.88 369.644 282.551 358.104 297.368C345.583 313.436 342.749 333.494 342.749 333.494C342.749 333.494 329.543 336.094 322.708 325.945C313.541 312.334 316.987 296.372 316.987 296.372C316.987 296.372 311.559 298.933 307.263 297.813C305.757 297.42 304.688 296.429 303.93 295.255C311.076 288.905 318.679 282.941 326.221 274.311C330.127 275.179 333.638 276.12 335.553 276.706C339.775 277.993 344.173 281.562 345.343 285.426C346.517 289.295 347.098 302.417 347.098 302.417C349.471 293.29 349.851 288.685 350.082 286.101C350.322 283.526 350.051 277.011 345.105 272.5C342.436 270.066 334.877 267.805 331.88 266.143C343.323 250.388 346.467 226.247 346.467 226.247L346.457 225.561C347.623 225.434 348.385 225.313 348.416 225.193C350.526 225.071 358.016 224.158 360.094 224.12C360.094 224.12 356.963 233.36 359.667 240.188C359.667 240.188 366.639 235.496 376.6 236.207C386.557 236.921 402.495 241.754 409.324 239.053L409.326 239.054ZM314.936 326.955C319.67 333.901 326.018 339.808 336.214 339.808C337.69 339.808 339.441 339.782 341.347 339.733C340.509 345.015 340.097 350.708 339.893 354.84C337.68 355.577 335.713 356.289 334.148 356.946C324.244 361.081 305.812 370.847 305.812 370.847L305.184 371.225C303.666 360.72 300.239 352.09 300.239 352.09C300.239 352.09 306.852 334.894 304.378 324.322C301.127 310.435 295.807 303.05 295.807 303.05C296.391 302.428 296.976 301.843 297.563 301.247C301.05 305.992 306.954 306.128 306.954 306.128C306.954 306.128 310.21 320.016 314.936 326.954V326.955ZM416.113 339.587C421.137 339.736 425.759 339.365 425.759 339.365C424.283 340.546 420.293 340.4 418.076 340.696C415.86 340.991 402.122 341.434 385.42 343.948C382.396 344.399 379.096 344.99 375.675 345.662C376.737 342.793 377.724 340.74 378.949 338.815L379.098 338.813C391.362 338.813 411.085 339.443 416.113 339.587ZM421.996 319.287C425.509 320.694 427.502 321.979 428.791 329.245C430.08 336.51 425.978 336.274 423.986 336.162C421.996 336.044 416.204 336.006 407.295 334.95C398.388 333.898 382.478 333.485 382.478 333.485C390.083 312.445 416.603 301.014 416.603 301.014C417.074 307.103 412.501 318.236 412.501 318.236C412.501 318.236 418.478 317.882 421.996 319.289V319.287Z" fill="#E9BF9B"/>
<path d="M396.872 196.858C392.671 196.076 379.288 194.055 362.674 193.943C347.576 193.841 329.369 195.728 325.778 196.127L325.775 196.19C325.754 218.644 306.422 234.671 288.418 234.938C261.228 235.344 251.218 213.435 251.011 212.142C249.073 211.577 247.003 211.013 244.857 210.438C241.245 210.879 237.383 211.433 233.33 212.148C225.838 213.467 218.099 215.314 211.8 216.953C211.5 220.278 211.019 225.627 211 226.083C210.104 244.989 211.295 243.67 211.295 243.67C216.779 241.526 237.005 236.34 237.005 236.34C242.928 234.962 249.962 233.482 258.197 231.962C263.987 243.629 276.011 251.65 289.92 251.65C307.288 251.65 321.721 239.148 324.743 222.663C362.702 218.543 380.645 218.426 404.087 221.543C401.628 208.482 396.873 196.856 396.873 196.856" fill="#4F2683"/>
<path d="M394.28 240.818C394.28 240.818 388.777 238.708 381.634 239.877C374.475 241.045 371.667 242.457 366.862 243.042L366.813 243.123C370.823 244.437 377.382 244.34 381.277 245.022C383.158 245.363 385.093 246.418 386.634 247.44L384.621 256.431C380.141 258.817 372.884 263.362 367.331 270.259C366.909 270.777 366.503 271.346 366.131 271.945C365.952 272.188 365.79 272.448 365.644 272.724C365.431 273.065 365.238 273.406 365.06 273.746C364.833 274.152 364.62 274.574 364.411 275.012C364.2 275.434 364.005 275.856 363.827 276.278C363.032 278.061 362.398 279.848 361.928 281.359L361.766 281.877C361.409 283.06 361.151 284.035 360.987 284.701L360.922 284.959L360.873 285.155L360.808 285.463L360.792 285.546C360.889 285.382 361.393 284.473 362.238 283.159L362.852 282.218C364.475 279.784 366.944 276.408 369.883 273.52C370.289 273.114 370.709 272.709 371.133 272.335C371.993 271.571 372.868 270.858 373.779 270.225C380.37 265.649 383.86 263.88 385.855 262.015C386.214 261.64 386.506 261.234 386.766 260.829C388.503 258.718 389.282 251.173 389.43 249.567V249.518L389.461 249.242C389.477 248.966 389.477 248.739 389.477 248.593V248.431C389.363 247.376 387.253 244.325 386.084 242.93C386.084 242.93 389.477 241.048 394.282 240.82L394.28 240.818ZM394.28 240.818C394.28 240.818 388.777 238.708 381.634 239.877C374.475 241.045 371.667 242.457 366.862 243.042L366.813 243.123C370.823 244.437 377.382 244.34 381.277 245.022C383.158 245.363 385.093 246.418 386.634 247.44L384.621 256.431C380.141 258.817 372.884 263.362 367.331 270.259C366.909 270.777 366.503 271.346 366.131 271.945C365.952 272.188 365.79 272.448 365.644 272.724C365.431 273.065 365.238 273.406 365.06 273.746C364.833 274.152 364.62 274.574 364.411 275.012C364.2 275.434 364.005 275.856 363.827 276.278C363.032 278.061 362.398 279.848 361.928 281.359L361.766 281.877C361.409 283.06 361.151 284.035 360.987 284.701L360.922 284.959L360.873 285.155L360.808 285.463L360.792 285.546C360.889 285.382 361.393 284.473 362.238 283.159L362.852 282.218C364.475 279.784 366.944 276.408 369.883 273.52C370.289 273.114 370.709 272.709 371.133 272.335C371.993 271.571 372.868 270.858 373.779 270.225C380.37 265.649 383.86 263.88 385.855 262.015C386.214 261.64 386.506 261.234 386.766 260.829C388.503 258.718 389.282 251.173 389.43 249.567V249.518L389.461 249.242C389.477 248.966 389.477 248.739 389.477 248.593V248.431C389.363 247.376 387.253 244.325 386.084 242.93C386.084 242.93 389.477 241.048 394.282 240.82L394.28 240.818ZM394.28 240.818C394.28 240.818 388.777 238.708 381.634 239.877C374.475 241.045 371.667 242.457 366.862 243.042L366.813 243.123C370.823 244.437 377.382 244.34 381.277 245.022C383.158 245.363 385.093 246.418 386.634 247.44L384.621 256.431C380.141 258.817 372.884 263.362 367.331 270.259C366.909 270.777 366.503 271.346 366.131 271.945C365.952 272.188 365.79 272.448 365.644 272.724C365.431 273.065 365.238 273.406 365.06 273.746C364.833 274.152 364.62 274.574 364.411 275.012C364.2 275.434 364.005 275.856 363.827 276.278C363.032 278.061 362.398 279.848 361.928 281.359L361.766 281.877C361.409 283.06 361.151 284.035 360.987 284.701L360.922 284.959L360.873 285.155L360.808 285.463L360.792 285.546C360.889 285.382 361.393 284.473 362.238 283.159L362.852 282.218C364.475 279.784 366.944 276.408 369.883 273.52C370.289 273.114 370.709 272.709 371.133 272.335C371.993 271.571 372.868 270.858 373.779 270.225C380.37 265.649 383.86 263.88 385.855 262.015C386.214 261.64 386.506 261.234 386.766 260.829C388.503 258.718 389.282 251.173 389.43 249.567V249.518L389.461 249.242C389.477 248.966 389.477 248.739 389.477 248.593V248.431C389.363 247.376 387.253 244.325 386.084 242.93C386.084 242.93 389.477 241.048 394.282 240.82L394.28 240.818ZM394.28 240.818C394.28 240.818 388.777 238.708 381.634 239.877C374.475 241.045 371.667 242.457 366.862 243.042L366.813 243.123C370.823 244.437 377.382 244.34 381.277 245.022C383.158 245.363 385.093 246.418 386.634 247.44L384.621 256.431C380.141 258.817 372.884 263.362 367.331 270.259C366.909 270.777 366.503 271.346 366.131 271.945C365.952 272.188 365.79 272.448 365.644 272.724C365.431 273.065 365.238 273.406 365.06 273.746C364.833 274.152 364.62 274.574 364.411 275.012C364.2 275.434 364.005 275.856 363.827 276.278C363.032 278.061 362.398 279.848 361.928 281.359L361.766 281.877C361.409 283.06 361.151 284.035 360.987 284.701L360.922 284.959L360.873 285.155L360.808 285.463L360.792 285.546C360.889 285.382 361.393 284.473 362.238 283.159L362.852 282.218C364.475 279.784 366.944 276.408 369.883 273.52C370.289 273.114 370.709 272.709 371.133 272.335C371.993 271.571 372.868 270.858 373.779 270.225C380.37 265.649 383.86 263.88 385.855 262.015C386.214 261.64 386.506 261.234 386.766 260.829C388.503 258.718 389.282 251.173 389.43 249.567V249.518L389.461 249.242C389.477 248.966 389.477 248.739 389.477 248.593V248.431C389.363 247.376 387.253 244.325 386.084 242.93C386.084 242.93 389.477 241.048 394.282 240.82L394.28 240.818ZM381.634 239.877C374.475 241.045 371.667 242.457 366.862 243.042L366.813 243.123C370.823 244.437 377.382 244.34 381.277 245.022C383.158 245.363 385.093 246.418 386.634 247.44L384.621 256.431C380.141 258.817 372.884 263.362 367.331 270.259C366.909 270.777 366.503 271.346 366.131 271.945C365.952 272.188 365.79 272.448 365.644 272.724C365.431 273.065 365.238 273.406 365.06 273.746C364.833 274.152 364.62 274.574 364.411 275.012C364.2 275.434 364.005 275.856 363.827 276.278C363.032 278.061 362.398 279.848 361.928 281.359L361.766 281.877C361.409 283.06 361.151 284.035 360.987 284.701L360.922 284.959L360.873 285.155L360.808 285.463L360.792 285.546C360.889 285.382 361.393 284.473 362.238 283.159L362.852 282.218C364.475 279.784 366.944 276.408 369.883 273.52C370.289 273.114 370.709 272.709 371.133 272.335C371.993 271.571 372.868 270.858 373.779 270.225C380.37 265.649 383.86 263.88 385.855 262.015C386.214 261.64 386.506 261.234 386.766 260.829C388.503 258.718 389.282 251.173 389.43 249.567V249.518L389.461 249.242C389.477 248.966 389.477 248.739 389.477 248.593V248.431C389.363 247.376 387.253 244.325 386.084 242.93C386.084 242.93 389.477 241.048 394.282 240.82C394.282 240.82 388.779 238.71 381.636 239.879L381.634 239.877ZM423.986 336.16C421.989 336.046 416.212 336.014 407.298 334.943C398.386 333.903 382.476 333.482 382.476 333.482C390.075 312.452 416.6 301.009 416.6 301.009C417.071 307.095 412.508 318.226 412.508 318.226C412.508 318.226 418.483 317.887 421.99 319.282C425.513 320.694 427.509 321.976 428.793 329.246C430.074 336.516 425.983 336.273 423.986 336.159V336.16ZM418.077 340.688C415.853 340.998 402.12 341.435 385.416 343.95C382.397 344.404 379.1 344.989 375.676 345.654C376.731 342.798 377.721 340.737 378.953 338.823L379.099 338.805C391.357 338.805 411.08 339.438 416.112 339.582C421.128 339.728 425.753 339.356 425.753 339.356C424.276 340.539 420.3 340.393 418.076 340.687L418.077 340.688ZM368.272 346.126C362.673 382.119 352.365 395.929 352.365 395.929L353.438 392.278C357.772 372.836 357.073 363.7 360.579 340.264C364.102 316.832 374.411 302.533 374.411 302.533C361.52 311.558 354.573 330.855 352.138 358.896C349.541 388.837 342.512 400.067 342.075 400.733C346.554 385.298 344.638 368.146 345.352 356.675C346.05 345.185 346.553 329.572 352.998 314.804C359.443 300.036 374.411 285.788 390.123 278.631C405.82 271.491 418.352 275.012 418.352 275.012C426.615 282.769 427.134 290.932 427.134 290.932C427.134 290.932 414.066 294.259 398.937 304.223C383.822 314.169 374.212 337.929 374.212 337.929C378.093 311.574 395.041 293.155 395.041 293.155C382.379 300.539 373.159 314.658 368.271 346.126H368.272ZM339.898 354.839C337.674 355.569 335.71 356.283 334.151 356.95C324.249 361.085 305.808 370.856 305.808 370.856L305.175 371.228C303.665 360.714 300.24 352.096 300.24 352.096C300.24 352.096 306.845 334.894 304.379 324.329C301.132 310.438 295.81 303.054 295.81 303.054C296.393 302.421 296.976 301.837 297.562 301.253C301.052 305.992 306.945 306.138 306.945 306.138C306.945 306.138 310.208 320.013 314.932 326.959C319.672 333.903 326.019 339.812 336.212 339.812C337.689 339.812 339.444 339.781 341.342 339.729C340.516 345.021 340.094 350.701 339.899 354.839H339.898ZM293.47 401.22C292.173 403.589 288.894 406.592 287.236 409.545C285.955 408.117 283.683 405.975 279.868 403.297C279.073 402.744 278.115 402.145 277.076 401.496C280.566 387.588 288.715 369.851 292.01 365.372C293.064 363.96 294.851 361.185 295.971 359.4C297.042 361.414 299.916 366.524 300.727 372.934C301.928 382.282 298.26 392.538 293.469 401.22H293.47ZM293.715 430.139C290.629 439.746 283.017 448.235 283.017 448.235C283.017 448.235 279.462 443.251 276.684 441.369C276.442 441.208 276.166 441.044 275.89 440.881C277.205 437.134 279.867 430.139 282.823 424.817C287.058 417.19 293.113 409.043 293.113 409.043C293.113 409.043 296.814 420.533 293.714 430.14L293.715 430.139ZM278.454 458.49C278.454 458.49 277.108 454.856 273.505 453.021C269.916 451.205 266.539 449.629 265.697 445.994C264.853 442.359 267.126 439.292 267.126 439.292C267.126 439.292 269.139 441.84 272.937 443.643C276.737 445.459 279.448 447.991 280.859 450.977C282.271 453.963 281.005 456.704 278.455 458.491L278.454 458.49ZM271.833 468.892C271.833 468.892 272.497 465.516 268.992 462.936C263.895 459.137 262.093 457.662 265.81 451.299C265.81 451.299 267.596 453.394 270.371 455.262C273.147 457.143 276.085 461.348 276.296 463.376C276.621 466.458 271.832 468.892 271.832 468.892H271.833ZM267.497 472.819C266.346 474.117 264.51 474.312 263.181 472.754C261.866 471.196 262.809 465.971 264.902 463.39C264.902 463.39 266.103 465.565 267.386 467.303C268.993 469.461 268.652 471.521 267.498 472.819H267.497ZM276.118 429.114C276.118 429.114 274.172 434.44 272.644 439.242C270.29 438.025 267.92 436.37 266.962 433.171C265.404 427.949 267.741 425.951 269.072 424.231C269.072 424.231 272.53 427.298 276.117 429.114H276.118ZM261.021 398.752C266.232 401.754 272.22 404.724 275.712 406.899C279.543 409.268 282.66 411.621 284.965 413.585C281.295 420.11 277.969 425.935 277.969 425.935C277.969 425.935 270.583 422.087 265.405 414.624C261.347 408.782 260.988 401.593 261.022 398.753L261.021 398.752ZM245.437 378.84C238.879 368.616 238.944 355.211 238.944 355.211C242.191 358.083 250.534 362.741 258.162 366.977C264.397 370.434 274.559 378.012 278.082 380.69C275.16 388.543 273.147 395.815 272.384 398.639C263.698 393.43 250.339 386.468 245.437 378.84ZM299.25 336.776C296.636 350.651 289.999 355.39 283.244 368.697C282.09 371.001 280.988 373.436 279.965 375.888C275.761 372.543 268.115 367.788 261.799 363.861C262.075 358.717 263.927 349.044 269.219 337.018C275.144 323.566 290.257 307.03 290.257 307.03C295.289 312.239 301.88 322.901 299.25 336.777V336.776ZM222.078 315.452C221.64 303.768 222.581 293.284 224.773 285.787C224.416 286.227 223.994 286.728 223.588 287.215C198.427 317.481 169.743 315.438 143.478 318.146C139.598 318.537 125.005 321.489 121.158 322.317C130.524 312.304 146.709 297.601 157.277 290.396C177.065 276.896 210.992 262.808 213.103 261.948C197.097 270.81 184.176 285.073 184.176 285.073C193.851 278.518 226.901 259.416 228.947 258.233C219.564 267.173 193.153 290.428 177.472 300.815C197.487 291.37 214.435 279.132 223.558 270.5C234.97 259.724 252.112 249.322 259.871 245.314C263.67 249.063 269.189 252.487 274.107 254.515C260.942 263.781 252.16 269.072 248.394 281.6C248.394 281.6 258.036 269.234 271.916 261.655C274.528 260.243 277.354 258.492 280.261 256.494C283.376 257.223 290.162 257.857 293.471 257.857L294.283 257.498C293.749 257.904 292.418 258.668 291.866 259.074C265.375 278.517 241.121 283.628 238.816 323.079C239.157 320.856 243.118 296.821 262.581 284.358C274.139 276.958 294.87 267.106 308.764 252.94C319.397 248.071 326.101 239.746 329.559 228.176L329.64 227.819C333.081 227.478 336.507 227.04 340.094 226.715C339.688 230.902 338.763 236.582 336.734 242.375C334.25 250.148 330.062 258.798 322.691 267.823C309.414 284.034 293.392 294.176 276.721 315.89C260.033 337.587 256.495 359.707 256.495 359.707C252.873 333.449 264.952 316.491 265.618 315.582C263.605 317.19 255.375 326.927 252.338 338.886C249.564 349.808 250.033 352.907 250.213 356.009C242.616 350.701 222.99 340.736 222.081 315.453L222.078 315.452ZM218.085 318.146C218.085 318.146 213.02 320.142 206.852 320.142C200.667 320.142 193.232 316.249 193.232 316.249L193.735 316.197C206.705 312.951 218.426 298.933 218.426 298.933C217.062 303.672 218.085 318.146 218.085 318.146ZM112.83 323.905C104.243 326.552 93.3829 331.114 88.3509 333.303C100.104 320.384 123.918 297.227 143.332 284.18C201.95 244.794 250.422 238.432 254.042 237.702L255.099 238.627C255.583 239.39 256.104 240.104 256.623 240.818C232.079 247.52 179.776 269.656 149.193 291.061C135.996 300.311 121.597 314.9 112.831 323.906L112.83 323.905ZM152.439 144.34C145.589 126.748 145.443 110.812 145.507 106.982C145.523 106.43 145.491 105.392 145.491 105.051C145.653 92.717 147.309 81.293 148.705 73.081C148.77 72.756 148.819 72.416 148.867 72.091L148.899 73.844C148.85 82.38 149.435 89.894 149.646 92.231L149.662 92.458C149.694 92.799 149.922 90.705 150.084 89.65C150.652 85.853 151.301 82.071 151.675 78.241C152.065 74.427 152.925 69.883 153.087 66.053C153.152 64.576 153.217 63.099 153.168 61.639C153.606 61.882 153.769 63.311 153.866 63.716C154.191 65.306 154.921 77.818 155.132 82.103C155.229 83.807 155.262 85.511 155.278 87.231C155.294 88.075 155.31 88.919 155.457 89.763C155.473 89.99 155.554 90.234 155.603 90.477C155.668 90.477 156.269 84.846 156.739 81.86C157.145 79.296 157.778 76.699 157.762 74.103C157.762 73.876 157.697 73.584 157.73 73.373C157.795 72.984 158.363 74.639 158.639 77.69C158.834 81.147 158.98 84.717 159.386 88.092L159.694 90.77C162.486 115.259 177.161 137.573 196.998 147.569C213.004 156.543 227.938 154.628 243.765 152.6C246.703 152.227 249.723 151.837 252.807 151.513C259.739 150.783 265.404 150.718 270.68 151.302C282.335 152.357 293.114 156.333 296.653 158.167C308.485 163.474 317.756 175.531 319.702 188.189V188.53C320.207 190.834 320.467 193.22 320.467 195.67V195.751C320.384 195.28 320.337 194.842 320.238 194.355C320.175 198.461 319.348 202.372 317.902 205.975C319.071 202.324 319.46 198.056 318.389 193.073C318.34 197.747 317.253 202.145 315.402 206.121C316.507 202.551 316.96 198.721 316.602 194.777C315.873 186.793 311.992 179.847 306.296 174.978C310.857 179.863 313.08 187.604 313.731 194.858C315.257 211.817 301.686 222.933 287.141 225.448L286.831 225.529C288.083 225.74 292.936 226.422 297.774 224.88C299.917 224.718 302.774 224.247 305.663 222.835C306.734 222.332 308.08 221.553 309.543 220.531C303.504 226.114 295.436 229.554 286.555 229.554C274.836 229.554 264.528 223.598 258.457 214.559C266.914 215.614 275.192 217.285 275.192 217.285C267.564 211.41 254.935 207.71 254.935 207.71V207.759C243.507 204.302 227.095 201.219 212.518 197.081C183.087 188.837 162.877 171.083 152.439 144.339V144.34ZM216.414 117.044C209.856 99.728 212.064 83.208 210.927 73.958C210.586 71.297 210.164 68.051 209.645 64.578C211.106 69.365 213.005 76.214 213.508 80.595C213.508 80.595 213.086 68.18 211.381 60.456C211.624 61.17 215.683 72.644 216.511 79.297C216.511 79.297 217.079 72.643 216.446 65.552C217.258 68.278 217.988 71.151 218.524 74.169C221.9 92.913 227.452 106.009 249.789 119.787C245.812 125.873 239.952 134.165 235.39 140.608C229.871 136.47 220.65 128.258 216.414 117.044ZM257.808 117.06C261.331 109.595 261.834 103.737 261.834 103.737C294.412 105.246 333.454 119.527 365.026 149.452C379.006 162.678 388.257 178.306 394.231 191.63C388.403 190.689 376.31 189.261 362.674 189.163C347.382 189.066 329.055 191.127 325.565 191.549V191.533C325.5 190.997 325.437 190.462 325.354 189.926L325.289 189.455C325.224 189.033 325.143 188.627 325.062 188.205H325.078C323.13 173.242 312.044 158.929 298.001 152.989C292.953 150.636 282.32 147.098 271.216 146.108C265.598 145.459 259.577 145.524 252.272 146.303C249.123 146.628 246.087 147.033 243.1 147.407C240.925 147.683 238.798 147.959 236.688 148.202C236.688 148.202 237.759 146.855 237.938 146.563C243.587 138.027 249.723 129.556 252.793 125.434C254.916 122.562 256.557 119.705 257.807 117.06H257.808ZM212.501 211.882C212.761 209.496 213.085 207.111 213.459 204.758C213.589 204.109 213.719 203.444 213.865 202.794C216.495 203.427 219.173 204.044 221.852 204.66C224.254 205.228 226.673 205.796 229.059 206.396C230.26 206.688 231.445 206.98 232.614 207.289L232.955 207.37L232.468 207.451C225.618 208.652 218.508 210.323 212.501 211.881V211.882ZM404.084 221.538C380.643 218.422 362.706 218.536 324.737 222.658C321.718 239.146 307.286 251.658 289.917 251.658C276.004 251.658 263.993 243.625 258.198 231.957C249.968 233.482 242.923 234.959 236.998 236.339C236.998 236.339 216.772 241.532 211.301 243.674C211.301 243.674 210.1 244.988 210.993 226.082C211.025 225.628 211.496 220.272 211.805 216.962C218.103 215.323 225.847 213.473 233.33 212.142C237.388 211.428 241.252 210.876 244.855 210.438C246.998 211.006 249.076 211.574 251.007 212.142C251.218 213.44 261.234 235.349 288.424 234.943C306.426 234.667 325.76 218.65 325.776 196.19V196.125C329.365 195.736 347.575 193.837 362.674 193.95C379.297 194.064 392.674 196.076 396.877 196.855C396.877 196.855 401.633 208.491 404.084 221.538ZM411.566 224.508C418.353 222.983 421.405 221.587 421.405 221.587C421.405 221.587 419.765 234.002 406.633 234.927C393.517 235.868 391.764 232.704 381.91 231.422C381.91 231.422 384.848 229.653 390.124 228.614C390.124 228.614 380.969 227.316 374.053 229.068C367.154 230.837 364.329 233.758 364.329 233.758C364.329 233.758 363.517 226.731 367.024 224.394C370.547 222.041 382.851 222.982 386.94 223.453C391.05 223.924 404.766 226.033 411.566 224.508ZM415.447 260.666C417.298 262.091 419.148 262.385 420.284 263.23C421.42 264.088 421.42 266.653 420.852 268.78C420.284 270.904 418.709 271.196 417.005 270.774C415.414 270.368 407.101 269.249 398.061 270.904C397.574 269.232 396.746 265.419 398.548 263.52C400.886 261.086 405.384 261.297 407.168 261.638C406.746 261.443 403.272 259.885 400.186 259.885C396.909 259.885 394.214 262.125 393.272 264.577C392.574 266.409 393.175 270.174 393.532 271.992C383.711 274.881 369.637 282.557 358.095 297.373C345.579 313.439 342.756 333.496 342.756 333.496C342.756 333.496 329.541 336.094 322.707 325.951C313.537 312.335 316.991 296.368 316.991 296.368C316.991 296.368 311.555 298.932 307.267 297.811C305.759 297.422 304.686 296.432 303.926 295.247C311.083 288.902 318.68 282.946 326.229 274.314C330.123 275.172 333.63 276.114 335.547 276.714C339.768 277.996 344.167 281.565 345.352 285.429C346.521 289.291 347.105 302.42 347.105 302.42C349.473 293.283 349.848 288.691 350.076 286.094C350.319 283.53 350.044 277.006 345.109 272.495C342.429 270.061 334.882 267.805 331.877 266.148C343.323 250.392 346.472 226.244 346.472 226.244C346.456 226.017 346.456 225.79 346.456 225.562C347.626 225.432 348.386 225.319 348.42 225.189C350.53 225.075 358.014 224.15 360.092 224.118C360.092 224.118 356.961 233.352 359.67 240.184C359.67 240.184 366.634 235.494 376.601 236.208C386.552 236.922 402.491 241.758 409.327 239.048C409.327 239.048 412.314 245.88 412.168 250.862C412.038 255.828 413.595 259.25 415.447 260.666ZM432.928 324.702C432.28 320.726 428.287 317.172 426.29 316.732C424.293 316.295 419.196 314.965 419.196 314.965C422.962 304.337 422.962 297.682 422.962 297.682C426.29 295.911 432.927 293.253 432.927 293.253C430.721 281.502 422.734 272.414 422.734 272.414C423.4 269.98 424.956 265.777 424.956 264.219C424.956 262.661 422.068 260.016 418.968 258.02C415.867 256.024 415.429 252.486 415.429 248.267C415.429 244.064 413.66 238.741 412.994 238.514C412.328 238.303 420.898 235.593 423.562 228.047C426.224 220.517 426.289 214.399 426.289 214.399C422.75 219.56 408.887 221.686 408.887 221.686C407.783 209.937 398.353 172.043 360.236 137.704C322.121 103.365 257.172 97.149 257.172 97.149C257.269 99.064 257.026 101.336 256.458 103.835C255.922 107.064 254.981 110.878 253.341 113.962C253.244 114.141 253.114 114.368 252.984 114.579C244.023 109.727 234.608 103.203 230.29 95.576C221.93 80.808 222.969 68.101 218.537 57.683C211.281 40.627 200.81 31.361 197.694 28.65C195.908 27.092 195.308 26.573 194.382 27.319C193.473 28.049 194.074 29.104 194.82 30.208C195.518 31.247 202.044 43.824 204.479 60.896C206.914 77.952 203.684 104.875 211.67 122.158C216.637 132.917 224.851 141.437 230.354 146.338C230.549 146.5 230.744 146.679 230.922 146.841L232.708 148.61C221.312 149.681 210.712 149.275 199.446 142.946C181.33 133.826 167.434 112.615 164.886 90.171L164.578 87.477C163.864 81.326 164.156 75.176 163.88 69.009C163.637 63.41 163.02 57.828 162.046 52.31C161.624 49.876 161.121 47.474 160.536 45.072L160.52 44.991C160.277 43.53 159.854 42.086 159.432 40.658C159.156 39.717 158.848 38.776 158.539 37.818C157.825 35.725 156.899 33.712 155.714 31.797C154.285 29.493 152.711 27.253 150.877 25.257C149.789 24.072 148.621 22.953 147.306 22.028C147.306 22.028 146.089 21.265 145.261 21.703C145.261 21.703 144.173 22.466 145.326 24.835C145.326 24.835 145.618 25.306 145.959 26.117C146.154 26.571 146.365 27.139 146.56 27.789C146.739 28.373 146.885 29.006 146.998 29.688C147.907 34.557 148.556 45.04 144.709 65.05L144.677 65.115C144.336 68.02 143.963 70.925 143.46 73.813C141.869 83.177 140.327 93.806 140.067 104.842C140.067 105.329 140.132 106.757 140.116 107.049C140.002 116.867 141.885 181.229 208.457 201.498C208.149 202.877 207.856 204.208 207.645 205.49C203.148 233.873 204.804 245.834 204.804 245.834L204.836 246.126C191.216 251.254 175.811 258.167 159.578 267.45C141.413 277.398 121.706 290.932 102.421 309.4C98.8009 312.889 95.4079 316.313 92.1939 319.721C91.4149 320.532 90.6359 321.36 89.8559 322.189L89.7099 322.35C79.5319 333.304 71.8539 343.398 66.2859 351.61C96.3659 329.898 143.361 323.389 157.727 322.543C172.791 321.668 188.05 319.09 188.05 319.09C188.05 319.09 194.008 322.269 201.118 323.827C209.186 325.612 217.627 323.048 217.627 323.048C220.663 338.66 231.636 348.689 234.509 350.943C233.762 355.635 234.525 371.116 239.801 379.718C245.483 388.984 254.865 395.232 254.865 395.232C254.865 395.232 254.216 403.622 256.423 409.627C258.631 415.631 263.76 421.1 263.76 421.1C263.76 421.1 261.422 425.027 261.114 429.961C260.806 434.894 263.76 437.635 263.76 437.635C263.76 437.635 261.082 441.077 260.627 443.755C260.187 446.449 261.844 450.488 261.844 450.488C261.844 450.488 260.221 453.443 259.75 455.715C259.263 458.003 260.627 460.812 260.627 460.812C259.539 462.936 256.311 472.917 261.065 476.925C265.805 480.933 271.714 473.452 271.714 473.452C273.532 472.916 276.956 470.661 278.579 468.129C280.577 465.029 280.577 462.141 280.577 462.141C280.577 462.141 283.126 460.484 285.332 456.266C287.153 452.842 286.892 450.586 286.892 450.586C286.892 450.586 297.2 439.762 299.343 426.243C301.176 414.721 298.465 404.09 298.465 404.09C298.465 404.09 306.21 392.31 305.853 378.84C311.129 375.155 323.855 366.896 339.699 360.731C340.154 369.817 341.582 377.688 338.741 392.294C335.186 410.47 319.002 423.762 319.002 423.762C341.613 421.328 356.695 401.381 362.669 386.972C367.555 375.221 372.003 358.603 374.065 351.073C396.124 346.789 416.271 345.653 422.959 344.648C431.822 343.316 434.046 341.336 434.257 338.011C434.484 334.683 433.591 328.694 432.924 324.702H432.928ZM394.279 240.818C394.279 240.818 388.776 238.708 381.633 239.877C374.474 241.045 371.666 242.457 366.861 243.042L366.812 243.123C370.822 244.437 377.381 244.34 381.276 245.022C383.157 245.363 385.092 246.418 386.633 247.44L384.62 256.431C380.14 258.817 372.883 263.362 367.33 270.259C366.908 270.777 366.502 271.346 366.13 271.945C365.951 272.188 365.789 272.448 365.643 272.724C365.43 273.065 365.237 273.406 365.059 273.746C364.832 274.152 364.619 274.574 364.41 275.012C364.199 275.434 364.004 275.856 363.826 276.278C363.031 278.061 362.397 279.848 361.927 281.359L361.765 281.877C361.408 283.06 361.15 284.035 360.986 284.701L360.921 284.959L360.872 285.155L360.807 285.463L360.791 285.546C360.888 285.382 361.392 284.473 362.237 283.159L362.851 282.218C364.474 279.784 366.943 276.408 369.882 273.52C370.288 273.114 370.708 272.709 371.132 272.335C371.992 271.571 372.867 270.858 373.778 270.225C380.369 265.649 383.859 263.88 385.854 262.015C386.213 261.64 386.505 261.234 386.765 260.829C388.502 258.718 389.281 251.173 389.429 249.567V249.518L389.46 249.242C389.476 248.966 389.476 248.739 389.476 248.593V248.431C389.362 247.376 387.252 244.325 386.083 242.93C386.083 242.93 389.476 241.048 394.281 240.82L394.279 240.818ZM394.279 240.818C394.279 240.818 388.776 238.708 381.633 239.877C374.474 241.045 371.666 242.457 366.861 243.042L366.812 243.123C370.822 244.437 377.381 244.34 381.276 245.022C383.157 245.363 385.092 246.418 386.633 247.44L384.62 256.431C380.14 258.817 372.883 263.362 367.33 270.259C366.908 270.777 366.502 271.346 366.13 271.945C365.951 272.188 365.789 272.448 365.643 272.724C365.43 273.065 365.237 273.406 365.059 273.746C364.832 274.152 364.619 274.574 364.41 275.012C364.199 275.434 364.004 275.856 363.826 276.278C363.031 278.061 362.397 279.848 361.927 281.359L361.765 281.877C361.408 283.06 361.15 284.035 360.986 284.701L360.921 284.959L360.872 285.155L360.807 285.463L360.791 285.546C360.888 285.382 361.392 284.473 362.237 283.159L362.851 282.218C364.474 279.784 366.943 276.408 369.882 273.52C370.288 273.114 370.708 272.709 371.132 272.335C371.992 271.571 372.867 270.858 373.778 270.225C380.369 265.649 383.859 263.88 385.854 262.015C386.213 261.64 386.505 261.234 386.765 260.829C388.502 258.718 389.281 251.173 389.429 249.567V249.518L389.46 249.242C389.476 248.966 389.476 248.739 389.476 248.593V248.431C389.362 247.376 387.252 244.325 386.083 242.93C386.083 242.93 389.476 241.048 394.281 240.82L394.279 240.818ZM394.279 240.818C394.279 240.818 388.776 238.708 381.633 239.877C374.474 241.045 371.666 242.457 366.861 243.042L366.812 243.123C370.822 244.437 377.381 244.34 381.276 245.022C383.157 245.363 385.092 246.418 386.633 247.44L384.62 256.431C380.14 258.817 372.883 263.362 367.33 270.259C366.908 270.777 366.502 271.346 366.13 271.945C365.951 272.188 365.789 272.448 365.643 272.724C365.43 273.065 365.237 273.406 365.059 273.746C364.832 274.152 364.619 274.574 364.41 275.012C364.199 275.434 364.004 275.856 363.826 276.278C363.031 278.061 362.397 279.848 361.927 281.359L361.765 281.877C361.408 283.06 361.15 284.035 360.986 284.701L360.921 284.959L360.872 285.155L360.807 285.463L360.791 285.546C360.888 285.382 361.392 284.473 362.237 283.159L362.851 282.218C364.474 279.784 366.943 276.408 369.882 273.52C370.288 273.114 370.708 272.709 371.132 272.335C371.992 271.571 372.867 270.858 373.778 270.225C380.369 265.649 383.859 263.88 385.854 262.015C386.213 261.64 386.505 261.234 386.765 260.829C388.502 258.718 389.281 251.173 389.429 249.567V249.518L389.46 249.242C389.476 248.966 389.476 248.739 389.476 248.593V248.431C389.362 247.376 387.252 244.325 386.083 242.93C386.083 242.93 389.476 241.048 394.281 240.82L394.279 240.818ZM394.279 240.818C394.279 240.818 388.776 238.708 381.633 239.877C374.474 241.045 371.666 242.457 366.861 243.042L366.812 243.123C370.822 244.437 377.381 244.34 381.276 245.022C383.157 245.363 385.092 246.418 386.633 247.44L384.62 256.431C380.14 258.817 372.883 263.362 367.33 270.259C366.908 270.777 366.502 271.346 366.13 271.945C365.951 272.188 365.789 272.448 365.643 272.724C365.43 273.065 365.237 273.406 365.059 273.746C364.832 274.152 364.619 274.574 364.41 275.012C364.199 275.434 364.004 275.856 363.826 276.278C363.031 278.061 362.397 279.848 361.927 281.359L361.765 281.877C361.408 283.06 361.15 284.035 360.986 284.701L360.921 284.959L360.872 285.155L360.807 285.463L360.791 285.546C360.888 285.382 361.392 284.473 362.237 283.159L362.851 282.218C364.474 279.784 366.943 276.408 369.882 273.52C370.288 273.114 370.708 272.709 371.132 272.335C371.992 271.571 372.867 270.858 373.778 270.225C380.369 265.649 383.859 263.88 385.854 262.015C386.213 261.64 386.505 261.234 386.765 260.829C388.502 258.718 389.281 251.173 389.429 249.567V249.518L389.46 249.242C389.476 248.966 389.476 248.739 389.476 248.593V248.431C389.362 247.376 387.252 244.325 386.083 242.93C386.083 242.93 389.476 241.048 394.281 240.82L394.279 240.818ZM394.279 240.818C394.279 240.818 388.776 238.708 381.633 239.877C374.474 241.045 371.666 242.457 366.861 243.042L366.812 243.123C370.822 244.437 377.381 244.34 381.276 245.022C383.157 245.363 385.092 246.418 386.633 247.44L384.62 256.431C380.14 258.817 372.883 263.362 367.33 270.259C366.908 270.777 366.502 271.346 366.13 271.945C365.951 272.188 365.789 272.448 365.643 272.724C365.43 273.065 365.237 273.406 365.059 273.746C364.832 274.152 364.619 274.574 364.41 275.012C364.199 275.434 364.004 275.856 363.826 276.278C363.031 278.061 362.397 279.848 361.927 281.359L361.765 281.877C361.408 283.06 361.15 284.035 360.986 284.701L360.921 284.959L360.872 285.155L360.807 285.463L360.791 285.546C360.888 285.382 361.392 284.473 362.237 283.159L362.851 282.218C364.474 279.784 366.943 276.408 369.882 273.52C370.288 273.114 370.708 272.709 371.132 272.335C371.992 271.571 372.867 270.858 373.778 270.225C380.369 265.649 383.859 263.88 385.854 262.015C386.213 261.64 386.505 261.234 386.765 260.829C388.502 258.718 389.281 251.173 389.429 249.567V249.518L389.46 249.242C389.476 248.966 389.476 248.739 389.476 248.593V248.431C389.362 247.376 387.252 244.325 386.083 242.93C386.083 242.93 389.476 241.048 394.281 240.82L394.279 240.818ZM394.279 240.818C394.279 240.818 388.776 238.708 381.633 239.877C374.474 241.045 371.666 242.457 366.861 243.042L366.812 243.123C370.822 244.437 377.381 244.34 381.276 245.022C383.157 245.363 385.092 246.418 386.633 247.44L384.62 256.431C380.14 258.817 372.883 263.362 367.33 270.259C366.908 270.777 366.502 271.346 366.13 271.945C365.951 272.188 365.789 272.448 365.643 272.724C365.43 273.065 365.237 273.406 365.059 273.746C364.832 274.152 364.619 274.574 364.41 275.012C364.199 275.434 364.004 275.856 363.826 276.278C363.031 278.061 362.397 279.848 361.927 281.359L361.765 281.877C361.408 283.06 361.15 284.035 360.986 284.701L360.921 284.959L360.872 285.155L360.807 285.463L360.791 285.546C360.888 285.382 361.392 284.473 362.237 283.159L362.851 282.218C364.474 279.784 366.943 276.408 369.882 273.52C370.288 273.114 370.708 272.709 371.132 272.335C371.992 271.571 372.867 270.858 373.778 270.225C380.369 265.649 383.859 263.88 385.854 262.015C386.213 261.64 386.505 261.234 386.765 260.829C388.502 258.718 389.281 251.173 389.429 249.567V249.518L389.46 249.242C389.476 248.966 389.476 248.739 389.476 248.593V248.431C389.362 247.376 387.252 244.325 386.083 242.93C386.083 242.93 389.476 241.048 394.281 240.82L394.279 240.818Z" fill="black"/>
<path d="M434.262 338.011C434.051 341.336 431.827 343.316 422.964 344.648C416.276 345.653 396.129 346.789 374.07 351.073C372.008 358.603 367.561 375.221 362.674 386.972C356.7 401.381 341.618 421.327 319.007 423.762C319.007 423.762 335.191 410.469 338.746 392.294C341.587 377.688 340.158 369.818 339.704 360.731C323.861 366.896 311.134 375.155 305.858 378.84C306.215 392.31 298.47 404.09 298.47 404.09C298.47 404.09 301.181 414.721 299.348 426.243C297.205 439.761 286.897 450.586 286.897 450.586C286.897 450.586 287.158 452.842 285.337 456.266C283.131 460.484 280.582 462.141 280.582 462.141C280.582 462.141 280.582 465.03 278.584 468.129C276.961 470.661 273.537 472.916 271.719 473.452C271.719 473.452 265.81 480.933 261.07 476.925C256.315 472.917 259.544 462.936 260.632 460.812C260.632 460.812 259.268 458.003 259.755 455.715C260.226 453.443 261.849 450.488 261.849 450.488C261.849 450.488 260.192 446.449 260.632 443.755C261.087 441.077 263.765 437.635 263.765 437.635C263.765 437.635 260.811 434.894 261.119 429.961C261.427 425.028 263.765 421.1 263.765 421.1C263.765 421.1 258.635 415.631 256.428 409.627C254.22 403.623 254.87 395.232 254.87 395.232C254.87 395.232 245.487 388.984 239.806 379.718C234.53 371.117 233.767 355.635 234.514 350.943C231.641 348.689 220.667 338.66 217.632 323.048C217.632 323.048 209.191 325.612 201.123 323.827C194.013 322.269 188.055 319.09 188.055 319.09C188.055 319.09 172.796 321.669 157.732 322.543C143.366 323.388 96.3711 329.898 66.2911 351.61C71.8591 343.398 79.537 333.304 89.715 322.35L89.8611 322.189C90.6401 321.36 91.419 320.532 92.199 319.721C95.413 316.313 98.8061 312.889 102.426 309.4C121.711 290.932 141.418 277.398 159.583 267.45C175.816 258.167 191.221 251.254 204.841 246.126L204.809 245.834C204.809 245.834 203.153 233.874 207.65 205.49C207.861 204.208 208.153 202.877 208.462 201.498C141.89 181.229 140.007 116.867 140.121 107.049C140.137 106.757 140.072 105.329 140.072 104.842C140.332 93.8068 141.874 83.1768 143.465 73.8128C143.968 70.9238 144.342 68.0188 144.682 65.1148L144.714 65.0498C148.561 45.0398 147.912 34.5568 147.003 29.6878C146.889 29.0058 146.743 28.3738 146.565 27.7888C146.37 27.1398 146.159 26.5718 145.964 26.1168C145.623 25.3058 145.331 24.8348 145.331 24.8348C144.178 22.4658 145.266 21.7028 145.266 21.7028C146.094 21.2648 147.311 22.0278 147.311 22.0278C148.626 22.9528 149.795 24.0728 150.882 25.2568C152.716 27.2528 154.291 29.4928 155.719 31.7968C156.904 33.7118 157.829 35.7238 158.544 37.8178C158.852 38.7748 159.161 39.7168 159.437 40.6578C159.859 42.0858 160.281 43.5298 160.525 44.9908L160.541 45.0718C161.125 47.4738 161.629 49.8758 162.051 52.3098C163.025 57.8278 163.642 63.4098 163.885 69.0088C164.161 75.1758 163.869 81.3258 164.583 87.4768L164.891 90.1708C167.44 112.615 181.335 133.825 199.451 142.946C210.717 149.275 221.317 149.681 232.713 148.61L230.927 146.841C230.748 146.679 230.554 146.5 230.359 146.338C224.856 141.437 216.642 132.917 211.675 122.158C203.688 104.875 206.919 77.9518 204.484 60.8958C202.049 43.8238 195.523 31.2468 194.825 30.2078C194.078 29.1038 193.478 28.0498 194.387 27.3188C195.312 26.5718 195.913 27.0918 197.699 28.6498C200.816 31.3598 211.286 40.6268 218.542 57.6828C222.974 68.1018 221.935 80.8078 230.295 95.5758C234.613 103.203 244.028 109.727 252.989 114.579C253.119 114.368 253.249 114.141 253.346 113.962C254.986 110.879 255.927 107.065 256.463 103.835C257.031 101.336 257.275 99.0638 257.177 97.1488C257.177 97.1488 322.126 103.364 360.241 137.704C398.358 172.043 407.788 209.936 408.892 221.686C408.892 221.686 422.755 219.56 426.294 214.399C426.294 214.399 426.229 220.517 423.567 228.047C420.903 235.593 412.334 238.303 412.999 238.514C413.665 238.741 415.434 244.064 415.434 248.267C415.434 252.486 415.872 256.024 418.973 258.02C422.074 260.016 424.961 262.661 424.961 264.219C424.961 265.777 423.404 269.98 422.739 272.414C422.739 272.414 430.726 281.502 432.932 293.253C432.932 293.253 426.294 295.911 422.967 297.682C422.967 297.682 422.967 304.337 419.201 314.965C419.201 314.965 424.298 316.296 426.295 316.732C428.292 317.172 432.285 320.726 432.933 324.702C433.6 328.694 434.493 334.682 434.266 338.011H434.262ZM438.515 323.923C437.492 317.74 431.892 312.336 427.524 311.362C427.217 311.297 426.811 311.216 426.373 311.104C427.509 307.013 428.06 303.749 428.336 301.463C430.854 300.311 433.794 299.11 435.058 298.605L439.36 296.87L438.5 292.326C436.729 282.946 431.812 275.189 429.002 271.359C430.012 268.162 430.611 266.085 430.611 264.318C430.611 260.714 427.722 257.03 422.04 253.378C421.585 253.088 421.066 252.258 421.066 248.347C421.066 248.282 421.001 244.614 420.043 240.882C423.127 238.789 426.989 235.348 428.89 229.993C430.789 224.605 431.504 219.834 431.779 217.059C431.925 215.55 431.712 211.931 431.712 211.931L431.129 204.953C431.129 204.953 427.623 207.744 425.676 209.237C425.155 209.626 424.765 209.919 424.553 210.048C424.277 210.259 423.97 210.454 423.678 210.632C422.248 211.492 420.659 212.174 419.977 212.531C418.449 213.359 416.13 214.235 413.58 214.949C409.913 195.978 396.472 162.791 363.973 133.515C324.884 98.2988 260.323 91.7758 257.598 91.4998L251.543 90.9318C251.543 90.9318 251.413 100.004 250.843 102.584L250.78 102.876C250.569 104.126 250.325 105.31 250.032 106.414C242.68 101.821 237.55 97.1638 235.067 92.7658C230.473 84.6518 228.98 77.2028 227.551 70.0138C226.545 64.9178 225.571 60.0818 223.59 55.4078C218.363 43.1388 210.847 32.6718 201.253 24.3138C199.516 22.8208 197.747 21.2628 195.02 21.2628C193.932 21.2628 192.309 21.5388 190.67 22.8528C189.501 23.8098 185.995 27.3478 189.907 33.1418C189.972 33.2388 196.352 44.9078 198.738 61.6228C199.533 67.1238 199.696 73.9078 199.874 81.0808C200.231 95.6048 200.653 112.045 206.4 124.508C208.932 129.977 212.195 134.894 215.604 139.162C215.945 139.584 217.244 140.947 217.471 141.223C218.055 141.905 218.656 142.586 219.24 143.235C212.958 142.699 207.568 141.044 202.212 138.042L201.985 137.912C185.492 129.603 172.83 110.161 170.493 89.5188L170.185 86.8248C169.747 83.1738 169.714 79.4738 169.666 75.5628C169.65 73.3398 169.617 71.0518 169.52 68.7468C169.26 62.9698 168.627 57.1108 167.604 51.3338C167.182 48.8998 166.662 46.4488 166.094 44.0468L166.045 43.8678C165.737 42.0988 165.25 40.4278 164.844 39.0808C164.552 38.0588 164.227 37.0518 163.886 36.0458C163.042 33.5138 161.922 31.0958 160.526 28.8408C158.675 25.8388 156.922 23.4858 155.023 21.4248C153.53 19.8018 152.069 18.4878 150.575 17.4328L150.348 17.2868C149.715 16.8648 147.994 15.9238 145.851 15.9238C144.715 15.9238 143.627 16.1838 142.637 16.7028L142.004 17.0918C139.52 18.8448 138.027 22.6908 140.267 27.2998L140.478 27.6888C140.527 27.7698 140.64 27.9968 140.786 28.3218C140.916 28.6298 141.046 29.0038 141.176 29.4088C141.29 29.7658 141.371 30.1718 141.468 30.7228C142.215 34.7308 142.913 44.2898 139.277 63.4718L139.082 64.4618C138.676 67.8698 138.319 70.4498 137.913 72.8518C136.355 82.0368 134.715 92.9908 134.439 104.708C134.439 105.065 134.455 105.812 134.471 106.428L134.487 106.98C134.406 114.737 135.591 181.971 201.968 205.291L202.017 205.307L201.806 205.388C198.787 224.716 198.576 236.628 198.77 242.437C184.371 248.084 170.2 254.868 156.678 262.609C135.51 274.196 115.868 288.623 98.2881 305.468C94.7331 308.891 91.3241 312.318 87.8831 315.952C87.0711 316.796 86.2761 317.64 85.5781 318.404L85.351 318.646C76.65 328.011 68.7931 337.779 61.9921 347.679C61.7811 347.987 61.1641 348.977 60.9211 349.561C60.1421 351.344 59.3141 354.77 60.9371 356.572C61.9111 357.659 63.826 358.584 67.446 357.043C67.625 356.994 68.3231 356.718 68.5821 356.572C69.2801 356.183 70.3191 355.533 70.6601 355.272C92.6401 338.461 143.124 329.177 157.864 328.318C170.217 327.588 182.473 325.785 187.019 325.072C189.486 326.242 194.308 328.271 199.746 329.47C202.051 329.973 204.535 330.233 207.148 330.233C209.421 330.233 211.547 330.04 213.365 329.779C217.131 341.674 224.631 349.837 228.527 353.489C228.284 360.662 229.501 374.117 234.874 382.846C239.257 390.003 245.523 395.472 249.013 398.2C249.013 401.623 249.305 407.126 251.026 411.782C252.552 415.953 255.133 419.734 257.048 422.215C256.301 424.213 255.555 426.86 255.376 429.828C255.165 433.169 255.944 435.865 256.918 437.877C256.074 439.402 255.278 441.236 254.97 443.07C254.548 445.585 255.067 448.328 255.652 450.339C255.068 451.623 254.451 453.262 254.108 454.82C253.655 457.06 254.028 459.299 254.498 460.971C252.763 466.018 250.862 476.063 257.308 481.502C259.256 483.139 261.595 484 264.061 484C269.012 484 273.036 480.478 274.97 478.434C277.843 477.087 281.283 474.458 283.234 471.438C284.71 469.15 285.424 466.944 285.781 465.274C287.08 463.974 288.734 461.994 290.227 459.154C291.495 456.754 292.063 454.691 292.306 453.133C295.114 449.774 301.332 441.53 304.025 431.257L304.66 428.417C304.725 428.078 304.79 427.719 304.837 427.346C306.314 418.029 305.115 409.333 304.352 405.275C306.543 401.348 310.845 392.406 311.365 382.036C316.121 378.871 324.416 373.76 334.546 369.167C334.936 375.366 335.051 381.744 333.166 391.416C330.845 403.23 322.225 413 317.891 417.284C316.383 418.761 312.664 422.98 312.664 422.98C312.664 422.98 311.237 424.181 311.513 426.631C311.528 426.777 311.643 427.199 311.755 427.507C311.804 427.619 312.063 427.994 312.177 428.091C314.239 430.087 319.904 429.357 319.904 429.357C344.302 426.744 360.826 406.248 367.856 389.322C372.239 378.774 376.2 364.704 378.552 356.119C392.693 353.555 405.776 352.273 414.656 351.398C418.617 351.007 421.75 350.699 423.811 350.374C429.217 349.579 439.281 348.07 439.914 338.527C440.125 335.492 439.671 330.853 438.518 323.921L438.515 323.923Z" fill="#FFFFFE"/>
</g>
<defs>
<clipPath id="clip0_4_268">
<rect width="500" height="500" fill="white"/>
</clipPath>
</defs>
</svg>
