<svg width="500" height="500" viewBox="0 0 500 500" fill="none" xmlns="http://www.w3.org/2000/svg">
<g clip-path="url(#clip0_4_137)">
<path d="M483.47 162.186C423.241 176.388 420.61 141.561 330.03 135.175C208.105 126.578 105.649 179.615 23.771 186.411C5.98301 187.888 8.29001 202.669 21.073 205.178C51.933 212.369 83.777 211.455 112.923 207.553C111.944 209.898 110.961 213.511 114.217 216.28C125.76 226.077 172.164 226.916 192.536 225.745C199.453 225.351 214.219 223.958 214.219 223.958C210.008 224.357 203.428 237.17 217.341 240.778C303.325 264.814 343.779 303.628 390.221 364.757C409.093 362.349 426.864 339.676 419.287 322.369L423.052 313.08L436.953 306.652L432.969 275.651L454.16 265.686C454.16 265.686 487.163 177.126 489.096 170.677C491.029 164.228 487.029 161.346 483.469 162.185" fill="#FFFFFE"/>
<path d="M244.886 174.374C185.27 177.89 113.742 211.53 22.665 196.535C103.388 185.656 164.928 158.997 239.99 148.382L244.885 174.374H244.886ZM251.311 209.155C218.337 213.036 180.081 222.241 124.89 211.857C172.462 210.565 208.067 194.668 247.26 186.856L251.311 209.156V209.155Z" fill="#C60C30"/>
<path d="M254.832 208.786C278.998 206.193 300.312 207.015 323.545 221.159C275.09 215.91 251.365 229.424 221.164 232.428C327.86 260.383 366.923 320.12 393.38 353.223C411.874 345.377 412.874 329.333 408.163 323.606L412.924 313.415L413.143 306.87L425.892 300.916L421.858 269.202L445.73 259.439L477.359 172.993C423.769 184.095 406.406 149.494 330.163 144.774C299.105 142.848 271.136 144.275 244.877 147.715L249.159 174.177C266.707 173.573 283.226 175.801 298.9 182.921C281.667 181.855 266.161 183.282 251.034 186.084L254.833 208.786" fill="#002244"/>
<path d="M337.144 281.731C365.983 301.895 380.796 324.236 395.827 343.792C403.471 340.62 405.87 331.763 403.353 328.633L396.075 319.688L404.353 320.175L408.152 313.584L397.861 312.976L386.267 315.065L398.025 307.026L406.976 307.55L407.308 302.461L398.164 298.089L401.307 294.657L418.221 295.71L413.359 258.101C406.673 257.287 401.051 260.786 398.622 270.44L368.64 268.678C372.859 259.129 379.431 254.833 391.903 256.419C384.906 246.635 350.81 245.729 345.995 261.08L372.464 282.738L375.889 302.533L365.014 286.774C355.236 278.32 344.966 272.396 337.146 281.731" fill="#B0B7BC"/>
<path d="M425.859 184.741L427.989 203.63L449.286 211.61L429.309 216.607L431.28 242.074L414.005 220.555L388.174 226.63L404.134 208.069L390.973 190.657L413.021 198.213L425.859 184.741Z" fill="#FFFFFE"/>
</g>
<defs>
<clipPath id="clip0_4_137">
<rect width="500" height="500" fill="white"/>
</clipPath>
</defs>
</svg>
