<svg width="500" height="500" viewBox="0 0 500 500" fill="none" xmlns="http://www.w3.org/2000/svg">
<g clip-path="url(#clip0_4_218)">
<path d="M397.158 202.281C363.455 182.687 330.282 187.221 305.124 198.435C304.014 190.159 301.856 181.075 298.252 170.445C292.917 154.635 287.069 139.525 281.916 126.19C275.14 108.677 269.983 93.6709 267.154 83.6339L248.818 20.7549L229.782 83.6759C226.874 93.6719 221.854 108.756 215.115 126.286C209.991 139.63 204.184 154.756 198.883 170.566C195.321 181.212 193.167 190.305 192.082 198.593C166.895 187.429 133.705 182.961 100.048 202.629C72.533 218.729 57.8 246.702 61.59 275.645C65.049 301.977 83.045 322.665 108.543 329.677L127.534 334.894L132.181 315.752C132.848 313.154 139.699 289.188 161.27 289.623C176.235 289.934 188.657 303.166 194.87 311.724C192.861 317.774 191.793 325.027 192.816 332.838L184.366 321.566L169.086 332.962C155.326 343.215 135.346 368.556 147.693 398.465C153.078 411.507 164.654 420.392 180.286 423.508C189.846 425.41 200.706 424.967 210.771 422.754C214.731 435.472 221.95 450.86 235.08 464.602L248.931 479.082L262.736 464.569C275.841 450.794 283.015 435.382 286.962 422.659C297.031 424.835 307.883 425.257 317.443 423.33C333.066 420.189 344.618 411.27 349.978 398.216C362.259 368.274 342.204 342.978 328.432 332.759L313.123 321.408L304.702 332.693C305.713 324.881 304.619 317.637 302.598 311.574C308.794 303.012 321.183 289.747 336.144 289.407C357.719 288.922 364.616 312.871 365.337 315.606L370.022 334.74C369.993 334.595 388.967 329.336 388.967 329.336C414.461 322.274 432.395 301.533 435.792 275.184C439.516 246.249 424.712 218.305 397.16 202.28" fill="black"/>
<path d="M242.497 86.3648C240.173 97.3138 234.184 112.896 227.246 130.952C222.164 144.172 216.411 159.153 211.204 174.694C206.209 189.625 204.171 200.752 204.171 211.129C204.171 214.448 204.552 217.693 204.941 220.955C185.735 207.76 147.89 189.72 106.615 213.856C83.689 227.271 71.375 250.287 74.473 273.946C77.232 294.99 91.604 311.55 111.987 317.153L118.034 318.811L119.538 312.703C119.915 311.207 128.994 275.982 161.529 276.636C187.714 277.162 204.829 302.632 209.452 310.461C207.253 314.531 205.426 320.142 205.426 326.582C205.426 333.486 207.774 341.339 213.768 349.213C211.378 352.454 207.464 356.428 202.895 356.805C196.38 357.34 189.786 350.477 185.403 344.617L181.746 339.735L176.854 343.386C166.847 350.85 150.37 370.924 159.694 393.505C163.426 402.531 171.42 408.494 182.814 410.761C194.594 413.098 209.463 410.972 220.025 406.157C222.071 418.08 227.866 438.258 244.471 455.618L248.903 460.255L253.322 455.609C269.886 438.199 275.635 418.005 277.652 406.074C288.231 410.865 303.121 412.962 314.901 410.583C326.275 408.291 334.252 402.303 337.955 393.277C347.212 370.679 330.711 350.638 320.687 343.199L315.791 339.565L312.142 344.463C307.768 350.323 301.187 357.21 294.667 356.684C290.103 356.311 286.18 352.353 283.782 349.125C289.734 341.264 292.066 333.439 292.066 326.552C292.066 320.075 290.223 314.443 288.003 310.361C292.609 302.529 309.674 277.001 335.847 276.416C368.378 275.687 377.548 310.895 377.921 312.396L379.441 318.48L385.488 316.822C405.85 311.174 420.185 294.589 422.894 273.536C425.942 249.869 413.579 226.873 390.624 213.516C349.266 189.455 311.438 207.623 292.277 220.868C292.633 217.694 293.002 214.544 293.002 211.307C293.002 200.818 290.977 189.509 285.94 174.594C280.7 159.082 274.914 144.126 269.807 130.927C262.824 112.883 256.801 97.3008 254.453 86.3518L248.439 58.2788L242.495 86.3638" fill="#FFFFFE"/>
<path d="M248.929 451.386C272.352 426.77 272.633 395.722 272.633 395.722C282.996 406.058 323.269 412.97 332.298 390.956C342.201 366.787 317.047 348.114 317.047 348.114C292.667 380.811 276.311 348.81 276.311 348.81C294.875 328.736 280.946 310.638 280.946 310.638C282.16 307.004 302.749 271.041 335.715 270.303C373.709 269.445 383.861 310.928 383.861 310.928C423.703 299.88 431.398 244.306 387.556 218.807C331.921 186.441 283.448 235.748 283.448 235.748C287.959 217.294 289.243 203.502 280.147 176.553C267.816 140.014 252.702 107.366 248.478 87.6362C244.29 107.37 229.243 140.072 217.003 176.636C207.978 203.61 209.303 217.402 213.839 235.839C213.839 235.839 165.254 186.652 109.698 219.142C65.909 244.749 73.737 300.293 113.604 311.25C113.604 311.25 123.657 269.746 161.655 270.521C194.629 271.176 215.293 307.089 216.515 310.715C216.515 310.715 202.627 328.854 221.241 348.879C221.241 348.879 204.951 380.934 180.509 348.291C180.509 348.291 155.38 367.018 165.349 391.162C174.436 413.155 214.684 406.147 225.022 395.787C225.022 395.787 225.378 426.835 248.847 451.393" fill="black"/>
<path d="M348.589 217.071C303.313 217.117 266.189 268.562 266.189 268.562C267.8 260.145 287.156 222.272 269.639 177.005C252.123 131.742 248.548 113.508 248.548 113.508L248.465 114.026V113.52C248.465 113.52 244.924 131.758 227.515 177.071C210.102 222.379 229.553 260.211 231.176 268.611C231.176 268.611 193.931 217.261 148.656 217.319C103.388 217.369 65.697 268.918 107.53 299.361C107.53 299.361 119.774 261.326 161.968 261.247C193 261.181 224.089 294.487 225.406 310.994C225.406 310.994 211.199 331.064 230.952 347.86C230.952 347.86 209.613 392.774 180.027 360.421C180.027 360.421 157.275 388.9 187.027 395.796C210.632 401.258 233.881 377.301 233.881 377.301C233.881 377.301 231.346 415.145 248.829 435.829V435.643L248.916 435.821C266.354 415.1 263.728 377.252 263.728 377.252C263.728 377.252 287.035 401.16 310.64 395.635C340.371 388.673 317.549 360.244 317.549 360.244C288.046 392.664 266.611 347.807 266.611 347.807C286.31 330.961 272.054 310.928 272.054 310.928C273.33 294.434 304.332 261.045 335.376 261.036C377.578 261.036 389.909 299.03 389.909 299.03C431.672 268.492 393.856 217.013 348.589 217.071Z" fill="#D3BC8D"/>
</g>
<defs>
<clipPath id="clip0_4_218">
<rect width="500" height="500" fill="white"/>
</clipPath>
</defs>
</svg>
