<svg width="500" height="500" viewBox="0 0 500 500" fill="none" xmlns="http://www.w3.org/2000/svg">
<g clip-path="url(#clip0_4_256)">
<path d="M444.252 337.164C444.258 337.663 444.271 350.069 444.271 350.561C444.271 384.288 421.53 394.959 411.588 397.999C404.325 400.054 395.681 401.091 386.5 401.564H84.787V339.563L363.151 339.576C370.708 339.39 375.465 336.932 377.626 332.253C378.496 329.795 378.732 327.823 378.732 324.668V311.437C374.289 314.401 366.405 316.884 366.405 316.884C349.341 322.914 317.725 318.19 304.702 307.871C291.755 300.51 281.564 284.808 280.503 267.64V163.373C280.503 158.899 276.884 155.269 272.428 155.269H255.824V101.948H345.824L345.734 244.275C345.708 252.782 353.304 259.638 362.274 259.638C365.394 259.638 368.29 258.799 370.777 257.366C375.067 254.902 378.072 250.651 378.705 245.671C378.763 245.044 378.801 244.416 378.82 243.776C378.91 242.163 378.941 240.518 378.941 238.866V101.948H444.084L444.25 337.161L444.252 337.164ZM252.634 263.52H266.457L267.717 263.526V314.818H208.028C196.213 314.818 186.175 307.342 182.275 296.857C181.163 293.874 180.536 290.661 180.536 287.281V171.665C180.338 163.324 173.247 156.616 164.514 156.616C155.646 156.616 148.46 163.504 148.46 171.991H148.454L148.441 173.482V315.227H84.813V163.529C84.813 159.061 81.207 155.425 76.732 155.425H55.001L55.02 101.951H148.409V112.129C163.6 100.505 185.945 96.3629 206.711 101.618C219.837 105.043 229.58 111.149 237.259 122.351C240.935 127.728 242.764 133.162 243.691 137.374C244.234 139.845 244.458 141.893 244.541 143.244V189.466L244.528 201.698C244.528 201.698 244.541 204.61 244.541 209.315V248.208C244.541 250.154 244.541 252.087 244.528 253.969L244.541 254.308V255.428C244.541 259.902 248.172 263.519 252.635 263.519L252.634 263.52Z" fill="#A71930"/>
<path d="M309.133 300.051C298.239 293.855 290.362 280.681 289.492 267.239V163.376C289.492 153.954 281.839 146.279 272.428 146.279H264.807V110.952H336.836C336.823 126.743 336.74 244.331 336.74 244.356C336.74 250.552 339.24 256.467 343.747 261.005C348.58 265.87 355.332 268.641 362.275 268.641C366.827 268.641 371.315 267.444 375.254 265.178C382.037 261.261 386.666 254.392 387.613 246.794L387.651 246.538L387.804 244.234L387.925 238.87V110.951H435.115C435.128 127.587 435.275 350.561 435.275 350.561C435.275 377.324 418.78 386.388 408.953 389.409C402.566 391.201 394.632 392.129 386.192 392.571C385.604 392.571 110.635 392.603 93.762 392.571V348.577H363.15C377.254 348.231 383.219 341.568 385.776 336.044L385.968 335.641L386.102 335.231C387.445 331.416 387.707 328.35 387.707 324.669V294.584L373.725 303.949C371.302 305.588 366.289 307.489 363.687 308.315L363.412 308.398C349.353 313.384 321.03 309.333 310.27 300.813L309.739 300.397L309.132 300.051H309.133ZM235.564 255.429C235.564 264.851 243.223 272.526 252.634 272.526H258.721V305.818H208.027C200.348 305.818 193.392 300.96 190.701 293.72C189.915 291.62 189.518 289.444 189.518 287.281V171.665C189.218 158.319 178.003 147.623 164.513 147.623C150.71 147.623 139.483 158.556 139.47 171.992C139.464 171.934 139.457 173.432 139.457 173.432V306.228H93.795V163.529C93.795 154.1 86.148 146.432 76.731 146.432H63.989L63.995 110.951H139.431V130.346L153.867 119.279C167.037 109.204 186.442 105.766 204.509 110.343C216.107 113.371 223.709 118.492 229.84 127.447C232.263 130.974 233.964 134.962 234.916 139.308C234.916 139.308 235.498 143.315 235.562 143.718V189.466L235.549 201.679L235.562 209.335V248.209L235.549 254.149L235.562 254.533V255.429H235.564Z" fill="#FFFFFE"/>
</g>
<defs>
<clipPath id="clip0_4_256">
<rect width="500" height="500" fill="white"/>
</clipPath>
</defs>
</svg>
