<svg width="500" height="500" viewBox="0 0 500 500" fill="none" xmlns="http://www.w3.org/2000/svg">
<g clip-path="url(#clip0_4_145)">
<path d="M475.917 237.13C467.762 210.087 432.468 177.963 381.396 151.124C336.194 127.371 282.916 118.968 250.73 118.968H249.189C216.99 118.968 163.697 127.371 118.498 151.124C67.419 177.964 32.125 210.087 23.973 237.131C23.266 241.061 22.932 245.05 22.974 249.043V249.178C22.93 253.172 23.264 257.16 23.969 261.091C32.122 288.135 67.418 320.257 118.489 347.097C163.953 370.987 217.583 379.36 249.729 379.252H250.694C282.894 379.252 336.192 370.849 381.391 347.096C432.462 320.259 467.758 288.134 475.912 261.091C476.617 257.159 476.95 253.169 476.906 249.175V249.044C476.951 245.05 476.619 241.061 475.915 237.13H475.917Z" fill="#115740"/>
<path d="M320.778 203.791L324.706 196.345H326.669C327.928 196.345 328.558 196.827 328.558 197.79C328.527 198.34 328.361 198.874 328.076 199.346L325.71 203.791H339.491L341.381 200.342C341.888 199.513 342.181 198.571 342.234 197.6C342.234 196.193 341.147 195.144 338.974 194.452C340.152 194.286 341.308 193.988 342.419 193.563C343.401 193.094 344.292 192.455 345.05 191.674C346.592 190.18 347.447 188.116 347.415 185.969C347.494 184.731 347.064 183.513 346.226 182.598C345.139 181.512 343.175 180.968 340.336 180.968H319.226L307.071 203.791H320.779H320.778ZM329.67 186.751H331.707C332.644 186.751 333.112 187.121 333.112 187.862C333.092 188.306 332.965 188.738 332.741 189.122L332.185 190.159C331.709 191.298 330.609 192.052 329.375 192.085H326.744L329.669 186.751H329.67ZM199.631 203.791L207.115 194.937L205.004 203.791H218.71L239.087 180.973H226.677L218.452 191.678L221.49 180.973H208.52L200.666 191.605L203.368 180.973H190.221L185.924 203.791H199.632H199.631ZM276.429 192.12C275.465 193.876 274.909 195.827 274.803 197.827C274.794 199.993 276.141 201.932 278.174 202.68C280.545 203.816 284.324 204.384 289.511 204.383C296.797 204.383 301.91 202.914 304.849 199.975C306.845 197.803 308.483 195.327 309.702 192.641C310.668 190.887 311.226 188.937 311.333 186.937C311.347 184.781 310.017 182.844 307.999 182.084C305.603 180.948 301.812 180.38 296.626 180.38C289.339 180.38 284.227 181.849 281.288 184.788C279.288 186.959 277.647 189.435 276.425 192.122L276.429 192.12ZM289.025 194.921L292.138 189.103C292.542 188.257 293.101 187.495 293.786 186.856C294.389 186.374 295.145 186.126 295.916 186.157C297.152 186.157 297.769 186.672 297.769 187.703C297.72 188.458 297.491 189.19 297.102 189.838L293.99 195.656C293.597 196.483 293.057 197.232 292.397 197.866C291.78 198.365 291.004 198.626 290.211 198.602C288.977 198.602 288.359 198.087 288.358 197.056C288.408 196.302 288.636 195.571 289.025 194.923V194.921ZM259.899 203.791L263.682 196.716L281.948 180.973H269.161L262.158 188.048L262.344 180.973H248.451L249.452 196.309L245.453 203.792H259.899V203.791ZM175.988 203.791L179.063 198.013H164.688L166.282 195.123H179.174L182.138 189.529H169.208L170.764 186.751H184.657L187.733 180.973H160.576L148.423 203.791H175.987H175.988ZM357.833 203.791L363.205 193.678L363.872 203.791H377.432L375.987 192.12L388.621 180.971H375.839L364.465 191.308L369.986 180.974H355.907L343.761 203.792H357.834L357.833 203.791ZM346.629 223.112H267.297L258.836 238.921H279.883L263.366 269.863C270.822 271.171 278.039 273.592 284.776 277.045C288.443 278.954 291.978 281.107 295.356 283.49L319.145 238.921H338.174L346.629 223.112ZM128.871 193.197L131.168 203.787H143.097L155.25 180.969H144.134L139.095 190.748L136.946 180.969H124.425L112.273 203.79H123.388L128.871 193.196V193.197ZM488.61 234.431L488.454 233.783C479.375 202.924 442.555 168.61 387.429 139.641C340.133 114.791 284.389 106 250.735 106H249.178C215.509 106 159.747 114.796 112.455 139.644C57.334 168.613 20.508 202.927 11.431 233.786L11.278 234.429C10.381 239.27 9.95399 244.187 10.004 249.111C9.95499 254.034 10.382 258.951 11.278 263.792L11.431 264.435C20.51 295.294 57.33 329.608 112.455 358.577C159.751 383.432 215.508 392.221 249.165 392.221H250.7C284.371 392.221 340.135 383.428 387.423 358.577C442.544 329.609 479.371 295.296 488.448 264.435L488.604 263.787C489.501 258.948 489.931 254.033 489.886 249.112C489.933 244.189 489.506 239.273 488.611 234.432L488.61 234.431ZM476.916 249.176C476.96 253.171 476.627 257.16 475.922 261.092C467.767 288.135 432.473 320.259 381.401 347.097C336.201 370.85 282.903 379.253 250.704 379.253H249.73C217.584 379.361 163.954 370.988 118.49 347.098C67.416 320.259 32.122 288.136 23.97 261.092C23.264 257.161 22.932 253.172 22.976 249.178V249.043C22.932 245.05 23.265 241.061 23.971 237.131C32.122 210.087 67.42 177.965 118.491 151.124C163.697 127.371 216.987 118.968 249.189 118.968H250.735C282.921 118.968 336.201 127.371 381.405 151.124C432.477 177.962 467.772 210.087 475.926 237.13C476.631 241.062 476.964 245.051 476.92 249.045L476.916 249.176ZM268.766 298.67L269.683 299.439C270.004 300.875 270.224 302.332 270.343 303.798C273.122 303.843 275.901 303.892 278.679 303.984C287.65 304.22 296.627 304.57 305.601 305.194L307.222 303.242L307.114 302.57C305.08 295.682 296.499 287.455 283.012 280.386C272.794 275.269 261.557 272.513 250.13 272.322H249.772C238.315 272.522 227.051 275.302 216.817 280.455C203.346 287.552 194.782 295.8 192.762 302.69L192.678 303.23L194.312 305.194C203.283 304.569 212.245 304.221 221.212 303.984C224.315 303.881 227.419 303.832 230.523 303.783C230.642 302.322 230.862 300.871 231.181 299.44L232.098 298.671C232.986 298.636 233.873 298.605 234.76 298.576L235.363 299.308C234.551 303.968 234.551 308.734 235.363 313.394L234.76 314.125C233.873 314.096 232.986 314.064 232.098 314.03L231.181 313.261C230.861 311.83 230.642 310.379 230.523 308.918C227.419 308.869 224.315 308.82 221.212 308.717C212.241 308.482 203.278 308.131 194.312 307.507L192.799 309.321C194.878 316.191 203.416 324.385 216.815 331.443C227.049 336.596 238.313 339.376 249.77 339.576H250.128C261.554 339.385 272.792 336.63 283.01 331.512C296.495 324.444 305.076 316.216 307.112 309.328L305.599 307.505C296.628 308.13 287.651 308.478 278.677 308.715C275.898 308.807 273.119 308.855 270.341 308.901C270.222 310.368 270.001 311.824 269.681 313.26L268.764 314.029C267.876 314.064 266.989 314.095 266.102 314.124L265.499 313.393C266.311 308.733 266.311 303.967 265.499 299.307L266.102 298.575L268.762 298.673L268.766 298.669V298.67ZM243.949 313.565L243.267 314.328C242.379 314.315 241.492 314.299 240.605 314.28L239.766 313.498C239.191 308.75 239.191 303.949 239.766 299.201L240.605 298.419C241.493 298.401 242.38 298.385 243.267 298.371L243.949 299.134C243.597 303.939 243.596 308.764 243.945 313.569L243.949 313.565ZM252.526 313.601L251.769 314.38H249.107L248.35 313.601C248.238 308.767 248.238 303.933 248.35 299.1L249.107 298.32H251.769L252.526 299.1C252.636 303.937 252.634 308.772 252.522 313.606L252.526 313.602V313.601ZM261.104 313.498L260.265 314.28C259.378 314.298 258.491 314.314 257.603 314.328L256.921 313.565C257.271 308.761 257.271 303.938 256.921 299.134L257.603 298.371C258.491 298.384 259.378 298.4 260.265 298.419L261.104 299.201C261.678 303.951 261.676 308.753 261.1 313.502L261.104 313.498ZM388.124 221.501C365.166 221.501 355.7 225.127 348.855 231.972C344.022 236.8 341.405 242.641 341.405 247.373C341.405 254.422 345.127 256.939 358.219 260.26C372.211 263.784 374.931 264.486 374.931 267.509C374.931 270.828 371.811 272.74 366.471 272.74C361.642 272.74 359.328 271.227 359.328 268.815C359.333 267.023 359.78 265.259 360.631 263.682H329.528C328.084 266.448 327.324 269.52 327.31 272.641C327.31 282.207 335.364 286.738 363.151 286.738C386.605 286.738 396.076 282.805 402.417 276.472C407.449 271.436 410.065 265.499 410.065 259.663C410.065 252.51 405.341 249.592 392.145 246.471C378.949 243.35 376.44 242.544 376.44 240.329C376.44 237.814 379.262 235.496 384.799 235.496C389.23 235.496 391.746 237.109 391.746 239.324C391.729 240.957 391.275 242.556 390.432 243.955H420.944C422.204 241.212 422.824 238.219 422.755 235.202C422.755 225.533 413.492 221.502 388.122 221.502L388.124 221.501ZM180.771 223.112H142.51L121.758 262.674C118.938 267.905 116.822 270.725 112.595 270.725C109.778 270.725 108.669 269.116 108.669 266.902C108.866 264.917 109.483 262.997 110.478 261.269L118.584 245.772H85.955L81.988 253.313C78.565 259.554 77.151 263.682 77.151 269.415C77.151 280.69 87.621 286.734 112.794 286.734C130.917 286.734 143.1 283.005 150.446 275.656C155.379 270.722 158.502 265.49 163.435 256.231L180.768 223.113L180.771 223.112ZM192.768 309.212L192.785 309.26L192.756 309.13L192.768 309.212ZM215.059 277.116C221.992 273.548 229.434 271.069 237.123 269.767L237.307 269.423H198.239L202.571 261.572H240.61L248.664 246.369H210.523L214.748 238.822H252.507L260.868 223.117H187.068L154.045 285.129H202.405C206.387 282.104 210.619 279.423 215.055 277.114L215.059 277.116Z" fill="white"/>
</g>
<defs>
<clipPath id="clip0_4_145">
<rect width="500" height="500" fill="white"/>
</clipPath>
</defs>
</svg>
