<svg width="500" height="500" viewBox="0 0 500 500" fill="none" xmlns="http://www.w3.org/2000/svg">
<g clip-path="url(#clip0_4_235)">
<path fill-rule="evenodd" clip-rule="evenodd" d="M289.196 108.913L265.835 133.398C304.102 117.498 387.547 90.2 387.547 90.2L360.811 116.354C433.788 94.7469 489.244 84.5093 489.244 84.5093C489.244 84.5093 473.174 121.907 449.167 159.357C453.811 158.856 484.123 155.324 484.123 155.324C484.123 155.324 456.826 200.542 425.305 233.135L442.947 237.524C442.947 237.524 415.459 277.137 379.181 309.47C327.01 355.962 300.166 348.82 300.166 348.82C261.438 376.869 230.398 362.655 230.398 362.655C230.398 362.655 243.808 328.81 229.953 325.217C217.464 321.971 198.464 331.736 196.092 335.652C193.626 344.192 183.243 365.88 172.517 379.008C151.948 404.171 129.141 414.457 129.141 414.457C129.141 414.457 111.176 399.127 111.059 373.03C111.059 373.03 98.7193 386.101 78.6321 390.373C64.571 393.364 45.381 390.935 25.7222 374.521C12.522 363.504 10 326.478 10 326.478C10 326.478 22.404 302.781 46.3268 282.015C41.0321 277.472 37.7867 271.757 36.7682 268.229C100.356 240.474 100.401 213.981 150.954 181.773C200.76 150.041 232.059 135.451 289.196 108.913Z" fill="white"/>
<path fill-rule="evenodd" clip-rule="evenodd" d="M258.221 131.389L238.243 152.329C277.698 134.865 361.017 106.5 361.017 106.5L336.836 130.156C422.265 103.708 476.448 94.7471 476.448 94.7471C476.448 94.7471 458.741 134.21 435.178 167.732C446.588 166.637 470.386 163.872 470.386 163.872C470.386 163.872 446.588 203.744 411.417 237.516C415.326 238.09 431.286 241.731 431.286 241.731C431.286 241.731 410.075 273.204 373.211 305.485C326.154 346.686 305.278 341.808 305.278 341.808C305.278 341.808 305.731 340.199 305.686 337.698C305.654 336.315 305.359 335.062 305.347 334.961C269.121 369.053 238.942 357.55 238.942 357.55C238.942 357.55 252.34 325.112 231.788 318.564C215.868 313.496 191.48 326.526 189.536 333.506C187.422 341.097 177.31 362.162 167.283 374.505C149.887 395.922 130.632 405.695 130.632 405.695C130.632 405.695 113.128 392.228 119.199 352.813C120.524 344.225 118.823 340.87 117.885 339.427C115.011 335.03 92.6163 339.827 87.1519 352.32C83.2961 361.143 105.55 368.6 105.55 368.6C105.55 368.6 95.2797 379.929 77.3306 383.599C66.0421 385.907 48.5618 385.171 30.2084 369.279C19.3484 359.878 17.0972 328.066 17.0972 328.066C17.0972 328.066 30.5116 303.493 56.6411 282.27C51.4839 278.895 47.5675 273.176 46.5773 270.929C99.2285 248.251 106.447 216.184 165.884 180.35C193.586 163.65 222.763 147.216 258.221 131.389Z" fill="#004C54"/>
<path fill-rule="evenodd" clip-rule="evenodd" d="M457.242 108.78C457.242 108.78 446.095 141.55 422.415 174.817C436.718 173.811 452.137 172.97 452.137 172.97C452.137 172.97 435.558 206.318 398.124 242.035C400.234 242.471 408.883 244.035 413.701 246.032C395.614 275.366 341.557 332.969 311.345 335.337C311.005 330.285 309.045 325.977 306.677 323.006C295.34 343.728 260.723 356.447 246.35 353.121C263.802 289.189 189.763 313.548 184.084 331.097C169.344 376.667 131.926 398.109 131.926 398.109C131.926 398.109 119.966 384.484 125.095 353.8C128.878 331.178 114.567 331.881 114.567 331.881C108.86 331.619 87.2045 334.23 80.374 349.342C74.8652 361.511 94.1481 370.055 94.1481 370.055C94.1481 370.055 66.3048 392.285 34.0925 364.732C26.191 357.975 23.2527 329.44 23.2527 329.44C38.7445 303.759 59.1632 287.427 67.6224 281.356C58.6539 277.917 55.8611 273.261 55.8611 273.261C99.1113 253.428 116.074 220.464 152.894 195.967C193.469 168.973 224.529 155.716 224.529 155.716L212.808 170.468C212.808 170.468 222.622 166.273 226.902 164.175C265.54 145.212 331.008 124.546 331.008 124.546L310.593 144.322C310.593 144.322 344.438 132.731 387.082 123.621C409.793 118.767 457.242 108.78 457.242 108.78ZM146.423 257.987C145.752 258.824 145.001 259.778 144.18 260.788C146.605 260.816 148.747 261.766 149.859 263.621C151.827 266.903 149.871 271.68 145.486 274.299C141.1 276.914 135.951 276.377 133.979 273.091C133.676 272.59 133.494 272.044 133.373 271.482C132.54 272.072 131.679 272.618 130.79 273.115C130.976 273.754 131.239 274.38 131.586 274.962C134.375 279.598 141.484 280.467 147.474 276.89C153.464 273.321 156.059 266.669 153.274 262.025C151.864 259.681 149.341 258.314 146.423 257.987Z" fill="black"/>
<path fill-rule="evenodd" clip-rule="evenodd" d="M305.889 139.978C305.889 139.978 296.035 147.03 289.225 151.549C279.985 157.68 271.805 163.605 271.805 163.605C271.805 163.605 272.165 163.444 272.832 163.161C350.4 138.85 414.473 146.452 414.473 146.452C372.54 150.494 338.63 158.464 320.637 166.685C320.637 166.685 345.481 162.417 358.111 162.417C370.467 162.417 380.571 163.617 380.571 163.617C301.536 175.949 259.025 198.792 248.662 204.944C244.35 206.779 242.09 207.923 242.09 207.923C242.09 207.923 254.979 203.885 271.316 199.835C300.065 195.426 342.135 197.798 382.725 209.846C382.725 209.846 354.583 208.355 342.284 208.63C305.557 209.446 267.707 224.215 267.707 224.215C291.613 218.188 317.82 222.626 317.82 222.626C307.631 223.212 282.576 229.905 270.002 235.083C251.888 242.544 233.579 253.169 220.237 262.983C214.841 266.184 211.956 268.293 211.956 268.293L211.97 268.286C212.324 268.097 219.109 264.497 230.325 260.17C249.968 253.561 283.235 247.665 320.188 260.077C263.237 248.732 218.244 275.407 218.244 275.407C250.861 264.749 271.546 274.796 271.546 274.796C232.01 269.991 202.53 290.798 192.382 303.775C198.101 292.228 206.54 284.783 206.54 284.783C204.507 285.786 202.498 286.938 200.509 288.211C192.365 292.899 159.013 309.838 130.051 291.844C128.252 290.729 126.74 289.686 125.431 288.708C135.062 293.752 150.954 294.18 157.55 287.689C134.456 293.647 130.354 283.102 129.861 276.542C128.369 276.825 125.973 276.643 124.182 276.227C124.182 276.227 127.961 274.623 129.836 273.653C130.16 273.487 130.471 273.297 130.79 273.115C130.976 273.754 131.239 274.38 131.586 274.962C134.375 279.598 141.485 280.467 147.474 276.89C153.464 273.321 156.059 266.669 153.274 262.025C151.864 259.68 149.342 258.314 146.423 257.987C148.501 255.574 152.498 250.239 158.67 245.801C154.127 251.249 152.676 254.936 152.502 255.4C155.287 255.837 157.728 257.029 158.904 259.24C161.22 263.573 159.644 266.976 158.803 268.718C158.799 268.714 158.795 268.714 158.791 268.714C157.247 271.979 154.378 275.201 150.514 277.638C145.284 280.94 139.553 281.974 135.337 280.786C135.337 280.786 136.093 282.164 137.318 282.977C139.355 284.339 145.373 286.323 154.074 282.391C157.3 280.932 159.721 279.275 161.568 277.593C168.111 272.683 168.823 266.402 171.159 260.889C176.668 247.871 188.045 236.598 201.302 231.918C188.7 233.454 173.289 244.815 173.737 239.743C173.947 237.382 180.705 214.89 222.1 197.681C222.856 197.406 223.604 197.131 224.38 196.86C224.38 196.86 204.28 199.972 173.992 218.031C162.081 225.136 151.379 234.957 145.963 242.418C146.201 237.516 148.849 232.763 150.457 229.016C139.185 236.275 141.994 246.379 133.502 256.229C129.784 260.194 125.867 263.989 121.713 266.689C97.7089 282.322 74.0125 272.594 74.0125 272.594C106.18 255.206 105.218 251.29 126.413 228.814C150.174 203.626 164.773 190.652 204.761 171.042C202.146 174.413 191.339 183.895 189.007 186.59C189.007 186.59 197.03 182.298 212.222 175.088C266.106 149.504 305.889 139.978 305.889 139.978ZM138.187 267.432C138.073 269.288 138.498 271.644 140.781 273.37C140.781 273.37 138.178 273.584 136.485 272.335C135.523 271.624 135.111 270.783 134.941 270.298C136.081 269.393 137.16 268.427 138.187 267.432Z" fill="white"/>
<path fill-rule="evenodd" clip-rule="evenodd" d="M109.155 284.367C109.155 284.367 138.453 321.381 185.139 302.983C182.993 306.774 182.047 310.962 180.649 315.9C169.865 366.058 133.53 387.79 133.53 387.79C126.914 372.771 130.616 358.257 131.744 352.821C134.306 340.438 128.361 331.219 128.361 331.219C152.264 332.354 128.83 362.129 137.71 375.095C153.771 365.743 163.459 332.843 165.852 321.094C166.018 320.654 163.585 318.924 161.616 318.2C138.538 310.78 99.8429 317.133 85.8546 325.597C42.0426 352.11 83.0294 370.298 83.0294 370.298C83.0294 370.298 56.0511 379.315 40.6078 354.923C36.8207 348.456 35.8669 336.663 35.0383 327.448C51.1 300.259 76.3485 289.452 83.3609 284.618C89.4436 286.267 100.465 287.027 109.155 284.367ZM201.629 308.969C201.629 308.969 221.906 289.189 266.959 297.147C284.237 300.199 293.792 309.317 293.792 309.317C286.088 322.715 270.855 329.266 270.855 329.266C270.855 329.266 271.825 307.946 237.984 302.506C215.794 298.939 202.446 308.373 201.665 308.942L201.629 308.969ZM230.325 260.17C259.898 248.748 320.273 232.241 374.981 259.664C371.728 266.644 363.495 277.015 350.359 289.945C337.85 302.252 329.541 305.796 327.374 306.972C327.031 307.158 326.849 307.247 326.849 307.247C322.383 290.349 285.215 274.263 231.732 287.532C209.645 293.008 199.797 299.822 190.809 308.191L190.211 308.751C190.866 307.021 191.602 305.364 192.382 303.775C202.53 290.798 232.01 269.991 271.546 274.796C271.546 274.796 250.861 264.749 218.244 275.407C218.244 275.407 263.237 248.732 320.188 260.077C283.235 247.665 249.968 253.561 230.325 260.17ZM98.1373 291.848C92.3213 294.863 87.9724 297.208 87.9724 297.208C84.537 302.357 91.7676 301.33 95.1141 300.336C97.8261 299.528 110.04 295.979 110.04 295.979C103.238 295.328 100.639 293.897 98.1373 291.848ZM222.1 197.681C180.705 214.89 173.947 237.382 173.737 239.743C173.289 244.815 188.7 233.454 201.302 231.918C188.045 236.598 176.667 247.871 171.159 260.889C168.823 266.402 168.111 272.683 161.568 277.593C167.084 272.578 167.291 267.397 167.299 266.915L167.299 266.879C167.299 266.879 164.255 268.714 161.657 268.997C160.8 269.09 159.781 268.944 158.803 268.718C160.125 266.131 160.101 264.292 160.125 263.787C164.146 254.612 174.186 246.113 174.186 246.113C174.186 246.113 166.761 250.53 165.65 246.254C162.699 234.869 182.645 212.381 220.581 198.226C220.661 198.194 221.676 197.83 222.1 197.681ZM302.292 193.429C349.664 186.142 415.091 193.166 415.091 193.166C415.091 193.166 412.064 202.79 397.841 218.386C384.431 233.102 379.395 236.978 379.395 236.978C302.324 220.557 241.593 250.32 220.237 262.983C233.579 253.169 251.887 242.544 270.002 235.083C282.576 229.905 307.631 223.212 317.82 222.626C317.82 222.626 291.613 218.188 267.707 224.215C267.707 224.215 305.557 209.446 342.284 208.63C354.583 208.355 382.725 209.846 382.725 209.846C342.135 197.798 300.065 195.426 271.316 199.835C281.081 197.422 292.074 194.997 302.292 193.429ZM423.74 131.672C423.74 131.672 415.697 156.65 395.214 176.438C380.846 177.868 345.166 179.38 314.457 185.463C281.901 191.913 259.163 200.494 248.662 204.944C259.025 198.792 301.536 175.949 380.571 163.617C380.571 163.617 370.467 162.417 358.111 162.417C345.481 162.417 320.637 166.685 320.637 166.685C338.63 158.464 372.54 150.494 414.473 146.452C414.473 146.452 350.4 138.85 272.832 163.161C278.26 160.861 305.472 149.88 347.579 142.063C388.068 134.55 423.74 131.672 423.74 131.672Z" fill="#A5ACAF"/>
</g>
<defs>
<clipPath id="clip0_4_235">
<rect width="500" height="500" fill="white"/>
</clipPath>
</defs>
</svg>
