<svg width="500" height="500" viewBox="0 0 500 500" fill="none" xmlns="http://www.w3.org/2000/svg">
<g clip-path="url(#clip0_4_368)">
<path d="M60 250.184C60 354.851 145.15 440 249.816 440C354.478 440 439.632 354.85 439.632 250.184C439.632 145.522 354.478 60.3721 249.816 60.3721C145.149 60.3721 60 145.522 60 250.184Z" fill="black"/>
<path d="M249.816 435.837C352.343 435.837 435.465 352.715 435.465 250.184C435.465 147.657 352.343 64.5352 249.816 64.5352C147.284 64.5352 64.1631 147.657 64.1631 250.184C64.1631 352.716 147.285 435.837 249.816 435.837Z" fill="#A5ACAF"/>
<path d="M249.816 405.51C335.346 405.51 404.685 336.171 404.685 250.641C404.685 165.111 335.346 95.7681 249.816 95.7681C164.282 95.7681 94.9429 165.112 94.9429 250.641C94.9429 336.171 164.282 405.51 249.816 405.51Z" fill="#FFFFFE"/>
<path d="M250.619 250.85C252.408 187.416 312.328 172.523 327.383 173.889C290.271 171.874 253.646 156.191 250.815 97.5049C246.345 152.08 224.446 167.596 173.978 174.073C210.027 175.9 246.515 190.165 250.618 250.85" fill="#FFB612"/>
<path d="M327.597 329.364C329.386 265.93 388.252 250.277 403.311 251.643C366.075 250.268 330.21 232.57 327.384 173.888C322.914 228.467 301.087 244.372 250.62 250.849C286.669 252.676 323.49 268.679 327.598 329.364" fill="#C60C30"/>
<path d="M251.55 404.865C253.335 341.422 312.538 327.998 327.597 329.365C290.485 327.345 253.45 309.541 250.619 250.85C246.149 305.429 224.899 321.825 174.435 328.297C210.479 330.133 247.442 344.184 251.549 404.865" fill="#00539B"/>
<path d="M207.47 237.289L213.516 237.225L213.542 240.141C214.451 238.54 214.998 237.583 217.056 237.122H218.559V244.197C213.354 243.83 213.7 245.653 213.632 247.053V260.515H207.471V237.288L207.47 237.289ZM234.71 244.863L229.313 244.837C229.313 244.278 229.326 243.787 229.223 243.36C229.074 242.762 228.275 242.194 227.464 242.186C226.508 242.186 225.769 242.493 225.449 243.42C225.065 244.539 225.244 246.187 228.156 246.516L229.638 246.883C231.29 247.438 232.887 247.899 234.13 250.269C234.339 250.675 234.373 250.807 234.706 251.968C235.41 254.376 234.945 256.212 234.159 257.647C233.681 258.505 232.507 259.573 232.088 259.833C229.804 261.242 226.721 261.391 223.92 260.542C222.545 260.124 221.047 259.073 220.304 257.63C219.535 256.14 219.518 254.919 219.42 252.903L224.638 252.869C224.531 253.685 225.035 254.628 225.842 254.936C226.658 255.256 228.694 255.269 229.053 254.355C229.305 253.71 229.467 253.36 228.908 252.519C227.888 250.978 225.706 250.726 223.789 250.243C220.36 249.376 219.528 246.054 219.677 243.535C219.75 242.344 219.963 240.969 220.715 240.042C222.299 238.082 222.991 238.18 223.939 237.724C227.094 236.191 231.018 237.28 233.11 239.402C234.284 240.585 234.668 242.762 234.711 244.863H234.71ZM134.629 237.425H130.351L128.024 237.442C127.968 236.422 127.815 235.098 127.14 234.479C126.141 233.57 123.878 234.073 123.28 235.337C122.196 237.608 123.583 239.743 127.076 240.858L128.037 241.336C131.337 242.946 132.251 243.736 133.485 245.478C133.856 246.003 134.582 247.374 134.877 249.047C135.505 252.625 134.604 254.845 133.797 256.805C133.797 256.805 133.49 257.732 132.64 258.521C129.173 261.757 124.37 261.898 120.809 260.208C119.169 259.422 117.906 258.662 117.005 256.639C116.117 254.654 115.916 252.852 116.172 249.923L122.82 249.885C122.696 250.816 122.969 253.168 123.593 253.822C124.212 254.471 126.731 255.103 127.7 253.386C128.042 252.784 128.127 250.167 127.068 249.159C125.074 247.242 123.353 247.05 121.005 245.581C117.653 243.489 115.873 239.736 116.086 236.175C116.188 234.488 116.65 233.314 117.469 231.837C118.289 230.377 119.45 229.045 121.128 228.31C125.594 226.35 131.051 227.469 133.455 231.713C134.087 232.823 134.719 234.48 134.629 237.426V237.425ZM138.023 237.305V235.162L144.248 231.746L144.274 237.382L146.644 237.331L146.67 242.826L144.275 242.788V251.934C144.275 253.185 144.049 253.685 146.559 253.646L146.555 260.606C143.592 260.533 137.982 261.541 137.956 254.996L137.909 242.669L135.586 242.746L135.56 237.383L138.024 237.306L138.023 237.305ZM182.009 227.984L188.281 228.001V260.715H182.009V227.984ZM195.266 253.944C195.275 256.028 199.826 256.455 199.937 253.829V253.167L205.061 253.141L205.07 255.878C205.121 257.697 204.366 259.674 201.291 260.733C198.029 261.749 195.992 261.139 194.084 260.733C191.578 259.815 190.361 257.821 190.246 255.012V243.68C190.131 241.554 191.313 239.701 193.367 238.351C196.868 236.822 198.781 237.232 201.411 238.142C203.917 239.508 205.049 241.199 205.074 243.56V250.75H195.245L195.266 253.944ZM195.488 245.896L200.125 245.913C201.081 241.853 194.711 241.327 195.488 245.896ZM170.31 253.944C170.323 256.028 174.874 256.455 174.99 253.829V253.167L180.109 253.141L180.122 255.878C180.165 257.697 179.413 259.674 176.339 260.733C173.077 261.749 171.04 261.139 169.132 260.733C166.626 259.815 165.409 257.821 165.294 255.012V243.68C165.179 241.554 166.366 239.701 168.415 238.351C171.916 236.822 173.833 237.232 176.455 238.142C178.966 239.508 180.093 241.199 180.123 243.56V250.75H170.32L170.311 253.944H170.31ZM170.536 245.896L175.173 245.913C176.129 241.853 169.759 241.327 170.536 245.896ZM153.316 253.944C153.329 256.028 157.88 256.455 157.996 253.829V253.167L163.115 253.141L163.128 255.878C163.175 257.697 162.419 259.674 159.345 260.733C156.083 261.749 154.042 261.139 152.138 260.733C149.632 259.815 148.415 257.821 148.3 255.012V243.68C148.185 241.554 149.372 239.701 151.421 238.351C154.918 236.822 156.839 237.232 159.461 238.142C161.972 239.508 163.099 241.199 163.129 243.56V250.75H153.326L153.317 253.944H153.316ZM153.542 245.896L158.179 245.913C159.135 241.853 152.765 241.327 153.542 245.896Z" fill="black"/>
</g>
<defs>
<clipPath id="clip0_4_368">
<rect width="500" height="500" fill="white"/>
</clipPath>
</defs>
</svg>
