<svg width="500" height="500" viewBox="0 0 500 500" fill="none" xmlns="http://www.w3.org/2000/svg">
<g clip-path="url(#clip0_4_157)">
<path d="M412.276 317.395C390.4 313.024 361.682 311.864 349.552 311.864L60.8979 311.928C42.9389 311.928 24.3679 311.928 14.8379 297.254C5.16994 282.368 10.4229 267.722 26.7269 238.416C27.9439 236.238 77.3809 143.341 77.3809 143.341C77.3809 143.341 82.4319 149.609 87.5239 153.602C92.5519 157.54 97.7179 159.64 111.492 159.64C135.957 159.64 293.782 159.295 295.391 159.285C327.428 159.285 359.787 162.601 380.755 185.584C391.64 186.745 426.778 191.387 455.737 205.227C472.682 213.315 483.861 225.405 488.087 240.17C489.363 244.633 489.999 249.326 489.999 254.19C489.999 268.205 484.75 283.726 474.455 299.856C452.708 333.947 432.653 345.862 431.755 346.503C419.396 355.194 407.428 355.599 407.428 355.599C407.428 355.599 418.207 343.348 421.843 331.097C425.484 318.846 412.276 317.395 412.276 317.395Z" fill="#FFFFFE"/>
<path d="M452.166 212.698C485.166 228.473 490.954 258.612 467.479 295.412C446.424 328.393 425.166 342.386 425.166 342.386C425.166 342.386 445.65 315.618 413.894 309.266C389.977 304.494 359.346 303.583 349.553 303.583C338.286 303.583 237.608 303.813 225.046 303.813C212.484 303.813 209.014 302.1 206.258 298.309C203.507 294.532 203.028 289.365 208.18 281.623C213.351 273.885 221.203 261.763 221.203 261.763L187.263 234.47C215.742 206.067 238.489 196.542 258.346 196.542C278.48 196.542 287.355 199.499 320.498 213.399C353.645 227.308 364.599 212.519 364.599 212.519C350.682 218.433 338.253 213.399 314.866 203.054C291.488 192.696 277.58 187.97 256.576 187.97C235.558 187.97 217.806 193.879 195.567 210.229C174.627 225.621 173.042 228.785 141.47 228.785H41.157L79.788 156.494C79.788 156.494 82.677 167.916 111.493 167.916C136.249 167.916 295.392 167.566 295.392 167.566C326.991 167.566 358.254 170.914 376.756 193.515C376.756 193.515 419.157 196.923 452.166 212.698ZM393.848 218.626C378.834 215.034 391.668 206.347 391.668 206.347C370.064 210.709 362.027 228.321 360.17 233.249C359.824 233.917 359.47 234.603 359.105 235.326C347.151 259.359 336.386 258.074 315.976 258.074H281.022C252.709 258.074 239.524 272.098 225.953 295.984H241.944C256.557 274.236 267.589 268.373 296.492 266.742C362.543 266.779 415.197 285.717 443.022 300.193C482.598 233.774 423.865 222.78 393.847 218.626H393.848ZM270.913 295.725C278.3 284.565 293.319 280.775 317.535 282.17C377.295 285.629 411.655 297.258 438.351 307.197C405.434 287.941 346.77 274.059 305.996 274.188C286.07 274.248 268.669 277.73 258.448 295.724H270.913V295.725ZM335.051 229.836C327.263 240.696 317.005 244.404 287.913 242.419C254.06 240.121 262.798 225.866 266.738 218.852L266.623 218.838C267.701 216.853 269.545 213.482 271.416 210.087C245.481 208.489 226.536 228.441 226.536 228.441C245.872 247.555 258.766 249.554 276.26 249.554H308.96C339.366 249.554 346.711 235.88 349.499 229.8C344.25 230.454 339.527 230.399 335.052 229.837L335.051 229.836Z" fill="#002244"/>
<path d="M320.29 226.603C319.672 226.354 319.032 226.092 318.391 225.829C315.409 228.97 310.267 230.789 305.285 230.149C298.727 229.311 294.949 224.548 296.81 219.524C297.077 218.787 297.469 218.096 297.934 217.433C294.575 216.116 291.197 214.849 287.906 213.702C281.169 224.594 277.219 231.812 300.597 233.783C315.159 235.022 319.109 232.53 322.168 227.307C321.541 227.068 320.933 226.86 320.288 226.602" fill="#69BE28"/>
<path d="M202.88 267.985C190.82 288.904 186.037 293.708 194.507 303.638H60.8989C41.1939 303.638 28.3829 302.896 21.7929 292.741C15.3829 282.88 16.7009 273.475 33.9729 242.438H147.572C167.13 242.438 172.157 243.553 182.77 251.783C193.383 260.023 202.881 267.986 202.881 267.986" fill="#A5ACAF"/>
</g>
<defs>
<clipPath id="clip0_4_157">
<rect width="500" height="500" fill="white"/>
</clipPath>
</defs>
</svg>
