<svg width="500" height="500" viewBox="0 0 500 500" fill="none" xmlns="http://www.w3.org/2000/svg">
<g clip-path="url(#clip0_4_190)">
<path d="M251.024 392.328C332.762 392.328 413.296 364.617 456.192 321.718C477.978 299.935 489.492 274.78 489.492 248.957C489.492 223.324 478.128 198.418 456.639 176.927C414.074 134.368 333.364 106.868 251.024 106.868C193.365 106.868 134.527 120.438 89.595 144.1C38.265 171.127 9.99902 208.368 9.99902 248.956C9.99902 274.409 21.402 299.263 42.981 320.835C64.547 342.394 95.881 360.537 133.605 373.293C170.421 385.748 211.028 392.326 251.023 392.326" fill="#FFFFFE"/>
<path d="M93.1539 150.86C44.4579 176.502 17.6379 211.342 17.6379 248.957C17.6379 272.34 28.2709 295.323 48.3869 315.441C69.1229 336.17 99.4369 353.676 136.051 366.058C172.092 378.246 211.851 384.691 251.025 384.691C330.836 384.691 409.252 357.849 450.793 316.314C471.111 296.003 481.852 272.71 481.852 248.957C481.852 225.393 471.267 202.354 451.237 182.327C410.036 141.128 331.444 114.509 251.026 114.509C194.572 114.509 137.029 127.756 93.1559 150.859" fill="black"/>
<path d="M250.882 371.152C321.338 371.152 388.107 348.16 425.12 311.156C443.79 292.484 453.657 271.174 453.657 249.521C453.657 227.872 443.79 206.562 425.12 187.894C388.102 150.885 321.338 127.898 250.882 127.898C199.148 127.898 147.646 140.667 109.587 162.936C69.94 186.134 48.1021 216.883 48.1021 249.52C48.1021 271.174 57.9731 292.483 76.6481 311.155C113.657 348.159 180.422 371.151 250.882 371.151" fill="#B3995D"/>
<path d="M251.248 366.833C354.523 366.833 438.249 313.334 438.249 248.872C438.249 184.41 354.523 132.154 251.248 132.154C147.969 132.154 64.2471 184.41 64.2471 248.872C64.2471 313.334 147.969 366.833 251.248 366.833Z" fill="#AA0000"/>
<path d="M397.517 234.209H397.001V229.95H322.806C321.214 221.608 316.416 213.864 309.562 207.819C302.811 200.062 293.009 194.228 281.843 192.012L277.222 191.057C266.512 188.807 258.052 187.026 224.025 187.202C224.025 187.198 217.48 186.978 211.125 186.135C209.516 185.726 208.109 185.24 206.9 184.715C207.369 181.884 212.545 177.982 218.393 177.229C218.995 177.117 255.824 170.341 293.729 194.89L294.658 195.488H319.572V157.369H315.312V153.11H281.125L275.363 157.511C265.518 155.046 217.312 144.496 175.677 162.721C158.181 169.949 147.325 183.592 148.1 197.449C148.492 204.436 151.835 210.528 157.618 215.252C161.869 220.561 168.556 224.7 177.265 227.212C189.589 230.761 200.027 232.224 210.148 232.805V250.182H214.404V254.441H227.407C232.79 254.441 234.176 257.423 234.507 258.533C217.915 257.449 192.687 252.729 174.115 235.546L173.418 234.793H173.285C172.261 233.812 171.254 232.797 170.269 231.738L169.155 230.538H150.463V284.795H154.723V289.046H169.973C172.206 289.205 179.289 288.418 184.181 274.13C192.111 276.896 211.655 282.778 235.721 283.432V317.188C234.886 328.525 209.912 332.07 201.216 332.414L197.619 332.556V349.339H201.875V353.59H311.518V337.534L308.725 336.794C308.222 336.665 307.74 336.532 307.258 336.398V332.724L303.837 332.431C297.671 331.885 292.929 330.818 289.254 329.505C282.356 325.642 281.177 322.509 281.027 322.002V304.005H313.161C316.556 304.517 319.465 306.006 321.93 307.937C326.556 313.633 328.668 320.147 328.699 320.255L329.521 322.892L332.279 322.901H332.369C332.752 323.869 332.95 324.48 332.963 324.514L333.781 327.156L336.543 327.16H351.048V261.872H346.788V257.613H329.594L328.979 260.595C324.478 282.292 299.383 281.973 277.073 278.721C281.449 277.534 285.842 276.088 290.223 274.35C302.168 269.605 311.131 263.151 316.72 255.588H364.883C368.239 255.696 371.092 256.539 373.493 258.109C378.54 265.509 378.037 276.42 378.028 276.544L377.817 280.494H382.296L382.292 280.795L382.077 284.745L386.031 284.754H401.268V234.21H397.52" fill="black"/>
<path d="M320.701 247.577C324.208 243.335 324.371 233.698 324.371 233.698H393.252V276.747H381.767C381.767 276.747 383.406 248.309 360.614 247.577H320.7H320.701ZM239.466 284.34C254.965 284.671 268.111 281.384 268.111 281.384C272.057 280.511 325.422 296.171 332.642 261.361H343.034V319.154H332.277C332.277 319.154 325.896 298.365 309.308 295.995H273.017V318.062C273.017 318.062 273.155 333.533 303.508 336.162V345.593H201.361V336.162C201.361 336.162 238.289 334.725 239.468 317.4V284.341L239.466 284.34ZM271.333 227.476C266.393 225.974 259.246 225.652 251.023 225.338C221.6 224.215 203.084 227.721 174.039 219.349C141.074 209.849 146.991 178.632 177.18 166.155C222.094 146.493 276.186 161.599 276.186 161.599L282.391 156.858H311.565V187.486H291.505C251.759 161.741 213.648 169.253 213.648 169.253C201.247 170.858 189.212 184.531 210.361 189.818C217.112 190.73 224.04 190.95 224.04 190.95C262.418 190.748 267.736 193.037 281.114 195.687C315.882 202.579 335.116 246.54 284.578 266.611C232.405 287.327 177.543 265.002 177.543 265.002C172.986 282.142 165.878 281.05 165.878 281.05H154.208V234.288H167.513C198.701 268.005 252.121 262.236 252.121 262.236C252.121 262.236 267.986 261.832 278.377 252.027C286.492 242.123 285.206 231.539 271.333 227.478V227.476ZM227.749 246.441H213.894V234.024C224.634 234.024 246.545 234.119 262.048 234.024C277.642 234.024 279.729 243.042 273.154 249.142C266.958 254.89 253.98 258.981 238.614 256.185C238.614 256.185 237.345 246.44 227.749 246.44V246.441Z" fill="#FFFFFE"/>
</g>
<defs>
<clipPath id="clip0_4_190">
<rect width="500" height="500" fill="white"/>
</clipPath>
</defs>
</svg>
