<svg width="500" height="500" viewBox="0 0 500 500" fill="none" xmlns="http://www.w3.org/2000/svg">
<g clip-path="url(#clip0_4_244)">
<path fill-rule="evenodd" clip-rule="evenodd" d="M366.436 338.882C356.686 353.632 347.414 367.231 339.866 378.14C348.599 385.36 348.077 394.455 348.077 396.18C347.909 405.852 342.76 413.071 338.044 417.291C332.178 422.29 324.162 424.714 315.703 424.776C315.456 424.776 309.404 424.59 307.324 424.113C306.431 425.422 304.706 427.015 301.901 428.156C301.592 429.041 301.166 429.926 300.609 430.766C298.3 434.234 294.469 436.163 290.567 436.163C290.567 436.163 286.612 436.048 283.878 434.165C280.374 431.854 278.445 428.014 278.445 424.104V423.998C278.454 422.131 278.906 420.237 279.808 418.521C279.401 417.556 277.977 411.797 277.977 411.797L281.701 408.514C282.002 408.337 282.922 406.948 283.958 403.4C285.055 399.941 286.364 394.8 289.107 388.81C292.602 381.201 297.45 373.327 300.99 367.876C300.644 366.133 298.813 365.328 297.495 365.01C296.017 364.612 294.194 363.753 292.744 362.063C291.222 360.294 290.055 357.799 290.708 354.578C291.354 351.402 293.345 349.11 295.672 348.04V348.031C298.309 346.66 301.565 347.314 301.565 347.314C309.324 348.031 315.057 355.233 315.057 355.233C322.781 344.456 340.751 317.727 341.132 317.144C317.579 321.647 293.248 322.258 273.04 318.904C236.295 312.808 208.026 293.246 189.765 284.327C171.503 275.418 136.714 266.287 100.827 275.418C64.9496 284.548 41.2553 317.604 41.2553 317.604C51.97 242.115 98.7302 229.392 103.216 228.118C110.029 221.738 118.965 202.273 97.8012 189.143C90.5726 184.658 84.5031 178.977 84.5031 178.977C88.9358 179.499 99.3319 178.128 105.101 175.845C112.028 173.111 118.399 172.2 118.399 172.2C112.931 166.989 104.579 164.378 104.579 164.378C112.922 163.856 125.964 160.99 134.042 157.336C142.12 153.69 146.552 147.17 145.243 144.303C143.942 141.427 136.643 143.002 136.643 143.002C139.253 139.092 145.508 137.526 145.508 137.526C127.521 136.482 114.417 146.276 114.417 146.276C116.417 141.985 122.991 134.27 122.991 134.27C120.496 135.092 113.586 137.251 113.152 137.384C141.314 115.636 172.75 96.5164 216.794 96.2332C260.83 95.9412 303.732 115.681 332.319 124.829C360.924 133.978 376.099 138.596 406.985 134.031C421.77 131.837 434.715 125.776 444.199 120.096C444.199 120.096 450.835 103.223 451.34 78.9978C451.34 78.9978 459.293 93.2604 459.329 115.468C459.408 191.683 422.478 247.344 410.675 267.606C399.394 287.539 384.565 311.41 366.436 338.882ZM447.65 59.002C447.65 59.002 448.65 77.3256 445.19 94.1009C441.845 110.31 440.005 116.486 440.005 116.486C432.927 120.635 421.469 125.74 404.72 128.527C373.461 133.739 345.095 125.342 314.128 113.185C283.152 101.029 241.71 87.9341 203.257 92.3491C165.973 96.6314 139.297 111.734 125.114 121.582C110.931 131.421 108.321 134.022 96.1644 137.499C96.1644 137.499 105.72 141.259 110.639 141.259C110.639 141.259 108.321 150.824 109.188 154C109.188 154 129.45 144.737 131.768 149.081C134.086 153.425 124.53 156.327 117.877 158.052C111.223 159.795 93.8463 159.495 93.8463 159.495C93.8463 159.495 101.995 165.803 104.871 170.183C104.871 170.183 89.5109 176.871 72.4259 174.553C72.4259 174.553 71.8597 180.88 85.901 191.24C82.9105 192.311 79.1237 194.045 76.779 196.549C76.779 196.549 91.4928 193.514 100.739 203.813C103.172 206.865 103.968 209.599 103.694 213.05C103.19 219.305 100.792 221.694 94.8992 225.587C91.5282 226.959 87.9449 228.675 84.4854 230.79C68.2144 240.788 56.3142 256.006 47.9619 273.391C44.3432 280.921 41.45 289.671 39.4062 297.608C37.3623 305.588 36.6103 312.675 36.1325 317.099C35.6547 321.514 35 335.432 35 335.432C35 335.432 42.2994 325.204 45.7235 320.302C49.1298 315.418 70.7183 288.273 102.163 280.408C112.223 277.851 122.239 276.78 131.812 276.78C154.825 276.762 175.378 283.009 187.544 288.963C205.204 297.51 234.216 317.683 272.252 323.992C281.207 325.469 290.859 326.204 300.866 326.204C310.465 326.204 320.401 325.505 330.329 324.151C324.719 332.521 319.34 340.342 314.226 347.589C309.041 342.652 302.007 342.138 302.007 342.138C293.478 341.333 289.205 346.527 289.205 346.527C287.479 348.394 286.187 350.818 285.683 353.676C285.081 356.321 285.798 359.401 286.294 360.966C287.921 366.133 292.336 368.487 294.053 369.239C281.586 385.846 277.968 404.967 277.968 404.975L272.279 409.992L274.331 418.309C271.164 428.51 276.136 436.163 282.586 439.331C289.134 442.551 295.247 440.684 295.247 440.684C299.096 439.605 302.582 437.181 304.953 433.624C305.317 433.084 305.635 432.536 305.918 431.987C307.245 431.27 308.386 430.465 309.359 429.598C311.156 429.802 315.756 429.943 315.756 429.943C325.188 429.864 334.407 427.192 341.441 421.219C346.98 416.265 353.076 407.815 353.288 396.269C353.288 394.101 353.687 385.36 346.467 377.742C392.025 310.853 421.602 267.791 440.483 223.977C490.508 107.841 447.835 59.4178 447.65 59.002Z" fill="#B1BABF"/>
<path fill-rule="evenodd" clip-rule="evenodd" d="M297.486 398.888C297.477 398.906 297.468 398.932 297.459 398.95C297.45 398.959 297.45 398.968 297.45 398.976C297.459 398.959 297.468 398.941 297.477 398.923C297.477 398.906 297.486 398.897 297.486 398.888ZM388.476 294.184C368.427 303.527 322.163 319.019 276.092 310.419C260.06 307.429 238.958 302.421 211.052 285.504C192.746 274.418 172.98 263.818 126.901 264.022C88.7323 264.208 64.2152 281.505 56.4115 287.937C77.1241 220.358 138.35 230.241 138.35 230.241C127.176 224.88 113.763 226.932 113.763 226.932C132.944 196.753 102.039 182.623 102.039 182.623C104.641 182.623 116.373 179.234 122.363 177.146C128.361 175.067 139.368 173.625 139.368 173.625C135.528 170.094 123.663 167.245 123.663 167.245C134.873 167.245 145.022 161.813 152.082 154.46C154.542 151.903 161.275 139.101 153.639 134.137C146.614 129.572 132.679 134.641 132.67 134.65C132.688 134.633 174.387 89.7038 260.44 108.903C301.264 118.017 347.281 141.923 389.768 142.18C404.048 142.268 435.555 137.632 454.356 118.707C453.365 154.664 446.668 205.025 388.476 294.184ZM334.31 373.3C334.257 373.256 334.177 373.203 334.133 373.168C333.045 372.177 331.639 370.982 330.081 369.682C332.62 366.063 361.712 322.806 370.241 309.393C373.223 308.34 376.125 307.19 378.991 305.987C373.223 315.109 341.751 362.533 334.31 373.3ZM332.788 411.169C328.842 414.61 322.136 416.805 315.128 416.672C308.882 416.548 304.493 415.539 300.521 413.381C300.503 413.425 300.494 413.46 300.486 413.513C300.176 413.779 299.547 415.221 294.956 415.902C291.876 416.406 290.09 415.787 289.903 415.725C295.318 421.202 300.22 417.751 300.22 417.751C300.451 418.707 300.786 419.388 300.786 419.388C300.786 419.388 299.159 421.778 294.203 420.954C293.602 420.857 293.089 420.689 292.584 420.503C292.682 420.556 292.77 420.591 292.867 420.653C294.77 421.901 295.283 424.458 294.036 426.351C292.77 428.254 290.222 428.767 288.32 427.519C286.426 426.263 285.904 423.706 287.161 421.812C288.187 420.255 290.063 419.645 291.752 420.149C288.036 418.362 287.081 414.628 287.081 414.628C291.832 410.417 291.682 402.79 296.53 392.19C296.751 391.704 296.999 391.208 297.238 390.713C297.238 390.73 297.229 390.748 297.22 390.766C296.167 393.402 295.159 397.932 295.575 401.233C295.663 401.949 295.806 402.604 295.973 403.241V403.25C296.044 403.542 297.672 410.133 302.122 409.063C302.078 409.16 301.432 410.611 301.423 410.629C303.37 411.841 307.829 413.956 315.42 414.053C326.082 414.195 331.912 407.179 333.514 401.958C334.771 397.897 332.824 393.385 328.807 389.43C329.984 388.067 330.7 386.166 329.913 383.546C330.276 384.758 328.002 386.917 325.604 386.705C325.383 386.687 325.17 386.652 324.949 386.59C321.331 385.581 317.207 381.175 313.713 378.565C310.235 375.955 309.218 371.911 309.289 369.045C309.342 366.178 308.369 362.78 305.635 360.206C302.901 357.632 300.451 357.383 299.671 357.18C298.884 356.968 298.663 356.481 298.742 355.959C298.902 355.1 300.008 355.26 300.008 355.26C306.644 356.587 311.492 363.162 312.562 365.09C313.553 366.859 324.029 375.043 328.081 378.627C329.975 380.007 338.177 386.298 339.645 392.748C341.388 400.445 336.726 407.736 332.788 411.169ZM320.968 393.668C322.268 394.314 324.135 395.579 325.011 397.41C325.241 397.897 325.347 398.366 325.347 398.888C325.481 401.029 322.976 404.161 320.755 404.984C319.145 405.648 317.013 405.975 314.951 405.966C314.297 405.966 313.651 405.94 313.022 405.878C313.606 404.896 314.314 403.701 315.102 402.418C316.871 399.525 319.066 396.154 320.968 393.668ZM302.494 380.936C304.246 377.963 306.086 375.043 307.953 372.141C308.041 372.009 308.13 371.876 308.218 371.743C308.139 372.354 307.926 375.672 309.041 378.963C309.687 380.538 310.713 382.13 312.332 383.617C313.783 384.953 314.996 386.023 316.004 386.864C311.103 393.199 304.157 405.046 304.157 405.046C301.184 405.223 299.698 404.241 298.018 400.658C297.778 400.144 297.592 399.578 297.45 398.985V398.976C296.566 395.287 297.371 390.536 297.389 390.403C297.512 390.155 300.813 383.785 302.494 380.936ZM351.466 314.923C355.536 313.932 359.562 312.853 363.516 311.614C363.632 311.579 363.747 311.543 363.862 311.499C359.818 317.63 327.984 363.178 325.79 366.134C325.613 365.992 320.145 361.312 319.951 361.144C328.064 349.872 351.006 315.622 351.466 314.923ZM451.34 78.998C450.835 103.223 444.199 120.096 444.199 120.096C434.715 125.776 421.77 131.837 406.985 134.031C376.099 138.596 360.924 133.978 332.319 124.829C303.732 115.681 260.83 95.9415 216.794 96.2334C172.75 96.5166 141.314 115.637 113.152 137.384C113.586 137.252 120.496 135.093 122.991 134.27C122.991 134.27 116.417 141.985 114.417 146.276C114.417 146.276 127.521 136.482 145.508 137.526C145.508 137.526 139.253 139.092 136.643 143.003C136.643 143.003 143.942 141.428 145.243 144.303C146.552 147.17 142.12 153.691 134.042 157.336C125.964 160.99 112.922 163.857 104.579 164.379C104.579 164.379 112.931 166.989 118.399 172.2C118.399 172.2 112.028 173.111 105.101 175.845C99.3319 178.128 88.9358 179.499 84.5031 178.977C84.5031 178.977 90.5727 184.658 97.8013 189.144C118.965 202.274 110.029 221.739 103.216 228.118C98.7303 229.392 51.97 242.115 41.2554 317.604C41.2554 317.604 64.9496 284.549 100.827 275.418C136.714 266.287 171.503 275.418 189.765 284.327C208.026 293.246 236.295 312.808 273.04 318.904C293.248 322.258 317.579 321.647 341.132 317.144C340.751 317.728 322.781 344.457 315.057 355.233C315.057 355.233 309.324 348.031 301.565 347.315C301.565 347.315 298.309 346.66 295.672 348.031V348.04C293.345 349.111 291.354 351.402 290.708 354.578C290.055 357.799 291.222 360.294 292.744 362.064C294.194 363.754 296.017 364.612 297.495 365.01C298.813 365.328 300.644 366.134 300.99 367.877C297.45 373.327 292.602 381.201 289.107 388.81C286.364 394.8 285.055 399.941 283.958 403.4C282.922 406.948 282.002 408.337 281.701 408.514L277.977 411.797C277.977 411.797 279.401 417.557 279.808 418.521C278.906 420.238 278.454 422.131 278.445 423.998V424.104C278.445 428.015 280.374 431.855 283.878 434.165C286.612 436.048 290.567 436.163 290.567 436.163C294.469 436.163 298.3 434.235 300.609 430.766C301.166 429.926 301.592 429.041 301.901 428.156C304.706 427.015 306.431 425.422 307.325 424.113C309.404 424.591 315.456 424.776 315.703 424.776C324.162 424.715 332.178 422.29 338.044 417.291C342.76 413.071 347.909 405.852 348.077 396.181C348.077 394.455 348.599 385.36 339.866 378.14C347.414 367.231 356.686 353.632 366.436 338.883C384.565 311.41 399.394 287.539 410.675 267.606C422.478 247.344 459.408 191.683 459.329 115.468C459.293 93.2606 451.34 78.998 451.34 78.998ZM297.459 398.95C297.45 398.959 297.45 398.968 297.45 398.976C297.459 398.959 297.468 398.941 297.477 398.923C297.477 398.906 297.486 398.897 297.486 398.888C297.477 398.906 297.468 398.932 297.459 398.95Z" fill="black"/>
<path fill-rule="evenodd" clip-rule="evenodd" d="M358.182 245.167C337.584 259.74 305.334 264.19 305.334 264.19C304.971 265.588 302.839 267.057 302.839 267.057C302.839 267.057 306.139 268.278 314.243 274.374C322.339 280.47 320.145 280.169 322.728 281.912C325.312 283.646 326.781 283.16 326.781 283.16C327.559 284.726 327.658 287.053 327.658 287.053C328.736 288.07 334.018 293.113 329.108 298.333C324.188 303.554 318.508 298.705 318.508 298.705C316.5 299.13 314.544 298.466 314.544 298.466C314.544 298.466 304.033 305.084 293.594 297.873C285.099 292.016 285.612 285.071 286.109 282.673C283.241 284.319 280.162 285.602 277.004 286.592C268.483 289.264 257.609 290.37 246.806 286.778C239.71 284.389 233.835 280.249 229.199 275.657C224.554 271.056 221.121 265.977 218.883 261.403C218.546 260.704 218.228 260.014 217.945 259.341C217.202 261.111 213.645 267.827 202.629 267.349C189.951 266.8 185.553 255.183 185.553 255.183C185.553 255.183 183.598 254.528 182.253 252.989C182.253 252.989 174.803 253.431 174.025 246.3C173.255 239.169 180.519 238.337 181.996 238.178C181.996 238.178 183.465 236.373 185.031 235.594C185.031 235.594 185.916 236.877 189.021 237.045C192.127 237.213 190.198 236.125 200.338 236.152C210.477 236.169 213.839 237.196 213.839 237.196C213.839 237.196 213.025 234.736 213.583 233.4C213.583 233.4 190.552 210.396 182.917 186.348C175.281 162.299 177.617 153.381 186.889 128.023C186.889 128.023 193.764 171.227 214.866 198.372C226.907 213.864 240.453 225.941 249.876 233.462C250.089 233.462 250.31 233.471 250.522 233.471C248.514 231.232 246.983 228.604 246.222 225.596C244.338 218.164 241.25 211.254 239.834 205.751C238.418 200.239 241.568 189.223 241.568 189.223C237.339 182.446 239.401 171.289 239.401 171.289C239.401 171.289 241.692 170.2 243.435 168.086C245.169 165.962 244.568 159.698 245.983 150.479C247.399 141.26 253.398 131.722 266.687 126.298C279.905 120.901 299.76 127.979 299.937 128.041C300.114 128.094 320.225 134.42 327.515 146.701C334.841 159.044 333.868 170.28 329.435 178.482C325.003 186.693 320.738 191.32 320.853 194.063C320.959 196.797 322.136 199.044 322.136 199.044C322.136 199.044 317.057 209.192 309.581 212.059C309.581 212.059 305.449 222.738 300.99 226.277C296.548 229.817 289.912 233.462 283.922 238.257C281.56 240.151 278.844 241.319 275.951 241.911C276.145 242.053 276.331 242.195 276.526 242.336C288.567 242.018 306.581 240.558 325.436 235.488C358.641 226.552 390.184 196.239 390.184 196.239C382.292 222.057 378.77 230.586 358.182 245.167ZM389.768 142.18C347.281 141.923 301.264 118.017 260.44 108.903C174.387 89.7038 132.688 134.633 132.67 134.65C132.679 134.641 146.614 129.572 153.639 134.137C161.275 139.101 154.542 151.903 152.082 154.46C145.022 161.813 134.873 167.245 123.663 167.245C123.663 167.245 135.528 170.094 139.368 173.625C139.368 173.625 128.361 175.067 122.363 177.146C116.373 179.234 104.641 182.623 102.039 182.623C102.039 182.623 132.945 196.753 113.763 226.932C113.763 226.932 127.176 224.88 138.351 230.241C138.351 230.241 77.1242 220.358 56.4116 287.937C64.2153 281.505 88.7324 264.208 126.902 264.022C172.981 263.818 192.746 274.418 211.052 285.504C238.958 302.421 260.06 307.429 276.092 310.419C322.163 319.019 368.427 303.527 388.476 294.184C446.668 205.025 453.365 154.664 454.356 118.707C435.555 137.632 404.048 142.268 389.768 142.18Z" fill="#A71930"/>
<path fill-rule="evenodd" clip-rule="evenodd" d="M297.237 390.711C297.237 390.729 297.228 390.747 297.219 390.764C296.166 393.401 295.158 397.93 295.573 401.232C295.661 401.948 295.804 402.604 295.972 403.24V403.25C293.485 414.672 288.672 414.858 287.398 414.69C287.194 414.662 287.079 414.627 287.079 414.627C291.829 410.416 291.679 402.789 296.528 392.189C296.75 391.702 296.998 391.207 297.237 390.711ZM308.217 371.741C308.143 372.352 307.923 375.668 309.04 378.961C309.031 378.969 302.898 386.987 297.449 398.984C297.536 398.758 297.489 398.868 297.457 398.952C297.453 398.96 297.45 398.967 297.448 398.975C296.566 395.287 297.37 390.534 297.388 390.402C297.511 390.154 300.811 383.784 302.493 380.933C304.245 377.961 306.085 375.041 307.953 372.139C308.041 372.006 308.129 371.874 308.217 371.741ZM363.861 311.502C359.817 317.634 327.981 363.175 325.788 366.131C325.61 365.989 320.142 361.309 319.948 361.14C328.063 349.868 351.004 315.625 351.464 314.926C355.535 313.935 359.561 312.856 363.516 311.617C363.631 311.582 363.747 311.546 363.861 311.502ZM311.142 278.335C311.142 278.335 312.924 279.764 313.073 279.877C313.751 280.39 315.203 281.734 315.872 282.391C316.423 282.935 316.975 283.479 317.52 284.03C317.92 284.436 319.579 286 320.14 286.419C320.566 286.735 320.998 287.015 321.445 287.234C321.855 287.435 322.28 287.594 322.729 287.702L322.688 287.733C321.765 288.424 320.68 288.878 319.513 288.878C319.112 288.878 318.678 288.819 318.289 288.725C317.745 288.593 317.224 288.394 316.726 288.138C316.412 287.974 316.104 287.799 315.809 287.601C315.627 287.48 315.444 287.348 315.257 287.207C315.254 287.202 315.247 287.188 315.243 287.184C315.295 286.944 315.337 286.689 315.354 286.402C315.417 285.363 315.202 284.17 314.813 283.209C314.165 281.508 311.207 278.389 311.142 278.335ZM300.439 271.681C300.586 271.764 300.726 271.837 300.878 271.923C301.598 272.328 302.321 272.729 303.036 273.14C304.544 274.01 306.032 274.912 307.496 275.853C308.542 276.524 309.579 277.214 310.588 277.938C310.718 278.034 310.846 278.128 310.973 278.223C311.96 279.321 312.966 280.732 313.432 282.043C313.981 283.553 314.02 284.949 313.823 285.972C310.616 282.886 303.872 277.929 301.974 276.946C302.159 274.68 301.222 272.818 300.439 271.681ZM246.578 245.24C247.601 245.371 248.601 245.522 249.58 245.686C249.023 246.449 248.491 247.235 247.986 248.041C249.071 248.238 250.17 248.463 251.281 248.713C251.734 247.884 252.206 247.071 252.692 246.279C253.626 246.48 254.545 246.696 255.448 246.927C255.033 247.747 254.627 248.587 254.23 249.44C255.264 249.716 256.305 250.016 257.352 250.343C257.681 249.466 258.012 248.601 258.342 247.751C259.219 248.024 260.09 248.315 260.954 248.626C260.704 249.503 260.446 250.392 260.18 251.29C261.212 251.657 262.222 252.043 263.215 252.442C263.411 251.526 263.593 250.616 263.756 249.717C264.621 250.076 265.48 250.456 266.348 250.862C266.259 251.779 266.145 252.703 266.009 253.628C267.044 254.091 268.055 254.568 269.039 255.056C269.117 254.124 269.166 253.193 269.182 252.266C270.065 252.724 270.951 253.209 271.848 253.72C271.889 254.655 271.892 255.59 271.853 256.521C272.394 256.817 272.924 257.114 273.446 257.414C273.452 257.56 273.454 257.706 273.457 257.853C273.476 258.675 273.465 259.502 273.428 260.334C273.417 260.573 273.405 260.813 273.392 261.053C272.765 260.735 272.132 260.419 271.487 260.106C271.249 261.547 270.897 262.97 270.417 264.365C269.465 263.812 268.492 263.281 267.512 262.771C267.943 261.434 268.281 260.082 268.539 258.72C267.49 258.244 266.419 257.777 265.326 257.32C265.038 258.613 264.692 259.905 264.287 261.191C263.284 260.728 262.27 260.282 261.251 259.865C261.649 258.614 262.01 257.364 262.338 256.12C261.268 255.707 260.181 255.307 259.076 254.919C258.699 256.127 258.309 257.347 257.905 258.574C256.865 258.201 255.824 257.849 254.772 257.523C255.188 256.3 255.612 255.092 256.04 253.902C254.925 253.548 253.816 253.214 252.713 252.9C252.225 254.088 251.759 255.299 251.324 256.535C250.261 256.251 249.182 255.995 248.105 255.758C248.553 254.495 249.056 253.264 249.601 252.064C248.452 251.773 247.312 251.502 246.187 251.253C245.576 252.487 245.035 253.761 244.577 255.077C243.489 254.889 242.392 254.73 241.296 254.593C241.749 253.207 242.322 251.874 242.992 250.594C242.284 250.459 241.582 250.331 240.889 250.211C241.04 249.984 241.193 249.758 241.348 249.534C241.826 248.841 242.324 248.17 242.841 247.521C242.901 247.445 242.96 247.367 243.022 247.293C243.622 247.364 244.23 247.444 244.844 247.531C245.388 246.744 245.966 245.979 246.578 245.24ZM379.973 211.759C379.808 212.145 373.248 227.212 345.963 239.049C344.75 239.575 343.513 240.099 342.215 240.61C336.669 242.697 324.99 246.644 309.544 249.433C303.3 250.56 296.983 251.329 290.663 251.859C290.157 251.901 286.493 252.17 286.493 252.17C285.344 250.697 284.084 249.245 282.706 247.819C291.08 247.449 299.678 246.618 308.117 245.102C342.936 238.844 364.319 224.283 374.572 216.186C375.509 215.445 376.334 214.773 377.088 214.152C378.847 212.727 379.94 211.824 379.973 211.759ZM199.611 241.218C199.922 241.216 200.541 241.229 200.494 241.234C198.872 241.324 196.304 241.919 194.669 242.901C194.66 242.905 194.651 242.913 194.641 242.92C193.706 243.465 192.708 244.38 192.199 245.342C192.166 245.405 191.98 245.755 191.93 245.812C186.607 245.812 185.655 241.782 185.635 241.709C186.075 241.897 186.522 242.026 186.982 242.113L187.348 242.172C187.718 242.222 188.097 242.243 188.487 242.245C190.122 242.26 191.819 241.951 193.587 241.705C195.582 241.426 197.596 241.228 199.611 241.218ZM200.738 241.232C201.435 241.246 202.131 241.267 202.827 241.301C203.926 241.355 205.024 241.433 206.12 241.531C208.327 241.729 210.896 242.022 213.085 242.368C211.771 242.805 209.96 243.665 208.739 245.594C208.723 245.611 208.705 245.629 208.692 245.645C206.576 245.279 198.208 245.17 193.791 245.692C194.25 244.759 195.122 243.668 196.469 242.793C197.631 242.03 199.291 241.511 200.738 241.232ZM185.789 146.593C187.694 154.609 193.354 184.454 222.983 216.551C228.845 222.901 235.256 228.79 241.763 234.171C239.799 234.49 237.901 234.899 236.093 235.393C231.54 231.38 221.009 221.005 220.459 220.465L220.437 220.443C211.622 211.569 205.041 203.042 200.09 195.114C199.058 193.426 198.257 192.035 197.617 190.995L196.637 189.232C182.97 164.201 185.789 146.593 185.789 146.593ZM245.194 200.948C246.579 199.788 249.699 200.328 249.699 200.328C249.699 200.328 251.099 201.8 251.429 202.9C251.75 204.008 251.418 210.044 253.803 214.197V214.099C253.803 214.099 253.92 213.66 254.426 212.906C254.937 212.152 255.929 211.083 256.523 211.505C257.118 211.926 257.038 213.113 257.024 214.384C257.014 215.655 256.585 217.013 256.264 217.397C256.264 217.397 256.759 218.411 258.104 219.052C258.104 219.052 258.048 218.568 258.146 217.878C258.358 216.66 258.971 215.654 259.363 214.547C259.482 214.159 259.861 213.76 260.425 214.063C260.436 214.063 261.549 214.643 262.535 215.136C262.65 215.219 263.335 215.742 262.969 216.726C262.952 216.762 262.949 216.783 262.938 216.81C262.924 216.855 262.903 216.893 262.889 216.938C262.52 217.866 262.205 218.715 261.732 219.694C261.732 219.694 261.49 220.599 261.065 220.637C261.065 220.637 261.894 221.181 262.267 221.338C262.838 221.58 263.548 221.886 263.899 221.973C263.899 221.973 263.52 221.387 263.616 220.55C263.843 219.357 264.196 217.716 264.497 216.342C264.6 216.019 264.891 215.473 265.554 215.682C266.301 215.99 267.061 216.282 267.822 216.56C268.461 216.828 268.455 217.459 268.43 217.671C268.081 219.188 267.69 221.006 267.275 222.458C267.18 222.68 267.048 222.99 266.937 223.104C266.937 223.104 267.621 223.585 268.081 223.706C268.537 223.825 269.405 224.001 269.405 224.001C269.405 224.001 269.238 223.414 269.449 222.788C269.453 222.776 269.453 222.765 269.453 222.75C269.791 221.781 270.132 220.807 270.476 219.829C270.559 219.578 270.801 219.025 270.939 218.666C271.013 218.485 271.309 217.928 271.986 218.072C272.878 218.34 273.776 218.587 274.677 218.811C275.344 219.009 274.962 220.031 274.962 220.031C274.962 220.031 273.995 222.408 273.369 223.939C273.362 223.936 273.152 224.475 272.806 224.758C272.806 224.758 273.427 225.033 273.893 225.126C274.875 225.32 275.459 225.301 275.705 225.318C275.705 225.318 275.403 224.585 275.758 223.709C275.78 223.673 275.789 223.628 275.803 223.588C276.103 222.895 276.414 222.203 276.701 221.507C276.785 221.311 276.859 221.114 276.937 220.914C277.038 220.614 277.515 220.122 278.3 220.262C278.327 220.263 278.344 220.26 278.368 220.263C278.995 220.381 279.621 220.486 280.249 220.583C280.255 220.59 281.377 220.82 280.967 221.871C280.4 223.13 279.799 224.393 279.125 225.664C279.825 225.719 280.532 225.759 281.239 225.778C281.239 225.778 281.15 225.715 281.44 224.93C281.731 224.145 282.581 222.472 282.666 222.223C282.751 221.978 283.075 221.006 283.483 220.958C283.895 220.914 285.496 222.197 285.079 224.672C289.481 222.792 292.842 217.79 293.767 217.109C294.576 216.513 296.191 216.19 296.597 216.115C297.277 216.507 299.25 217.743 299.585 219.201C299.585 219.201 296.269 222.252 292.186 224.051C288.097 225.851 281.914 229.749 279.477 231.373C278.554 231.987 277.3 232.517 275.714 232.809C274.725 231.045 271.285 228.868 266.876 227.387C262.267 225.838 258.035 225.539 256.309 226.498C255.051 225.209 254.283 223.922 253.889 222.787C252.93 220.023 250.343 213.18 248.173 209.282C245.999 205.382 245.194 200.948 245.194 200.948ZM258.547 150.204C258.635 145.612 263.493 126.714 288.682 131.005C293.327 131.969 297.052 133.093 298.025 133.402C298.123 133.438 298.211 133.464 298.309 133.5C298.786 133.65 299.441 133.862 300.229 134.154C300.459 134.243 300.697 134.331 300.945 134.429C301.273 134.553 301.618 134.685 301.98 134.836C302.458 135.03 302.962 135.243 303.493 135.473C304.015 135.712 304.564 135.959 305.131 136.234C306.36 136.826 307.669 137.525 308.988 138.322C309.121 138.393 309.253 138.472 309.377 138.552C309.421 138.569 309.457 138.596 309.492 138.623C319.747 144.86 322.56 152.478 322.56 158.778C322.56 164.316 320.384 168.846 319.189 170.519C317.508 172.854 315.995 174.456 315.217 175.633C314.288 173.969 313.571 172.2 313.297 170.43L313.297 170.436L313.298 170.457C313.333 170.979 313.932 179.015 318.023 183.141L318.234 183.348C318.234 183.348 315.854 188.665 315.358 191.895C314.872 195.133 316.128 198.539 316.128 198.539C316.128 198.539 315.809 199.053 315.349 199.76C312.837 202.724 308.439 205.29 306.077 204.857C303.396 204.361 296.937 202.167 293.195 202.937C290.124 203.574 288.275 205.308 287.258 207.06C287.258 207.06 287.267 207.051 287.275 207.051C287.001 207.378 286.745 207.741 286.568 208.166C286.568 208.166 285.771 209.555 285.55 211.413C285.002 211.174 284.533 210.988 284.533 210.988C284.542 211.086 284.542 211.218 284.515 211.36C284.48 211.634 284.356 212.076 284.339 212.138C284.329 212.236 284.32 212.307 284.304 212.333C284.241 212.581 284.17 212.829 284.108 213.076C283.861 213.979 283.64 214.713 283.356 215.598C283.347 215.607 283.329 215.633 283.321 215.66C283.037 216.5 282.188 216.226 282.188 216.226C282.179 216.226 282.092 216.191 282.092 216.191C281.471 215.881 280.79 215.554 280.082 215.217C280.082 215.217 279.286 214.802 279.41 213.979C279.401 213.961 279.41 213.943 279.419 213.917C279.428 213.881 279.419 213.855 279.437 213.828C279.463 213.758 279.481 213.669 279.507 213.607C279.728 212.811 280.197 211.103 280.259 210.705C280.339 210.236 280.649 209.378 280.843 209.042C280.71 208.909 280.374 208.546 280.082 208.405C279.835 208.281 279.569 208.228 279.206 208.254C279.074 208.369 278.852 208.714 278.844 208.9C278.835 209.006 278.552 209.891 278.242 210.864C277.924 211.846 277.561 212.926 277.401 213.412C277.225 213.943 276.844 214.058 276.534 214.058C276.342 214.058 276.179 214.014 276.11 213.991L276.074 213.979C275.456 213.731 274.614 213.43 273.951 213.182C273.907 213.174 273.871 213.147 273.827 213.138C273.031 212.837 273.084 212.156 273.137 211.882C273.482 210.855 273.924 209.555 274.26 208.537C274.331 208.298 274.42 208.06 274.49 207.812C274.49 207.803 274.499 207.794 274.508 207.776C274.535 207.67 274.836 206.909 275.296 206.679C274.995 206.449 274.393 206.21 273.943 206.051C273.402 205.874 272.438 205.706 272.385 205.697C272.544 206.042 272.58 206.644 272.5 206.945C272.385 207.343 271.323 211.05 271.279 211.192C271.226 211.333 271.04 211.776 270.748 211.882C270.465 211.988 269.668 211.731 269.668 211.731C269.615 211.723 269.58 211.714 269.536 211.705C268.863 211.501 267.908 211.351 267.272 211.174C267.272 211.174 266.227 210.873 266.554 209.918C266.554 209.918 267.235 207.423 267.572 206.237C267.572 206.21 267.58 206.166 267.589 206.131C267.616 206.042 267.766 205.547 267.819 204.795C267.872 204.043 267.368 203.866 266.996 203.866C266.643 203.866 266.253 204.503 266.166 204.874C266.067 205.273 265.846 205.936 265.846 205.936L265.82 205.998C265.793 206.06 265.767 206.122 265.749 206.175C265.386 207.139 265.103 207.936 264.776 208.9C264.468 209.716 263.62 209.653 263.445 209.63L263.413 209.626C262.652 209.466 261.918 209.316 261.237 209.192C261.228 209.192 261.139 209.166 261.139 209.157C261.139 209.157 260.29 208.865 260.573 208.024C260.573 207.998 260.573 207.971 260.591 207.945C260.892 207.069 261.148 206.361 261.502 205.485C261.599 205.255 261.953 204.414 262.157 204.087C262.369 203.76 262.652 203.583 262.652 203.583C262.662 203.388 262.369 203.025 261.838 202.839C261.777 202.822 261.706 202.804 261.626 202.786C261.936 202.017 262.325 200.955 262.511 200.061C263.095 197.894 263.024 194.841 260.511 191.966C257.989 189.09 251.504 186.949 249.08 185.728C246.647 184.507 244.461 178.641 244.753 174.589C244.753 174.589 247.806 172.624 249.363 169.749C250.938 166.882 252.23 161.211 252.23 161.211C258.113 160.547 263.617 154.283 263.954 153.894C262.493 155.301 260.582 156.353 258.6 157.167C258.706 155.823 258.485 153.558 258.547 150.204Z" fill="white"/>
<path fill-rule="evenodd" clip-rule="evenodd" d="M298.74 355.956C298.901 355.098 300.007 355.257 300.007 355.257C306.643 356.584 311.492 363.158 312.561 365.087C313.553 366.857 324.029 375.041 328.081 378.625C329.975 380.005 338.177 386.296 339.645 392.746C341.389 400.444 336.726 407.735 332.788 411.168C328.842 414.61 322.135 416.803 315.127 416.672C308.881 416.547 304.492 415.539 300.52 413.38C300.501 413.424 300.492 413.46 300.484 413.513C300.174 413.778 299.545 415.22 294.954 415.902C291.874 416.406 290.088 415.787 289.901 415.725C295.317 421.203 300.218 417.751 300.218 417.751C300.45 418.707 300.784 419.388 300.784 419.388C300.784 419.388 299.157 421.778 294.202 420.955C293.6 420.857 293.087 420.689 292.583 420.504C292.68 420.557 292.768 420.592 292.865 420.654C294.768 421.902 295.281 424.459 294.034 426.351C292.768 428.254 290.221 428.767 288.318 427.52C286.424 426.263 285.902 423.706 287.159 421.813C288.185 420.256 290.06 419.644 291.751 420.15C288.034 418.362 287.079 414.627 287.079 414.627C287.079 414.627 287.194 414.662 287.397 414.69C288.671 414.858 293.485 414.672 295.972 403.25C296.043 403.542 297.671 410.132 302.121 409.062C302.077 409.16 301.431 410.61 301.422 410.629C303.368 411.841 307.828 413.955 315.419 414.053C326.081 414.194 331.912 407.178 333.514 401.958C334.771 397.896 332.824 393.383 328.807 389.429C329.983 388.066 330.701 386.164 329.913 383.544C330.275 384.757 328.001 386.916 325.603 386.703C325.382 386.685 325.171 386.649 324.95 386.588C321.33 385.579 317.206 381.173 313.712 378.563C310.235 375.953 309.218 371.909 309.288 369.042C309.34 366.175 308.367 362.777 305.634 360.203C302.9 357.628 300.45 357.38 299.67 357.177C298.882 356.964 298.661 356.478 298.74 355.956ZM320.965 393.667C322.265 394.312 324.132 395.578 325.008 397.409C325.238 397.896 325.345 398.365 325.345 398.886C325.479 401.028 322.974 404.16 320.752 404.984C319.142 405.647 317.009 405.975 314.947 405.965C314.293 405.965 313.649 405.939 313.02 405.877C313.604 404.894 314.312 403.701 315.098 402.418C316.867 399.524 319.063 396.153 320.965 393.667ZM309.04 378.961C309.686 380.536 310.712 382.128 312.331 383.615C313.783 384.951 314.994 386.021 316.004 386.863C311.102 393.198 304.156 405.045 304.156 405.045C301.184 405.223 299.696 404.241 298.016 400.656C297.776 400.142 297.591 399.577 297.449 398.984C302.898 386.987 309.031 378.969 309.04 378.961ZM378.992 305.99C373.223 315.112 341.75 362.53 334.307 373.298C334.256 373.254 334.174 373.201 334.131 373.166C333.042 372.175 331.636 370.979 330.079 369.68C332.617 366.06 361.711 322.802 370.241 309.396C373.223 308.343 376.125 307.193 378.992 305.99ZM300.147 261.112C300.147 261.112 300.664 260.729 300.972 261.12C301.154 261.36 301.175 261.673 300.833 261.988C300.497 262.305 299.324 263.088 298.63 265.128C297.933 267.18 298.365 269.164 299.167 270.603C299.912 271.938 300.228 273.547 299.972 275.059C299.884 275.596 299.72 276.134 299.491 276.627C298.922 277.843 298.476 279.113 297.961 280.353C297.397 281.704 296.772 282.962 295.966 283.727C295.073 284.576 293.631 284.314 292.747 283.6C292.71 283.57 292.666 283.551 292.632 283.52C293.004 285.117 294.005 285.756 295.042 285.986C294.556 289.172 295.687 291.491 299.523 293.373C303.448 295.296 310.256 295.29 315.34 290.437C314.832 289.864 314.222 289.445 313.629 288.97C313.62 288.962 313.611 288.954 313.604 288.951C313.999 288.837 314.509 288.62 314.833 288.216C315.015 287.99 315.143 287.618 315.236 287.191L315.257 287.207C315.444 287.348 315.627 287.48 315.808 287.601C316.104 287.799 316.412 287.974 316.726 288.138C317.224 288.394 317.745 288.593 318.289 288.725C318.678 288.819 319.112 288.878 319.513 288.878C320.68 288.878 321.765 288.425 322.687 287.733C322.698 287.725 322.71 287.719 322.719 287.711C322.729 287.715 322.807 288.277 322.812 288.401C322.85 289.127 322.771 290.283 322.089 291.41C322.791 290.874 323.773 290.759 324.606 291.214C325.736 291.825 326.158 293.241 325.543 294.368C324.932 295.498 323.517 295.921 322.387 295.306C321.295 294.714 320.891 293.383 321.414 292.277C321.233 292.464 321.06 292.654 320.832 292.832C319.493 293.86 318.447 294.019 317.796 293.979C317.333 293.95 317.065 293.822 317.065 293.822C317.065 293.822 317.092 293.528 316.961 293.04C316.944 292.973 316.933 292.915 316.909 292.84C317.068 292.855 317.364 292.859 317.732 292.808C318.865 292.647 320.718 291.928 321.606 289.011C321.606 289.011 321.389 289.294 321.015 289.661C320.2 290.466 318.519 291.671 316.207 291.499C315.098 292.45 308.229 297.909 300 294.997C291.013 291.814 290.944 286.267 291.169 284.455C291.316 283.271 291.949 281.322 291.98 281.227C292.71 278.955 296.418 270.751 296.436 269.481C296.458 268.21 297.138 263.572 300.147 261.112ZM301.974 276.946C303.872 277.929 310.616 282.886 313.823 285.972C313.722 286.486 313.581 286.932 313.377 287.193C313.059 287.592 312.596 287.811 312.199 287.945C309.378 286.014 305.092 283.48 300.573 281.446C300.852 280.748 301.173 279.881 301.555 278.808C301.796 278.118 301.974 276.946 301.974 276.946ZM219.027 233.623C219.511 233.496 219.696 234.115 219.696 234.115C220.609 237.892 218.355 242.001 217.608 243.028C216.858 244.05 214.861 252.832 214.073 255.089C214.073 255.089 213.143 257.404 212.773 258.151C211.957 259.783 208.456 264.115 199.37 261.227C191.046 258.586 188.82 250.099 188.509 248.679C185.671 246.853 185.751 243.421 185.751 243.421C184.355 247.222 186.65 248.963 187.189 249.311C187.127 249.271 186.65 249.769 186.594 249.834C186.585 249.844 186.479 249.996 186.47 249.994C186.47 249.994 185.655 249.84 184.904 248.78C184.592 248.338 184.288 247.756 184.065 246.937C183.983 246.641 183.931 246.355 183.901 246.081C183.897 246.113 183.897 246.143 183.892 246.174C183.698 247.459 182.496 248.34 181.213 248.148C179.931 247.954 179.043 246.751 179.237 245.466C179.429 244.18 180.633 243.297 181.915 243.494C182.927 243.645 183.691 244.426 183.874 245.381C183.946 243.066 185.635 241.709 185.635 241.709C185.655 241.782 186.607 245.812 191.929 245.812C191.745 246.211 191.623 246.584 191.63 246.873C191.648 247.392 191.921 247.871 192.174 248.201L191.912 248.201C191.324 248.202 189.89 248.215 189.888 248.338C191.015 255.279 196.444 259.39 200.731 260.221C204.92 261.035 207.222 259.872 208.752 257.049C209.721 257.491 210.913 257.569 212.176 256.523C210.327 256.602 209.526 255.482 209.386 254.672C209.019 252.546 210.343 249.326 210.858 246.88C211.38 244.434 213.238 242.936 214.747 242.275C216.261 241.613 217.795 240.288 218.48 238.234C219.162 236.188 218.694 234.855 218.618 234.398C218.538 233.939 218.738 233.704 219.027 233.623ZM379.973 211.759C379.977 211.757 379.811 212.241 379.811 212.241C377.779 218.101 374.015 223.552 369.895 228.13C366.9 231.458 363.635 234.49 360.151 237.301C354.807 241.613 348.732 245.11 342.537 248.035C336.382 250.94 329.93 253.248 323.376 255.066C313.123 257.909 302.275 259.4 291.555 260.001C290.737 258.413 289.762 256.79 288.66 255.154C323.113 252.687 345.791 239.187 345.791 239.187L345.963 239.049C373.248 227.212 379.808 212.145 379.973 211.759ZM193.791 245.692C198.208 245.17 206.576 245.279 208.691 245.645C208.705 245.629 208.722 245.611 208.739 245.595C208.411 246.116 208.116 246.693 207.898 247.381C207.549 248.461 207.286 249.349 207.084 250.074C201.993 248.677 193.895 248.245 193.895 248.245C193.663 247.905 193.425 247.446 193.411 246.938C193.403 246.605 193.561 246.163 193.791 245.692ZM185.789 146.593C185.789 146.593 182.97 164.201 196.636 189.233L196.595 189.157L196.559 189.092C196.559 189.092 206.299 213.184 231.844 235.78L232.623 236.464C230.756 237.115 229.001 237.823 227.394 238.589C227.137 238.711 224.561 236.145 224.245 235.865C221.67 233.585 219.161 231.234 216.73 228.802C211.065 223.137 205.842 217.018 201.263 210.442C197.544 205.105 194.205 199.483 191.505 193.561C188.865 187.775 186.714 181.78 185.368 175.558C184.101 169.7 183.539 163.677 183.856 157.689C184.043 154.15 184.473 150.47 185.618 147.098C185.618 147.096 185.789 146.593 185.789 146.593ZM247.284 190.016C247.284 190.016 249.687 191.182 250.435 191.619C250.435 191.619 250.43 191.644 250.423 191.697C250.332 192.369 249.699 197.161 249.666 199.467C249.663 199.821 249.669 200.116 249.699 200.329C249.699 200.329 246.579 199.788 245.194 200.948C245.194 200.948 245.999 205.382 248.173 209.282C250.343 213.18 252.93 220.023 253.889 222.787C254.283 223.922 255.051 225.209 256.309 226.498C258.035 225.539 262.267 225.838 266.876 227.387C271.285 228.868 274.725 231.045 275.714 232.809C277.299 232.517 278.554 231.987 279.477 231.373C281.914 229.749 288.097 225.851 292.186 224.051C296.269 222.252 299.585 219.201 299.585 219.201C299.25 217.744 297.277 216.507 296.597 216.116C296.657 216.105 296.692 216.101 296.692 216.101C297.826 214.953 300.94 209.46 301.325 208.78C301.352 208.733 301.364 208.709 301.364 208.709C302.228 208.814 304.839 209.329 304.839 209.329C304.839 209.329 302.119 215.655 300.508 218.378C298.902 221.091 297.594 222.014 296.028 223.12C294.465 224.223 287.561 228.785 285.733 230.073C283.911 231.362 279.063 235.711 274.829 236.463C272.73 236.834 270.908 236.879 269.18 236.686C267.452 236.491 265.813 236.058 264.085 235.48C264.075 235.478 264.064 235.473 264.054 235.467C264.04 235.464 264.027 235.462 264.02 235.459C260.563 234.296 257.76 232.887 254.857 229.76C252.298 227.003 251.028 221.762 250.296 219.069C250.191 218.684 250.098 218.35 250.011 218.084C249.334 215.957 246.583 208.154 245.999 206.331C245.411 204.505 244.927 202.981 245.287 199.845C245.622 196.9 247.084 190.839 247.268 190.093C247.277 190.042 247.284 190.016 247.284 190.016ZM286.571 208.169C286.571 208.169 288.137 207.063 290.941 207.197C290.941 207.197 290.924 207.214 290.924 207.223L290.941 207.214C290.862 207.426 290.226 209.169 290.056 210.7C289.96 211.647 289.5 214.036 289.5 214.054C288.677 216.921 285.916 218.504 285.668 218.345C285.376 218.159 284.996 217.46 286.234 213.496C286.234 213.302 286.872 213.072 287.013 213.081C287.269 213.037 287.526 213.001 287.782 212.957C287.782 212.957 287.712 212.806 287.446 212.426C287.331 212.239 287.031 212.124 286.845 212.018C286.632 211.903 285.554 211.425 285.554 211.417C285.756 209.714 286.442 208.404 286.555 208.198L286.571 208.169ZM244.754 174.59C244.462 178.643 246.647 184.51 249.081 185.731C251.505 186.951 257.99 189.092 260.514 191.968C263.026 194.844 263.097 197.897 262.513 200.065C262.326 200.958 261.937 202.02 261.628 202.79C261.459 202.746 261.282 202.719 261.106 202.701C260.593 202.64 259.778 202.586 259.609 203.224C259.601 203.249 259.593 203.268 259.593 203.268C259.672 203.541 259.734 203.878 259.699 204.064C259.654 204.268 259.584 204.453 259.548 204.543C258.159 208.445 257.425 208.78 257.08 208.753C256.788 208.737 255.54 205.799 256.611 203.019C256.619 203.002 256.628 202.985 256.628 202.967C257.176 201.727 257.698 200.825 258.186 200.011C259.044 198.595 259.593 196.676 259.593 196.676L259.609 196.712V196.684C260.327 197.172 260.937 197.764 261.504 198.409C261.52 198.428 261.529 198.437 261.529 198.446C261.787 198.87 262.184 199.197 262.414 199.649C262.477 199.781 262.521 199.906 262.521 200.002C262.715 199.259 262.689 198.357 262.405 197.632C262.388 197.605 262.388 197.578 262.38 197.552C261.328 194.676 258.602 192.986 256.07 191.552C254.38 190.597 252.62 189.764 250.841 188.987C245.63 186.695 245.55 185.173 244.851 182.767C244.772 182.465 244.701 182.111 244.648 181.722C244.55 180.953 244.524 180.032 244.524 179.12C244.524 176.847 244.754 174.59 244.754 174.59ZM315.345 199.764C315.328 199.799 315.308 199.826 315.283 199.86C314.239 201.719 312.833 203.71 311.115 205.002C309.115 206.506 308.134 207.665 302.586 206.355C300.41 205.834 298.206 205.365 295.986 205.09C293.145 204.728 289.385 204.63 287.314 207.018C287.305 207.037 287.296 207.037 287.279 207.055C287.26 207.055 287.252 207.072 287.243 207.081C288.27 205.32 290.119 203.577 293.198 202.94C296.941 202.17 303.399 204.364 306.081 204.86C308.444 205.294 312.833 202.727 315.345 199.764ZM281.088 185.455C283.089 186.256 284.2 188.265 283.597 190.066C283.217 191.216 283.305 192.136 283.393 193.357L283.404 193.393V193.411C283.447 194.393 283.668 194.915 283.906 195.587C284.147 196.216 284.439 197.216 284.067 198.241L283.597 199.639C282.97 201.525 280.704 202.454 278.546 201.737C278.546 201.727 279.995 201.357 280.466 199.968C280.474 199.95 280.483 199.931 280.483 199.914C281.377 199.781 282.156 199.251 282.437 198.401L282.934 196.942C283.429 195.446 282.323 194.773 282.261 192.358C282.173 191.11 282.085 189.897 282.571 188.456C282.961 187.287 282.308 185.993 281.088 185.455ZM275.793 187.438C276.405 185.651 278.501 184.704 280.608 185.297C279.306 184.969 277.988 185.616 277.599 186.784C277.112 188.235 276.289 189.137 275.475 190.075C273.962 191.968 272.669 191.836 272.175 193.332L271.679 194.791C271.395 195.632 271.696 196.517 272.316 197.163C272.308 197.18 272.298 197.206 272.298 197.225C271.83 198.623 272.767 199.79 272.767 199.79C270.618 199.065 269.378 196.959 270.005 195.083L270.476 193.685C270.803 192.64 271.625 192.013 272.21 191.659C272.811 191.269 273.299 190.986 273.927 190.234L273.952 190.198C274.777 189.279 275.413 188.588 275.793 187.438ZM313.647 182.961L313.726 182.969C313.726 182.969 312.62 190.438 310.797 193.366C308.973 196.305 307.232 199.012 302.7 198.764C302.7 198.764 305.328 198.003 304.489 195.941C304.427 195.791 304.382 195.641 304.347 195.482C305.559 194.8 306.647 194.287 307.638 193.252C308.957 191.88 310 190.189 310.752 188.456C311.08 187.685 311.355 186.899 311.577 186.093C311.577 186.093 312.16 183.412 313.292 183.014C313.417 182.997 313.531 182.978 313.647 182.961ZM278.138 175.661C279.103 177.758 286.703 180.306 288.783 179.236C288.773 179.28 288.579 182.014 288.587 183.642C288.596 185.279 289.155 191.606 291.925 193.261C291.934 193.261 291.242 194.083 292.127 196.658C291.914 196.588 288.446 195.305 287.199 192.499C285.907 189.614 287.164 181.863 282.528 180.244C277.854 178.732 274.183 185.678 271.403 187.199C268.636 188.72 264.954 187.544 264.954 187.544C267.09 186.121 267.173 185.092 267.175 184.965L267.175 184.952C270.377 185.306 274.627 180.598 275.626 179.289C276.617 177.989 278.138 175.661 278.138 175.661ZM255.991 163.592L256.045 163.627L256.062 163.636C256.141 163.716 256.23 163.804 256.31 163.893C256.974 164.892 255.823 167.38 255.823 167.38C255.531 168.105 255.3 168.848 255.106 169.6C254.442 172.175 254.195 175.369 255.256 177.935C255.3 178.023 255.974 179.191 255.938 179.227C255.876 179.28 255.814 179.333 255.743 179.377C255.672 179.43 255.602 179.475 255.531 179.519C253.69 180.598 255.133 182.668 255.248 182.828C251.496 180.306 251.726 177.094 252.053 173.653C252.372 170.219 255.991 163.592 255.991 163.592ZM305.131 136.234L306.156 136.667C332.531 149.355 326.719 169.395 325.206 173.226C323.834 176.668 321.109 180.065 319.916 182.003C318.517 180.472 316.633 178.19 315.216 175.633C315.995 174.456 317.508 172.855 319.189 170.519C320.384 168.847 322.56 164.316 322.56 158.778C322.56 152.478 319.747 144.86 309.492 138.623C309.457 138.596 309.421 138.57 309.377 138.552C309.253 138.472 309.12 138.393 308.988 138.322C307.669 137.526 306.36 136.827 305.131 136.234ZM264.22 158.947C268.627 157.85 275.785 164.521 279.995 168.034C283.58 171.202 285.147 171.503 285.465 171.591C285.792 171.715 287.216 172.422 291.968 172.05C297.455 171.795 307.187 170.786 310.045 174.325C310.045 174.422 303.126 173.644 298.462 174.396C293.825 175.378 287.243 176.007 284.323 174.989C281.385 174.041 276.51 169.565 273.414 165.99C270.166 162.601 264.22 159.062 264.22 158.947ZM279.197 129.996C281.312 129.996 283.577 130.147 286.01 130.492C286.886 130.642 287.735 130.81 288.558 130.978L288.682 131.005C263.493 126.714 258.635 145.612 258.547 150.204C258.485 153.558 258.706 155.823 258.6 157.167C254.937 158.698 251.017 159.256 251.017 159.256C251.23 157.132 251.221 152.443 252.132 148.744C252.99 145.267 258.794 130.085 279.197 129.996Z" fill="#B1BABF"/>
<path fill-rule="evenodd" clip-rule="evenodd" d="M266.687 126.298C279.906 120.901 299.76 127.979 299.937 128.041C300.114 128.094 320.225 134.42 327.515 146.701C334.841 159.043 333.868 170.28 329.435 178.482C325.003 186.692 320.738 191.32 320.853 194.062C320.959 196.796 322.136 199.044 322.136 199.044C322.136 199.044 317.057 209.192 309.581 212.059C309.581 212.059 305.449 222.738 300.99 226.277C296.548 229.816 289.912 233.461 283.922 238.257C281.56 240.15 278.844 241.318 275.951 241.911C276.145 242.053 276.331 242.194 276.526 242.336C288.568 242.017 306.581 240.557 325.436 235.488C358.642 226.551 390.184 196.239 390.184 196.239C382.292 222.057 378.77 230.586 358.182 245.167C337.584 259.739 305.334 264.19 305.334 264.19C304.971 265.588 302.839 267.056 302.839 267.056C302.839 267.056 306.139 268.277 314.244 274.373C322.339 280.469 320.145 280.169 322.729 281.912C325.156 283.541 326.599 283.21 326.765 283.164L326.781 283.159C327.559 284.725 327.658 287.052 327.658 287.052C328.736 288.07 334.018 293.113 329.108 298.333C324.188 303.553 318.508 298.705 318.508 298.705C316.5 299.129 314.544 298.466 314.544 298.466C314.544 298.466 304.033 305.084 293.594 297.873C285.099 292.016 285.612 285.07 286.109 282.673C283.241 284.318 280.162 285.601 277.004 286.592C268.483 289.264 257.609 290.37 246.806 286.778C239.71 284.389 233.835 280.248 229.199 275.656C224.554 271.055 221.121 265.977 218.883 261.403C218.547 260.704 218.228 260.014 217.945 259.341C217.202 261.111 213.645 267.827 202.629 267.348C189.951 266.8 185.553 255.183 185.553 255.183C185.553 255.183 183.598 254.528 182.253 252.988C182.253 252.988 174.803 253.431 174.025 246.3C173.255 239.168 180.519 238.337 181.997 238.177C181.997 238.177 183.465 236.372 185.031 235.594C185.031 235.594 185.916 236.877 189.022 237.045C192.127 237.213 190.198 236.125 200.338 236.151C210.477 236.169 213.84 237.195 213.84 237.195C213.84 237.195 213.026 234.736 213.583 233.4C213.583 233.4 190.552 210.395 182.917 186.347C175.281 162.299 177.617 153.381 186.889 128.023C186.889 128.023 193.764 171.226 214.866 198.371C226.908 213.864 240.454 225.941 249.876 233.461C250.089 233.461 250.31 233.47 250.522 233.47C248.514 231.232 246.983 228.604 246.222 225.596C244.338 218.164 241.25 211.254 239.834 205.75C238.419 200.238 241.568 189.223 241.568 189.223C237.339 182.445 239.401 171.288 239.401 171.288C239.401 171.288 241.692 170.2 243.435 168.086C245.169 165.962 244.568 159.698 245.983 150.479C247.399 141.259 253.398 131.721 266.687 126.298ZM300.972 261.119C300.662 260.73 300.149 261.111 300.149 261.111C297.141 263.57 296.46 268.207 296.433 269.481C296.415 270.755 292.709 278.957 291.983 281.23C291.947 281.32 291.319 283.274 291.169 284.451C290.948 286.265 291.018 291.812 299.999 294.997C308.228 297.909 315.102 292.449 316.208 291.503C318.517 291.671 320.198 290.467 321.012 289.662C321.348 289.335 321.552 289.078 321.596 289.016C320.72 291.927 318.862 292.644 317.73 292.803C317.367 292.856 317.066 292.856 316.907 292.839C316.933 292.918 316.942 292.971 316.96 293.043C317.093 293.529 317.066 293.821 317.066 293.821C317.066 293.821 317.331 293.953 317.792 293.98C318.446 294.015 319.49 293.856 320.836 292.83C321.057 292.653 321.233 292.467 321.41 292.281C320.888 293.387 321.295 294.714 322.384 295.307C323.516 295.919 324.932 295.502 325.542 294.37C326.162 293.246 325.737 291.821 324.604 291.211C323.773 290.759 322.791 290.874 322.092 291.405C322.773 290.282 322.852 289.123 322.808 288.398C322.808 288.273 322.729 287.716 322.72 287.716C322.729 287.707 322.729 287.707 322.729 287.707C322.277 287.592 321.853 287.433 321.446 287.238C320.994 287.017 320.57 286.734 320.145 286.415C319.579 285.999 317.925 284.433 317.518 284.026C316.978 283.478 316.42 282.938 315.872 282.389C315.208 281.735 313.748 280.39 313.076 279.877C312.943 279.771 311.448 278.585 311.191 278.381C311.572 278.771 314.208 281.611 314.81 283.212C315.199 284.168 315.42 285.362 315.358 286.397C315.341 286.689 315.297 286.946 315.243 287.185C315.243 287.185 315.252 287.203 315.261 287.203C315.252 287.203 315.243 287.194 315.235 287.194C315.146 287.618 315.013 287.99 314.836 288.22C314.509 288.619 313.996 288.84 313.607 288.954C313.615 288.954 313.624 288.963 313.633 288.972C314.226 289.441 314.836 289.866 315.341 290.441C310.253 295.289 303.449 295.298 299.521 293.369C295.69 291.495 294.557 289.176 295.044 285.982C294.009 285.76 293.009 285.115 292.629 283.522C292.664 283.549 292.709 283.566 292.745 283.602C293.629 284.318 295.071 284.575 295.964 283.725C296.769 282.965 297.398 281.708 297.964 280.354C298.477 279.116 298.919 277.842 299.494 276.63C299.724 276.134 299.884 275.594 299.972 275.064C300.23 273.551 299.91 271.94 299.167 270.604C298.362 269.162 297.937 267.18 298.627 265.128C299.326 263.084 300.494 262.305 300.83 261.987C301.176 261.677 301.158 261.358 300.972 261.119ZM300.441 271.684C301.22 272.816 302.158 274.684 301.972 276.948C301.972 276.948 301.795 278.116 301.557 278.806C301.176 279.877 300.848 280.744 300.574 281.443C305.096 283.478 309.377 286.017 312.2 287.946C312.598 287.813 313.059 287.592 313.377 287.194C313.58 286.928 313.723 286.486 313.819 285.973C314.022 284.946 313.979 283.549 313.43 282.044C312.97 280.735 311.961 279.319 310.97 278.223C310.847 278.125 310.713 278.036 310.59 277.939C309.581 277.214 308.546 276.523 307.493 275.851C306.033 274.913 304.547 274.011 303.034 273.144C302.317 272.728 301.6 272.33 300.875 271.923C300.724 271.834 300.583 271.763 300.441 271.684ZM262.352 240.31C244.815 234.426 225.793 243.123 221.617 248.405C221.44 248.618 221.28 248.839 221.148 249.078C221.13 249.104 221.121 249.157 221.095 249.175C221.095 249.175 220.988 249.334 220.873 249.662C219.21 254.634 229.288 275.762 248.31 282.151C267.351 288.539 287.93 278.328 289.788 272.79C289.921 272.392 289.948 272.064 289.948 272.064C290.134 270.755 289.842 268.888 289.116 266.702C286.285 258.297 276.871 245.185 262.352 240.31ZM273.457 257.853C280.139 261.77 285.112 265.987 287.646 269.006C283.931 266.266 279.101 263.223 273.428 260.334C273.465 259.502 273.476 258.675 273.457 257.853ZM219.131 233.605L219.024 233.621C218.741 233.7 218.538 233.939 218.617 234.399C218.697 234.851 219.166 236.187 218.476 238.23C217.794 240.292 216.264 241.61 214.751 242.274C213.238 242.937 211.38 244.433 210.858 246.883C210.345 249.325 209.018 252.546 209.389 254.669C209.522 255.483 210.327 256.598 212.176 256.528C210.911 257.572 209.725 257.492 208.752 257.05C207.221 259.872 204.921 261.031 200.727 260.217C196.445 259.394 191.012 255.28 189.889 248.335C189.889 248.217 191.326 248.203 191.913 248.202H192.171C191.924 247.874 191.649 247.388 191.632 246.875C191.623 246.583 191.747 246.211 191.933 245.813C191.977 245.751 192.163 245.406 192.198 245.344C192.711 244.38 193.702 243.468 194.64 242.92C194.649 242.911 194.658 242.902 194.666 242.902C196.303 241.92 198.869 241.327 200.497 241.239C200.541 241.23 199.922 241.212 199.612 241.221C197.595 241.23 195.587 241.424 193.587 241.708C191.818 241.955 190.119 242.256 188.491 242.247C187.969 242.238 187.464 242.203 186.978 242.115C186.527 242.026 186.075 241.893 185.633 241.708C185.633 241.708 183.943 243.061 183.872 245.379C183.695 244.424 182.926 243.645 181.917 243.495C180.634 243.3 179.431 244.176 179.236 245.468C179.041 246.751 179.935 247.954 181.218 248.149C182.492 248.343 183.695 247.459 183.89 246.176C183.899 246.14 183.899 246.114 183.899 246.078C183.934 246.353 183.987 246.645 184.067 246.937C184.288 247.759 184.589 248.335 184.907 248.777C185.651 249.839 186.473 249.998 186.473 249.998C186.482 249.998 186.588 249.847 186.597 249.83C186.65 249.768 187.093 249.308 187.181 249.308C186.633 248.945 184.368 247.202 185.748 243.424C185.748 243.424 185.668 246.857 188.508 248.68C188.818 250.095 191.048 258.589 199.373 261.226C208.46 264.119 211.955 259.783 212.778 258.147C213.141 257.403 214.07 255.085 214.07 255.085C214.857 252.829 216.857 244.052 217.609 243.026C218.352 242 220.608 237.894 219.697 234.116C219.697 234.116 219.511 233.497 219.024 233.621L219.131 233.605ZM379.973 211.758C379.938 211.829 378.85 212.731 377.089 214.156C376.337 214.775 375.505 215.447 374.568 216.191C364.322 224.286 342.937 238.841 308.121 245.105C299.68 246.618 291.08 247.45 282.701 247.821C284.083 249.246 285.347 250.697 286.497 252.174C286.497 252.174 290.16 251.901 290.664 251.856C296.982 251.325 303.299 250.564 309.545 249.432C324.994 246.645 336.673 242.699 342.211 240.61C343.512 240.097 344.751 239.575 345.963 239.044L345.796 239.186C345.796 239.186 323.109 252.688 288.665 255.156C289.762 256.793 290.735 258.412 291.558 260.005C302.273 259.403 313.12 257.908 323.374 255.068C329.931 253.245 336.381 250.945 342.539 248.034C348.732 245.114 354.811 241.61 360.155 237.301C363.632 234.488 366.897 231.462 369.896 228.126C374.019 223.552 377.779 218.102 379.814 212.245L379.965 211.785L379.973 211.758ZM200.736 241.23C199.294 241.513 197.63 242.026 196.471 242.796C195.118 243.672 194.251 244.76 193.791 245.689C193.561 246.167 193.401 246.609 193.41 246.937C193.428 247.45 193.667 247.901 193.897 248.246C193.897 248.246 201.992 248.68 207.089 250.078C207.283 249.352 207.549 248.458 207.894 247.379C208.115 246.689 208.416 246.114 208.743 245.592C209.964 243.663 211.769 242.805 213.087 242.371C210.893 242.017 208.327 241.725 206.124 241.531C205.027 241.433 203.93 241.354 202.824 241.301C202.134 241.265 201.435 241.247 200.736 241.23ZM224.278 247.862C228.207 246.99 234.926 246.579 242.842 247.521C242.324 248.17 241.827 248.841 241.348 249.534C234.887 248.381 229.02 247.904 224.278 247.862ZM185.792 146.594L185.615 147.099C184.474 150.47 184.04 154.15 183.855 157.689C183.536 163.679 184.102 169.705 185.367 175.553C186.712 181.782 188.862 187.772 191.508 193.558C194.206 199.486 197.542 205.104 201.267 210.44C205.841 217.014 211.07 223.136 216.733 228.799C219.157 231.232 221.67 233.585 224.244 235.868C224.563 236.142 227.138 238.708 227.394 238.593C229.005 237.823 230.756 237.116 232.623 236.461C206.903 214.032 196.878 189.86 196.569 189.108L196.64 189.232C196.958 189.816 197.277 190.4 197.622 190.992C198.259 192.036 199.055 193.425 200.09 195.115C205.045 203.043 211.619 211.572 220.44 220.446C220.466 220.473 231.42 231.276 236.092 235.39C237.905 234.895 239.799 234.488 241.763 234.169C235.26 228.79 228.845 222.897 222.979 216.553C193.357 184.454 187.694 154.61 185.792 146.594ZM247.284 190.019C247.284 190.019 247.275 190.046 247.266 190.09C247.08 190.842 245.621 196.903 245.284 199.849C245.24 200.238 245.214 200.601 245.196 200.946C245.054 203.361 245.479 204.733 246.001 206.334C246.585 208.157 249.337 215.961 250.009 218.084C250.098 218.35 250.195 218.686 250.301 219.066C251.027 221.765 252.301 227.003 254.858 229.763C257.761 232.886 260.564 234.293 264.024 235.461C264.024 235.461 264.042 235.461 264.05 235.47C264.068 235.47 264.077 235.479 264.086 235.479C265.811 236.063 267.448 236.487 269.182 236.682C270.907 236.877 272.73 236.832 274.828 236.461C279.065 235.709 283.914 231.365 285.736 230.073C287.559 228.781 294.469 224.224 296.027 223.118C297.592 222.013 298.903 221.092 300.512 218.376C302.122 215.651 304.838 209.325 304.838 209.325C304.838 209.325 302.228 208.812 301.361 208.706C301.361 208.706 301.352 208.732 301.326 208.776C300.937 209.458 297.822 214.952 296.691 216.102C296.691 216.102 296.654 216.102 296.601 216.12C296.194 216.191 294.575 216.509 293.77 217.111C292.841 217.792 289.479 222.791 285.082 224.676C285.497 222.198 283.897 220.915 283.48 220.96C283.073 221.004 282.755 221.977 282.666 222.225C282.578 222.473 281.728 224.145 281.445 224.932C281.153 225.72 281.242 225.782 281.242 225.782C280.534 225.755 279.826 225.72 279.127 225.667C279.799 224.393 280.401 223.127 280.967 221.871C281.336 220.918 280.458 220.639 280.288 220.595L280.259 220.588L280.251 220.579C279.622 220.482 278.995 220.385 278.367 220.261H278.304C277.517 220.119 277.04 220.615 276.942 220.915C276.862 221.11 276.783 221.314 276.703 221.508C276.411 222.198 276.101 222.897 275.8 223.587C275.791 223.632 275.783 223.676 275.756 223.711C275.402 224.587 275.703 225.322 275.703 225.322C275.464 225.304 274.88 225.322 273.889 225.127C273.429 225.03 272.81 224.755 272.81 224.755C273.155 224.472 273.367 223.932 273.367 223.932C273.995 222.402 274.96 220.031 274.96 220.031C274.96 220.031 275.34 219.004 274.677 218.81C273.774 218.588 272.88 218.341 271.987 218.075C271.306 217.925 271.014 218.482 270.943 218.668C270.801 219.022 270.562 219.579 270.474 219.827C270.129 220.809 269.793 221.782 269.456 222.747C269.456 222.765 269.456 222.773 269.448 222.791C269.235 223.41 269.403 224.003 269.403 224.003C269.403 224.003 268.536 223.826 268.085 223.702C267.625 223.587 266.935 223.101 266.935 223.101C267.051 222.995 267.183 222.676 267.28 222.455C267.687 221.004 268.085 219.19 268.43 217.668C268.457 217.456 268.465 216.828 267.82 216.562C267.059 216.279 266.298 215.987 265.555 215.678C264.891 215.474 264.599 216.023 264.493 216.341C264.192 217.712 263.847 219.358 263.617 220.553C263.52 221.384 263.9 221.968 263.9 221.968C263.547 221.889 262.838 221.579 262.272 221.34C261.892 221.181 261.069 220.632 261.069 220.632C261.493 220.597 261.732 219.694 261.732 219.694C262.201 218.712 262.52 217.863 262.891 216.934C262.9 216.89 262.927 216.854 262.936 216.81C262.944 216.783 262.953 216.766 262.971 216.722C263.334 215.739 262.652 215.217 262.537 215.138C261.547 214.642 260.432 214.058 260.423 214.058C259.857 213.758 259.485 214.156 259.361 214.545C258.972 215.651 258.361 216.66 258.149 217.881C258.052 218.571 258.105 219.049 258.105 219.049C256.76 218.411 256.264 217.394 256.264 217.394C256.583 217.014 257.016 215.651 257.025 214.386C257.034 213.112 257.114 211.926 256.521 211.501C255.928 211.086 254.937 212.147 254.424 212.908C253.92 213.66 253.805 214.103 253.805 214.103V214.2C251.416 210.042 251.752 204.007 251.425 202.901C251.097 201.795 249.699 200.327 249.699 200.327C249.673 200.114 249.664 199.822 249.664 199.468C249.699 197.159 250.336 192.373 250.425 191.7C250.434 191.647 250.434 191.621 250.434 191.621C249.691 191.178 247.284 190.019 247.284 190.019ZM279.198 129.996C258.795 130.085 252.991 145.267 252.133 148.744C251.221 152.443 251.23 157.132 251.018 159.255C251.018 159.255 254.937 158.698 258.6 157.167C260.582 156.353 262.493 155.301 263.954 153.894C263.617 154.283 258.114 160.547 252.23 161.211C252.23 161.211 250.938 166.882 249.363 169.749C247.806 172.624 244.754 174.589 244.754 174.589C244.754 174.589 244.523 176.845 244.523 179.119C244.523 180.03 244.55 180.95 244.647 181.72C244.7 182.109 244.771 182.463 244.851 182.764C245.55 185.171 245.629 186.692 250.841 188.984C252.619 189.763 254.38 190.594 256.07 191.55C258.6 192.983 261.325 194.673 262.378 197.549C262.387 197.575 262.387 197.602 262.406 197.628C262.688 198.354 262.714 199.256 262.52 199.999C262.52 199.902 262.476 199.778 262.414 199.645C262.184 199.194 261.785 198.867 261.529 198.442C261.529 198.433 261.521 198.424 261.502 198.407C260.936 197.761 260.326 197.168 259.609 196.681V196.708L259.591 196.673C259.591 196.673 259.043 198.593 258.184 200.008C257.698 200.822 257.176 201.725 256.627 202.963C256.627 202.981 256.618 202.999 256.609 203.016C255.539 205.795 256.786 208.732 257.078 208.75C257.423 208.776 258.158 208.44 259.547 204.538C259.582 204.45 259.653 204.264 259.697 204.06C259.733 203.875 259.671 203.538 259.591 203.264C259.591 203.264 259.6 203.246 259.609 203.22C259.777 202.583 260.591 202.636 261.104 202.698C261.281 202.716 261.458 202.742 261.626 202.786C261.706 202.804 261.777 202.822 261.838 202.839C262.369 203.025 262.662 203.388 262.652 203.583C262.652 203.583 262.369 203.76 262.157 204.087C261.954 204.414 261.6 205.255 261.502 205.485C261.148 206.361 260.893 207.069 260.591 207.945C260.573 207.971 260.573 207.998 260.573 208.024C260.323 208.766 260.955 209.08 261.107 209.144L261.14 209.157C261.14 209.166 261.228 209.192 261.237 209.192C261.918 209.316 262.652 209.466 263.413 209.626C263.413 209.626 264.432 209.811 264.776 208.9C265.103 207.936 265.386 207.139 265.749 206.175C265.767 206.122 265.793 206.06 265.82 206.007V205.998L265.847 205.936C265.847 205.936 266.068 205.273 266.166 204.874C266.254 204.503 266.644 203.866 266.997 203.866C267.368 203.866 267.873 204.043 267.82 204.795C267.766 205.547 267.616 206.042 267.59 206.131C267.581 206.166 267.572 206.21 267.572 206.237C267.236 207.423 266.554 209.918 266.554 209.918C266.227 210.873 267.272 211.174 267.272 211.174C267.908 211.351 268.864 211.501 269.536 211.705C269.58 211.714 269.616 211.723 269.669 211.731C269.669 211.731 270.465 211.988 270.748 211.882C271.04 211.776 271.226 211.333 271.279 211.192C271.323 211.05 272.385 207.343 272.5 206.945C272.581 206.644 272.544 206.042 272.385 205.697C272.438 205.706 273.402 205.874 273.943 206.051C274.393 206.21 274.995 206.449 275.296 206.679C274.836 206.909 274.535 207.67 274.508 207.776C274.5 207.794 274.491 207.803 274.491 207.812C274.42 208.06 274.332 208.299 274.261 208.537C273.925 209.555 273.482 210.855 273.137 211.882C273.084 212.156 273.031 212.837 273.827 213.138L273.951 213.182C274.615 213.43 275.456 213.731 276.075 213.979C276.075 213.979 276.278 214.058 276.535 214.058C276.844 214.058 277.226 213.943 277.402 213.413C277.561 212.926 277.925 211.846 278.242 210.864C278.553 209.891 278.835 209.006 278.844 208.9C278.853 208.714 279.074 208.369 279.207 208.254C279.569 208.228 279.835 208.281 280.083 208.405C280.375 208.546 280.711 208.909 280.843 209.042C280.649 209.378 280.339 210.236 280.259 210.705C280.198 211.103 279.729 212.811 279.507 213.607C279.481 213.669 279.463 213.758 279.438 213.828C279.419 213.855 279.428 213.881 279.419 213.917C279.41 213.943 279.401 213.961 279.41 213.979C279.286 214.802 280.083 215.217 280.083 215.217C280.79 215.554 281.472 215.881 282.092 216.191C282.092 216.191 282.179 216.226 282.188 216.226C282.188 216.226 283.038 216.5 283.321 215.66C283.33 215.633 283.347 215.607 283.356 215.598C283.64 214.713 283.861 213.979 284.108 213.076C284.17 212.829 284.241 212.581 284.304 212.333C284.321 212.307 284.329 212.236 284.339 212.138C284.356 212.076 284.48 211.634 284.515 211.36C284.542 211.218 284.542 211.086 284.533 210.988C284.533 210.988 285.003 211.174 285.55 211.413C285.55 211.422 286.63 211.9 286.842 212.015C287.028 212.121 287.329 212.236 287.444 212.43C287.709 212.802 287.78 212.952 287.78 212.952L287.01 213.076C286.869 213.067 286.232 213.297 286.232 213.492C284.993 217.456 285.373 218.155 285.666 218.341C285.913 218.5 288.674 216.925 289.497 214.058C289.497 214.032 289.957 211.643 290.055 210.696C290.222 209.166 290.859 207.423 290.94 207.21L290.921 207.219C290.921 207.21 290.94 207.193 290.94 207.193C288.134 207.06 286.568 208.166 286.568 208.166C286.745 207.741 287.001 207.378 287.276 207.051C287.293 207.033 287.302 207.033 287.311 207.016C289.381 204.627 293.142 204.724 295.982 205.087C298.203 205.361 300.406 205.83 302.582 206.352C308.139 207.661 309.113 206.502 311.112 204.998C312.838 203.707 314.244 201.716 315.288 199.858C315.306 199.822 315.332 199.796 315.35 199.76C315.81 199.053 316.128 198.539 316.128 198.539C316.128 198.539 314.872 195.133 315.358 191.895C315.854 188.665 318.234 183.348 318.234 183.348C313.81 179.154 313.297 170.43 313.297 170.43C313.571 172.2 314.288 173.969 315.217 175.633C316.633 178.19 318.517 180.472 319.916 182.003C321.109 180.065 323.835 176.668 325.206 173.226C326.719 169.395 332.532 149.355 306.157 136.667L305.131 136.234C304.564 135.959 304.016 135.712 303.494 135.473C302.963 135.234 302.458 135.022 301.981 134.836C301.618 134.685 301.273 134.553 300.946 134.429C300.689 134.331 300.451 134.243 300.23 134.154C299.441 133.862 298.787 133.65 298.309 133.5C298.212 133.464 298.123 133.438 298.026 133.402C297.052 133.093 293.328 131.969 288.683 131.005L288.559 130.978C287.736 130.81 286.886 130.642 286.011 130.492C283.577 130.146 281.312 129.996 279.198 129.996ZM277.599 186.783C277.988 185.616 279.307 184.969 280.608 185.297C280.688 185.315 280.766 185.332 280.838 185.359C280.924 185.387 281.005 185.422 281.089 185.455C282.309 185.992 282.962 187.287 282.571 188.456C282.086 189.897 282.173 191.11 282.262 192.358C282.324 194.773 283.43 195.446 282.934 196.942L282.438 198.401C282.156 199.251 281.377 199.781 280.483 199.914C280.067 199.967 279.624 199.967 279.182 199.826C277.812 199.366 277.042 197.967 277.466 196.72C277.537 196.508 277.412 196.278 277.191 196.197C276.97 196.128 276.741 196.242 276.67 196.446C276.255 197.702 274.794 198.348 273.414 197.888C272.972 197.738 272.618 197.472 272.317 197.163C271.697 196.517 271.396 195.632 271.68 194.791L272.175 193.332C272.67 191.836 273.963 191.968 275.476 190.075C276.289 189.137 277.112 188.234 277.599 186.783ZM288.783 179.235C288.783 179.235 288.818 179.28 288.836 179.306C288.969 179.501 289.588 180.36 290.535 181.27C290.703 181.439 290.879 181.598 291.066 181.758C291.075 181.766 291.092 181.775 291.101 181.792C291.792 182.368 292.606 182.898 293.544 183.209C296.4 184.173 300.569 183.491 305.037 182.677C305.427 182.616 305.806 182.563 306.188 182.518C310.196 182.059 313.718 182.944 313.718 182.944L313.726 182.969L313.647 182.961C313.531 182.978 313.417 182.997 313.293 183.014C312.161 183.412 311.577 186.093 311.577 186.093C311.356 186.898 311.081 187.685 310.752 188.456C310 190.189 308.957 191.88 307.639 193.252C306.648 194.287 305.56 194.8 304.347 195.482C304.338 195.473 304.338 195.473 304.338 195.473C304.321 195.473 303.639 195.685 303.277 195.729C300.532 196.066 294.764 195.181 291.996 193.287C291.969 193.278 291.951 193.269 291.934 193.261C289.155 191.605 288.597 185.279 288.588 183.642C288.58 182.014 288.774 179.28 288.783 179.235ZM256.018 163.592C256.221 163.671 259.433 165.078 262.264 167.777C262.548 168.043 262.822 168.317 263.089 168.6C266.166 171.945 269.079 175.006 271.936 175.962C272.865 176.271 273.847 176.342 274.741 176.299C274.75 176.299 274.767 176.299 274.786 176.289C275.033 176.28 275.272 176.263 275.501 176.236C276.97 176.05 278.139 175.661 278.139 175.661C278.139 175.661 276.618 177.989 275.626 179.289C274.627 180.598 270.377 185.306 267.175 184.952C267.15 184.952 267.122 184.934 267.096 184.934C263.742 184.766 258.602 181.996 256.619 180.076C256.355 179.811 255.948 179.235 255.939 179.235C255.877 179.289 255.814 179.333 255.743 179.377C255.814 179.333 255.877 179.28 255.939 179.227C255.974 179.191 255.301 178.023 255.257 177.935C254.195 175.369 254.443 172.175 255.106 169.6C255.301 168.848 255.532 168.105 255.824 167.379C255.824 167.379 256.974 164.892 256.31 163.893C256.231 163.804 256.141 163.716 256.063 163.636L256.045 163.627C256.045 163.619 256.035 163.61 256.018 163.592Z" fill="#0A0B09"/>
<path fill-rule="evenodd" clip-rule="evenodd" d="M287.84 273.911C280.792 278.353 265.061 282.463 249.912 277.382C235.044 272.389 225.164 259.679 222 251.941C221.63 251.138 221.533 248.969 223.705 247.964C223.705 247.964 222.333 248.159 221.097 249.173C221.097 249.173 220.988 249.334 220.877 249.665C219.212 254.63 229.288 275.763 248.313 282.149C267.348 288.538 287.935 278.328 289.793 272.793C289.92 272.391 289.946 272.067 289.946 272.067C289.514 270.712 288.688 269.868 288.688 269.868C289.746 271.865 288.66 273.329 287.84 273.911Z" fill="#C2242B"/>
<path fill-rule="evenodd" clip-rule="evenodd" d="M273.428 260.334C273.417 260.573 273.405 260.813 273.392 261.053C272.765 260.736 272.132 260.419 271.487 260.106C271.249 261.547 270.898 262.97 270.417 264.365C269.465 263.812 268.492 263.281 267.512 262.771C267.943 261.435 268.281 260.082 268.539 258.72C267.49 258.244 266.419 257.777 265.326 257.32C265.038 258.613 264.692 259.905 264.287 261.191C263.284 260.728 262.27 260.283 261.251 259.865C261.649 258.614 262.01 257.364 262.338 256.12C261.269 255.707 260.181 255.307 259.076 254.919C258.699 256.127 258.309 257.347 257.905 258.574C256.865 258.201 255.825 257.849 254.772 257.523C255.188 256.3 255.612 255.092 256.04 253.902C254.926 253.548 253.816 253.214 252.713 252.9C252.225 254.088 251.759 255.299 251.324 256.536C250.261 256.251 249.183 255.995 248.105 255.758C248.553 254.495 249.056 253.265 249.601 252.064C248.452 251.773 247.312 251.502 246.187 251.253C245.576 252.487 245.036 253.761 244.577 255.077C243.489 254.889 242.392 254.73 241.296 254.593C241.749 253.207 242.322 251.874 242.992 250.594C242.284 250.459 241.582 250.331 240.89 250.211C241.04 249.984 241.193 249.758 241.348 249.534C234.887 248.381 229.02 247.904 224.278 247.862C228.207 246.99 234.926 246.579 242.841 247.521C242.902 247.445 242.96 247.367 243.022 247.293C243.623 247.364 244.23 247.444 244.844 247.531C245.388 246.744 245.966 245.979 246.578 245.24C247.601 245.371 248.601 245.522 249.58 245.686C249.023 246.449 248.492 247.235 247.986 248.041C249.071 248.238 250.17 248.463 251.281 248.713C251.734 247.884 252.206 247.071 252.692 246.279C253.626 246.48 254.545 246.696 255.449 246.927C255.034 247.747 254.627 248.587 254.23 249.44C255.264 249.716 256.305 250.017 257.352 250.343C257.681 249.466 258.012 248.601 258.342 247.751C259.219 248.024 260.09 248.315 260.954 248.627C260.704 249.503 260.447 250.392 260.18 251.29C261.212 251.657 262.222 252.043 263.215 252.442C263.411 251.526 263.593 250.616 263.756 249.717C264.621 250.076 265.48 250.456 266.348 250.862C266.259 251.779 266.145 252.703 266.009 253.628C267.044 254.091 268.055 254.568 269.039 255.056C269.117 254.125 269.166 253.193 269.182 252.266C270.065 252.724 270.952 253.209 271.848 253.72C271.889 254.655 271.892 255.59 271.853 256.521C272.395 256.817 272.925 257.114 273.447 257.414C273.452 257.56 273.454 257.706 273.457 257.853C280.139 261.77 285.111 265.987 287.646 269.006C283.931 266.266 279.101 263.224 273.428 260.334ZM262.353 240.311C244.82 234.429 225.795 243.12 221.613 248.402C221.443 248.617 221.283 248.842 221.148 249.08C221.134 249.105 221.118 249.155 221.097 249.173C222.333 248.159 223.705 247.964 223.705 247.964C221.533 248.969 221.63 251.138 222.001 251.941C225.164 259.679 235.044 272.389 249.912 277.382C265.062 282.463 280.792 278.353 287.84 273.911C288.66 273.329 289.746 271.865 288.688 269.868C288.688 269.868 289.514 270.712 289.946 272.067C290.129 270.751 289.842 268.888 289.111 266.707C286.286 258.301 276.872 245.182 262.353 240.311Z" fill="#DC4405"/>
</g>
<defs>
<clipPath id="clip0_4_244">
<rect width="500" height="500" fill="white"/>
</clipPath>
</defs>
</svg>
