<svg width="500" height="500" viewBox="0 0 500 500" fill="none" xmlns="http://www.w3.org/2000/svg">
<g clip-path="url(#clip0_4_343)">
<path d="M164.953 278.895C165.423 284.532 167.426 295.749 173.908 308.265C181.918 323.721 198.698 344.33 233.307 356.002C238.8 364.628 245.263 372.691 252.58 379.987C278.888 406.233 313.836 420.661 350.985 420.602C388.139 420.549 423.043 406.024 449.273 379.696C475.503 353.378 489.928 318.409 489.869 281.238C489.811 244.057 475.294 209.133 448.991 182.887C428.147 162.089 401.999 148.709 373.233 144.067C334.29 108.783 288.826 121.426 286.877 121.993C286.222 122.177 285.248 122.459 284.036 122.827C270.043 127.484 262.809 122.148 258.121 118.471C252.928 114.396 247.26 110.258 241.791 107.182C223.216 96.7271 196.816 96.3541 174.581 105.324C159.934 110.316 152.549 103.859 148.181 100.841C119.173 80.8151 83.507 76.0361 45.669 84.3711C20.19 89.9891 9.99902 95.1751 9.99902 95.1751C9.99902 95.1751 27.454 97.7071 45.689 105.334C60.661 111.592 72.564 119.626 81.577 134.054C81.577 134.054 87.25 142.389 83.565 144.848C79.439 147.599 75.143 140.865 75.143 140.865C75.002 145.711 75.002 150.534 75.322 154.196C77.417 192.682 85.261 215.798 103.812 233.462C112.253 241.496 126.493 249.311 148.496 257.961C158.532 261.978 163.963 267.125 164.952 278.894" fill="#FFFFFE"/>
<path d="M442.718 189.174C422.539 169.041 396.924 156.34 369.2 152.44C333.055 117.835 289.345 130.517 289.345 130.517C298.606 131.895 304.758 137.42 302.387 143.543C300.811 147.589 294.086 147.802 291.012 147.832C281.247 147.939 272.816 141.947 266.086 136.475C259.09 130.78 247.671 120.674 237.441 114.921C218.396 104.204 188.156 105.539 166.27 119.52C179.356 120.408 195.104 124.177 204.495 131.959C209.736 136.306 216.422 145.043 210.953 149.123C206.148 152.713 194.342 150.86 188.34 147.381C178.798 141.855 170.202 133.477 165.053 127.403C130.411 86.5688 81.3339 84.2888 40.8589 94.2928C67.4239 101.754 85.1499 116.895 96.0979 142.996C107.051 169.096 115.555 180.206 133.596 187.279C144.893 191.703 147.948 192.523 147.065 197.535C145.766 204.87 132.384 201.348 122.178 197.36C109.742 192.504 93.3589 179.09 83.6029 153.931C85.3779 186.483 91.5839 209.566 109.921 227.031C117.713 234.444 132.02 242.114 154.411 250.735C168.704 256.241 180.021 259.574 190.668 269.117C203.085 280.246 197.795 287.596 189.558 286.203C180.239 284.631 173.587 275.108 173.587 275.108C173.587 275.108 173.602 328.143 239.119 348.557C244.574 357.61 251.167 366.051 258.843 373.701C283.473 398.278 316.191 411.779 350.969 411.726C385.752 411.673 418.431 398.079 442.993 373.43C467.551 348.785 481.054 316.048 480.995 281.245C480.947 246.446 467.351 213.748 442.716 189.176" fill="#002244"/>
<path d="M435.799 195.772C416.255 176.221 391.169 164.234 364.095 161.269C340.798 138.036 317.554 139.128 317.554 139.128C327.755 145.527 322.495 159.77 299.804 162.909C277.331 166.014 248.788 158.392 234.888 142.189C220.561 125.491 209.744 124.729 209.744 124.729C222.171 132.496 223.053 141.82 230.597 156.025C238.141 170.235 253.671 175.333 267.198 176.221C281.448 177.157 281.797 183.61 270.306 190.431C257.773 197.863 246.679 190.839 238.616 182.892C225.884 170.327 213.205 167.921 195.683 168.144C178.161 168.367 154.999 170.672 135.445 163.351C115.891 156.025 102.999 130.279 102.999 130.279C112.667 164.461 134.151 180.665 154.092 184.58C180.434 189.747 198.645 196.019 209.787 205.048C220.667 213.877 226.461 222.683 230.548 234.835C233.704 244.203 234.267 256.642 231.154 257.389C227.522 258.253 226.776 253.246 222.495 244.514C217.768 234.87 212.124 227.301 200.74 221.228C185.312 212.995 170.214 213.471 154.82 213.684C142.626 213.854 135.475 212.457 135.475 212.457C135.475 212.457 135.984 214.106 155.853 218.57C177.991 223.538 199.407 236.025 213.661 266.467C225.787 292.359 219.46 310.58 192.594 302.333C192.594 302.333 205.142 330.243 246.126 340.183C251.416 349.488 257.99 358.138 265.758 365.914C288.468 388.633 318.66 401.144 350.776 401.144C382.892 401.144 413.079 388.632 435.799 365.914C458.504 343.186 471.009 312.976 471.009 280.836C471.009 248.706 458.505 218.496 435.799 195.773" fill="#4B92DB"/>
<path d="M350.776 166.417C381.321 166.417 410.039 178.317 431.639 199.93C453.244 221.543 465.137 250.277 465.137 280.836C465.137 343.932 413.835 395.269 350.776 395.269C320.231 395.269 291.513 383.364 269.908 361.751C248.308 340.138 236.415 311.404 236.415 280.836C236.415 250.277 248.308 221.543 269.908 199.93C291.513 178.317 320.23 166.417 350.776 166.417Z" fill="#FFFFFE"/>
<path d="M350.921 385.396C293.219 385.483 246.363 338.741 246.276 281C246.194 223.255 292.914 176.376 350.62 176.294C408.327 176.207 455.182 222.954 455.265 280.695C455.352 338.44 408.637 385.319 350.921 385.396Z" fill="#002244"/>
<path d="M325.224 259.688H294.257L284.051 277.895L270.325 238.959H430.931L417.229 277.895L407.105 259.688H376.662L350.878 372.555L325.224 259.688Z" fill="#FFFFFE"/>
<path d="M430.931 238.959H270.325L272.928 246.338H349.51L325.224 259.688L350.878 372.54V246.338H428.337L430.931 238.959Z" fill="#A5ACAF"/>
<path d="M271.93 148.651C248.643 147.986 239.149 138.745 224.682 127.121C206.98 112.892 187.344 116.856 187.344 116.856C199.102 110.122 222.224 109.846 238.879 124.458C253.759 137.513 261.061 144.596 271.931 148.652L271.93 148.651ZM73.137 97.3238C99.101 92.5208 120.87 100.642 137.331 129.833C153.438 158.393 182.873 159.154 182.873 159.154C160.526 165.49 129.986 159.736 113.976 130.992C94.931 96.7948 73.137 97.3238 73.137 97.3238ZM196.502 262.895C183.707 245.192 163.615 240.977 136.23 233.632C97.02 223.114 96.715 188.898 96.715 188.898C96.715 188.898 102.587 212.626 148.153 221.902C193.418 231.12 196.502 262.896 196.502 262.896V262.895ZM366.47 228.902L350.775 217.628L335.25 229.145L341.122 210.724L325.379 199.517L344.7 199.284L350.494 180.961L356.564 199.284H375.89L360.312 210.573L366.47 228.901V228.902ZM297.525 293.706L295.61 312.951L313.341 320.64L294.461 324.759L292.633 344.009L282.873 327.32L264.017 331.526L276.865 317.084L267.042 300.434L284.734 308.201L297.524 293.705L297.525 293.706ZM388.08 321.058L405.695 313.092L403.489 293.881L416.497 308.178L434.063 300.144L424.502 316.939L437.569 331.178L418.65 327.268L409.152 344.107L407.028 324.891L388.08 321.058Z" fill="#C60C30"/>
</g>
<defs>
<clipPath id="clip0_4_343">
<rect width="500" height="500" fill="white"/>
</clipPath>
</defs>
</svg>
