<svg width="154" height="20" viewBox="0 0 154 20" fill="none" xmlns="http://www.w3.org/2000/svg">
<path fill-rule="evenodd" clip-rule="evenodd" d="M7.93326 1.99329C11.2735 1.83623 14.0397 4.53197 14.0397 7.86792C14.0397 9.54337 13.3417 11.0583 12.2251 12.1285C11.8224 12.5143 11.6042 13.0781 11.6042 13.6664V14.3702C11.6042 15.9443 10.3318 17.2296 8.76943 17.2296H6.74619C6.63138 17.2296 6.54425 17.3161 6.54479 17.4349C6.54531 17.5527 6.63229 17.6394 6.74619 17.6394H9.73211C10.3661 17.6394 10.8856 18.1655 10.8856 18.8024V18.8369C10.8856 19.2816 10.6324 19.6722 10.2639 19.8676C10.1045 19.952 9.92352 20 9.73211 20H6.80466C6.74182 20.0007 6.67947 19.9889 6.62121 19.9653C6.56522 19.9426 6.51411 19.9094 6.47055 19.8676C6.46854 19.8656 6.46653 19.8637 6.46455 19.8617C6.41972 19.8171 6.38418 19.764 6.35996 19.7055C6.33573 19.647 6.32327 19.5844 6.32327 19.5211C6.32327 19.4578 6.33573 19.3951 6.35996 19.3366C6.38418 19.2782 6.41972 19.2251 6.46455 19.1804C6.50938 19.1358 6.56262 19.1006 6.62121 19.0768C6.67949 19.0532 6.74187 19.0414 6.80474 19.0422H9.73211C9.84635 19.0422 9.93418 18.9553 9.93418 18.8369V18.8024C9.93418 18.6841 9.84635 18.5972 9.73211 18.5972H6.74619C6.11403 18.5972 5.59579 18.0749 5.59341 17.4395C5.59051 16.8003 6.11061 16.2718 6.74619 16.2718H8.76943C9.81223 16.2718 10.6528 15.4257 10.6528 14.3702V13.6664C10.6528 12.8424 10.9573 12.0208 11.5692 11.4345C12.5052 10.5374 13.0884 9.27454 13.0884 7.86792C13.0884 5.06521 10.7829 2.81825 7.97788 2.95014C6.82342 3.00446 5.69462 3.57793 4.83726 4.43773C3.97994 5.29748 3.40405 6.43353 3.34282 7.59945C3.26566 9.06918 3.82478 10.3983 4.76668 11.3475C5.36676 11.952 5.76786 12.7734 5.77116 13.6652C5.77274 14.0392 5.90472 14.3471 6.08478 14.56C6.26746 14.7761 6.4899 14.8846 6.66843 14.8846H7.70446V12.7146C7.70404 12.7071 7.70383 12.6995 7.70383 12.6919V12.4858C7.35202 12.42 7.03846 12.2809 6.76552 12.0677C6.36884 11.7574 6.15908 11.3734 6.15908 10.9202V10.5476C6.15908 10.4245 6.21371 10.3212 6.30808 10.2438C6.39896 10.1638 6.50988 10.1254 6.63264 10.1254C6.75737 10.1254 6.87032 10.1631 6.96208 10.2438C7.05645 10.3212 7.11108 10.4245 7.11108 10.5476V10.9202C7.11108 11.1157 7.20106 11.2888 7.40828 11.4429C7.49856 11.5096 7.59692 11.5624 7.70383 11.6012V9.6812C7.6606 9.67085 7.61965 9.65996 7.58103 9.64851C7.40082 9.60024 7.23992 9.54428 7.09912 9.48011C6.73078 9.31336 6.46116 9.07813 6.30493 8.7695C6.20885 8.57906 6.15908 8.38335 6.15908 8.18396V7.80312C6.15908 7.34991 6.36876 6.966 6.76544 6.65564C7.03838 6.44244 7.35202 6.3033 7.70383 6.23754V6.06865C7.70383 5.94427 7.75722 5.83912 7.85283 5.76072C7.94371 5.6807 8.05463 5.64229 8.17739 5.64229C8.30212 5.64229 8.41507 5.67995 8.50683 5.76072C8.60244 5.83911 8.65583 5.94427 8.65583 6.06865V6.2377C9.00502 6.30354 9.31828 6.44254 9.59356 6.65512C9.99024 6.96549 10.2006 7.34991 10.2006 7.80312V7.93767L10.2 7.94386C10.1898 8.05255 10.1352 8.14219 10.0514 8.21052C9.95971 8.2912 9.84681 8.32882 9.72215 8.32882C9.59945 8.32882 9.48857 8.29045 9.39772 8.21051C9.31396 8.14218 9.2594 8.05254 9.24917 7.94386L9.24858 7.93767V7.80312C9.24858 7.60757 9.1586 7.43447 8.95139 7.28037C8.8611 7.2137 8.76274 7.1609 8.65583 7.12206V9.02514C9.19089 9.16941 9.59939 9.38449 9.86455 9.6809C10.0871 9.92796 10.2006 10.2173 10.2006 10.5435V10.9202C10.2006 11.3734 9.9909 11.7573 9.59422 12.0677C9.31895 12.2803 9.00503 12.4198 8.65585 12.4856V15.3635C8.65583 15.4901 8.60601 15.6118 8.51694 15.7017C8.42784 15.7917 8.30672 15.8424 8.18015 15.8424H6.66843C5.64515 15.8424 4.82479 14.8532 4.81978 13.669C4.81757 13.0677 4.54023 12.4749 4.09331 12.0247C2.96955 10.8923 2.30077 9.29577 2.39248 7.54902C2.54343 4.67464 5.08195 2.12744 7.93326 1.99329ZM8.52343 12.3732C8.89702 12.3207 9.22676 12.1841 9.51264 11.9633C9.88299 11.6736 10.0682 11.3259 10.0682 10.9202V10.5435C10.0682 10.251 9.96746 9.99293 9.76604 9.76939C9.50939 9.48238 9.09519 9.26851 8.52342 9.12776V6.94622C8.56869 6.95617 8.61281 6.96812 8.65583 6.98205C8.79186 7.02609 8.91668 7.09003 9.03021 7.1739C9.26412 7.34776 9.38107 7.55749 9.38107 7.80311V7.93143C9.38757 8.00043 9.42168 8.05976 9.4834 8.10943C9.54838 8.16739 9.62797 8.19636 9.72218 8.19636C9.81964 8.19636 9.90086 8.16739 9.96583 8.10943C10.0276 8.05976 10.0617 8.00043 10.0682 7.93143V7.80311C10.0682 7.39743 9.88299 7.04971 9.51264 6.75994C9.22676 6.53917 8.89702 6.40256 8.52342 6.35013V6.06864C8.52342 5.98585 8.4893 5.91686 8.42108 5.86166C8.35611 5.80371 8.27489 5.77473 8.17743 5.77473C8.08322 5.77473 8.00363 5.80371 7.93865 5.86166C7.87043 5.91686 7.83632 5.98585 7.83632 6.06864V6.35013C7.45947 6.40256 7.12973 6.53917 6.84709 6.75994C6.47674 7.04971 6.29157 7.39743 6.29157 7.80311V8.18395C6.29157 8.36057 6.33542 8.53581 6.42314 8.70967C6.56283 8.98564 6.80648 9.20227 7.15409 9.35958C7.28729 9.42029 7.4416 9.4741 7.61703 9.52102C7.68201 9.54034 7.7551 9.55827 7.83632 9.57483V11.7771C7.79104 11.7671 7.74686 11.7552 7.70383 11.7413C7.5678 11.6972 7.44305 11.6333 7.32952 11.5494C7.09562 11.3755 6.97866 11.1658 6.97866 10.9202V10.5476C6.97866 10.4676 6.94455 10.4 6.87633 10.3448C6.81136 10.2868 6.73014 10.2579 6.63268 10.2579C6.53847 10.2579 6.45887 10.2868 6.3939 10.3448C6.32568 10.4 6.29157 10.4676 6.29157 10.5476V10.9202C6.29157 11.3259 6.47674 11.6736 6.84709 11.9633C7.12973 12.1841 7.45947 12.3207 7.83632 12.3732V12.6919C7.83632 12.6982 7.83653 12.7044 7.83695 12.7105V15.0171H6.66846C6.21187 15.0171 5.64218 14.4767 5.63874 13.6657C5.63562 12.8139 5.25223 12.0246 4.67271 11.4408C3.70556 10.4662 3.13139 9.10104 3.21059 7.5925C3.33706 5.18428 5.58485 2.93013 7.9717 2.81783C10.8538 2.68231 13.2209 4.99123 13.2209 7.86791C13.2209 9.31202 12.6219 10.609 11.6609 11.5301C11.0781 12.0884 10.7853 12.874 10.7853 13.6664V14.3701C10.7853 15.4977 9.88652 16.4043 8.76946 16.4043H6.74623C6.18516 16.4043 5.72333 16.872 5.72589 17.4389C5.72795 18.0024 6.18808 18.4648 6.74623 18.4648H9.73214C9.92069 18.4648 10.0667 18.6121 10.0667 18.8024V18.8369C10.0667 19.0272 9.92069 19.1746 9.73214 19.1746H6.80388C6.7584 19.1739 6.71324 19.1824 6.67103 19.1995C6.62882 19.2167 6.59041 19.2421 6.55802 19.2743C6.52562 19.3066 6.4999 19.345 6.48235 19.3873C6.46479 19.4297 6.45575 19.4751 6.45575 19.5211C6.45575 19.567 6.46479 19.6124 6.48235 19.6548C6.4999 19.6971 6.52562 19.7356 6.55802 19.7678C6.59041 19.8 6.62882 19.8254 6.67103 19.8426C6.71324 19.8597 6.7584 19.8682 6.80388 19.8675H9.73214C10.2919 19.8675 10.7531 19.4019 10.7531 18.8369V18.8024C10.7531 18.2374 10.2919 17.7718 9.73214 17.7718H6.74623C6.55816 17.7718 6.41306 17.6259 6.41237 17.4362C6.41151 17.2451 6.55697 17.0972 6.74623 17.0972H8.76946C10.2576 17.0972 11.4718 15.8722 11.4718 14.3701V13.6664C11.4718 13.0467 11.7016 12.4467 12.1335 12.0329C13.225 10.9868 13.9073 9.50592 13.9073 7.86791C13.9073 4.60598 11.2027 1.97215 7.93952 2.12558C5.15718 2.25649 2.67221 4.74855 2.52478 7.55596C2.43511 9.26396 3.08888 10.8244 4.18735 11.9314C4.65471 12.4022 4.9499 13.027 4.95226 13.6684C4.95706 14.8018 5.73836 15.71 6.66846 15.71H8.18019C8.27122 15.71 8.35852 15.6735 8.42289 15.6085C8.48726 15.5435 8.52342 15.4554 8.52343 15.3635V12.3732ZM8.94699 11.4426C9.1577 11.2881 9.24858 11.115 9.24858 10.9202V10.5435C9.24858 10.4038 9.20178 10.2899 9.1066 10.1937L9.10566 10.1928L9.10474 10.1918C9.01392 10.0963 8.86748 10.0058 8.65583 9.92544L8.65584 11.5984C8.76015 11.5609 8.85732 11.5088 8.94699 11.4426ZM8.65585 11.7382C8.61276 11.7519 8.56865 11.7635 8.52343 11.7729L8.52342 9.74041C8.56947 9.75453 8.61359 9.76916 8.65583 9.78428C8.9026 9.87261 9.08427 9.97803 9.20077 10.1006C9.32097 10.222 9.38107 10.3696 9.38107 10.5435V10.9202C9.38107 11.1658 9.26249 11.3755 9.02534 11.5494C8.91239 11.6328 8.78921 11.6958 8.65585 11.7382ZM7.52932 8.86697C7.58085 8.88886 7.639 8.91024 7.70383 8.9311C7.74527 8.94443 7.78945 8.95755 7.83632 8.97046V6.94622C7.79104 6.95617 7.74686 6.96812 7.70383 6.98205C7.5678 7.02609 7.44305 7.09003 7.32952 7.1739C7.09562 7.34776 6.97866 7.55749 6.97866 7.80311V8.18395C6.97866 8.28053 7.00465 8.37988 7.05663 8.48199C7.13785 8.64206 7.29541 8.77038 7.52932 8.86697ZM7.40828 7.28037C7.20106 7.43447 7.11108 7.60757 7.11108 7.80312V8.18396C7.11108 8.25611 7.13037 8.33497 7.17463 8.42192C7.23662 8.54408 7.36332 8.65515 7.57984 8.74456L7.58106 8.74506C7.61773 8.76063 7.65861 8.77616 7.70383 8.79158V7.12206C7.59692 7.1609 7.49856 7.2137 7.40828 7.28037Z" fill="#1C2230"/>
<path fill-rule="evenodd" clip-rule="evenodd" d="M10.2639 19.8676C10.6324 19.6722 10.8856 19.2816 10.8856 18.8369V18.8024C10.8856 18.1655 10.3661 17.6394 9.73211 17.6394H6.74619C6.63229 17.6394 6.54531 17.5527 6.54479 17.4349C6.54425 17.3161 6.63138 17.2296 6.74619 17.2296H8.76943C10.3318 17.2296 11.6042 15.9443 11.6042 14.3702V13.6664C11.6042 13.0781 11.8224 12.5143 12.2251 12.1285C13.3417 11.0583 14.0397 9.54337 14.0397 7.86792C14.0397 4.53197 11.2735 1.83623 7.93326 1.99329C5.08195 2.12744 2.54343 4.67464 2.39248 7.54902C2.30077 9.29577 2.96955 10.8923 4.09331 12.0247C4.54023 12.4749 4.81757 13.0677 4.81978 13.669C4.82479 14.8532 5.64515 15.8424 6.66843 15.8424H8.18015C8.30672 15.8424 8.42784 15.7917 8.51694 15.7017C8.60601 15.6118 8.65583 15.4901 8.65585 15.3635V12.4856C9.00503 12.4198 9.31895 12.2803 9.59422 12.0677C9.9909 11.7573 10.2006 11.3734 10.2006 10.9202V10.5435C10.2006 10.2173 10.0871 9.92796 9.86455 9.6809C9.59939 9.38449 9.19089 9.16941 8.65583 9.02514V7.12206C8.76274 7.1609 8.8611 7.2137 8.95139 7.28037C9.1586 7.43447 9.24858 7.60757 9.24858 7.80312V7.93767L9.24917 7.94386C9.2594 8.05254 9.31396 8.14218 9.39772 8.21051C9.48857 8.29045 9.59945 8.32882 9.72215 8.32882C9.84681 8.32882 9.95971 8.2912 10.0514 8.21052C10.1352 8.14219 10.1898 8.05255 10.2 7.94386L10.2006 7.93767V7.80312C10.2006 7.34991 9.99024 6.96549 9.59356 6.65512C9.31828 6.44254 9.00502 6.30354 8.65583 6.2377V6.06865C8.65583 5.94427 8.60244 5.83911 8.50683 5.76072C8.41507 5.67995 8.30212 5.64229 8.17739 5.64229C8.05463 5.64229 7.94371 5.6807 7.85283 5.76072C7.75722 5.83912 7.70383 5.94427 7.70383 6.06865V6.23754C7.35202 6.3033 7.03838 6.44244 6.76544 6.65564C6.36876 6.966 6.15908 7.34991 6.15908 7.80312V8.18396C6.15908 8.38335 6.20885 8.57906 6.30493 8.7695C6.46116 9.07813 6.73078 9.31336 7.09912 9.48011C7.23992 9.54428 7.40082 9.60024 7.58103 9.64851C7.61965 9.65996 7.6606 9.67085 7.70383 9.6812V11.6012C7.59692 11.5624 7.49856 11.5096 7.40828 11.4429C7.20106 11.2888 7.11108 11.1157 7.11108 10.9202V10.5476C7.11108 10.4245 7.05645 10.3212 6.96208 10.2438C6.87032 10.1631 6.75737 10.1254 6.63264 10.1254C6.50988 10.1254 6.39896 10.1638 6.30808 10.2438C6.21371 10.3212 6.15908 10.4245 6.15908 10.5476V10.9202C6.15908 11.3734 6.36884 11.7574 6.76552 12.0677C7.03846 12.2809 7.35202 12.42 7.70383 12.4858V12.6919C7.70383 12.6995 7.70404 12.7071 7.70446 12.7146V14.8846H6.66843C6.4899 14.8846 6.26746 14.7761 6.08478 14.56C5.90472 14.3471 5.77274 14.0392 5.77116 13.6652C5.76786 12.7734 5.36676 11.952 4.76668 11.3475C3.82478 10.3983 3.26566 9.06918 3.34282 7.59945C3.40405 6.43353 3.97994 5.29748 4.83726 4.43773C5.69462 3.57793 6.82342 3.00446 7.97788 2.95014C10.7829 2.81825 13.0884 5.06521 13.0884 7.86792C13.0884 9.27454 12.5052 10.5374 11.5692 11.4345C10.9573 12.0208 10.6528 12.8424 10.6528 13.6664V14.3702C10.6528 15.4257 9.81223 16.2718 8.76943 16.2718H6.74619C6.11061 16.2718 5.59051 16.8003 5.59341 17.4395C5.59579 18.0749 6.11403 18.5972 6.74619 18.5972H9.73211C9.84635 18.5972 9.93418 18.6841 9.93418 18.8024V18.8369C9.93418 18.9553 9.84635 19.0422 9.73211 19.0422H6.80474C6.74187 19.0414 6.67949 19.0532 6.62121 19.0768C6.56262 19.1006 6.50938 19.1358 6.46455 19.1804C6.41972 19.2251 6.38418 19.2782 6.35996 19.3366C6.33573 19.3951 6.32327 19.4578 6.32327 19.5211C6.32327 19.5844 6.33573 19.647 6.35996 19.7055C6.38418 19.764 6.41972 19.8171 6.46455 19.8617L6.47055 19.8676H10.2639ZM2.52478 7.55596C2.67221 4.74855 5.15718 2.25649 7.93952 2.12558C11.2027 1.97215 13.9073 4.60598 13.9073 7.86791C13.9073 9.50592 13.225 10.9868 12.1335 12.0329C11.7016 12.4467 11.4718 13.0467 11.4718 13.6664V14.3701C11.4718 15.8722 10.2576 17.0972 8.76946 17.0972H6.74623C6.55697 17.0972 6.41151 17.2451 6.41237 17.4362C6.41306 17.6259 6.55816 17.7718 6.74623 17.7718H9.73214C10.2919 17.7718 10.7531 18.2374 10.7531 18.8024V18.8369C10.7531 19.4019 10.2919 19.8675 9.73214 19.8675H6.80388C6.7584 19.8682 6.71324 19.8597 6.67103 19.8426C6.62882 19.8254 6.59041 19.8 6.55802 19.7678C6.52562 19.7356 6.4999 19.6971 6.48235 19.6548C6.46479 19.6124 6.45575 19.567 6.45575 19.5211C6.45575 19.4751 6.46479 19.4297 6.48235 19.3873C6.4999 19.345 6.52562 19.3066 6.55802 19.2743C6.59041 19.2421 6.62882 19.2167 6.67103 19.1995C6.71324 19.1824 6.7584 19.1739 6.80388 19.1746H9.73214C9.92069 19.1746 10.0667 19.0272 10.0667 18.8369V18.8024C10.0667 18.6121 9.92069 18.4648 9.73214 18.4648H6.74623C6.18808 18.4648 5.72795 18.0024 5.72589 17.4389C5.72333 16.872 6.18516 16.4043 6.74623 16.4043H8.76946C9.88652 16.4043 10.7853 15.4977 10.7853 14.3701V13.6664C10.7853 12.874 11.0781 12.0884 11.6609 11.5301C12.6219 10.609 13.2209 9.31202 13.2209 7.86791C13.2209 4.99123 10.8538 2.68231 7.9717 2.81783C5.58485 2.93013 3.33706 5.18428 3.21059 7.5925C3.13139 9.10104 3.70556 10.4662 4.67271 11.4408C5.25223 12.0246 5.63562 12.8139 5.63874 13.6657C5.64218 14.4767 6.21187 15.0171 6.66846 15.0171H7.83695V12.7105C7.83653 12.7044 7.83632 12.6982 7.83632 12.6919V12.3732C7.45947 12.3207 7.12973 12.1841 6.84709 11.9633C6.47674 11.6736 6.29157 11.3259 6.29157 10.9202V10.5476C6.29157 10.4676 6.32568 10.4 6.3939 10.3448C6.45887 10.2868 6.53847 10.2579 6.63268 10.2579C6.73014 10.2579 6.81136 10.2868 6.87633 10.3448C6.94455 10.4 6.97866 10.4676 6.97866 10.5476V10.9202C6.97866 11.1658 7.09562 11.3755 7.32952 11.5494C7.47896 11.6598 7.64789 11.7357 7.83632 11.7771V9.57483C7.7551 9.55827 7.68201 9.54034 7.61703 9.52102C7.4416 9.4741 7.28729 9.42029 7.15409 9.35958C6.80648 9.20227 6.56283 8.98564 6.42314 8.70967C6.33542 8.53581 6.29157 8.36057 6.29157 8.18395V7.80311C6.29157 7.39743 6.47674 7.04971 6.84709 6.75994C7.12973 6.53917 7.45947 6.40256 7.83632 6.35013V6.06864C7.83632 5.98585 7.87043 5.91686 7.93865 5.86166C8.00363 5.80371 8.08322 5.77473 8.17743 5.77473C8.27489 5.77473 8.35611 5.80371 8.42108 5.86166C8.4893 5.91686 8.52342 5.98585 8.52342 6.06864V6.35013C8.89702 6.40256 9.22676 6.53917 9.51264 6.75994C9.88299 7.04971 10.0682 7.39743 10.0682 7.80311V7.93143C10.0617 8.00043 10.0276 8.05976 9.96583 8.10943C9.90086 8.16739 9.81964 8.19636 9.72218 8.19636C9.62797 8.19636 9.54838 8.16739 9.4834 8.10943C9.42168 8.05976 9.38757 8.00043 9.38107 7.93143V7.80311C9.38107 7.55749 9.26412 7.34776 9.03021 7.1739C8.88077 7.06351 8.71184 6.98762 8.52342 6.94622V9.12776C9.09519 9.26851 9.50939 9.48238 9.76604 9.76939C9.96746 9.99293 10.0682 10.251 10.0682 10.5435V10.9202C10.0682 11.3259 9.88299 11.6736 9.51264 11.9633C9.22676 12.1841 8.89702 12.3207 8.52343 12.3732V15.3635C8.52342 15.4554 8.48726 15.5435 8.42289 15.6085C8.35852 15.6735 8.27122 15.71 8.18019 15.71H6.66846C5.73836 15.71 4.95706 14.8018 4.95226 13.6684C4.9499 13.027 4.65471 12.4022 4.18735 11.9314C3.08888 10.8244 2.43511 9.26396 2.52478 7.55596Z" fill="#1C2230"/>
<path d="M8.1659 0C4.146 0 1.6163 2.37363 0.563622 5.21597C-0.488317 8.0563 -0.0668637 11.2646 1.82047 13.1462C2.92918 14.2516 3.72474 16.3251 3.96922 17.1948C4.03796 17.4394 4.08479 17.4454 4.11661 17.4495C4.14137 17.4527 4.15703 17.4548 4.16684 17.5672C4.17805 17.6956 4.18162 17.7967 4.18239 17.8656C4.18278 17.9001 4.18246 17.9265 4.18206 17.9442L4.18145 17.9642L4.18124 17.9692L4.18118 17.9704L4.18113 17.9714C4.18113 18.6133 4.23851 18.6794 4.33265 18.7867C4.37428 18.8342 4.4231 18.8898 4.47732 19.0071C4.62036 19.3166 4.80097 19.5164 4.98165 19.7163C5.02414 19.7633 5.06664 19.8103 5.10866 19.8588L5.11625 19.8676H6.47055L6.46455 19.8617C6.41972 19.8171 6.38418 19.764 6.35996 19.7055C6.33573 19.647 6.32327 19.5844 6.32327 19.5211C6.32327 19.4578 6.33573 19.3951 6.35996 19.3366C6.38418 19.2782 6.41972 19.2251 6.46455 19.1804C6.50938 19.1358 6.56262 19.1006 6.62121 19.0768C6.67949 19.0532 6.74187 19.0414 6.80474 19.0422H9.73211C9.84635 19.0422 9.93418 18.9553 9.93418 18.8369V18.8024C9.93418 18.6841 9.84635 18.5972 9.73211 18.5972H6.74619C6.11403 18.5972 5.59579 18.0749 5.59341 17.4395C5.59051 16.8003 6.11061 16.2718 6.74619 16.2718H8.76943C9.81223 16.2718 10.6528 15.4257 10.6528 14.3702V13.6664C10.6528 12.8424 10.9573 12.0208 11.5692 11.4345C12.5052 10.5374 13.0884 9.27454 13.0884 7.86792C13.0884 5.06521 10.7829 2.81825 7.97788 2.95014C6.82342 3.00446 5.69462 3.57793 4.83726 4.43773C3.97994 5.29748 3.40405 6.43353 3.34282 7.59945C3.26566 9.06918 3.82478 10.3983 4.76668 11.3475C5.36676 11.952 5.76786 12.7734 5.77116 13.6652C5.77274 14.0392 5.90472 14.3471 6.08478 14.56C6.26746 14.7761 6.4899 14.8846 6.66843 14.8846H7.70446V12.7146C7.70404 12.7071 7.70383 12.6995 7.70383 12.6919V12.4858C7.35202 12.42 7.03846 12.2809 6.76552 12.0677C6.36884 11.7574 6.15908 11.3734 6.15908 10.9202V10.5476C6.15908 10.4245 6.21371 10.3212 6.30808 10.2438C6.39896 10.1638 6.50988 10.1254 6.63264 10.1254C6.75737 10.1254 6.87032 10.1631 6.96208 10.2438C7.05645 10.3212 7.11108 10.4245 7.11108 10.5476V10.9202C7.11108 11.1157 7.20106 11.2888 7.40828 11.4429C7.49856 11.5096 7.59692 11.5624 7.70383 11.6012V9.6812C7.6606 9.67085 7.61965 9.65996 7.58103 9.64851C7.40082 9.60024 7.23992 9.54428 7.09912 9.48011C6.73078 9.31336 6.46116 9.07813 6.30493 8.7695C6.20885 8.57906 6.15908 8.38335 6.15908 8.18396V7.80312C6.15908 7.34991 6.36876 6.966 6.76544 6.65564C7.03838 6.44244 7.35202 6.3033 7.70383 6.23754V6.06865C7.70383 5.94427 7.75722 5.83912 7.85283 5.76072C7.94371 5.6807 8.05463 5.64229 8.17739 5.64229C8.30212 5.64229 8.41507 5.67995 8.50683 5.76072C8.60244 5.83911 8.65583 5.94427 8.65583 6.06865V6.2377C9.00502 6.30354 9.31828 6.44254 9.59356 6.65512C9.99024 6.96549 10.2006 7.34991 10.2006 7.80312V7.93767L10.2 7.94386C10.1898 8.05255 10.1352 8.14219 10.0514 8.21052C9.95971 8.2912 9.84681 8.32882 9.72215 8.32882C9.59945 8.32882 9.48857 8.29045 9.39772 8.21051C9.31396 8.14218 9.2594 8.05254 9.24917 7.94386L9.24858 7.93767V7.80312C9.24858 7.60757 9.1586 7.43447 8.95139 7.28037C8.8611 7.2137 8.76274 7.1609 8.65583 7.12206V9.02514C9.19089 9.16941 9.59939 9.38449 9.86455 9.6809C10.0871 9.92796 10.2006 10.2173 10.2006 10.5435V10.9202C10.2006 11.3734 9.9909 11.7573 9.59422 12.0677C9.31895 12.2803 9.00503 12.4198 8.65585 12.4856V15.3635C8.65583 15.4901 8.60601 15.6118 8.51694 15.7017C8.42784 15.7917 8.30672 15.8424 8.18015 15.8424H6.66843C5.64515 15.8424 4.82479 14.8532 4.81978 13.669C4.81757 13.0677 4.54023 12.4749 4.09331 12.0247C2.96955 10.8923 2.30077 9.29577 2.39248 7.54902C2.54343 4.67464 5.08195 2.12744 7.93326 1.99329C11.2735 1.83623 14.0397 4.53197 14.0397 7.86792C14.0397 9.54337 13.3417 11.0583 12.2251 12.1285C11.8224 12.5143 11.6042 13.0781 11.6042 13.6664V14.3702C11.6042 15.9443 10.3318 17.2296 8.76943 17.2296H6.74619C6.63138 17.2296 6.54425 17.3161 6.54479 17.4349C6.54531 17.5527 6.63229 17.6394 6.74619 17.6394H9.73211C10.3661 17.6394 10.8856 18.1655 10.8856 18.8024V18.8369C10.8856 19.2816 10.6324 19.6722 10.2639 19.8676H11.2156L11.2232 19.8588C11.2651 19.8104 11.3076 19.7634 11.3501 19.7164C11.5308 19.5165 11.7115 19.3166 11.8545 19.0071C11.9087 18.8898 11.9575 18.8342 11.9992 18.7867C12.0933 18.6794 12.1507 18.614 12.1507 17.9721L12.1506 17.9707L12.1506 17.9692L12.1504 17.9642L12.1498 17.9442C12.1494 17.9265 12.149 17.9001 12.1494 17.8656C12.1502 17.7967 12.1538 17.6956 12.165 17.5672C12.1748 17.4548 12.1904 17.4527 12.2152 17.4495C12.247 17.4454 12.2939 17.4394 12.3626 17.1948C12.6071 16.3251 13.4026 14.2516 14.5113 13.1462C16.3987 11.2646 16.8201 8.0563 15.7682 5.21597C14.7155 2.37363 12.1858 0 8.1659 0Z" fill="#FFF500"/>
<path fill-rule="evenodd" clip-rule="evenodd" d="M8.52343 11.7729C8.7086 11.7343 8.8759 11.6598 9.02534 11.5494C9.26249 11.3755 9.38107 11.1658 9.38107 10.9202V10.5435C9.38107 10.3696 9.32097 10.222 9.20077 10.1006C9.06432 9.95705 8.83854 9.837 8.52342 9.74041L8.52343 11.7729ZM8.94699 11.4426C9.1577 11.2881 9.24858 11.115 9.24858 10.9202V10.5435C9.24858 10.4038 9.20178 10.2899 9.1066 10.1937L9.10566 10.1928L9.10474 10.1918C9.01392 10.0963 8.86748 10.0058 8.65583 9.92544L8.65584 11.5984C8.76015 11.5609 8.85732 11.5088 8.94699 11.4426Z" fill="#1C2230"/>
<path d="M9.24858 10.9202C9.24858 11.115 9.1577 11.2881 8.94699 11.4426C8.85732 11.5088 8.76015 11.5609 8.65584 11.5984L8.65583 9.92544C8.86748 10.0058 9.01392 10.0963 9.10474 10.1918L9.10566 10.1928L9.1066 10.1937C9.20178 10.2899 9.24858 10.4038 9.24858 10.5435V10.9202Z" fill="#FFF500"/>
<path fill-rule="evenodd" clip-rule="evenodd" d="M7.52932 8.86697C7.61378 8.90285 7.71612 8.93734 7.83632 8.97046V6.94622C7.64789 6.98762 7.47896 7.06351 7.32952 7.1739C7.09562 7.34776 6.97866 7.55749 6.97866 7.80311V8.18395C6.97866 8.28053 7.00465 8.37988 7.05663 8.48199C7.13785 8.64206 7.29541 8.77038 7.52932 8.86697ZM7.40828 7.28037C7.20106 7.43447 7.11108 7.60757 7.11108 7.80312V8.18396C7.11108 8.25611 7.13037 8.33497 7.17463 8.42192C7.23662 8.54408 7.36332 8.65515 7.57984 8.74456L7.58106 8.74506C7.61773 8.76063 7.65861 8.77616 7.70383 8.79158V7.12206C7.59692 7.1609 7.49856 7.2137 7.40828 7.28037Z" fill="#1C2230"/>
<path d="M7.11108 7.80312C7.11108 7.60757 7.20106 7.43447 7.40828 7.28037C7.49856 7.2137 7.59692 7.1609 7.70383 7.12206V8.79158C7.65861 8.77616 7.61773 8.76063 7.58106 8.74506L7.57984 8.74456C7.36332 8.65515 7.23662 8.54408 7.17463 8.42192C7.13037 8.33497 7.11108 8.25611 7.11108 8.18396V7.80312Z" fill="#FFF500"/>
<path d="M27.2643 20C25.4368 20 23.9312 19.591 22.7477 18.773C21.5816 17.9375 20.9985 16.7714 20.9985 15.2746C20.9985 15.118 21.0159 14.883 21.0507 14.5697H24.7841C24.7145 15.3007 24.9059 15.9012 25.3584 16.3711C25.8284 16.841 26.5072 17.076 27.3948 17.076C28.2825 17.076 28.9786 16.8933 29.4834 16.5277C30.0055 16.1448 30.2666 15.6053 30.2666 14.9091C30.2666 14.2651 29.9968 13.7517 29.4573 13.3688C28.9351 12.9859 28.1084 12.5595 26.9771 12.0895C25.9328 11.6544 25.08 11.2541 24.4186 10.8886C23.7746 10.5231 23.2176 10.0183 22.7477 9.37437C22.2952 8.71299 22.0689 7.88626 22.0689 6.89418C22.0689 5.76287 22.3561 4.7795 22.9305 3.94407C23.5222 3.10863 24.3229 2.46466 25.3323 2.01213C26.3592 1.55961 27.5253 1.33334 28.8307 1.33334C30.1187 1.33334 31.2326 1.5509 32.1724 1.98602C33.1297 2.40374 33.8433 3.00421 34.3132 3.78742C34.8006 4.57064 35.0094 5.48439 34.9398 6.52868H31.0498L31.0759 6.2415C31.0759 5.66714 30.8584 5.19721 30.4232 4.83171C30.0055 4.46621 29.4138 4.28346 28.648 4.28346C27.8299 4.28346 27.1685 4.47491 26.6638 4.85782C26.1591 5.24072 25.9067 5.76287 25.9067 6.42425C25.9067 6.85937 26.0459 7.24228 26.3244 7.57297C26.6203 7.88626 26.9771 8.16473 27.3948 8.4084C27.8125 8.63466 28.413 8.93055 29.1962 9.29605C30.2231 9.74857 31.0672 10.175 31.7286 10.5753C32.39 10.9756 32.9556 11.5065 33.4256 12.1678C33.8955 12.8292 34.1305 13.6385 34.1305 14.5958C34.1305 15.6401 33.8433 16.5713 33.2689 17.3893C32.712 18.2073 31.9114 18.8513 30.8671 19.3212C29.8402 19.7737 28.6393 20 27.2643 20Z" fill="white"/>
<path d="M59.3853 1.59442L56.1741 19.8173H52.493L54.5816 8.01679L47.6371 19.8173H44.8436L42.0501 7.99069L39.9616 19.8173H36.2804L39.5177 1.59442H43.6688L47.0888 15.118L55.2343 1.59442H59.3853Z" fill="white"/>
<path d="M71.5621 16.345H64.2782L62.4768 19.8173H58.639L68.4292 1.56831H72.6847L76.0003 19.8173H72.1365L71.5621 16.345ZM71.0922 13.4993L69.7868 5.77157L65.7663 13.4993H71.0922Z" fill="white"/>
<path d="M88.5271 1.59442C90.3894 1.59442 91.7992 2.02083 92.7565 2.87367C93.7138 3.7091 94.1924 4.8056 94.1924 6.16318C94.1924 6.49387 94.1663 6.83327 94.1141 7.18136C93.9052 8.36489 93.3657 9.44399 92.4954 10.4187C91.6426 11.3759 90.4939 12.046 89.0493 12.4289L92.1038 19.8173H87.8483L85.1332 12.7161H83.384L82.1308 19.8173H78.4497L81.687 1.59442H88.5271ZM90.3546 7.25968C90.3894 6.9464 90.4068 6.73754 90.4068 6.63311C90.4068 5.97173 90.198 5.45828 89.7803 5.09278C89.3625 4.72728 88.7273 4.54453 87.8744 4.54453H84.8199L83.8539 10.0009H86.9085C87.8831 10.0009 88.6577 9.75727 89.232 9.26994C89.8238 8.78261 90.198 8.11252 90.3546 7.25968Z" fill="white"/>
<path d="M110.813 1.59442L110.291 4.46621H105.461L102.746 19.8173H99.0646L101.78 4.46621H96.9239L97.446 1.59442H110.813Z" fill="white"/>
<path fill-rule="evenodd" clip-rule="evenodd" d="M124.784 6.16318C124.593 7.29449 124.131 8.21695 123.4 8.93055C122.669 9.62674 121.799 10.1141 120.79 10.3925C121.66 10.5492 122.365 10.9756 122.904 11.6718C123.461 12.3506 123.74 13.1686 123.74 14.1259C123.74 14.3696 123.714 14.6393 123.662 14.9352C123.505 15.8577 123.131 16.6931 122.539 17.4415C121.947 18.1725 121.164 18.7556 120.189 19.1907C119.232 19.6084 118.135 19.8173 116.9 19.8173H110.582L113.793 1.56831H119.954C121.573 1.56831 122.791 1.9077 123.609 2.58649C124.445 3.26528 124.862 4.16162 124.862 5.27553C124.862 5.55401 124.836 5.84989 124.784 6.16318ZM122.957 5.66714C122.957 5.96302 122.939 6.18929 122.904 6.34593C122.713 7.37281 122.226 8.18214 121.442 8.7739C120.677 9.36567 119.685 9.66155 118.466 9.66155H114.211L115.359 3.03031H119.537C120.668 3.03031 121.521 3.26528 122.095 3.73521C122.669 4.20514 122.957 4.84912 122.957 5.66714ZM121.938 14.0215C121.938 14.2477 121.912 14.4914 121.86 14.7525C121.669 15.8664 121.147 16.7453 120.294 17.3893C119.441 18.0159 118.353 18.3291 117.03 18.3291H112.67L113.924 11.1497H118.205C119.371 11.1497 120.285 11.4107 120.946 11.9329C121.608 12.4376 121.938 13.1338 121.938 14.0215Z" fill="#FFF500"/>
<path d="M130.937 3.0042L129.736 9.89651H136.655L136.42 11.3585H129.475L128.248 18.3553H135.95L135.689 19.8173H126.159L129.371 1.5422H138.926L138.639 3.0042H130.937Z" fill="#FFF500"/>
<path d="M153.205 1.56831L152.944 3.03031H147.853L144.903 19.8173H143.075L146.025 3.03031H140.96L141.221 1.56831H153.205Z" fill="#FFF500"/>
</svg>
